<svg width="308" height="262" viewBox="0 0 808 762" fill="none" xmlns="http://www.w3.org/2000/svg">
<g clip-path="url(#clip0_811_2)">
<path opacity="0.18" d="M106.263 601.391C95.8039 559.648 117.222 514.37 98.6378 474.553C83.3098 441.791 44.34 420.562 21.4655 390.862C-7.84406 352.818 -7.06122 300.817 23.3756 263.373C55.5659 223.823 113.026 204.01 158.243 174.068C187.725 154.523 212.322 130.334 242.79 111.848C273.258 93.3617 312.744 80.808 349.256 89.394C372.663 94.9054 391.983 108.365 414.451 116.032C465.163 133.357 522.639 119.158 577.485 115.688C625.364 112.685 673.474 118.129 718.537 131.648C747.079 140.221 775.324 152.851 791.952 173.608C809.44 195.45 811.554 223.785 803.475 249.02C795.396 274.255 778.095 296.875 758.947 317.772C729.199 350.151 692.249 388.004 708.266 426.214C718.412 450.453 747.22 465.763 766.384 486.022C807.875 529.986 795.521 601.021 740.723 633.847C718.474 647.166 690.621 654.911 673.273 672.414C663.676 682.097 658.07 694.103 648.222 703.658C622.796 728.523 577.579 730.45 537.873 730.194C489.682 729.888 441.501 729.276 393.33 728.357C350.916 727.554 292.359 734.405 251.886 724.032C191.968 708.647 118.96 652.027 106.263 601.391Z" fill="#FF9800"/>
<path opacity="0.19" d="M181.447 691.194C157.961 696.782 130.077 708.8 132.018 728.677C134.006 749.013 165.07 756.999 189.948 758.887C237.326 762.459 285.016 762.14 332.597 761.809L531.642 760.444C577.595 760.125 623.861 759.78 668.936 752.534C683.215 750.237 698.074 746.92 708.391 738.5C718.709 730.08 722.389 715.243 712.588 706.465C703.46 698.3 687.631 698.67 675.669 693.465C662.298 687.647 655.158 675.604 644.355 666.941C620.635 648.098 583.372 648.098 550.227 649.259L333.177 657.029C306.216 657.985 268.984 653.712 243.635 662.132C222.029 669.174 208.392 691.194 181.447 691.194Z" fill="url(#paint0_linear_811_2)"/>
<path d="M579.536 189.913H264.678C244.219 189.913 227.634 203.427 227.634 220.098V709.578C227.634 726.249 244.219 739.763 264.678 739.763H579.536C599.995 739.763 616.58 726.249 616.58 709.578V220.098C616.58 203.427 599.995 189.913 579.536 189.913Z" fill="url(#paint1_linear_811_2)"/>
<path d="M594.066 189.913H279.208C258.749 189.913 242.164 203.427 242.164 220.098V709.578C242.164 726.249 258.749 739.763 279.208 739.763H594.066C614.524 739.763 631.11 726.249 631.11 709.578V220.098C631.11 203.427 614.524 189.913 594.066 189.913Z" fill="#FF9800"/>
<path d="M612.494 233.162V642.995C612.494 649.979 609.089 656.676 603.029 661.615C596.968 666.553 588.749 669.327 580.178 669.327H293.095C284.526 669.324 276.309 666.548 270.249 661.611C264.19 656.673 260.784 649.978 260.779 642.995V233.162C260.784 226.18 264.19 219.484 270.249 214.546C276.309 209.609 284.526 206.833 293.095 206.83H370.205V215.607C370.205 217.429 370.645 219.232 371.5 220.914C372.356 222.597 373.609 224.126 375.19 225.413C376.77 226.701 378.646 227.723 380.711 228.42C382.776 229.117 384.989 229.475 387.224 229.475H501.784C506.298 229.475 510.627 228.014 513.819 225.413C517.01 222.813 518.803 219.285 518.803 215.607V206.881H580.178C588.738 206.881 596.948 209.648 603.007 214.576C609.065 219.503 612.477 226.187 612.494 233.162Z" fill="url(#paint2_linear_811_2)"/>
<path opacity="0.19" d="M502.74 213.757C497.964 217.432 490.919 219.6 488.555 224.601C486.597 228.735 488.633 233.328 489.337 237.717C490.903 247.578 485.783 257.185 482.386 266.741C479.03 276.185 477.348 285.971 477.391 295.803C477.391 300.625 477.751 305.792 474.636 309.837C471.52 313.881 463.238 315.68 459.793 311.763C459.083 310.896 458.554 309.939 458.227 308.931C452.638 294.323 456.004 278.542 455.769 263.194C455.534 247.846 449.663 230.598 432.942 223.543C429.276 250.219 423.47 276.672 415.563 302.73C413.872 308.344 410.177 315.169 403.037 315.042C401.722 306.775 401.205 298.457 400.689 290.113L394.833 195.207C394.676 192.656 394.551 189.824 396.007 187.553C398.184 184.032 403.241 182.45 407.891 181.352C425.551 177.075 443.807 174.644 462.22 174.119C474.542 173.762 492.704 175.726 501.55 183.84C509.801 191.367 512.275 206.409 502.74 213.757Z" fill="url(#paint3_linear_811_2)"/>
<path d="M472.318 719.223H409.002C403.87 719.223 398.948 717.562 395.319 714.605C391.689 711.647 389.651 707.637 389.651 703.454C389.642 701.38 390.137 699.325 391.106 697.406C392.075 695.488 393.499 693.744 395.297 692.276C397.095 690.807 399.232 689.642 401.583 688.848C403.935 688.054 406.456 687.646 409.002 687.647H472.318C474.858 687.647 477.372 688.055 479.718 688.847C482.064 689.639 484.196 690.799 485.991 692.262C487.787 693.725 489.211 695.462 490.183 697.374C491.154 699.285 491.655 701.334 491.655 703.403C491.665 705.478 491.172 707.534 490.205 709.453C489.238 711.371 487.815 713.116 486.019 714.586C484.222 716.056 482.087 717.222 479.736 718.018C477.385 718.814 474.864 719.223 472.318 719.223Z" fill="url(#paint4_linear_811_2)"/>
<path d="M388.645 406.621C393.291 390.581 381.1 374.509 361.416 370.724C341.731 366.938 322.007 376.872 317.361 392.911C312.715 408.951 324.907 425.023 344.591 428.809C364.276 432.595 383.999 422.661 388.645 406.621Z" stroke="white" stroke-width="0.82" stroke-miterlimit="10"/>
<path d="M482.794 406.617C487.44 390.578 475.249 374.506 455.564 370.72C435.88 366.934 416.156 376.868 411.51 392.908C406.864 408.948 419.055 425.02 438.74 428.805C458.424 432.591 478.148 422.657 482.794 406.617Z" stroke="white" stroke-width="0.82" stroke-miterlimit="10"/>
<path d="M576.926 406.615C581.572 390.576 569.381 374.504 549.697 370.718C530.012 366.932 510.288 376.866 505.642 392.906C500.996 408.946 513.188 425.018 532.872 428.803C552.557 432.589 572.28 422.655 576.926 406.615Z" stroke="white" stroke-width="0.82" stroke-miterlimit="10"/>
<path d="M388.649 485.675C393.295 469.635 381.104 453.563 361.419 449.777C341.735 445.992 322.011 455.925 317.365 471.965C312.719 488.005 324.91 504.077 344.595 507.862C364.279 511.648 384.003 501.714 388.649 485.675Z" stroke="white" stroke-width="0.82" stroke-miterlimit="10"/>
<path d="M482.783 485.671C487.429 469.631 475.238 453.56 455.553 449.774C435.868 445.988 416.145 455.922 411.499 471.962C406.853 488.002 419.044 504.073 438.728 507.859C458.413 511.645 478.137 501.711 482.783 485.671Z" stroke="white" stroke-width="0.82" stroke-miterlimit="10"/>
<path d="M486.239 618.974C505.579 603.215 505.579 577.665 486.239 561.907C466.9 546.148 435.544 546.148 416.204 561.907C396.864 577.665 396.864 603.215 416.204 618.974C435.544 634.733 466.9 634.733 486.239 618.974Z" fill="#FF9100"/>
<path d="M576.93 485.669C581.576 469.629 569.385 453.558 549.7 449.772C530.016 445.986 510.292 455.92 505.646 471.96C501 488 513.191 504.071 532.876 507.857C552.56 511.643 572.284 501.709 576.93 485.669Z" stroke="white" stroke-width="0.82" stroke-miterlimit="10"/>
<path d="M420.761 588.443C420.419 588.439 420.083 588.367 419.783 588.233C419.483 588.099 419.227 587.907 419.039 587.674C418.851 587.442 418.735 587.175 418.702 586.897C418.669 586.62 418.72 586.34 418.85 586.082C420.541 582.587 425.113 571.666 450.712 571.666C474.886 571.666 480.335 582.561 482.12 586.057C482.256 586.315 482.312 586.596 482.283 586.876C482.255 587.156 482.141 587.426 481.954 587.662C481.767 587.898 481.511 588.092 481.21 588.229C480.908 588.365 480.57 588.438 480.225 588.443H470.549C470.181 588.443 469.82 588.363 469.503 588.21C469.186 588.057 468.926 587.838 468.749 587.575C467.48 585.661 464.6 576.463 450.258 576.463C438.578 576.463 434.241 581.566 431.83 587.282C431.691 587.616 431.428 587.907 431.078 588.115C430.727 588.323 430.306 588.438 429.873 588.443H420.761Z" fill="white"/>
<path d="M430.844 586.873H418.412C415.213 586.873 412.619 588.986 412.619 591.593V593.571C412.619 596.178 415.213 598.291 418.412 598.291H430.844C434.043 598.291 436.637 596.178 436.637 593.571V591.593C436.637 588.986 434.043 586.873 430.844 586.873Z" fill="white"/>
<path d="M481.352 586.873H468.921C465.721 586.873 463.128 588.986 463.128 591.593V593.571C463.128 596.178 465.721 598.291 468.921 598.291H481.352C484.552 598.291 487.145 596.178 487.145 593.571V591.593C487.145 588.986 484.552 586.873 481.352 586.873Z" fill="white"/>
<path d="M408.345 104.193C405.855 100.851 396.367 82.6325 392.892 76.126L380.617 53.3022C379.994 54.3526 379.671 55.5039 379.671 56.6703C379.671 57.8367 379.994 58.9881 380.617 60.0384C372.454 60.3563 364.327 61.1107 356.286 62.2965C353.515 62.7048 350.133 63.6999 349.898 65.9835C349.726 67.54 351.182 68.8668 352.622 69.9002C357.511 73.3624 363.356 75.8092 369.657 77.0318C373.148 77.708 377.156 78.1928 379.223 80.5785C380.241 81.9857 380.842 83.5671 380.977 85.1968C382.882 95.6748 385.522 106.055 388.883 116.288C390.073 119.936 391.936 124.07 396.336 125.218C399.154 125.971 402.207 125.218 405.01 124.453C413.527 122.118 422.06 119.35 429.012 114.718C437.357 109.131 466.588 78.9965 452.121 71.9032C445.044 68.4203 425.88 87.0084 422.123 90.7975C416.408 96.6151 415.296 99.2815 408.345 104.193Z" fill="url(#paint5_linear_811_2)"/>
<path d="M576.796 143.334C573.795 144.682 570.474 145.491 567.058 145.707C564.866 145.95 562.627 146.103 560.404 146.179C547.048 146.626 533.38 144.125 523.078 137.325C517.598 133.702 513.167 128.969 507.061 126.073C502.376 124.047 497.247 122.794 491.968 122.386C487.678 121.914 483.294 121.697 479.02 121.276C469.469 120.345 458.979 117.64 454.548 110.674C451.417 105.877 452.027 100.123 452.982 94.7652C454.798 84.5589 457.789 74.3526 458.321 63.955C458.619 58.3415 458.102 52.4729 454.407 47.7143C451.933 44.5503 448.238 42.1774 445.342 39.2686C437.232 31.1036 442.837 18.1671 453.499 13.3064C455.525 12.5558 457.451 11.6366 459.245 10.5634C461.421 9.00699 462.611 6.7361 464.521 4.95C469.86 -0.0765879 479.254 -0.191409 487.318 0.0892639L501.174 0.574062C505.652 0.727156 510.818 1.1992 513.198 4.28659C515.03 6.65955 514.686 10.1042 517.379 11.852C518.333 12.4094 519.39 12.84 520.51 13.1278C525.556 14.6631 530.104 17.1176 533.808 20.3037C537.512 23.4898 540.273 27.3234 541.882 31.5118C545.874 42.3049 541.772 54.259 545.749 65.0394C546.039 66.0444 546.625 66.9769 547.455 67.7568C548.634 68.5086 549.971 69.0792 551.401 69.4409C560.106 72.5665 562.799 81.6501 562.094 89.3686C561.703 93.719 560.623 98.2991 562.595 102.305C564.02 105.214 566.87 107.485 569.578 109.705C575.293 114.361 580.93 119.452 583.278 125.754C585.627 132.056 583.669 139.877 576.796 143.334Z" fill="#563D3D"/>
<path d="M560.404 146.18C547.048 146.626 533.38 144.125 523.078 137.326C517.598 133.702 513.167 128.969 507.061 126.073C502.376 124.047 497.247 122.794 491.968 122.386C486.347 117.283 480.789 112.091 475.403 106.809C471.238 102.726 467.136 98.5035 464.647 93.5917C462.157 88.6799 461.515 83.6916 460.717 78.5885C458.603 64.3635 456.552 49.6155 462.016 36.0028C462.704 34.0448 463.76 32.1855 465.148 30.4915C474.542 19.9025 499.467 21.561 507.656 32.201C509.753 35.2436 511.208 38.5512 511.961 41.9863C513.456 47.545 514.44 53.1869 514.905 58.8649C515.281 63.598 515.5 68.765 519.304 72.3499C521.684 74.5825 525.176 75.8711 527.743 77.9761C537.576 86.0008 529.795 100.94 537.733 110.279C539.778 112.435 542.237 114.309 545.013 115.829C551.354 119.656 558.165 123.407 562.11 128.982C566.056 134.557 566.103 142.123 560.404 146.18Z" fill="#202020"/>
<path d="M431.846 153.247C431.846 153.247 373.775 161.91 372.099 174.578C370.424 187.247 382.621 292.155 382.621 292.155H395.913C395.913 292.155 419.79 234.744 415.672 217.866C411.554 200.987 407.374 196.292 407.374 196.292C407.374 196.292 431.564 206.026 454.438 184.555C477.313 163.084 467.105 148.731 467.105 148.731L431.846 153.247Z" fill="#563D3D"/>
<path d="M464.506 150.67C464.506 150.67 409.128 167.332 410.13 180.013C411.132 192.695 445.216 294.349 445.216 294.349L458.321 292.486C458.321 292.486 469.766 232.627 462.157 216.526C454.548 200.426 449.506 196.471 449.506 196.471C449.506 196.471 481.54 208.463 500.36 184.517C516.298 164.206 489.901 143.615 473.649 148.144L464.506 150.67Z" fill="#202020"/>
<path d="M431.846 153.247V126.596C431.846 126.596 422.232 112.052 420.667 104.563C419.759 100.226 426.475 86.9192 434.21 81.7778C439.596 78.2056 443.604 71.8394 450.493 71.6608L484.296 70.8315L500.861 109.105L495.021 153.477C495.021 153.477 480.82 147.481 431.846 153.247Z" fill="#FF9800"/>
<path d="M466.619 147.149C466.228 147.672 464.318 150.083 464.506 150.67C464.694 151.257 473.508 151.448 476.671 151.703C482.057 152.137 489.635 152.979 495.021 153.464C498.669 138.882 496.853 129.658 499.514 121.786C500.009 120.861 500.26 119.861 500.25 118.852C499.937 117.091 492.218 108.046 490.292 107.37C484.03 105.163 484.03 112.881 483.309 115.739C480.679 127.03 473.931 137.453 466.619 147.149Z" fill="url(#paint6_linear_811_2)"/>
<path d="M443.526 26.5234C443.526 26.5234 435.697 47.7907 441.052 51.4394C446.406 55.0882 451.072 55.5985 452.168 57.4101C453.264 59.2217 456.02 66.9147 452.168 71.9668C448.317 77.0189 450.148 84.2016 455.769 81.7776C461.39 79.3536 473.884 71.9158 473.884 71.9158L481.086 50.5719C481.086 50.5719 492.61 28.1947 490.825 23.2957C489.04 18.3966 460.967 5.26884 443.526 26.5234Z" fill="url(#paint7_linear_811_2)"/>
<path d="M477.438 32.0732C478.284 34.7524 476.781 37.6612 477.704 40.3276C478.847 43.6191 483.231 45.4307 487.318 46.1834C491.404 46.9361 495.835 47.204 499.326 49.1305C503.272 51.2993 505.683 55.5094 510.286 56.3386C512.592 56.6116 514.944 56.4278 517.144 55.8028C522.217 54.7312 527.681 53.4554 530.875 50.0618C532.533 48.1911 533.524 45.9836 533.74 43.6829C534.867 34.6758 527.289 26.1791 517.848 21.3949C508.407 16.6107 497.26 14.7481 486.535 12.4644C480.585 11.1887 466.494 7.59096 463.206 14.123C460.873 18.7541 466.197 27.1742 472.851 22.7983C472.209 26.396 476.42 28.8072 477.438 32.0732Z" fill="#563D3D"/>
<path d="M491.122 51.8735C491.122 51.8735 484.186 56.4408 479.975 55.1905C475.763 53.9402 468.545 61.5694 468.545 61.5694C468.545 61.5694 466.322 64.6568 471.238 66.1623C473.976 66.9561 476.88 67.2961 479.781 67.1625C482.682 67.0289 485.521 66.4242 488.132 65.384C497.119 61.6715 507.437 51.0315 511.288 47.893C519.758 40.8635 517.864 24.9289 508.266 23.9976C498.669 23.0663 500.25 31.9457 500.595 32.354C501.245 32.7291 501.95 33.0376 502.693 33.2726C503.248 33.4761 503.744 33.7741 504.147 34.1465C504.55 34.519 504.85 34.9573 505.028 35.4321C505.206 35.9069 505.257 36.4072 505.179 36.8995C505.1 37.3918 504.893 37.8646 504.571 38.2864C501.033 42.9047 494.708 50.6615 491.122 51.8735Z" fill="url(#paint8_linear_811_2)"/>
<path d="M373.994 304.274C373.742 304.667 373.628 305.108 373.665 305.55C373.764 305.845 373.963 306.111 374.241 306.316C374.518 306.522 374.861 306.659 375.231 306.711C375.972 306.803 376.728 306.772 377.454 306.622C382.258 306.023 386.801 304.453 390.668 302.054C392.586 300.843 394.116 299.272 395.127 297.475C396.139 295.678 396.602 293.708 396.477 291.733C396.477 291.414 383.372 291.733 381.932 292.575C378.221 294.706 375.685 300.957 373.994 304.274Z" fill="url(#paint9_linear_811_2)"/>
<path d="M368.342 311.355L373.994 304.274C373.994 304.274 386.989 309.492 394.504 298.444C398.356 292.767 396.477 291.771 396.477 291.771C396.477 291.771 401.033 292.601 401.769 299.311C402.205 303.318 402.205 307.348 401.769 311.355L398.371 312.886L396.54 306.813C396.54 306.813 387.866 316.432 385.22 319.647C383.842 321.319 377.391 322.582 371.583 323.411C370.486 323.562 369.36 323.464 368.327 323.129C367.294 322.793 366.394 322.232 365.726 321.508C365.059 320.783 364.648 319.922 364.541 319.021C364.433 318.119 364.632 317.21 365.116 316.394C365.977 314.94 367.042 313.281 368.342 311.355Z" fill="url(#paint10_linear_811_2)"/>
<path d="M438.547 304.912C438.322 305.311 438.251 305.756 438.343 306.188C438.46 306.46 438.669 306.699 438.946 306.877C439.224 307.056 439.557 307.166 439.909 307.196C440.612 307.253 441.322 307.188 441.991 307.004C446.465 306.211 450.621 304.513 454.078 302.067C455.788 300.834 457.107 299.284 457.925 297.547C458.742 295.81 459.034 293.939 458.775 292.091C458.697 291.81 446.453 292.728 445.154 293.583C441.678 295.816 439.815 301.748 438.547 304.912Z" fill="url(#paint11_linear_811_2)"/>
<path d="M433.677 311.878L438.547 304.912C438.547 304.912 451.072 309.199 457.335 298.457C460.545 292.932 458.713 292.078 458.713 292.078C458.713 292.078 463.05 292.652 464.224 298.916C464.921 302.66 465.21 306.447 465.085 310.232L461.954 311.84L459.793 306.213C459.793 306.213 452.34 315.68 450.07 318.818C448.896 320.451 442.962 321.956 437.545 323.015C436.51 323.225 435.425 323.194 434.411 322.926C433.397 322.659 432.495 322.164 431.809 321.5C431.122 320.836 430.678 320.028 430.527 319.168C430.376 318.308 430.523 317.431 430.953 316.636C431.705 315.361 432.597 313.753 433.677 311.878Z" fill="url(#paint12_linear_811_2)"/>
<path d="M475.34 85.6945C475.34 85.6945 500.281 146.23 528.808 123.509C534.335 119.107 512.384 54.8333 511.226 53.3407C510.067 51.848 512.791 41.8586 510.067 40.0087C507.995 38.6701 505.709 37.5671 503.272 36.73C503.272 36.73 499.42 37.2403 499.561 39.3709C499.702 41.5014 495.866 43.4023 495.083 44.9078C494.301 46.4132 490.214 51.0315 490.872 52.9452C491.778 55.1113 492.992 57.1837 494.488 59.12C495.083 59.6175 505.229 97.5721 505.229 97.5721C505.229 97.5721 495.6 68.446 484.296 70.7806C472.992 73.1153 475.34 85.6945 475.34 85.6945Z" fill="url(#paint13_linear_811_2)"/>
</g>
<defs>
<linearGradient id="paint0_linear_811_2" x1="131.924" y1="705.419" x2="718.365" y2="705.419" gradientUnits="userSpaceOnUse">
<stop stop-color="#3F3F3F"/>
<stop offset="1" stop-color="#C11A1A"/>
</linearGradient>
<linearGradient id="paint1_linear_811_2" x1="436.057" y1="464.194" x2="1182.37" y2="412.111" gradientUnits="userSpaceOnUse">
<stop stop-color="#FDC168"/>
<stop offset="0.3" stop-color="#BA5858"/>
<stop offset="0.55" stop-color="#8A4C4C"/>
<stop offset="0.68" stop-color="#774848"/>
<stop offset="0.69" stop-color="#666464"/>
<stop offset="0.87" stop-color="#5E4141"/>
<stop offset="0.99" stop-color="#563D3D"/>
</linearGradient>
<linearGradient id="paint2_linear_811_2" x1="425.254" y1="876.323" x2="440.07" y2="17.7827" gradientUnits="userSpaceOnUse">
<stop offset="0.01" stop-opacity="0"/>
<stop offset="0.93" stop-opacity="0.89"/>
<stop offset="0.98"/>
</linearGradient>
<linearGradient id="paint3_linear_811_2" x1="431.282" y1="244.529" x2="545.436" y2="244.529" gradientUnits="userSpaceOnUse">
<stop stop-color="#3F3F3F"/>
<stop offset="1" stop-color="#C11A1A"/>
</linearGradient>
<linearGradient id="paint4_linear_811_2" x1="437.717" y1="574.894" x2="443.383" y2="949.099" gradientUnits="userSpaceOnUse">
<stop offset="0.01" stop-opacity="0"/>
<stop offset="0.93" stop-opacity="0.89"/>
<stop offset="0.98"/>
</linearGradient>
<linearGradient id="paint5_linear_811_2" x1="349.961" y1="89.4197" x2="456.145" y2="89.4197" gradientUnits="userSpaceOnUse">
<stop stop-color="#ECDCC4"/>
<stop offset="0.42" stop-color="#EFE3D1"/>
<stop offset="1" stop-color="#FFDFB0"/>
</linearGradient>
<linearGradient id="paint6_linear_811_2" x1="420.51" y1="117.576" x2="554.36" y2="158.166" gradientUnits="userSpaceOnUse">
<stop offset="0.01" stop-opacity="0"/>
<stop offset="0.93" stop-opacity="0.89"/>
<stop offset="0.98"/>
</linearGradient>
<linearGradient id="paint7_linear_811_2" x1="439.157" y1="48.5307" x2="491.06" y2="48.5307" gradientUnits="userSpaceOnUse">
<stop stop-color="#ECDCC4"/>
<stop offset="0.42" stop-color="#EFE3D1"/>
<stop offset="1" stop-color="#FFDFB0"/>
</linearGradient>
<linearGradient id="paint8_linear_811_2" x1="478.143" y1="37.1044" x2="511.692" y2="69.7156" gradientUnits="userSpaceOnUse">
<stop stop-color="#FDC168"/>
<stop offset="0.3" stop-color="#BA5858"/>
<stop offset="0.55" stop-color="#8A4C4C"/>
<stop offset="0.68" stop-color="#774848"/>
<stop offset="0.69" stop-color="#666464"/>
<stop offset="0.87" stop-color="#5E4141"/>
<stop offset="0.99" stop-color="#563D3D"/>
</linearGradient>
<linearGradient id="paint9_linear_811_2" x1="373.634" y1="299.235" x2="396.54" y2="299.235" gradientUnits="userSpaceOnUse">
<stop stop-color="#ECDCC4"/>
<stop offset="0.42" stop-color="#EFE3D1"/>
<stop offset="1" stop-color="#FFDFB0"/>
</linearGradient>
<linearGradient id="paint10_linear_811_2" x1="372.616" y1="300" x2="389.381" y2="319.127" gradientUnits="userSpaceOnUse">
<stop stop-color="#FDC168"/>
<stop offset="0.3" stop-color="#BA5858"/>
<stop offset="0.55" stop-color="#8A4C4C"/>
<stop offset="0.68" stop-color="#774848"/>
<stop offset="0.69" stop-color="#666464"/>
<stop offset="0.87" stop-color="#5E4141"/>
<stop offset="0.99" stop-color="#563D3D"/>
</linearGradient>
<linearGradient id="paint11_linear_811_2" x1="438.218" y1="299.656" x2="458.838" y2="299.656" gradientUnits="userSpaceOnUse">
<stop stop-color="#ECDCC4"/>
<stop offset="0.42" stop-color="#EFE3D1"/>
<stop offset="1" stop-color="#FFDFB0"/>
</linearGradient>
<linearGradient id="paint12_linear_811_2" x1="438.374" y1="301.888" x2="453.257" y2="317.196" gradientUnits="userSpaceOnUse">
<stop stop-color="#FDC168"/>
<stop offset="0.3" stop-color="#BA5858"/>
<stop offset="0.55" stop-color="#8A4C4C"/>
<stop offset="0.68" stop-color="#774848"/>
<stop offset="0.69" stop-color="#666464"/>
<stop offset="0.87" stop-color="#5E4141"/>
<stop offset="0.99" stop-color="#563D3D"/>
</linearGradient>
<linearGradient id="paint13_linear_811_2" x1="475.137" y1="82.6582" x2="529.701" y2="82.6582" gradientUnits="userSpaceOnUse">
<stop stop-color="#ECDCC4"/>
<stop offset="0.42" stop-color="#EFE3D1"/>
<stop offset="1" stop-color="#FFDFB0"/>
</linearGradient>
<clipPath id="clip0_811_2">
<rect width="808" height="762" fill="white"/>
</clipPath>
</defs>
</svg>
