<svg width="34" height="34" viewBox="0 0 34 34" fill="none" xmlns="http://www.w3.org/2000/svg">
<g clip-path="url(#clip0_655_272)">
<path d="M24.1627 6.03362C24.0363 5.78799 23.8174 5.60265 23.5544 5.51835C23.2913 5.43405 23.0055 5.45769 22.7598 5.58408L4.23594 15.1173C3.99032 15.2437 3.80497 15.4625 3.72067 15.7256C3.63637 15.9887 3.66001 16.2745 3.7864 16.5201L5.69304 20.2249C5.81948 20.4705 6.0383 20.6559 6.30138 20.7402C6.56446 20.8245 6.85025 20.8008 7.0959 20.6744C7.61839 20.4055 8.22985 20.6015 8.49875 21.124C8.76765 21.6465 8.57171 22.2579 8.04922 22.5268C7.80359 22.6533 7.61825 22.8721 7.53395 23.1352C7.44965 23.3983 7.47329 23.684 7.59968 23.9297L9.50632 27.6345C9.63276 27.8801 9.85158 28.0654 10.1147 28.1497C10.3777 28.234 10.6635 28.2104 10.9092 28.084L29.4331 18.5508C29.6787 18.4244 29.864 18.2056 29.9483 17.9425C30.0326 17.6794 30.009 17.3936 29.8826 17.148L27.976 13.4432C27.8495 13.1976 27.6307 13.0122 27.3676 12.9279C27.1046 12.8436 26.8188 12.8673 26.5731 12.9936C26.0506 13.2625 25.4392 13.0666 25.1703 12.5441C24.9014 12.0216 25.0973 11.4102 25.6198 11.1413C25.8654 11.0148 26.0508 10.796 26.1351 10.5329C26.2194 10.2698 26.1957 9.98404 26.0693 9.7384L24.1627 6.03362ZM22.787 7.91313L23.9386 10.1508C23.1249 11.089 22.7189 12.3335 23.3179 13.4974C23.9169 14.6613 25.1656 15.0542 26.4019 14.9374L27.5536 17.1751L23.8488 19.0817L22.4207 16.3068C21.785 15.0715 19.9326 16.0248 20.5683 17.2601L21.9964 20.035L10.882 25.755L9.73043 23.5173C10.5441 22.5791 10.9501 21.3346 10.3511 20.1707C9.75215 19.0068 8.50342 18.6139 7.26707 18.7307L6.11545 16.493L17.2298 10.7731L18.6607 13.5535C19.2964 14.7887 21.1488 13.8354 20.5131 12.6002L19.0822 9.81977L22.787 7.91313Z" fill="#FF9800"/>
</g>
<defs>
<clipPath id="clip0_655_272">
<rect width="25" height="25" fill="white" transform="translate(22.229) rotate(62.7677)"/>
</clipPath>
</defs>
</svg>
