<svg width="24" height="25" viewBox="0 0 32 32" fill="none" xmlns="http://www.w3.org/2000/svg">
<path d="M9 12H5C4.4 12 4 11.6 4 11C4 10.4 4.4 10 5 10H9C9.6 10 10 10.4 10 11C10 11.6 9.6 12 9 12ZM9 17H5C4.4 17 4 16.6 4 16C4 15.4 4.4 15 5 15H9C9.6 15 10 15.4 10 16C10 16.6 9.6 17 9 17ZM9 22H5C4.4 22 4 21.6 4 21C4 20.4 4.4 20 5 20H9C9.6 20 10 20.4 10 21C10 21.6 9.6 22 9 22Z" fill="black"/>
<path d="M25 5H7C6.4 5 6 5.4 6 6V26C6 26.6 6.4 27 7 27H25C25.6 27 26 26.6 26 26V6C26 5.4 25.6 5 25 5Z" fill="#FF9800"/>
<path d="M16 16C17.6569 16 19 14.6569 19 13C19 11.3431 17.6569 10 16 10C14.3431 10 13 11.3431 13 13C13 14.6569 14.3431 16 16 16Z" fill="black"/>
<path d="M16 17C13.2 17 11 19.2 11 22C11 22.6 11.4 23 12 23H20C20.6 23 21 22.6 21 22C21 19.2 18.8 17 16 17Z" fill="black"/>
</svg>
