<svg width="24" height="25" viewBox="0 0 24 25" fill="none" xmlns="http://www.w3.org/2000/svg">
<g clip-path="url(#clip0_691_195)">
<path d="M0 8.33447H4.5V9.83447H0V8.33447Z" fill="#FF9800"/>
<path d="M7.5 0.834473H9V5.33447H7.5V0.834473Z" fill="#FF9800"/>
<path d="M9 17.3345H7.5V13.5845L9 15.0845V17.3345Z" fill="#FF9800"/>
<path d="M16.5 9.83447H14.25L12.75 8.33447H16.5V9.83447Z" fill="#FF9800"/>
<path d="M4.69646 11.5762L5.75696 12.6367L1.30195 17.0917L0.241455 16.0312L4.69646 11.5762Z" fill="#FF9800"/>
<path d="M15.1965 1.07617L16.257 2.13667L11.802 6.59167L10.7415 5.53117L15.1965 1.07617Z" fill="#FF9800"/>
<path d="M1.2541 1.13281L6.4516 6.33031L5.3911 7.39081L0.193604 2.19331L1.2541 1.13281Z" fill="#FF9800"/>
<path d="M9.15 6.98438L6 9.98437L20.7 24.8344L24 21.6844L9.15 6.98438ZM9.15 9.08437L12.75 12.8344L11.85 13.7344L8.1 9.98437L9.15 9.08437Z" fill="#FF9800"/>
</g>
<defs>
<clipPath id="clip0_691_195">
<rect width="24" height="24" fill="white" transform="translate(0 0.834473)"/>
</clipPath>
</defs>
</svg>
