<svg width="25" height="25" viewBox="0 0 25 25" fill="none" xmlns="http://www.w3.org/2000/svg">
<path d="M16.4701 5.69698C16.4701 7.78289 14.6758 9.55948 12.3541 9.55948C10.0324 9.55948 8.23804 7.78289 8.23804 5.69698C8.23804 3.61106 10.0324 1.83447 12.3541 1.83447C14.6758 1.83447 16.4701 3.61106 16.4701 5.69698Z" stroke="#FF9800" stroke-width="2"/>
<g clip-path="url(#clip0_655_255)">
<path d="M23.574 24.8341V20.2649C23.528 18.9334 22.928 17.6736 21.9059 16.7619C20.8837 15.8503 19.5228 15.3613 18.1217 15.4023H7.21598C5.81491 15.3613 4.45397 15.8503 3.43179 16.7619C2.40962 17.6736 1.80969 18.9334 1.76367 20.2649V24.8341" stroke="#FF9800" stroke-width="2"/>
</g>
<defs>
<clipPath id="clip0_655_255">
<rect width="24" height="10.4724" fill="white" transform="translate(0.668945 14.3618)"/>
</clipPath>
</defs>
</svg>
