<svg width="265" height="310" viewBox="0 0 289 329" fill="none" xmlns="http://www.w3.org/2000/svg">
<g filter="url(#filter0_d_531_1075)">
<rect x="11" y="125" width="267" height="189" rx="27" fill="#FFBF62" fill-opacity="0.58"/>
<g clip-path="url(#clip0_531_1075)">
<path d="M239.522 127.264C239.522 166.266 215.592 199.703 181.558 213.789C178.844 214.921 176.074 215.923 173.243 216.788C172.473 217.032 171.695 217.259 170.916 217.478C164.579 219.247 157.972 220.374 151.175 220.781C150.439 220.824 149.699 220.858 148.964 220.883C147.993 220.921 147.012 220.943 146.031 220.947C145.837 220.951 145.64 220.951 145.45 220.951C145.115 220.951 144.775 220.951 144.439 220.943C143.897 220.943 143.36 220.93 142.822 220.917C142.771 220.917 142.723 220.912 142.676 220.912C134.817 220.686 127.203 219.499 119.938 217.468C117.257 216.714 114.621 215.853 112.044 214.868C111.889 214.812 111.735 214.756 111.589 214.692C76.3586 201.159 51.3751 167.118 51.3751 127.264C51.3751 75.5209 93.4923 33.5717 145.451 33.5717C159.995 33.5717 173.768 36.8575 186.062 42.7306H177.489C175.343 42.7306 173.411 43.587 172.013 44.9795C170.615 46.3719 169.75 48.2995 169.75 50.4199C169.75 54.6785 173.213 58.127 177.489 58.127H208.938C227.736 75.2607 239.522 99.8892 239.522 127.264Z" fill="#FF9800"/>
<path d="M140.577 90.9832L122.792 117.858C122.792 117.858 92.2297 120.303 85.4334 104.422C83.631 100.206 84.504 86.7799 85.631 75.7275C86.5081 67.142 87.5363 59.992 87.5755 59.6878C87.5796 59.6837 87.5796 59.6788 87.5796 59.6788H92.5605L92.892 63.1144L97.7487 92.204L140.577 90.9832Z" fill="#FF9100"/>
<path opacity="0.1" d="M86.8201 66.2594C87.2782 66.1504 87.7339 65.9918 88.0091 65.5884C88.259 65.2216 88.4011 64.7954 88.6649 64.4351C89.6196 63.1281 91.2056 62.4449 92.803 62.2009L92.5596 59.6796H87.5779C87.5779 59.6796 87.5779 59.6836 87.5738 59.6885C87.551 59.8683 87.1827 62.4392 86.7041 66.283C86.7433 66.2749 86.7825 66.2684 86.8201 66.2594Z" fill="#424242"/>
<path d="M95.4326 40.881H95.4359C95.6197 40.8623 95.7765 40.7704 95.8818 40.6378C95.9978 40.493 96.0517 40.3002 96.01 40.1042C96.0068 40.088 96.0035 40.0725 96.001 40.0571C96.0002 40.0554 96.0002 40.053 96.0002 40.0522C95.9953 40.0302 95.9921 40.0083 95.988 39.9863C95.9855 39.9741 95.9839 39.9611 95.9814 39.9489C95.9798 39.9391 95.9782 39.9294 95.9774 39.9196C95.9741 39.9009 95.9716 39.8822 95.97 39.8635C95.6997 37.77 97.8328 36.7566 98.8512 38.4231C98.8798 38.4694 98.9067 38.5182 98.9337 38.5687C99.1134 38.9094 99.2489 39.3462 99.3192 39.8887C99.2824 43.674 96.1995 46.0001 93.1223 49.4974C92.5563 50.1733 92.5719 50.8191 92.8283 51.2729C92.8561 51.3217 92.8863 51.3681 92.9189 51.4128C92.9304 51.4283 92.9418 51.4429 92.9541 51.4584C92.9655 51.473 92.9786 51.4868 92.9908 51.5015C93.0398 51.5584 93.0937 51.6096 93.1509 51.656C93.2211 51.7138 93.2962 51.7634 93.3738 51.8024C93.4506 51.8423 93.5298 51.8715 93.609 51.8911C93.6368 51.8976 93.6654 51.9033 93.6931 51.9073C93.6989 51.9081 93.7054 51.909 93.7119 51.9098C93.7405 51.913 93.7691 51.9155 93.7969 51.9155L93.8124 51.874L93.8475 51.778C93.8467 51.778 93.8467 51.778 93.8459 51.778C93.8156 51.7682 93.7846 51.756 93.7536 51.743C93.7846 51.7552 93.8148 51.7666 93.8459 51.7764L93.8467 51.7772L93.9643 51.4608H93.9651C93.9798 51.4201 93.9855 51.3778 93.9806 51.3372C93.9724 51.2542 93.9259 51.177 93.8516 51.1298C93.4833 50.8955 93.306 50.4157 94.0631 49.7918C98.0117 46.1953 100.511 42.3808 100.2 39.8017C100.011 35.5927 94.1007 35.2787 95.4326 40.881ZM96.1668 37.9237C96.1676 37.9229 96.1676 37.9229 96.1685 37.9221C96.2068 37.883 96.2477 37.8399 96.2926 37.7927C96.7842 37.282 97.5307 37.1567 98.2093 37.4674C97.5307 37.1575 96.785 37.2828 96.2942 37.7936C96.246 37.8432 96.2019 37.8887 96.1619 37.931C95.9651 38.1352 95.8598 38.245 95.8442 38.2604C95.8589 38.245 95.9667 38.1327 96.1668 37.9237ZM93.529 51.6227C93.5723 51.6511 93.6164 51.6763 93.6621 51.6999C93.6164 51.6772 93.5715 51.6511 93.529 51.6227Z" fill="#AD4949"/>
<path d="M99.5919 39.8872C99.6712 41.9783 98.4021 44.3865 95.8189 47.0429L93.2407 49.722L93.2334 49.7326C92.7679 50.4076 92.9573 50.9355 93.1117 51.1909C93.2791 51.4674 93.5862 51.6089 93.872 51.7025L93.8459 51.7765L93.8451 51.7773L93.8108 51.8733L93.7961 51.9147C93.7675 51.9139 93.7389 51.9123 93.7103 51.9082C93.7038 51.9074 93.6981 51.9066 93.6915 51.9058C93.6638 51.9017 93.6352 51.896 93.6074 51.8895C93.5282 51.87 93.449 51.8407 93.3722 51.8009C93.2946 51.761 93.2203 51.7122 93.1493 51.6545C93.0929 51.6081 93.0398 51.5561 92.9892 51.4999C92.9769 51.4853 92.9647 51.4715 92.9524 51.4568C92.9402 51.4422 92.9288 51.4267 92.9173 51.4113C92.8847 51.3674 92.8536 51.321 92.8267 51.2714C92.5662 50.8143 92.5474 50.1636 93.1158 49.4861C96.193 45.9888 99.2751 43.6627 99.3118 39.8782C99.2424 39.3406 99.1077 38.9071 98.9321 38.5679C98.9051 38.5175 98.8782 38.4687 98.8496 38.4224C97.8337 36.7436 95.6948 37.7627 95.9684 39.8628C95.97 39.8815 95.9733 39.9002 95.9757 39.9189C95.9774 39.9287 95.9782 39.9384 95.9798 39.9482C95.9815 39.9604 95.9839 39.9726 95.9864 39.9856C95.9896 40.0075 95.9937 40.0295 95.9986 40.0515C95.9986 40.0531 95.9986 40.0547 95.9994 40.0563C96.0019 40.0718 96.006 40.0873 96.0084 40.1035C96.0501 40.3003 95.9962 40.4931 95.8802 40.6371C95.6001 39.4976 95.6956 38.5395 96.1603 37.9311C96.1619 37.9287 96.1636 37.9262 96.1652 37.9238C96.166 37.923 96.166 37.923 96.1668 37.9222C96.2044 37.8742 96.2444 37.8278 96.2861 37.7839C96.7916 37.2577 97.5674 37.1414 98.2616 37.4862C99.0529 37.8799 99.538 38.7542 99.5919 39.8872Z" fill="#D56D6D"/>
<path d="M84.5252 50.3669C80.8045 47.5576 77.3157 45.896 76.5146 42.1961C76.4746 41.6504 76.5195 41.1957 76.6256 40.8257C76.642 40.7704 76.6583 40.7175 76.6771 40.6663C77.3386 38.8297 79.6326 39.395 79.791 41.4999C79.7927 41.5186 79.7935 41.5381 79.7951 41.5569C79.7959 41.5666 79.7959 41.5764 79.7968 41.5861C79.7968 41.5983 79.7976 41.6113 79.7984 41.6235C79.7992 41.6455 79.8 41.6683 79.8 41.6902C79.8 41.6919 79.8 41.6935 79.8 41.6959C79.8008 41.7114 79.8 41.7277 79.8008 41.7439C79.8 41.9448 79.8915 42.1237 80.0344 42.2417C80.1651 42.3507 80.339 42.4092 80.5236 42.3897C80.5342 42.0392 80.5228 41.7163 80.4925 41.4186C80.0246 36.8273 75.0119 38.38 75.635 42.288C75.8522 44.8761 79.0707 48.1131 83.6645 50.8451C84.531 51.3047 84.4542 51.8097 84.1414 52.1131C84.0475 52.205 84.0287 52.349 84.0981 52.4604C84.0981 52.4596 84.099 52.4596 84.099 52.4596L84.2778 52.7459C84.2786 52.7459 84.2786 52.7451 84.2786 52.7451C84.3064 52.7288 84.3341 52.7117 84.3619 52.6938C84.3341 52.7125 84.3064 52.7304 84.2786 52.7459C84.2778 52.7467 84.2778 52.7467 84.277 52.7467L84.3342 52.837L84.3546 52.8703C84.3815 52.8638 84.4093 52.8565 84.4371 52.8475C84.4436 52.8451 84.4493 52.8435 84.4542 52.841C84.4803 52.8313 84.5073 52.8199 84.5334 52.8077C84.6069 52.7727 84.6788 52.728 84.7457 52.6735C84.8135 52.6198 84.8772 52.5564 84.9344 52.4856C84.9809 52.4295 85.0234 52.3677 85.0602 52.3026C85.0692 52.2863 85.0781 52.2693 85.0871 52.253C85.0961 52.2359 85.1043 52.2188 85.1124 52.2018C85.1361 52.1521 85.1565 52.1001 85.1729 52.0464C85.3313 51.5511 85.2161 50.9151 84.5252 50.3669ZM79.2063 39.6398C79.4448 39.8041 79.573 39.892 79.5909 39.905C79.573 39.8928 79.4472 39.8066 79.2128 39.6463C79.1655 39.6138 79.1132 39.5772 79.056 39.5382C78.4542 39.1242 77.671 39.1648 77.0609 39.6423C76.9311 39.7439 76.8143 39.8602 76.713 39.9896C76.8151 39.8602 76.9311 39.7439 77.0617 39.6415C77.6726 39.164 78.4558 39.1234 79.0569 39.5373C79.1099 39.5739 79.1598 39.6081 79.2047 39.639C79.2055 39.639 79.2055 39.6398 79.2063 39.6398Z" fill="#AD4949"/>
<path d="M85.172 52.0473C85.1549 52.101 85.1345 52.1522 85.1116 52.2027C85.1034 52.2206 85.0953 52.2368 85.0863 52.2539C85.0773 52.2702 85.0683 52.2872 85.0593 52.3035C85.0218 52.3686 84.9801 52.4304 84.9336 52.4865C84.8756 52.5573 84.8127 52.6199 84.7449 52.6744C84.678 52.7289 84.6061 52.7736 84.5326 52.8086C84.5065 52.8208 84.4795 52.8314 84.4534 52.8419C84.4477 52.8444 84.4419 52.846 84.4362 52.8484C84.4085 52.8582 84.3815 52.8655 84.3537 52.872L84.3333 52.8379L84.2778 52.746V52.7452L84.237 52.6776C84.4983 52.528 84.7702 52.3287 84.878 52.0237C84.9785 51.7431 85.0569 51.1868 84.464 50.6191L84.455 50.6102L81.3884 48.502C78.321 46.4174 76.5913 44.3125 76.2475 42.2483C76.0727 41.1283 76.37 40.1743 77.0642 39.631C77.6742 39.1535 78.4582 39.1129 79.0593 39.5269C79.1091 39.5618 79.1573 39.5984 79.2047 39.6383C79.2055 39.6391 79.2055 39.6391 79.2063 39.6399C79.2087 39.6424 79.2104 39.644 79.2128 39.6464C79.7902 40.1499 80.0777 41.0689 80.0336 42.2418C79.8907 42.1238 79.7992 41.9449 79.8 41.744C79.8 41.7277 79.8 41.7115 79.7992 41.696C79.7992 41.6944 79.7992 41.692 79.7992 41.6903C79.7992 41.6676 79.7992 41.6456 79.7976 41.6236C79.7976 41.6106 79.7967 41.5984 79.7959 41.5862C79.7951 41.5765 79.7951 41.5667 79.7943 41.5569C79.7935 41.5374 79.7927 41.5187 79.7902 41.5C79.6334 39.3878 77.3329 38.8184 76.6763 40.6663C76.6583 40.7176 76.6411 40.7704 76.6248 40.8258C76.5211 41.1934 76.477 41.6448 76.517 42.1856C77.3173 45.8855 80.807 47.5471 84.5269 50.3564C85.2227 50.9054 85.3346 51.5471 85.172 52.0473Z" fill="#D56D6D"/>
<path d="M96.0451 35.1023L96.0737 35.3846C96.0901 35.5456 96.0394 35.6977 95.9447 35.8132C95.8532 35.9246 95.7201 36.0027 95.5666 36.023C95.5609 36.0239 95.5552 36.0247 95.5494 36.0255C96.4992 50.5028 90.9279 52.8501 90.3652 53.7627C89.8017 54.676 89.7266 56.1774 90.7801 57.8326C91.4465 58.8801 93.2219 59.2437 94.4379 59.3706C95.155 59.4454 95.7209 60.0099 95.7944 60.7248L84.1765 61.9001C84.1038 61.1859 84.544 60.519 85.2317 60.3019C86.397 59.935 88.063 59.2226 88.504 58.0627C89.2015 56.2295 88.825 54.7744 88.0892 53.9928C87.5371 53.4072 84.063 52.5947 81.5199 46.1621C80.6722 44.0181 79.9274 41.2487 79.4292 37.6562C79.1058 37.6887 78.8184 37.4553 78.7857 37.1341L78.7571 36.8518C78.7245 36.5306 78.9588 36.2435 79.2822 36.2109L95.4024 34.5802C95.7242 34.5468 96.0117 34.7811 96.0451 35.1023Z" fill="#AD4949"/>
<path opacity="0.1" d="M90.3644 53.7618C89.8009 54.6752 89.7258 56.1766 90.7793 57.8317C91.4457 58.8793 93.2211 59.2429 94.4371 59.3697C95.1542 59.4446 95.7201 60.009 95.7936 60.7239L93.2383 60.9826C92.8724 60.6182 92.3375 60.1831 91.5625 59.726C89.5004 58.5084 89.1827 52.9176 89.1827 52.9176C89.1827 52.9176 94.2542 48.5231 94.2566 38.2206L81.35 37.2609C81.6832 37.2267 95.529 35.8262 95.529 35.8262C95.529 35.8262 95.5421 35.8945 95.5666 36.023C95.5609 36.0238 95.5551 36.0246 95.5494 36.0254C96.4984 50.502 90.9279 52.8492 90.3644 53.7618Z" fill="#2E2E2E"/>
<path d="M82.5371 35.8588L80.7228 36.042L80.8496 37.2881L82.664 37.1049L82.5371 35.8588Z" fill="#DCBE91"/>
<path d="M81.3884 37.6333C81.3884 37.6333 82.0703 48.6564 86.2141 52.105C86.2141 52.105 84.4787 48.7199 83.3256 37.417L81.3884 37.6333Z" fill="#DCBE91"/>
<path d="M88.3865 55.3104C89.7021 55.186 91.3779 54.9444 91.3044 54.515C91.2154 53.9961 89.5886 53.8594 88.1872 53.8383C88.5531 53.003 88.5874 52.7923 88.2681 52.7077C87.9153 52.6142 87.3673 52.6874 86.8634 53.173C86.3595 53.6585 86.1553 53.8749 86.1553 53.8749C85.4718 54.2498 85.4587 57.8594 86.6184 58.6784C86.8593 58.8484 87.2015 58.8671 87.5257 58.9192C87.9463 58.9867 87.9112 58.8126 88.8299 58.7817C90.4045 58.7289 90.7703 58.4426 90.7679 58.1237C90.7646 57.7634 88.8446 57.7138 88.0974 57.691C88.1415 57.6894 88.1872 57.6878 88.2329 57.6853L88.2958 57.6951L88.2623 57.6837C89.5053 57.6333 91.2007 57.5056 91.2015 56.8663C91.2023 56.4727 89.3387 56.4987 88.4338 56.5377C89.7381 56.3621 91.1689 56.1742 91.2775 55.8009C91.4179 55.3161 90.001 55.2169 88.3865 55.3104Z" fill="#FF9100"/>
<path opacity="0.2" d="M55.2926 104.122C56.1265 102.858 57.1318 101.638 58.4131 100.803C59.6945 99.9673 61.1604 99.398 62.6557 99.0792C65.5067 98.4708 69.1711 98.8685 70.4459 101.903C70.6982 102.503 70.8354 103.14 70.9612 103.776C71.0576 104.264 71.1286 104.816 71.4047 105.243C71.6742 105.661 72.1486 105.757 72.6199 105.724C73.4863 105.662 74.3659 105.361 75.1278 104.957C75.9657 104.513 76.7252 103.897 77.3026 103.144C77.849 102.433 78.1903 101.592 78.4035 100.725C78.5693 100.051 78.5881 99.3492 78.7734 98.6798C78.976 97.9454 79.4472 97.3582 80.0523 96.9043C81.1606 96.0731 82.5375 95.7941 83.8858 95.6079C85.4031 95.398 86.9417 95.324 88.446 95.0231C89.6776 94.7766 91.0259 94.3521 91.6972 93.2085C92.3677 92.0682 92.3415 90.7718 91.7552 89.6046C91.1288 88.3578 90.0614 87.3533 88.9695 86.5091C87.8891 85.6746 86.7139 84.9564 85.4971 84.3383C83.9389 83.5469 82.2639 83.024 80.6346 82.3993C79.5264 81.9739 78.4239 81.5331 77.3328 81.0638C76.3177 80.6271 75.2985 80.1903 74.3585 79.6055C72.9245 78.7133 71.7093 77.5413 70.708 76.1887C69.9706 75.1924 69.3336 74.1285 68.7113 73.0574C61.5459 83.1012 56.3241 94.614 53.5776 107.051C54.1387 106.061 54.6769 105.055 55.2926 104.122Z" fill="#424242"/>
<path d="M209.572 70.7669C209.572 70.7669 211.204 68.2887 211.117 67.8137C210.968 67.0069 210.598 67.4233 211.343 64.5392C211.857 62.5449 210.801 61.4713 211.423 61.1069C212.647 60.3888 213.27 63.9064 213.27 63.9064C213.27 63.9064 215.094 57.342 216.208 57.8341C216.808 58.0992 215.407 63.0207 215.407 63.0207C215.407 63.0207 216.282 62.1968 216.737 62.5994C217.408 63.1923 216.808 64.122 216.808 64.122C216.808 64.122 217.421 63.8584 217.777 64.4327C218.184 65.089 217.547 65.6624 217.547 65.6624C217.547 65.6624 218.026 65.4566 218.312 65.6949C218.599 65.9341 218.978 66.5245 217.532 67.9227C216.356 69.0605 214.029 69.1654 212.552 72.8189L209.572 70.7669Z" fill="#FF9100"/>
<path d="M209.88 69.5543L190.458 98.0072L150.594 90.9832C150.39 93.3638 150.795 111.516 160.714 111.75C167.771 112.357 193.545 114.493 198.739 110.834C212.06 101.45 213.457 71.438 213.457 71.438L209.88 69.5543Z" fill="#FF9100"/>
<path d="M181.556 213.791C178.845 214.92 176.075 215.921 173.241 216.79C172.473 217.03 171.694 217.26 170.915 217.477C164.581 219.249 157.972 220.373 151.176 220.781C150.442 220.824 149.702 220.859 148.963 220.884C147.992 220.923 147.011 220.942 146.03 220.947C142.255 201.318 138.938 183.215 136.808 171.459H178.702C180.763 182.695 181.546 197.666 181.556 213.791Z" fill="#424242"/>
<path d="M153.493 171.459C152.931 182.194 151.684 200.282 148.964 220.883C147.993 220.922 147.012 220.942 146.031 220.947C145.839 220.951 145.641 220.951 145.449 220.951C145.115 220.951 144.774 220.951 144.439 220.942C143.897 220.942 143.36 220.932 142.822 220.917C142.773 220.917 142.723 220.912 142.674 220.912C134.818 220.686 127.203 219.499 119.938 217.466C117.257 216.716 114.62 215.851 112.043 214.869C111.89 214.811 111.737 214.756 111.59 214.693C112.161 198.156 113.522 182.807 116.148 171.458H153.493V171.459Z" fill="#3B3B3B"/>
<path d="M139.708 91.136C130.459 89.9795 101.224 127.02 101.224 127.02L80.985 100.45L74.2385 105.642C74.2385 105.642 90.7834 159.697 103.983 159.697C117.184 159.697 129.282 139.541 129.282 139.541C129.282 139.541 152.875 92.7814 139.708 91.136Z" fill="#752727"/>
<path d="M120.701 144.516C120.88 138.474 122.108 132.482 123.789 126.688C124.646 123.735 125.642 120.843 126.828 118.005C128.016 115.159 129.301 112.334 130.174 109.372C129.779 109.532 129.385 109.692 128.994 109.861C126.404 110.974 123.876 112.246 121.479 113.729C118.985 115.271 116.577 117.061 114.631 119.264C112.883 121.242 111.505 123.612 111.251 126.277C111.031 128.579 111.266 130.912 111.361 133.215C111.462 135.662 111.508 138.165 110.935 140.564C110.41 142.76 109.234 144.745 107.22 145.878C105.875 146.634 104.364 146.954 102.828 146.917C101.881 146.894 100.939 146.763 100.011 146.587C99.1942 146.432 98.4094 146.263 97.6589 145.895C96.1554 145.158 94.8724 144.06 93.4351 143.214C92.3171 142.555 91.0374 142.108 89.7332 142.419C89.4163 142.495 89.1288 142.616 88.861 142.766C93.6801 152.187 99.0644 159.698 103.984 159.698C110.273 159.698 116.312 155.122 120.911 150.33C120.702 148.401 120.644 146.454 120.701 144.516Z" fill="#424242"/>
<path d="M114.102 177.41C108.118 156.964 123.878 90.13 147.431 89.6273C171.932 89.1044 195.586 164.525 180.492 181.533C170.231 193.096 139.401 186.573 114.102 177.41Z" fill="#752727"/>
<path d="M125.328 117.346C125.328 117.346 134.63 117.601 137.361 117.177C137.361 117.177 133.52 119.727 125.328 117.346ZM126.693 171.234C126.693 171.234 135.996 171.489 138.727 171.064C138.727 171.063 134.886 173.613 126.693 171.234ZM160.83 171.234C160.83 171.234 170.132 171.489 172.863 171.064C172.863 171.063 169.023 173.613 160.83 171.234Z" fill="#6F2020"/>
<path d="M158.042 62.7076C157.605 59.6536 154.612 59.4893 154.612 59.4893L143.177 61.0322L137.827 59.4893C137.827 59.4893 134.836 59.6527 134.397 62.7076C133.96 65.7617 134.149 75.734 140.516 79.2947C140.637 79.3622 151.812 79.3574 151.924 79.2947C158.291 75.734 158.48 65.7617 158.042 62.7076Z" fill="#2E2E2E"/>
<path d="M138.628 63.3339C140.567 59.9391 139.196 60.5824 147.61 60.4604C156.023 60.3384 156.401 68.7946 155.659 73.7413C154.959 78.4164 152.794 81.5599 150.249 83.4224L151.605 89.8388C151.605 89.8388 150.544 92.7278 146.115 92.5464C141.381 92.3528 141.075 89.8949 141.075 89.8949C141.075 89.8949 142.651 85.7884 142.577 84.3561C137.181 81.1736 136.161 67.6495 138.628 63.3339Z" fill="#FFD392"/>
<path opacity="0.05" d="M152.346 76.6896C152.429 77.3005 151.745 77.8966 150.818 78.0219C149.89 78.1471 149.071 77.7543 148.988 77.1435C148.905 76.5327 149.589 75.9365 150.516 75.8112C151.444 75.686 152.263 76.0796 152.346 76.6896ZM141.895 76.4131C141.979 77.0239 141.294 77.6201 140.367 77.7454C139.44 77.8714 138.62 77.4778 138.537 76.867C138.454 76.2561 139.138 75.66 140.065 75.5347C140.993 75.4095 141.812 75.8031 141.895 76.4131Z" fill="#292929"/>
<path d="M142.521 68.8841C142.432 68.8817 142.347 68.8321 142.301 68.7483C142.262 68.6743 141.317 67.0029 138.836 68.0041C138.705 68.057 138.554 67.9944 138.5 67.8626C138.446 67.7308 138.51 67.5812 138.642 67.5283C141.568 66.3474 142.745 68.4864 142.757 68.5076C142.823 68.6328 142.775 68.789 142.649 68.8549C142.609 68.8768 142.565 68.8858 142.521 68.8841ZM147.522 69.0891C147.489 69.0883 147.458 69.081 147.427 69.0671C147.297 69.0102 147.237 68.8597 147.293 68.7304C147.303 68.7076 148.312 66.4954 151.68 67.3282C151.819 67.3624 151.903 67.5023 151.868 67.6397C151.833 67.7772 151.693 67.8618 151.556 67.8268C148.628 67.1038 147.8 68.8614 147.765 68.9362C147.722 69.0354 147.624 69.0924 147.522 69.0891ZM145.134 76.3432C145.045 76.34 144.958 76.3245 144.873 76.2977C144.331 76.122 144.12 75.5014 144.111 75.4754C144.086 75.3981 144.098 75.3135 144.144 75.2477C145.111 73.8674 144.931 71.9447 144.929 71.926C144.914 71.7853 145.017 71.6592 145.159 71.6446C145.297 71.6275 145.428 71.7324 145.442 71.874C145.451 71.9577 145.637 73.8992 144.648 75.4233C144.718 75.56 144.851 75.7519 145.035 75.8105C145.208 75.8658 145.422 75.8032 145.672 75.6259C145.787 75.5437 145.948 75.5697 146.032 75.6852C146.114 75.8007 146.088 75.961 145.971 76.0439C145.679 76.2505 145.399 76.3514 145.134 76.3432Z" fill="#603D3D"/>
<path d="M142.635 79.8453C142.635 79.8453 145.533 81.2662 148.878 79.8453C149.581 81.2329 144.226 84.3902 142.635 79.8453Z" fill="#FCFAF7"/>
<path d="M141.876 72.0552C141.846 72.8507 141.387 73.4875 140.838 73.4672C140.278 73.4469 139.859 72.7913 139.89 71.9853C139.909 71.1899 140.379 70.553 140.928 70.5733C141.008 70.5733 141.088 70.5937 141.168 70.6327C141.128 70.7319 141.097 70.8515 141.097 70.9711C141.078 71.3786 141.297 71.7169 141.577 71.7169C141.667 71.7169 141.756 71.6868 141.836 71.6177C141.867 71.7567 141.876 71.9064 141.876 72.0552ZM150.833 72.3342C150.803 73.1394 150.334 73.7763 149.784 73.7559C149.235 73.7364 148.816 73.0695 148.835 72.274C148.866 71.4786 149.334 70.8417 149.884 70.8621C149.904 70.8621 149.934 70.8621 149.954 70.8718C149.934 70.9515 149.914 71.041 149.914 71.1305C149.895 71.538 150.114 71.8763 150.394 71.8763C150.483 71.8763 150.573 71.8462 150.653 71.7771C150.683 71.7567 150.713 71.7275 150.743 71.6876C150.803 71.8763 150.843 72.1049 150.833 72.3342Z" fill="#603D3D"/>
<path d="M138.127 72.5457C138.127 72.5457 136.816 70.3074 135.974 71.8926C135.131 73.4777 137 76.6587 138.218 76.6587C139.435 76.6595 138.127 72.5457 138.127 72.5457ZM154.934 72.5457C154.934 72.5457 156.245 70.3074 157.088 71.8926C157.931 73.4777 156.061 76.6587 154.844 76.6587C153.626 76.6595 154.934 72.5457 154.934 72.5457Z" fill="#FFD392"/>
<path d="M149.301 54.1099C150.916 55.5121 152.189 56.6085 153.193 57.4674C153.314 57.504 153.435 57.5397 153.56 57.5641C154.76 57.7984 156.3 57.5877 156.879 58.8801C157.124 59.4267 157.083 59.9879 156.926 60.5613C156.928 60.5621 156.929 60.5629 156.929 60.5629C156.929 60.5629 156.925 60.5686 156.924 60.571C156.639 61.6105 155.971 62.6914 155.897 63.8122C155.926 63.3844 157.279 65.1753 157.355 65.573C157.585 66.7694 157.907 68.6084 156.854 69.1249C156.242 69.425 155.811 71.0394 155.065 72.954C155.337 70.523 155.783 69.3737 154.134 66.9988C152.915 67.7576 151.226 66.8215 150.836 65.2575C148.519 66.1448 145.522 66.5531 141.798 65.6576C139.735 66.0651 137.191 65.9594 136.103 63.8024C135.787 63.1761 135.655 62.4889 135.646 61.7788C134.984 60.737 134.469 59.4218 134.255 57.7528C133.314 50.4678 141.987 47.7618 149.301 54.1099Z" fill="#2E2E2E"/>
<path opacity="0.25" d="M139.793 63.4649C139.793 63.4649 146.06 65.5479 152.015 63.2876C152.015 63.2876 144.899 66.8638 139.793 63.4649Z" fill="white"/>
<path opacity="0.25" d="M144.583 62.8281C144.583 62.8281 148.621 64.1701 152.459 62.7142C152.459 62.7142 147.873 65.0184 144.583 62.8281ZM135.995 54.8143C135.711 53.2356 137.381 51.1006 141.419 51.3576C145.458 51.6146 151.458 57.0501 151.458 57.0501C151.458 57.0501 147.222 53.6447 143.445 53.6951C139.669 53.7472 136.423 57.1908 135.995 54.8143Z" fill="white"/>
<g opacity="0.55">
<path d="M144.517 71.5779C144.487 71.4819 144.454 71.3851 144.416 71.2932C144.365 71.1672 144.306 71.0419 144.247 70.9248C144.184 70.8118 144.113 70.7028 144.041 70.5978C143.649 70.0318 143.094 69.5877 142.438 69.3323C142.042 69.1729 141.609 69.0891 141.159 69.0891C141.028 69.0891 140.897 69.0972 140.772 69.1103C140.254 69.1688 139.77 69.3364 139.345 69.5918C139.067 69.7634 138.811 69.9691 138.592 70.2074C138.297 70.5173 138.062 70.8866 137.902 71.2924C137.814 71.5104 137.75 71.7365 137.712 71.9756C137.675 72.1725 137.658 72.3693 137.658 72.5751C137.658 72.7759 137.675 72.9687 137.708 73.1615C137.83 73.891 138.184 74.5441 138.688 75.0427C139.218 75.5665 139.908 75.9227 140.683 76.0277C140.839 76.0488 140.998 76.061 141.158 76.061C141.587 76.061 141.999 75.9854 142.378 75.843C143.707 75.3485 144.659 74.0708 144.659 72.5742C144.66 72.2278 144.609 71.8967 144.517 71.5779ZM142.148 75.5632C141.836 75.6682 141.504 75.7227 141.159 75.7227C140.999 75.7227 140.843 75.7105 140.692 75.6852C140.402 75.6478 140.124 75.5641 139.867 75.4421C139.854 75.438 139.841 75.4339 139.833 75.4299C139.333 75.2037 138.903 74.8475 138.592 74.4034C138.31 74.0179 138.117 73.5657 138.041 73.0753C138.011 72.9118 137.998 72.7483 137.998 72.5767C137.998 72.5051 138.002 72.4344 138.011 72.3668C138.032 71.9854 138.125 71.6251 138.272 71.2941C138.52 70.7369 138.924 70.2636 139.433 69.9366C139.828 69.6812 140.283 69.5088 140.771 69.4502C140.897 69.4332 141.027 69.425 141.158 69.425C142.446 69.425 143.552 70.192 144.044 71.2941C144.099 71.4152 144.145 71.5372 144.183 71.6674C144.271 71.9561 144.318 72.2627 144.318 72.5767C144.318 73.3266 144.056 74.0098 143.615 74.5506C143.241 75.0142 142.732 75.3745 142.148 75.5632ZM153.172 71.7333C153.159 71.6828 153.142 71.6283 153.129 71.5779C153.1 71.4819 153.066 71.3851 153.028 71.2932C152.919 71.0167 152.776 70.7573 152.603 70.5222C152.347 70.1741 152.031 69.8772 151.665 69.6462C151.467 69.5161 151.257 69.4071 151.034 69.3193C150.643 69.1729 150.217 69.0891 149.771 69.0891C148.753 69.0891 147.832 69.5251 147.192 70.2205C147.188 70.2245 147.184 70.2286 147.18 70.2335C146.898 70.5393 146.67 70.8996 146.515 71.2941C146.359 71.6877 146.271 72.1237 146.271 72.5767C146.271 72.7776 146.288 72.9703 146.322 73.1631C146.599 74.806 148.042 76.0626 149.772 76.0626C150.505 76.0626 151.186 75.8406 151.745 75.4551C152.666 74.8264 153.272 73.7707 153.272 72.5759C153.273 72.2863 153.239 72.0017 153.172 71.7333ZM151.737 75.0395C151.198 75.4673 150.517 75.7227 149.772 75.7227C149.309 75.7227 148.871 75.6218 148.476 75.4421C148.472 75.438 148.468 75.438 148.464 75.438C147.517 75.011 146.818 74.131 146.655 73.0744C146.625 72.911 146.612 72.7475 146.612 72.5759C146.612 72.1188 146.709 71.6836 146.886 71.2932C147.378 70.1912 148.489 69.4242 149.772 69.4242C150.487 69.4242 151.144 69.6593 151.67 70.061C152.1 70.375 152.44 70.7987 152.659 71.2932C152.714 71.4144 152.76 71.5364 152.798 71.6666C152.886 71.9553 152.933 72.2619 152.933 72.5759C152.933 73.3176 152.676 73.9968 152.247 74.5328C152.099 74.7214 151.926 74.8931 151.737 75.0395Z" fill="#EABE7D"/>
</g>
<path d="M155.812 70.4978L153.12 70.5214C152.855 70.0317 152.477 69.6088 152.019 69.294C151.455 68.9044 150.773 68.6783 150.033 68.6783C148.745 68.6783 147.618 69.3729 147.008 70.4075H144.443C143.833 69.3737 142.706 68.6783 141.419 68.6783C141.323 68.6783 141.226 68.6824 141.128 68.6905C140.573 68.7369 140.055 68.9085 139.601 69.181C139.067 69.512 138.625 69.9732 138.33 70.5222C138.33 70.5222 138.33 70.5222 138.33 70.523L137.248 70.5734V71.7828L137.947 71.7324V71.7332C137.939 71.7666 137.939 71.7959 137.935 71.8292C137.923 71.9382 137.918 72.0512 137.918 72.1643C137.918 72.5124 137.969 72.8434 138.061 73.1614C138.237 73.7438 138.562 74.2594 138.99 74.6702C139.331 75.0012 139.735 75.2566 140.185 75.429C140.193 75.4331 140.206 75.4371 140.219 75.4412C140.479 75.5331 140.757 75.6006 141.043 75.6299C141.165 75.6421 141.292 75.651 141.418 75.651C141.776 75.651 142.121 75.5966 142.449 75.5006C143.038 75.316 143.56 74.9849 143.968 74.549C144.557 73.9292 144.919 73.0907 144.919 72.1643C144.919 71.9634 144.901 71.7706 144.868 71.5779C144.851 71.4819 144.834 71.3851 144.809 71.2932C144.776 71.168 144.738 71.0427 144.692 70.9256H146.757C146.711 71.0427 146.673 71.168 146.639 71.2932C146.567 71.5697 146.53 71.8634 146.53 72.1651C146.53 72.5132 146.58 72.8442 146.673 73.1622C146.988 74.2098 147.787 75.0565 148.815 75.438C148.819 75.438 148.823 75.438 148.827 75.442C149.202 75.5762 149.605 75.6519 150.031 75.6519C150.801 75.6519 151.512 75.4046 152.088 74.9898C152.273 74.8515 152.442 74.7003 152.597 74.5327C153.178 73.9121 153.531 73.0825 153.531 72.1651C153.531 72.0187 153.523 71.8756 153.502 71.7332C153.502 71.7324 153.502 71.7324 153.502 71.7324H155.636L155.812 70.4978ZM142.219 75.207C141.966 75.2777 141.697 75.3119 141.419 75.3119C141.297 75.3119 141.175 75.3038 141.053 75.2867C140.153 75.1858 139.37 74.7084 138.865 74.0171C138.66 73.7365 138.495 73.4176 138.394 73.0744C138.31 72.806 138.268 72.5213 138.264 72.2277C138.259 72.2066 138.259 72.1854 138.259 72.1651C138.259 71.8634 138.302 71.5697 138.386 71.2932C138.495 70.8906 138.689 70.5262 138.945 70.2082C139.151 69.9439 139.404 69.7137 139.686 69.5291C140.107 69.2526 140.599 69.0761 141.125 69.0305C141.222 69.0183 141.319 69.0134 141.42 69.0134C141.912 69.0134 142.38 69.1265 142.792 69.3323C143.596 69.7137 144.206 70.4262 144.454 71.2932C144.491 71.4144 144.521 71.5405 144.538 71.6665C144.567 71.83 144.58 71.9935 144.58 72.1651C144.58 73.6275 143.578 74.8556 142.219 75.207ZM152.082 74.562C151.53 75.0313 150.815 75.3119 150.033 75.3119C148.602 75.3119 147.399 74.3692 147.008 73.0744C146.919 72.7849 146.873 72.4791 146.873 72.1651C146.873 71.8634 146.915 71.5697 146.999 71.2932C147.109 70.9036 147.294 70.5433 147.534 70.2326C147.538 70.2286 147.542 70.2245 147.546 70.2196C148.122 69.486 149.022 69.0126 150.033 69.0126C150.521 69.0126 150.979 69.1216 151.387 69.3184C151.614 69.4234 151.829 69.5576 152.023 69.7162C152.519 70.1147 152.889 70.6637 153.066 71.2916C153.104 71.4128 153.133 71.5388 153.151 71.6649C153.18 71.8284 153.193 71.9919 153.193 72.1635C153.192 73.1248 152.763 73.9837 152.082 74.562Z" fill="#222222"/>
<path opacity="0.15" d="M142.688 84.496C142.688 84.496 145.763 86.1389 149.362 84.2723C149.362 84.2723 146.963 90.9937 142.688 84.496Z" fill="#292929"/>
<path d="M141.345 88.9164L145.98 92.8684L151.202 87.9795L152.787 89.6078L151.072 142.562L139.787 90.6871L141.345 88.9164Z" fill="white"/>
<path d="M144.871 92.3016L148.313 91.8762L149.792 93.1231L148.939 95.7013L154.487 126.47L150.959 142.789L143.107 125.45L145.725 95.5883L144.444 94.0584L144.871 92.3016Z" fill="#AD4949"/>
<path opacity="0.1" d="M151.693 110.976C151.199 112.388 150.652 113.778 150.111 115.136C148.634 118.847 146.96 122.475 145.4 126.151C145.085 126.892 144.758 127.632 144.429 128.372L150.958 142.789L154.485 126.47L151.693 110.976Z" fill="#424242"/>
<path d="M152.495 89.3549C149.736 91.8477 151.301 142.788 151.301 142.788L159.209 126.355L155.796 113.436L158.868 105.107C158.868 105.107 155.539 90.4024 152.495 89.3549Z" fill="#424242"/>
<path d="M139.836 90.6578C144.956 94.6529 151.357 143.185 151.357 143.185L140.263 127.717L140.775 112.588L136.337 104.768C136.337 104.768 138.299 90.9132 139.836 90.6578Z" fill="#424242"/>
<path d="M151.325 142.553L151.846 183.689C151.846 183.689 153.674 169.772 153.064 160.442C152.455 151.112 151.325 142.553 151.325 142.553ZM148.114 140.04C148.114 140.792 147.503 141.401 146.749 141.401C145.995 141.401 145.384 140.792 145.384 140.04C145.384 139.29 145.995 138.681 146.749 138.681C147.503 138.681 148.114 139.29 148.114 140.04ZM148.114 154.405C148.114 155.156 147.503 155.764 146.749 155.764C145.995 155.764 145.384 155.156 145.384 154.405C145.384 153.654 145.995 153.045 146.749 153.045C147.503 153.045 148.114 153.654 148.114 154.405ZM148.741 169.506C148.741 170.256 148.129 170.866 147.375 170.866C146.621 170.866 146.009 170.257 146.009 169.506C146.009 168.755 146.621 168.147 147.375 168.147C148.129 168.146 148.741 168.754 148.741 169.506Z" fill="#6F2020"/>
<path d="M76.9605 95.8949L74.25 99.4679L75.141 101.098L72.0295 104.766C72.0295 104.766 69.1932 104.811 69.6162 106.761C70.0392 108.711 74.0646 109.969 74.0646 109.969C74.0646 109.969 84.1847 97.8623 83.8344 96.8237C83.484 95.7859 76.9605 95.8949 76.9605 95.8949Z" fill="#752727"/>
<path d="M75.2716 101.556C75.2716 101.556 75.5117 102.011 75.1042 102.387C74.6967 102.763 74.3823 102.61 74.3823 102.61C74.3823 102.61 74.3366 102.857 74.0638 103.349C73.791 103.841 73.3451 103.622 73.3451 103.622C73.3451 103.622 73.0985 103.875 73.0666 104.014C73.0356 104.152 73.0462 104.807 72.6861 104.785C72.3259 104.764 72.152 104.627 72.152 104.627L73.4595 103.077L74.6551 101.678L75.2716 101.556Z" fill="url(#paint0_linear_531_1075)"/>
<path d="M78.2484 95.9558L75.3737 99.7224L76.3194 101.442L73.0185 105.309C73.0185 105.309 70.0082 105.356 70.4582 107.412C70.9082 109.469 75.1794 110.797 75.1794 110.797C75.1794 110.797 79.4268 101.899 85.5429 96.9375C85.1713 95.8428 78.2484 95.9558 78.2484 95.9558Z" fill="white"/>
<path d="M76.9687 106.217C77.3696 105.402 77.8327 104.624 78.3382 103.87C78.8535 103.102 79.3991 102.355 79.9136 101.587C80.1047 101.302 80.3015 101.019 80.4607 100.714C80.6208 100.407 80.758 100.066 80.7506 99.7142C80.7368 99.0774 80.2206 98.6992 79.6988 98.4381C79.1532 98.1657 78.5685 97.9957 78.0075 97.7614C77.7159 97.6394 77.4146 97.5443 77.1165 97.4385L78.2484 95.9558C78.2484 95.9558 85.1713 95.8428 85.5428 96.9375C80.6747 100.886 76.9907 107.329 75.6898 109.794C75.9715 108.558 76.4092 107.355 76.9687 106.217Z" fill="url(#paint1_linear_531_1075)"/>
<path d="M74.3847 102.365C74.5799 102.508 74.9082 102.396 75.1173 102.113C75.3271 101.83 75.3386 101.485 75.1426 101.341C74.9474 101.198 74.6191 101.31 74.41 101.593C74.201 101.876 74.1895 102.222 74.3847 102.365ZM73.3737 103.458C73.5689 103.602 73.8972 103.489 74.107 103.206C74.3169 102.923 74.3275 102.577 74.1324 102.434C73.9372 102.291 73.6089 102.403 73.399 102.686C73.1899 102.969 73.1785 103.315 73.3737 103.458ZM72.3626 104.552C72.5578 104.696 72.8861 104.583 73.096 104.3C73.3051 104.017 73.3165 103.671 73.1213 103.528C72.9261 103.384 72.5978 103.497 72.388 103.78C72.1789 104.062 72.1675 104.408 72.3626 104.552Z" fill="#932727"/>
<path d="M83.4808 97.3263L81.3142 97.3499C81.3142 97.3499 74.5154 107.713 72.5766 108.026C70.6379 108.34 73.4195 110.699 74.3725 110.022C75.3247 109.346 79.7445 99.2775 83.4808 97.3263Z" fill="url(#paint2_linear_531_1075)"/>
<path d="M75.3737 99.7224L74.2508 99.467C74.2508 99.467 75.6032 99.0734 76.2092 98.0819C76.8151 97.0905 77.4766 96.1812 77.4766 96.1812L77.8645 96.478L75.3737 99.7224Z" fill="url(#paint3_linear_531_1075)"/>
<path opacity="0.26" d="M74.9523 101.404C74.8853 101.269 74.5562 101.428 74.4558 101.745C74.3553 102.062 74.3814 102.412 74.584 102.323C74.7873 102.235 74.5219 102.032 74.6477 101.821C74.7743 101.609 75.0095 101.519 74.9523 101.404ZM73.8237 102.574C73.7673 102.46 73.488 102.594 73.4031 102.864C73.3181 103.133 73.3394 103.429 73.5117 103.354C73.684 103.279 73.4586 103.108 73.5656 102.928C73.6726 102.748 73.8727 102.672 73.8237 102.574ZM72.8526 103.67C72.7963 103.556 72.517 103.69 72.4321 103.959C72.3463 104.228 72.3684 104.524 72.5407 104.45C72.713 104.375 72.4876 104.203 72.5946 104.023C72.7016 103.844 72.9016 103.767 72.8526 103.67Z" fill="#F9F9F9"/>
<path d="M89.15 92.9872C88.7572 94.7545 89.1174 96.3365 89.9536 96.5211C90.7899 96.7057 91.787 95.4223 92.1799 93.6557C92.5727 91.8884 92.2125 90.3064 91.3763 90.1218C90.5392 89.9372 89.5428 91.2198 89.15 92.9872Z" fill="#761A1A"/>
<path d="M89.15 92.9872C88.7572 94.7545 89.1174 96.3365 89.9536 96.5211C90.7899 96.7057 91.787 95.4223 92.1799 93.6557C92.5727 91.8884 92.2125 90.3064 91.3763 90.1218C90.5392 89.9372 89.5428 91.2198 89.15 92.9872Z" fill="#D56F6F"/>
<path d="M87.5723 92.6391C86.9769 95.3174 87.275 97.6614 88.2379 97.8737C89.2007 98.086 90.4633 96.086 91.0586 93.4077C91.654 90.7294 91.3567 88.3862 90.3939 88.1731C89.431 87.9616 88.1676 89.9608 87.5723 92.6391Z" fill="#3F3F3F"/>
<path d="M87.5723 92.6391C86.9769 95.3174 87.275 97.6614 88.2379 97.8737C89.2007 98.086 90.4633 96.086 91.0586 93.4077C91.654 90.7294 91.3567 88.3862 90.3939 88.1731C89.431 87.9616 88.1676 89.9608 87.5723 92.6391Z" fill="#424242"/>
<path d="M86.1643 92.3292C85.404 95.7501 85.5682 98.6952 86.531 98.9074C87.4939 99.1197 88.8904 96.5187 89.6507 93.0978C90.411 89.6769 90.2469 86.7318 89.2848 86.5196C88.3212 86.3073 86.9247 88.9083 86.1643 92.3292Z" fill="#FF9800"/>
<path d="M89.284 86.5196L76.2582 83.6486L73.5052 96.0364L86.531 98.9075C86.531 98.9075 90.8112 92.1585 89.284 86.5196Z" fill="#752727"/>
<path d="M73.1385 89.4574C72.3781 92.8783 72.5423 95.8233 73.5051 96.0356C74.468 96.2479 75.8645 93.6469 76.6248 90.226C77.3851 86.8051 77.221 83.86 76.2581 83.6477C75.2961 83.4355 73.8988 86.0365 73.1385 89.4574Z" fill="#3F3F3F"/>
<path d="M73.1385 89.4574C72.3781 92.8783 72.5423 95.8233 73.5051 96.0356C74.468 96.2479 75.8645 93.6469 76.6248 90.226C77.3851 86.8051 77.221 83.86 76.2581 83.6477C75.2961 83.4355 73.8988 86.0365 73.1385 89.4574Z" fill="#752727"/>
<path d="M59.6357 72.178C66.4818 79.4078 75.9584 84.0307 75.9584 84.0307L75.9494 84.0763C76.615 84.3658 76.6126 86.997 75.9282 90.0722C75.2251 93.2344 74.0687 95.6695 73.3451 95.5101C73.3108 95.5028 73.2789 95.4874 73.2487 95.4695C71.8686 95.5142 62.1837 95.9436 53.5965 99.3499C44.3265 103.028 41.8936 102.757 41.8936 102.757L45.928 84.6033L46.4343 82.3244L50.4686 64.1708C50.4702 64.1716 52.7904 64.9483 59.6357 72.178Z" fill="#FF9800"/>
<path opacity="0.25" d="M64.0359 94.5666C65.679 94.5032 67.3385 94.683 68.9718 94.4422C70.4917 94.2185 72.0474 93.7281 73.1793 92.6496C74.29 91.5915 74.9711 90.1665 75.5615 88.7765C75.742 88.352 75.9102 87.9323 76.0229 87.4833C76.1365 87.0352 76.2067 86.5781 76.2622 86.1202C76.3063 85.7574 76.3431 85.3939 76.3847 85.0311C76.5407 86.1177 76.3904 87.9925 75.9282 90.0714C75.2251 93.2336 74.0687 95.6687 73.3451 95.5093C73.3108 95.502 73.2789 95.4865 73.2487 95.4686C71.8686 95.5134 62.1837 95.9428 53.5965 99.349C44.3265 103.027 41.8936 102.756 41.8936 102.756C41.8936 102.756 55.3033 94.9042 64.0359 94.5666Z" fill="#D56F6F"/>
<path d="M54.4311 73.0743L54.5724 78.2545C54.5724 78.2545 60.8207 82.8197 71.9682 84.7253C71.9682 84.7245 59.2208 79.2174 54.4311 73.0743Z" fill="url(#paint4_linear_531_1075)"/>
<path opacity="0.25" d="M49.349 97.0482L51.6724 92.4114C51.6724 92.4114 59.2715 90.8994 70.1846 93.8567C70.1846 93.8559 56.2947 93.4915 49.349 97.0482Z" fill="#D56F6F"/>
<path d="M38.8801 81.8445C36.5134 92.4943 37.9434 101.866 42.0749 102.777C46.2065 103.688 51.4748 95.7924 53.8415 85.1426C56.2082 74.4928 54.7782 65.1208 50.6467 64.2098C46.5152 63.2997 41.2468 71.1947 38.8801 81.8445Z" fill="#752727"/>
<path d="M39.7009 82.0251C37.4583 92.1153 38.5428 100.935 42.1239 101.725C45.7042 102.514 50.4253 94.9742 52.6679 84.884C54.9105 74.7938 53.8259 65.9732 50.2448 65.1842C46.6646 64.3945 41.9442 71.9349 39.7009 82.0251Z" fill="#D56F6F"/>
<path d="M42.7773 72.6904C42.5617 73.5013 42.3583 74.3155 42.1762 75.1345C41.7009 77.2638 41.3865 79.4183 41.1611 81.5875C40.9977 83.1605 40.8891 84.744 40.9447 86.3252C40.9977 87.8388 41.1995 89.3711 41.7254 90.7985C42.2252 92.1535 43.0378 93.3881 44.1852 94.2852C45.4616 95.284 47.0631 95.8265 48.6573 96.0843C46.5535 99.9404 44.1558 102.173 42.1256 101.725C38.5445 100.935 37.4599 92.1161 39.7025 82.0251C40.4792 78.5269 41.5547 75.3346 42.7773 72.6904Z" fill="url(#paint5_linear_531_1075)"/>
<path d="M45.4151 80.4635L44.1934 85.9608L51.7451 88.4456C52.0848 87.3044 52.3951 86.1121 52.6679 84.8848C52.9407 83.6583 53.1636 82.4521 53.3384 81.2768L45.4151 80.4635Z" fill="#F9F9F9"/>
<path d="M45.4151 80.4635L44.1934 85.9608L51.7451 88.4456C52.0848 87.3044 52.3951 86.1121 52.6679 84.8848C52.9407 83.6583 53.1636 82.4521 53.3384 81.2768L45.4151 80.4635Z" fill="#F9F9F9"/>
<path d="M45.4151 80.4635L44.1934 85.9608L51.7451 88.4456C52.0848 87.3044 52.3951 86.1121 52.6679 84.8848C52.9407 83.6583 53.1636 82.4521 53.3384 81.2768L45.4151 80.4635Z" fill="#FF9800"/>
<path d="M43.2885 82.8774C42.9512 84.3951 43.3555 85.7753 44.1926 85.9599C45.0297 86.1446 45.9811 85.0637 46.3184 83.546C46.6556 82.0283 46.2506 80.6481 45.4143 80.4634C44.5772 80.278 43.6258 81.3597 43.2885 82.8774Z" fill="#752727"/>
<path d="M43.7956 82.9889C43.5343 84.165 43.7736 85.2174 44.3306 85.3402C44.8875 85.463 45.5507 84.609 45.812 83.4338C46.0733 82.2577 45.834 81.2052 45.2771 81.0824C44.7201 80.9596 44.057 81.8136 43.7956 82.9889Z" fill="#FF9100"/>
<path d="M71.5296 98.2478C71.5296 98.2478 71.969 97.9965 73.0274 97.4556C74.0858 96.9139 75.0151 96.6496 75.5411 96.9749C76.067 97.3002 75.3451 98.5032 74.058 99.4621C72.7709 100.421 71.6015 99.1652 71.5296 98.2478Z" fill="#FFDFB0"/>
<path d="M71.5296 98.2478C71.5296 98.2478 79.7763 100.246 79.5771 101.818C79.484 102.552 76.642 102.121 74.4435 101.677C77.1124 102.318 79.3655 103.175 78.8951 103.894C78.5334 104.447 76.116 104.049 73.911 103.695C75.4006 104.075 78.4394 104.948 78.2443 105.587C77.9127 106.672 74.851 105.939 72.7946 105.4C73.9968 105.804 77.0903 106.828 76.918 107.416C76.7653 107.935 76.0278 108.221 73.4447 107.533C71.9371 107.131 71.9077 107.432 71.2585 107.115C70.7571 106.871 70.2107 106.673 69.9045 106.278C68.4255 104.378 70.2336 98.5203 71.5296 98.2478Z" fill="#FEDAA5"/>
<path opacity="0.2" d="M76.6844 107.447C76.7179 107.161 75.9119 106.736 75.8122 106.759C75.8122 106.759 75.5909 107.464 75.6081 107.6C75.6244 107.738 76.6518 107.732 76.6844 107.447ZM78.0303 105.653C78.0638 105.368 77.2577 104.942 77.1573 104.966C77.1573 104.966 76.936 105.67 76.9531 105.807C76.9711 105.944 77.9976 105.938 78.0303 105.653ZM78.7057 103.64C78.7392 103.355 77.9331 102.929 77.8335 102.953C77.8335 102.953 77.6122 103.657 77.6293 103.794C77.6456 103.932 78.6722 103.926 78.7057 103.64ZM79.3215 101.648C79.3549 101.363 78.5489 100.937 78.4493 100.962C78.4493 100.962 78.2279 101.666 78.2451 101.803C78.2622 101.939 79.2888 101.934 79.3215 101.648Z" fill="white"/>
<path opacity="0.1" d="M73.1131 105.505L70.6419 104.314C70.6419 104.314 69.8432 104.997 70.33 106.057C70.33 106.057 69.1662 105.059 70.0686 102.072C70.971 99.0855 71.4284 98.8008 71.4284 98.8008C71.4284 98.8008 71.1532 99.7312 71.635 100.442C71.742 100.601 74.4059 101.656 74.2352 101.608C74.0646 101.561 71.5688 100.995 71.5688 100.995L71.1964 102.262L73.5787 103.552L71.0176 102.753L70.744 103.846L73.1131 105.505Z" fill="#202020"/>
<path d="M179.361 189.543C184.907 198.493 183.611 200.798 182.23 205.041C180.877 209.189 190.003 212.24 184.662 220.624L186.652 221.094C186.652 221.094 200.516 221.843 200.514 214.757C200.514 207.672 188.629 213.169 189.586 208.36C190.54 203.55 198.596 199.203 196.564 195.928C194.535 192.651 191.041 201.058 187.508 197.798C183.978 194.537 192.227 190.151 192.169 185.663C192.115 181.175 188.144 185.274 182.494 185.806C177.29 186.299 183.197 174.464 178.997 174.936C177.424 177.945 175.629 183.521 179.361 189.543Z" fill="#BA5252"/>
<path d="M171.707 197.712C172.078 202.463 182.659 207.567 177.409 209.965C172.157 212.363 174.95 218.336 174.95 218.336L184.662 220.624C190.003 212.24 180.876 209.189 182.23 205.041C183.611 200.797 184.907 198.493 179.36 189.543C175.628 183.521 177.423 177.944 178.996 174.936C178.635 174.977 178.199 175.11 177.678 175.347C171.063 178.357 175.945 188.55 176.88 190.915C177.816 193.28 171.339 192.965 171.707 197.712Z" fill="#D56F6F"/>
<path d="M192.507 192.553C193.084 193.995 191.957 196.183 191.519 196.946C191.566 197.627 191.611 198.867 191.427 199.719C192.102 199.151 192.856 198.638 193.704 198.217C194.478 197.832 195.138 197.402 195.707 196.946C196.213 196.268 196.688 195.738 197.343 195.267C198.549 193.66 198.942 192.012 199.065 190.984C198.365 190.092 197.933 189.349 197.688 188.023C197.413 186.53 200.387 185.659 200.836 187.301C201.247 188.805 199.656 190.925 199.384 191.273C199.247 192.194 198.909 193.48 198.096 194.795C198.233 194.721 198.372 194.647 198.525 194.573C200.062 193.836 201.884 196.778 200.236 197.745C198.862 198.551 196.438 197.721 195.67 197.423C195.143 197.819 194.546 198.194 193.862 198.533C191.304 199.803 189.592 201.925 188.475 203.903C188.976 203.756 189.636 203.761 190.164 203.786C191.309 203.02 192.191 202.573 193.78 202.415C195.477 202.246 196.18 205.63 194.299 205.978C192.745 206.266 190.778 204.695 190.139 204.14C189.496 204.111 188.604 204.107 188.232 204.4C188.222 204.408 188.209 204.408 188.198 204.414C187.006 206.699 186.604 208.669 186.596 208.706C186.578 208.802 186.484 208.865 186.388 208.846C186.373 208.843 186.36 208.838 186.346 208.833C186.275 208.799 186.231 208.72 186.248 208.638C186.259 208.578 187.255 203.664 190.832 200.246C190.837 200.241 190.839 200.233 190.845 200.228C191.216 199.85 191.245 198.24 191.169 197.034C190.183 196.057 189.564 195.279 189.098 193.75C188.603 192.126 191.8 190.783 192.507 192.553ZM202.181 200.98C202.518 202.38 201.193 204.239 200.69 204.882C200.641 205.514 200.517 206.657 200.235 207.414C200.931 206.982 201.692 206.61 202.525 206.336C202.988 206.184 203.409 206.009 203.804 205.819C203.131 204.898 202.715 204.114 202.507 202.76C202.269 201.204 205.382 200.393 205.796 202.111C206.017 203.028 205.525 204.139 205.018 204.978C205.402 204.638 205.791 204.352 206.259 204.108C207.581 202.792 208.16 201.332 208.41 200.404C207.885 199.492 207.588 198.754 207.54 197.505C207.485 196.098 210.331 195.692 210.525 197.258C210.702 198.692 208.96 200.428 208.663 200.712C208.415 201.54 207.934 202.675 207.013 203.775C207.149 203.724 207.287 203.674 207.437 203.627C208.945 203.153 210.227 206.093 208.585 206.764C207.216 207.322 205.102 206.241 204.437 205.866C203.901 206.159 203.303 206.425 202.63 206.647C202.454 206.704 202.282 206.768 202.113 206.834C202.625 206.719 203.18 206.671 203.864 206.7C205.444 206.769 205.639 209.968 203.866 210.039C202.441 210.097 200.893 208.49 200.339 207.856C200.339 207.856 199.295 208.06 196.97 210.865C197.45 210.796 198.055 210.887 198.537 210.98C199.69 210.428 200.559 210.134 202.037 210.198C203.617 210.267 203.813 213.466 202.04 213.537C200.576 213.596 198.979 211.895 198.467 211.3C197.879 211.188 197.062 211.068 196.681 211.288C196.671 211.294 196.659 211.293 196.648 211.296C195.249 213.237 194.619 214.991 194.607 215.025C194.577 215.11 194.483 215.156 194.397 215.126C194.384 215.121 194.372 215.115 194.36 215.108C194.298 215.067 194.27 214.989 194.295 214.917C194.314 214.863 195.881 210.484 199.62 207.819C199.625 207.815 199.628 207.808 199.634 207.804C200.025 207.506 200.266 206.032 200.356 204.916C199.582 203.889 199.117 203.093 198.893 201.628C198.654 200.072 201.767 199.261 202.181 200.98ZM150.938 221.574C150.81 221.765 130.513 221.574 130.513 221.574C130.513 221.574 126.985 217.296 132.924 214.176C136.283 212.411 130.427 209.158 132.255 205.714C134.082 202.268 137.839 206.689 139.42 203.634C141.001 200.579 144.33 193.689 145.7 197.979C147.071 202.269 140.413 204.934 144.786 208.12C149.16 211.305 154.576 212.93 149.225 214.1C143.872 215.268 153.81 217.296 150.938 221.574Z" fill="#FF9100"/>
<path d="M123.551 190.46C129.097 199.409 127.801 201.714 126.42 205.958C125.067 210.106 134.193 213.156 128.852 221.541L130.842 222.01C130.842 222.01 144.706 222.759 144.704 215.674C144.704 208.589 132.819 214.086 133.776 209.277C134.73 204.467 142.785 200.12 140.754 196.845C138.725 193.568 135.23 201.975 131.698 198.715C128.168 195.453 136.417 191.068 136.359 186.579C136.304 182.091 132.334 186.19 126.684 186.723C121.48 187.215 127.386 175.38 123.187 175.853C121.613 178.861 119.818 184.438 123.551 190.46Z" fill="#BA5252"/>
<path d="M115.897 198.628C116.267 203.379 126.849 208.483 121.599 210.882C116.347 213.279 119.14 219.252 119.14 219.252L128.851 221.541C134.192 213.156 125.066 210.106 126.419 205.958C127.801 201.714 129.097 199.409 123.55 190.46C119.817 184.438 121.613 178.861 123.186 175.853C122.824 175.894 122.388 176.026 121.867 176.264C115.253 179.274 120.135 189.466 121.07 191.832C122.005 194.196 115.528 193.88 115.897 198.628Z" fill="#D56F6F"/>
<path d="M127.958 196.676C128.535 198.118 127.408 200.306 126.97 201.069C127.016 201.75 127.061 202.99 126.878 203.841C127.553 203.274 128.307 202.76 129.154 202.34C129.929 201.955 130.589 201.525 131.158 201.069C131.664 200.39 132.139 199.861 132.794 199.389C134 197.782 134.393 196.134 134.516 195.106C133.815 194.214 133.384 193.471 133.139 192.145C132.864 190.652 135.837 189.781 136.286 191.423C136.697 192.927 135.107 195.047 134.834 195.395C134.698 196.316 134.36 197.602 133.547 198.917C133.684 198.843 133.823 198.769 133.976 198.695C135.513 197.958 137.335 200.9 135.687 201.867C134.313 202.673 131.889 201.843 131.121 201.544C130.593 201.941 129.996 202.316 129.313 202.655C126.755 203.925 125.042 206.047 123.925 208.025C124.427 207.878 125.087 207.883 125.615 207.908C126.76 207.142 127.642 206.695 129.23 206.537C130.927 206.368 131.631 209.752 129.75 210.1C128.196 210.388 126.228 208.817 125.59 208.262C124.946 208.233 124.054 208.229 123.683 208.522C123.673 208.53 123.66 208.53 123.649 208.536C122.456 210.821 122.054 212.79 122.047 212.828C122.028 212.924 121.935 212.986 121.839 212.968C121.824 212.965 121.81 212.96 121.797 212.955C121.725 212.921 121.682 212.842 121.698 212.761C121.71 212.701 122.705 207.787 126.283 204.369C126.288 204.363 126.29 204.356 126.295 204.35C126.667 203.973 126.696 202.363 126.62 201.157C125.634 200.18 125.015 199.401 124.548 197.873C124.053 196.249 127.251 194.906 127.958 196.676ZM149.154 205.284C149.491 206.684 148.166 208.543 147.663 209.186C147.614 209.818 147.491 210.961 147.209 211.718C147.904 211.286 148.665 210.914 149.498 210.64C149.961 210.488 150.382 210.313 150.776 210.124C150.103 209.202 149.687 208.418 149.48 207.065C149.241 205.508 152.354 204.697 152.768 206.415C152.989 207.332 152.497 208.443 151.99 209.283C152.374 208.942 152.764 208.656 153.231 208.412C154.553 207.096 155.133 205.636 155.382 204.708C154.857 203.797 154.56 203.058 154.512 201.809C154.457 200.403 157.303 199.996 157.497 201.562C157.674 202.996 155.932 204.733 155.636 205.017C155.387 205.845 154.906 206.98 153.984 208.08C154.12 208.029 154.258 207.979 154.408 207.932C155.917 207.458 157.198 210.398 155.557 211.069C154.188 211.627 152.073 210.546 151.409 210.171C150.872 210.464 150.274 210.73 149.601 210.952C149.426 211.009 149.253 211.073 149.084 211.139C149.596 211.024 150.151 210.976 150.835 211.005C152.416 211.074 152.611 214.273 150.838 214.344C149.413 214.402 147.864 212.795 147.311 212.161C147.311 212.161 146.266 212.365 143.942 215.169C144.421 215.1 145.026 215.191 145.508 215.284C146.661 214.732 147.53 214.438 149.008 214.503C150.589 214.571 150.784 217.77 149.012 217.841C147.547 217.9 145.95 216.199 145.438 215.605C144.851 215.493 144.033 215.372 143.653 215.592C143.642 215.599 143.631 215.597 143.619 215.601C142.22 217.541 141.591 219.295 141.578 219.329C141.548 219.414 141.454 219.46 141.369 219.43C141.355 219.426 141.343 219.419 141.332 219.412C141.271 219.371 141.241 219.293 141.266 219.221C141.285 219.167 142.852 214.788 146.591 212.124C146.596 212.119 146.599 212.112 146.605 212.108C146.996 211.81 147.236 210.337 147.328 209.22C146.554 208.193 146.089 207.397 145.864 205.932C145.627 204.377 148.74 203.566 149.154 205.284Z" fill="#FF9100"/>
<path d="M95.1281 222.489C94.9998 222.681 74.7032 222.489 74.7032 222.489C74.7032 222.489 71.1744 218.211 77.114 215.091C80.473 213.327 74.6167 210.074 76.4444 206.629C78.2721 203.184 82.0287 207.605 83.6098 204.55C85.1909 201.495 88.5196 194.604 89.89 198.895C91.2603 203.185 84.6029 205.85 88.9761 209.035C93.3494 212.22 98.7663 213.845 93.4147 215.016C88.0614 216.184 97.9995 218.211 95.1281 222.489Z" fill="#BA5252"/>
<path d="M164.523 103.681C164.016 103.683 163.606 104.096 163.607 104.601L163.925 181.285C163.927 181.79 164.341 182.199 164.849 182.198L220.123 181.971C220.63 181.968 221.041 181.557 221.039 181.051L220.722 104.367C220.719 103.861 220.305 103.452 219.798 103.454L164.523 103.681Z" fill="white"/>
<path d="M175.398 135.413L172.078 135.427C171.593 135.429 171.199 135.04 171.196 134.556C171.195 134.073 171.585 133.68 172.071 133.678L175.391 133.664C175.876 133.662 176.27 134.052 176.272 134.535C176.275 135.019 175.883 135.411 175.398 135.413ZM192.771 139.53L172.096 139.615C171.611 139.616 171.216 139.228 171.214 138.744C171.212 138.261 171.602 137.868 172.088 137.865L192.764 137.781C193.249 137.779 193.643 138.168 193.646 138.652C193.648 139.135 193.257 139.528 192.771 139.53ZM185.1 148.264L192.807 148.232C193.292 148.23 193.687 148.619 193.689 149.103C193.691 149.586 193.3 149.979 192.814 149.982L185.108 150.013C184.622 150.015 184.228 149.625 184.226 149.142C184.224 148.658 184.615 148.265 185.1 148.264ZM172.132 148.317L179.675 148.286C180.16 148.284 180.555 148.673 180.557 149.157C180.559 149.64 180.168 150.033 179.682 150.035L172.139 150.066C171.654 150.068 171.259 149.678 171.257 149.195C171.255 148.711 171.646 148.319 172.132 148.317ZM172.114 144.129L192.79 144.044C193.275 144.043 193.67 144.431 193.672 144.915C193.674 145.398 193.283 145.791 192.797 145.794L172.122 145.878C171.637 145.88 171.242 145.491 171.24 145.007C171.238 144.523 171.629 144.13 172.114 144.129ZM172.114 158.012L192.79 157.927C193.275 157.925 193.67 158.314 193.672 158.798C193.674 159.281 193.283 159.674 192.797 159.677L172.122 159.761C171.637 159.763 171.242 159.374 171.24 158.89C171.238 158.407 171.629 158.014 172.114 158.012ZM172.114 166.79L192.79 166.705C193.275 166.704 193.67 167.093 193.672 167.576C193.674 168.06 193.283 168.452 192.797 168.455L172.122 168.539C171.637 168.541 171.242 168.152 171.24 167.668C171.238 167.184 171.629 166.792 172.114 166.79ZM179.874 156.587L172.167 156.619C171.682 156.621 171.287 156.232 171.285 155.748C171.283 155.265 171.673 154.872 172.159 154.87L179.866 154.838C180.351 154.836 180.746 155.226 180.747 155.709C180.75 156.193 180.359 156.586 179.874 156.587ZM179.874 171.84L172.167 171.872C171.682 171.874 171.287 171.485 171.285 171.001C171.283 170.517 171.673 170.125 172.159 170.122L179.866 170.09C180.351 170.089 180.746 170.478 180.747 170.962C180.75 171.445 180.359 171.838 179.874 171.84ZM179.74 108.434C181.248 108.434 182.023 109.108 182.023 110.287V110.519H180.558V110.213C180.558 109.687 180.276 109.487 179.783 109.487C179.29 109.487 179.008 109.687 179.008 110.213C179.008 111.729 182.038 112.013 182.038 114.118C182.038 115.298 181.249 115.971 179.727 115.971C178.205 115.971 177.415 115.298 177.415 114.118V113.665H178.881V114.192C178.881 114.718 179.192 114.907 179.685 114.907C180.178 114.907 180.488 114.718 180.488 114.192C180.488 112.676 177.458 112.392 177.458 110.286C177.457 109.108 178.232 108.434 179.74 108.434ZM188.998 115.887H187.434L187.166 114.55H185.264L184.996 115.887H183.572L185.151 108.518H187.42L188.998 115.887ZM185.461 113.551H186.955L186.208 109.824L185.461 113.551ZM190.774 108.519H192.324V114.835H194.874V115.887H190.773V108.519H190.774ZM198.157 111.624H200.285V112.676H198.157V114.834H200.835V115.887H196.607V108.517H200.835V109.569H198.157V111.624ZM204.935 108.434C206.443 108.434 207.218 109.108 207.218 110.287V110.519H205.753V110.213C205.753 109.687 205.471 109.487 204.978 109.487C204.485 109.487 204.203 109.687 204.203 110.213C204.203 111.729 207.233 112.013 207.233 114.118C207.233 115.298 206.444 115.971 204.922 115.971C203.4 115.971 202.61 115.298 202.61 114.118V113.665H204.076V114.192C204.076 114.718 204.387 114.907 204.88 114.907C205.373 114.907 205.683 114.718 205.683 114.192C205.683 112.676 202.653 112.392 202.653 110.286C202.652 109.108 203.427 108.434 204.935 108.434ZM177.014 125.081C176.929 124.891 176.872 124.776 176.872 124.175V123.017C176.872 122.333 176.562 122.08 175.858 122.08H175.322V125.081H173.772V117.711H176.112C177.718 117.711 178.409 118.269 178.409 119.406V119.985C178.409 120.743 178.085 121.238 177.395 121.48C178.17 121.722 178.424 122.28 178.424 123.049V124.186C178.424 124.544 178.438 124.807 178.593 125.081H177.014ZM175.322 118.764V121.028H175.928C176.506 121.028 176.858 120.838 176.858 120.249V119.522C176.858 118.996 176.619 118.764 176.07 118.764H175.322ZM182.044 120.817H184.172V121.87H182.044V124.028H184.722V125.081H180.494V117.711H184.722V118.763H182.044V120.817ZM191.331 119.533V120.491C191.331 121.67 190.569 122.312 189.019 122.312H188.287V125.081H186.737V117.711H189.02C190.569 117.712 191.331 118.353 191.331 119.533ZM188.286 118.764V121.26H189.019C189.512 121.26 189.78 121.091 189.78 120.565V119.46C189.78 118.933 189.512 118.765 189.019 118.765H188.286V118.764ZM193.049 119.48C193.049 118.301 193.88 117.627 195.402 117.627C196.924 117.627 197.756 118.301 197.756 119.48V123.312C197.756 124.491 196.925 125.164 195.402 125.164C193.88 125.164 193.049 124.491 193.049 123.312V119.48ZM194.599 123.386C194.599 123.912 194.909 124.112 195.402 124.112C195.896 124.112 196.205 123.912 196.205 123.386V119.406C196.205 118.88 195.895 118.68 195.402 118.68C194.909 118.68 194.599 118.88 194.599 119.406V123.386ZM203.054 125.081C202.969 124.891 202.913 124.776 202.913 124.175V123.017C202.913 122.333 202.602 122.08 201.898 122.08H201.363V125.081H199.812V117.711H202.152C203.759 117.711 204.45 118.269 204.45 119.406V119.985C204.45 120.743 204.125 121.238 203.435 121.48C204.21 121.722 204.464 122.28 204.464 123.049V124.186C204.464 124.544 204.478 124.807 204.633 125.081H203.054ZM201.363 118.764V121.028H201.968C202.546 121.028 202.899 120.838 202.899 120.249V119.522C202.899 118.996 202.659 118.764 202.11 118.764H201.363ZM206.083 117.712H210.874V118.764H209.254V125.081H207.704V118.764H206.084V117.712H206.083ZM214.579 138.802C214.467 142.079 211.707 144.645 208.418 144.533C205.127 144.421 202.551 141.673 202.663 138.396C202.776 135.12 205.535 132.553 208.825 132.666C212.115 132.778 214.691 135.525 214.579 138.802Z" fill="#D56F6F"/>
<path d="M214.053 138.784C213.95 141.772 211.435 144.112 208.435 144.009C205.434 143.907 203.086 141.402 203.189 138.414C203.291 135.427 205.806 133.087 208.806 133.189C211.806 133.292 214.156 135.796 214.053 138.784Z" fill="#FF9800"/>
<path d="M205.051 136.016C205.345 135.545 205.575 135.072 206.009 134.702C206.433 134.339 206.934 134.101 207.46 133.92C208.233 133.653 209.04 133.53 209.83 133.333C209.498 133.258 209.159 133.202 208.806 133.19C206.443 133.11 204.387 134.548 203.568 136.621C204.102 136.747 204.704 136.569 205.051 136.016Z" fill="#FFFAF2"/>
<path opacity="0.1" d="M211.982 135.101C211.709 135.436 212.008 136.13 212.129 136.471C212.292 136.927 212.517 137.365 212.644 137.834C212.967 139.021 213.103 140.526 212.24 141.524C211.967 141.84 211.601 142.04 211.297 142.322C211.035 142.565 210.812 142.845 210.534 143.073C209.963 143.538 209.26 143.729 208.53 143.642C207.814 143.557 206.597 143.021 205.7 143.159C206.493 143.664 207.425 143.976 208.435 144.01C211.434 144.112 213.95 141.773 214.053 138.785C214.104 137.276 213.529 135.891 212.563 134.876C212.339 134.862 212.129 134.919 211.982 135.101Z" fill="#D56F6F"/>
<path d="M210.41 140.544C210.11 140.827 209.684 141 209.132 141.064L209.104 141.871L208.229 141.841L208.255 141.063C207.891 141.027 207.548 140.953 207.226 140.843C206.904 140.732 206.637 140.601 206.429 140.448L206.939 139.404C207.163 139.562 207.424 139.692 207.722 139.795C208.02 139.897 208.316 139.953 208.607 139.963C209.162 139.982 209.443 139.853 209.453 139.577C209.458 139.431 209.383 139.321 209.227 139.246C209.071 139.17 208.819 139.087 208.472 138.998C208.091 138.902 207.773 138.802 207.518 138.7C207.264 138.597 207.048 138.438 206.87 138.223C206.693 138.008 206.61 137.725 206.622 137.371C206.636 136.954 206.799 136.602 207.111 136.314C207.423 136.027 207.864 135.859 208.436 135.81L208.463 135.011L209.339 135.041L209.312 135.826C209.589 135.859 209.853 135.917 210.106 135.998C210.359 136.079 210.583 136.181 210.779 136.305L210.297 137.358C209.819 137.08 209.352 136.932 208.895 136.917C208.608 136.907 208.397 136.943 208.262 137.023C208.129 137.103 208.059 137.211 208.054 137.346C208.049 137.482 208.124 137.586 208.277 137.66C208.431 137.733 208.678 137.812 209.021 137.896C209.407 137.991 209.727 138.091 209.979 138.194C210.231 138.297 210.447 138.455 210.628 138.666C210.808 138.879 210.891 139.162 210.88 139.516C210.866 139.918 210.709 140.261 210.41 140.544ZM214.579 152.835C214.467 156.112 211.707 158.678 208.418 158.565C205.127 158.453 202.551 155.706 202.663 152.429C202.776 149.152 205.535 146.586 208.825 146.698C212.115 146.81 214.69 149.559 214.579 152.835Z" fill="#D56F6F"/>
<path d="M214.053 152.817C213.95 155.805 211.435 158.144 208.435 158.042C205.434 157.939 203.086 155.435 203.189 152.447C203.291 149.459 205.806 147.119 208.806 147.222C211.806 147.324 214.156 149.829 214.053 152.817Z" fill="#FF9800"/>
<path d="M205.051 150.048C205.345 149.577 205.575 149.105 206.009 148.735C206.433 148.372 206.934 148.134 207.46 147.952C208.233 147.685 209.04 147.563 209.83 147.366C209.498 147.29 209.159 147.234 208.806 147.223C206.443 147.142 204.387 148.58 203.568 150.653C204.102 150.78 204.704 150.602 205.051 150.048Z" fill="#FFFAF2"/>
<path opacity="0.1" d="M211.982 149.133C211.709 149.468 212.008 150.162 212.129 150.504C212.292 150.96 212.517 151.398 212.644 151.866C212.967 153.054 213.103 154.558 212.24 155.556C211.967 155.873 211.601 156.073 211.297 156.354C211.035 156.597 210.812 156.878 210.534 157.106C209.963 157.571 209.26 157.762 208.53 157.675C207.814 157.59 206.597 157.054 205.7 157.192C206.493 157.697 207.425 158.008 208.435 158.043C211.434 158.145 213.95 155.805 214.053 152.818C214.104 151.309 213.529 149.924 212.563 148.909C212.339 148.896 212.129 148.951 211.982 149.133Z" fill="#D56F6F"/>
<path d="M210.41 154.577C210.11 154.86 209.684 155.033 209.132 155.097L209.104 155.903L208.229 155.873L208.255 155.096C207.891 155.059 207.548 154.985 207.226 154.875C206.904 154.765 206.637 154.633 206.429 154.481L206.939 153.437C207.163 153.594 207.424 153.724 207.722 153.827C208.02 153.929 208.316 153.986 208.607 153.995C209.162 154.014 209.443 153.885 209.453 153.609C209.458 153.463 209.383 153.354 209.227 153.278C209.071 153.202 208.819 153.119 208.472 153.03C208.091 152.935 207.773 152.835 207.518 152.732C207.264 152.629 207.048 152.47 206.87 152.256C206.693 152.041 206.61 151.757 206.622 151.403C206.636 150.987 206.799 150.635 207.111 150.347C207.423 150.059 207.864 149.891 208.436 149.842L208.463 149.044L209.339 149.073L209.312 149.858C209.589 149.891 209.853 149.949 210.106 150.03C210.359 150.112 210.583 150.213 210.779 150.337L210.297 151.39C209.819 151.112 209.352 150.965 208.895 150.949C208.608 150.94 208.397 150.975 208.262 151.055C208.129 151.136 208.059 151.243 208.054 151.379C208.049 151.515 208.124 151.619 208.277 151.692C208.431 151.765 208.678 151.844 209.021 151.929C209.407 152.024 209.727 152.123 209.979 152.226C210.231 152.33 210.447 152.487 210.628 152.699C210.808 152.911 210.891 153.194 210.88 153.548C210.866 153.951 210.709 154.294 210.41 154.577ZM214.579 166.868C214.467 170.145 211.707 172.711 208.418 172.599C205.127 172.486 202.551 169.739 202.663 166.462C202.776 163.185 205.535 160.619 208.825 160.731C212.115 160.844 214.69 163.591 214.579 166.868Z" fill="#D56F6F"/>
<path d="M214.053 166.85C213.95 169.837 211.435 172.177 208.435 172.075C205.434 171.973 203.086 169.468 203.189 166.48C203.291 163.493 205.806 161.153 208.806 161.255C211.806 161.357 214.156 163.862 214.053 166.85Z" fill="#FF9800"/>
<path d="M205.051 164.081C205.345 163.611 205.575 163.138 206.009 162.768C206.433 162.405 206.934 162.167 207.46 161.985C208.233 161.719 209.04 161.596 209.83 161.399C209.498 161.323 209.159 161.268 208.806 161.256C206.443 161.175 204.387 162.613 203.568 164.687C204.102 164.813 204.704 164.634 205.051 164.081Z" fill="#FFFAF2"/>
<path opacity="0.1" d="M211.982 163.166C211.709 163.502 212.008 164.195 212.129 164.537C212.292 164.993 212.517 165.431 212.644 165.899C212.967 167.087 213.103 168.591 212.24 169.589C211.967 169.906 211.601 170.106 211.297 170.387C211.035 170.63 210.812 170.911 210.534 171.139C209.963 171.604 209.26 171.795 208.53 171.708C207.814 171.623 206.597 171.087 205.7 171.225C206.493 171.73 207.425 172.042 208.435 172.076C211.434 172.178 213.95 169.838 214.053 166.851C214.104 165.342 213.529 163.957 212.563 162.942C212.339 162.928 212.129 162.983 211.982 163.166Z" fill="#D56F6F"/>
<path d="M210.41 168.609C210.11 168.892 209.684 169.066 209.132 169.13L209.104 169.936L208.229 169.906L208.255 169.128C207.891 169.092 207.548 169.018 207.226 168.908C206.904 168.797 206.637 168.665 206.429 168.513L206.939 167.469C207.163 167.627 207.424 167.757 207.722 167.859C208.02 167.962 208.316 168.018 208.607 168.028C209.162 168.046 209.443 167.918 209.453 167.642C209.458 167.497 209.383 167.387 209.227 167.311C209.071 167.236 208.819 167.153 208.472 167.063C208.091 166.968 207.773 166.868 207.518 166.765C207.264 166.662 207.048 166.504 206.87 166.289C206.693 166.074 206.61 165.79 206.622 165.437C206.636 165.02 206.799 164.668 207.111 164.38C207.423 164.092 207.864 163.925 208.436 163.876L208.463 163.077L209.339 163.106L209.312 163.891C209.589 163.925 209.853 163.982 210.106 164.064C210.359 164.145 210.583 164.247 210.779 164.37L210.297 165.423C209.819 165.145 209.352 164.998 208.895 164.983C208.608 164.973 208.397 165.009 208.262 165.088C208.129 165.169 208.059 165.276 208.054 165.412C208.049 165.548 208.124 165.652 208.277 165.725C208.431 165.798 208.678 165.877 209.021 165.962C209.407 166.057 209.727 166.156 209.979 166.26C210.231 166.363 210.447 166.521 210.628 166.732C210.808 166.944 210.891 167.227 210.88 167.581C210.866 167.984 210.709 168.326 210.41 168.609Z" fill="#D56F6F"/>
<path d="M190.173 99.5264C190.173 99.5264 189.628 99.907 188.388 100.857C187.149 101.807 184.19 101.9 184.284 102.706C184.377 103.511 188.15 104.753 190.016 103.765C191.882 102.776 191.228 100.124 190.173 99.5264Z" fill="#FFDFB0"/>
<path d="M190.173 99.5264C190.173 99.5264 187.944 110.412 189.932 111.055C190.861 111.356 191.937 107.749 192.637 104.896C191.909 108.415 191.671 111.565 192.793 111.409C193.656 111.29 194.534 108.205 195.345 105.394C194.966 107.371 194.307 111.459 195.18 111.586C196.661 111.8 197.5 107.764 198.008 105.026C197.817 106.676 197.309 110.914 198.106 111.038C198.812 111.147 199.566 110.434 200.191 106.989C200.555 104.978 200.93 105.112 200.916 104.166C200.904 103.435 200.975 102.677 200.675 102.093C199.231 99.2808 191.224 98.1429 190.173 99.5264Z" fill="#FEDAA5"/>
<path opacity="0.2" d="M198.272 110.78C197.913 110.66 197.856 109.468 197.941 109.363C197.941 109.363 198.905 109.495 199.06 109.592C199.213 109.688 198.632 110.901 198.272 110.78ZM195.377 111.371C195.018 111.251 194.961 110.058 195.046 109.953C195.046 109.953 196.01 110.085 196.164 110.182C196.318 110.279 195.736 111.491 195.377 111.371ZM192.596 111.044C192.237 110.924 192.18 109.73 192.264 109.626C192.264 109.626 193.229 109.758 193.383 109.856C193.537 109.952 192.955 111.164 192.596 111.044ZM189.873 110.658C189.514 110.538 189.456 109.346 189.541 109.241C189.541 109.241 190.506 109.373 190.66 109.47C190.814 109.566 190.231 110.779 189.873 110.658Z" fill="white"/>
<path opacity="0.1" d="M197.953 105.464L197.913 101.87C197.913 101.87 199.175 101.307 200.169 102.476C200.169 102.476 199.628 100.54 195.557 99.9355C191.485 99.332 190.89 99.7151 190.89 99.7151C190.89 99.7151 192.155 99.9103 192.734 100.878C192.863 101.094 192.631 104.839 192.671 104.611C192.711 104.382 193.431 101.109 193.431 101.109L195.153 101.378L195.359 104.92L195.838 101.439L197.296 101.727L197.953 105.464Z" fill="#202020"/>
<path d="M184.466 48.3751V48.6427C184.466 49.4129 184.151 49.9042 183.45 50.1506C184.295 50.3962 184.624 50.9631 184.624 51.7545V52.3637C184.624 53.5186 183.808 54.1392 182.232 54.1392H179.754V46.6533H182.132C183.765 46.6533 184.466 47.2202 184.466 48.3751ZM181.33 47.7228V49.7008H181.945C182.533 49.7008 182.891 49.5081 182.891 48.9095V48.4922C182.891 47.9579 182.648 47.722 182.089 47.722H181.33V47.7228ZM181.33 50.7704V53.0697H182.232C182.762 53.0697 183.049 52.8875 183.049 52.332V51.6797C183.049 50.9843 182.748 50.7704 182.032 50.7704H181.33ZM189.936 54.1392C189.851 53.9464 189.794 53.8293 189.794 53.2193V52.0432C189.794 51.3478 189.478 51.0908 188.762 51.0908H188.218V54.1392H186.643V46.6533H189.02C190.653 46.6533 191.354 47.2202 191.354 48.3751V48.9631C191.354 49.7334 191.025 50.236 190.324 50.4816C191.111 50.7281 191.369 51.2942 191.369 52.075V53.2299C191.369 53.5934 191.384 53.861 191.541 54.1392H189.936ZM188.217 47.7228V50.0221H188.833C189.42 50.0221 189.779 49.8293 189.779 49.2307V48.493C189.779 47.9587 189.535 47.7228 188.977 47.7228H188.217ZM198.572 54.1392H196.982L196.71 52.7809H194.777L194.505 54.1392H193.059L194.663 46.6533H196.968L198.572 54.1392ZM194.977 51.7651H196.495L195.736 47.979L194.977 51.7651ZM201.779 48.7175V54.1392H200.361V46.6533H202.338L203.956 51.1347V46.6533H205.36V54.1392H203.741L201.779 48.7175ZM207.564 46.6533H210.056C211.631 46.6533 212.405 47.3056 212.405 48.5036V52.2897C212.405 53.4877 211.631 54.14 210.056 54.14H207.564V46.6533ZM209.139 47.7228V53.0705H210.026C210.528 53.0705 210.828 52.8777 210.828 52.3434V48.4507C210.828 47.9156 210.528 47.7236 210.026 47.7236H209.139V47.7228ZM214.481 46.6533H216.056V54.1392H214.481V46.6533ZM219.679 48.7175V54.1392H218.261V46.6533H220.237L221.856 51.1347V46.6533H223.26V54.1392H221.641L219.679 48.7175ZM227.827 49.9684H230.032V52.3425C230.032 53.5406 229.23 54.2246 227.684 54.2246C226.137 54.2246 225.335 53.5398 225.335 52.3425V48.4499C225.335 47.2519 226.137 46.5679 227.684 46.5679C229.23 46.5679 230.032 47.2519 230.032 48.4499V49.177H228.543V48.3751C228.543 47.8399 228.228 47.6374 227.726 47.6374C227.225 47.6374 226.909 47.8407 226.909 48.3751V52.4174C226.909 52.9517 227.225 53.1445 227.726 53.1445C228.228 53.1445 228.543 52.9517 228.543 52.4174V51.038H227.827V49.9684Z" fill="#D56F6F"/>
<path fill-rule="evenodd" clip-rule="evenodd" d="M213.977 44.2579C214.002 44.388 214.024 44.5149 214.046 44.6385C214.134 45.1639 214.581 45.5543 215.119 45.5543C215.388 45.5543 215.635 45.4567 215.825 45.29C216.018 45.1273 216.152 44.8955 216.192 44.6312C216.21 44.5222 216.228 44.41 216.25 44.2945C215.927 44.3596 215.57 44.3921 215.199 44.3921C214.762 44.3913 214.347 44.3441 213.977 44.2579ZM214.744 35.4869C213.278 35.6463 212.1 36.8411 211.959 38.3002C211.864 39.2778 212.221 40.1684 212.842 40.8061C213.333 41.7333 213.719 42.4385 213.944 43.5503C214.322 43.6406 214.748 43.6918 215.198 43.6918C215.581 43.6918 215.944 43.6552 216.278 43.5901C216.493 42.4677 216.864 41.7479 217.354 40.8061C217.911 40.2376 218.256 39.4625 218.256 38.6077C218.256 36.7581 216.646 35.2771 214.744 35.4869Z" fill="#D56F6F"/>
<path d="M215.239 32.1946H214.791V34.2051H215.239V32.1946Z" fill="#D56F6F"/>
<path d="M210.697 38.2823H208.678V38.7289H210.697V38.2823Z" fill="#D56F6F"/>
<path d="M221.353 38.2823H219.334V38.7289H221.353V38.2823Z" fill="#D56F6F"/>
<path d="M210.689 33.884L210.372 34.1997L211.8 35.6214L212.117 35.3056L210.689 33.884Z" fill="#D56F6F"/>
<path d="M218.225 41.3899L217.908 41.7057L219.336 43.1273L219.653 42.8116L218.225 41.3899Z" fill="#D56F6F"/>
<path d="M211.802 41.3899L210.375 42.8116L210.692 43.1274L212.119 41.7057L211.802 41.3899Z" fill="#D56F6F"/>
<path d="M219.337 33.8862L217.909 35.3079L218.226 35.6236L219.654 34.2019L219.337 33.8862Z" fill="#D56F6F"/>
<path d="M122.179 187.749H85.4219V224.356H122.179V187.749Z" fill="#FF9100"/>
<path opacity="0.67" d="M86.7498 201.472C88.268 200.178 87.8434 198.022 87.974 196.265C88.0916 194.682 88.5318 193.152 89.7756 192.076C93.0643 189.231 97.725 190.585 101.537 191.25C103.433 191.581 105.71 191.937 107.5 191.012C108.592 190.448 109.559 188.904 109.191 187.75H85.4219V201.945C85.8442 201.989 86.2884 201.866 86.7498 201.472Z" fill="#FFFAF2"/>
<path opacity="0.1" d="M120.85 193.609C120.294 194.178 120.178 195.219 120.099 195.967C119.728 199.456 120.35 203.05 120.366 206.552C120.376 208.485 120.241 210.532 119.276 212.255C118.221 214.14 116.33 215.108 114.309 215.659C113.513 215.876 112.563 215.992 112.153 216.801C111.692 217.711 111.903 218.863 111.769 219.845C111.47 222.044 109.538 222.927 107.474 222.58C105.26 222.209 103.252 220.923 101.479 219.618C100.845 219.151 100.153 218.685 99.409 218.412C98.5246 218.086 98.1358 218.239 98.0787 219.228C98.0509 219.697 97.6074 220.127 97.1085 219.963C95.2505 219.355 93.5821 218.319 91.7585 217.631C89.7797 216.882 87.9871 216.851 86.0198 217.632C85.8205 217.712 85.6212 217.776 85.4211 217.834V224.356H122.178V193.717C121.846 193.235 121.3 193.148 120.85 193.609Z" fill="#3D3D3D"/>
<path opacity="0.35" d="M109.822 224.315V214.574L108.739 215.398L108.103 214.574L107.021 214.194L105.892 215.526L105.239 213.751L103.33 219.646L102.566 214.258L101.866 215.335L100.975 213.751C100.975 213.751 100.673 221.272 100.46 224.315C103.581 224.467 106.701 224.14 109.822 224.315Z" fill="#D56A6A"/>
<path d="M85.422 187.749L94.5237 185.023H127.367L122.179 187.749H85.422Z" fill="#DFC49C"/>
<path d="M127.367 185.023V219.38L122.179 224.356V187.749L127.367 185.023Z" fill="#D56F6F"/>
<path opacity="0.15" d="M127.028 193.76C126.318 195.133 126.526 196.926 126.311 198.422C126.054 200.21 125.773 201.942 126.102 203.74C126.344 205.069 126.809 206.449 126.685 207.814C126.618 208.546 126.463 209.615 125.734 210.006C124.796 210.511 124.028 209.505 123.657 208.773C122.423 206.336 122.645 203.375 122.664 200.738C122.677 199.043 122.816 197.333 122.721 195.639C122.674 194.812 122.476 194.122 122.18 193.48V224.355L127.367 219.379V193.283C127.249 193.439 127.12 193.582 127.028 193.76Z" fill="#3D3D3D"/>
<path d="M91.8352 222.074H87.7454V219.052H91.8352V222.074ZM88.0263 221.795H91.5543V219.333H88.0263V221.795Z" fill="#823838"/>
<path d="M90.1946 221.557H89.235V220.602H90.1946V221.557ZM89.5159 221.278H89.9145V220.881H89.5159V221.278ZM91.2031 221.557H90.2436V220.602H91.2031V221.557ZM90.5245 221.278H90.923V220.881H90.5245V221.278ZM96.5262 222.074H92.4371V219.052H96.5262V222.074ZM92.7172 221.795H96.2452V219.333H92.7172V221.795Z" fill="#823838"/>
<path d="M94.8855 221.557H93.9259V220.602H94.8855V221.557ZM94.2068 221.278H94.6046V220.881H94.2068V221.278ZM95.8941 221.557H94.9345V220.602H95.8941V221.557ZM95.2154 221.278H95.614V220.881H95.2154V221.278Z" fill="#823838"/>
<path opacity="0.35" d="M99.8704 187.749V198.715L100.953 197.891L101.589 198.715L102.671 199.096L103.8 197.764L104.453 199.539L106.362 193.644L107.126 199.032L107.826 197.954L108.717 199.54C108.717 199.54 109.162 188.447 109.353 187.75L111.835 186.418L109.289 186.735L109.225 186.418H103.799L99.8704 187.749Z" fill="#D56A6A"/>
<path opacity="0.35" d="M106.14 185.657L107.063 185.023H113.778L112.505 185.879L112.314 185.593L110.945 185.688L110.754 185.245L107.7 185.879L107.445 185.276L106.14 185.657Z" fill="#D56A6A"/>
<path opacity="0.35" d="M121.575 186.734L124.174 186.7L124.308 192.144L124.74 191.446L124.905 191.668L125.298 191.201L125.666 191.478L126.189 190.986V185.703L123.58 185.879L123.799 186.037L123.389 186.133L124.058 186.329L121.575 186.734Z" fill="#D56A6A"/>
<path opacity="0.35" d="M126.189 220.51L126.031 216.422L125.489 217.468L125.404 218.394L124.98 218.038L124.74 219.304L124.308 218.607L124.196 222.465L126.189 220.51Z" fill="#D56A6A"/>
<path opacity="0.35" d="M92.531 185.62H95.6058L94.8896 185.879L95.128 186.011C95.128 186.011 94.2926 186.248 94.3644 186.248C94.4363 186.248 94.9369 186.404 94.8659 186.386C94.794 186.367 93.6842 186.417 93.6842 186.417V186.557L90.0565 186.36L92.531 185.62Z" fill="#D56A6A"/>
<path d="M96.0239 202.894C97.391 202.894 98.0942 203.505 98.0942 204.574V204.784H96.7654V204.507C96.7654 204.03 96.5098 203.849 96.0623 203.849C95.6148 203.849 95.3591 204.03 95.3591 204.507C95.3591 205.882 98.1064 206.14 98.1064 208.049C98.1064 209.118 97.391 209.729 96.0108 209.729C94.6307 209.729 93.9153 209.118 93.9153 208.049V207.638H95.244V208.115C95.244 208.593 95.5249 208.764 95.9725 208.764C96.42 208.764 96.7009 208.593 96.7009 208.115C96.7009 206.741 93.9537 206.483 93.9537 204.574C93.9537 203.505 94.656 202.894 96.0239 202.894ZM104.419 209.653H103.001L102.758 208.44H101.033L100.79 209.653H99.4997L100.93 202.97H102.988L104.419 209.653ZM101.211 207.533H102.566L101.889 204.154L101.211 207.533ZM106.029 202.97H107.434V208.699H109.747V209.653H106.028V202.97H106.029ZM112.725 205.787H114.655V206.742H112.725V208.699H115.153V209.653H111.318V202.971H115.153V203.926H112.725V205.787Z" fill="#823838"/>
<path d="M143.049 225.236L149.187 221.133L149.079 208.097L143.025 211.666L143.049 225.236Z" fill="#6D2020"/>
<path d="M143.025 211.666L149.109 208.097L133.522 205.429L125.913 209.142L143.025 211.666Z" fill="#B23F3F"/>
<path d="M125.913 209.142L125.937 222.711L143.049 225.236L143.025 211.666L125.913 209.142Z" fill="#B23F3F"/>
<path d="M139.989 210.294L144.641 207.775L144.62 196.083L139.968 198.603L139.989 210.294Z" fill="#BF5656"/>
<path d="M139.968 198.603L144.62 196.083L129.08 193.908L124.428 196.428L139.968 198.603Z" fill="#B23F3F"/>
<path d="M124.428 196.428L124.45 208.119L139.989 210.294L139.968 198.603L124.428 196.428Z" fill="#B23F3F"/>
<path d="M130.246 198.151L125.595 195.631L125.617 183.94L130.268 186.46L130.246 198.151Z" fill="#B23F3F"/>
<path d="M130.268 186.46L125.617 183.94L141.155 181.765L145.807 184.285L130.268 186.46Z" fill="#822E2E"/>
<path d="M145.807 184.285L145.786 195.976L130.246 198.151L130.268 186.46L145.807 184.285Z" fill="#974D4D"/>
<path d="M141.065 186.536L145.309 184.016L145.289 172.324L141.044 174.844L141.065 186.536Z" fill="#AF3E3E"/>
<path d="M141.044 174.844L145.289 172.324L131.111 170.149L126.867 172.67L141.044 174.844Z" fill="#972E2E"/>
<path d="M126.867 172.67L126.887 184.361L141.065 186.536L141.044 174.844L126.867 172.67Z" fill="#BD9292"/>
<path d="M129.765 173.915L125.552 171.593L125.572 160.819L129.786 163.141L129.765 173.915Z" fill="#B23F3F"/>
<path d="M129.786 163.141L125.572 160.819L139.646 158.815L143.859 161.137L129.786 163.141Z" fill="#D8C5A9"/>
<path d="M143.859 161.137L143.84 171.911L129.765 173.915L129.786 163.141L143.859 161.137Z" fill="#B23F3F"/>
<path d="M139.605 167.325C139.807 167.557 139.908 167.859 139.908 168.232C139.908 168.777 139.688 169.233 139.247 169.6C138.807 169.967 138.17 170.217 137.337 170.351L133.965 170.892V164.67L137.159 164.158C137.956 164.03 138.563 164.079 138.98 164.306C139.396 164.532 139.605 164.894 139.605 165.393C139.605 165.689 139.532 165.965 139.386 166.223C139.239 166.481 139.033 166.699 138.765 166.878C139.123 166.945 139.402 167.094 139.605 167.325ZM135.713 165.661V166.861L136.927 166.666C137.521 166.571 137.819 166.321 137.819 165.919C137.819 165.522 137.522 165.371 136.927 165.467L135.713 165.661ZM138.123 168.323C138.123 167.903 137.814 167.742 137.195 167.841L135.714 168.078V169.341L137.195 169.103C137.814 169.004 138.123 168.744 138.123 168.323ZM133.863 181.279L133.029 181.142V182.826L131.542 182.551V176.33L133.972 176.592C134.47 176.646 134.908 176.791 135.283 177.027C135.661 177.265 135.955 177.579 136.163 177.97C136.372 178.363 136.477 178.808 136.477 179.304C136.477 179.781 136.379 180.184 136.184 180.509C135.989 180.833 135.712 181.066 135.355 181.208L136.593 183.483L134.865 183.164L133.863 181.279ZM134.602 178.348C134.439 178.162 134.197 178.048 133.878 178.008L133.029 177.902V179.758L133.878 179.883C134.197 179.93 134.438 179.885 134.602 179.745C134.767 179.606 134.849 179.385 134.849 179.083C134.849 178.78 134.767 178.535 134.602 178.348ZM139.19 193.004L136.782 193.4L136.335 194.682L134.691 194.952L137.205 188.317L138.792 188.057L141.315 193.864L139.638 194.139L139.19 193.004ZM138.719 191.784L137.987 189.914L137.254 192.024L138.719 191.784ZM135.059 200.594V207.112L133.535 206.908L130.647 203.047V206.52L128.833 206.277V199.76L130.357 199.964L133.245 203.824V200.351L135.059 200.594ZM132.221 213.449L135.175 213.932C135.859 214.043 136.466 214.27 136.995 214.611C137.524 214.953 137.935 215.382 138.227 215.897C138.518 216.413 138.664 216.985 138.664 217.613C138.664 218.241 138.518 218.765 138.227 219.186C137.935 219.606 137.524 219.901 136.995 220.069C136.466 220.237 135.859 220.266 135.175 220.154L132.221 219.671V213.449ZM135.104 218.737C135.64 218.825 136.069 218.743 136.393 218.494C136.718 218.245 136.879 217.853 136.879 217.321C136.879 216.787 136.717 216.343 136.393 215.988C136.069 215.633 135.64 215.411 135.104 215.324L133.988 215.142V218.555L135.104 218.737Z" fill="#FBF9F5"/>
<path d="M194.75 195.689L198.569 194.336L173.343 191.985L147.422 194.336L152.121 198.436L178.2 204.802L194.75 195.689Z" fill="#DFC49C"/>
<path d="M147.422 194.336L172.784 197.995V226.253L147.422 221.538V194.336Z" fill="#D56F6F"/>
<path opacity="0.1" d="M167.227 208.034C166.562 209.147 164.945 210.145 164.871 211.525C164.787 213.085 165.711 214.486 165.238 216.079C164.304 219.227 159.873 218.433 157.476 218.14C156.725 218.048 155.966 218.029 155.268 218.367C154.46 218.758 153.946 219.489 153.295 220.075C152.22 221.045 150.899 221.727 149.476 221.919L172.783 226.252V204.735C172.374 204.115 168.095 206.581 167.227 208.034Z" fill="#3D3D3D"/>
<path opacity="0.15" d="M162.496 196.511L157.442 195.781C158.098 195.924 158.75 196.083 159.403 196.225C160.429 196.451 161.463 196.542 162.496 196.511Z" fill="#3D3D3D"/>
<path opacity="0.67" d="M148.804 199.904C149.299 200.077 149.899 200.277 150.099 199.648C150.22 199.271 150.197 198.846 150.242 198.456C150.318 197.775 150.574 197.225 151.026 196.7C151.943 195.637 153.357 195.338 154.707 195.387L147.422 194.335V199.512C147.892 199.572 148.352 199.745 148.804 199.904Z" fill="#FFFAF2"/>
<path opacity="0.35" d="M188.03 193.37L180.559 192.612L156.951 195.505L157.032 201.052L160.13 201.799L160.634 200.864L161.014 202.124L163.383 202.779L163.09 196.85L188.03 193.37Z" fill="#D56A6A"/>
<path opacity="0.35" d="M162.064 224.167L161.813 219.874L160.305 219.675L160.008 220.222L159.791 219.499L155.819 218.634L155.636 223.013L162.064 224.167Z" fill="#D56A6A"/>
<path d="M198.569 194.336V221.233L172.784 226.253V197.995L198.569 194.336Z" fill="#FF9100"/>
<path opacity="0.15" d="M184.458 196.338C185.861 197.423 187.421 197.697 189.187 197.488C190.849 197.29 192.4 196.765 194.021 197.474C195.309 198.037 196.251 199.166 196.832 200.417C198.124 203.196 198.164 206.695 196.101 209.091C195.084 210.272 193.655 211.244 193.119 212.764C192.583 214.285 193.203 215.906 193.017 217.462C192.802 219.252 191.41 220.214 189.81 220.784C187.861 221.478 185.895 221.226 183.927 220.778C183.019 220.572 181.807 220.062 180.871 220.295C180.341 220.427 180.033 221.004 179.636 221.339C178.582 222.231 177.082 222.507 175.88 221.738C173.395 220.148 173.34 216.455 174.296 214.03C174.621 213.207 175.054 212.388 175.185 211.504C175.27 210.932 175.189 210.365 175.046 209.809C174.893 209.546 174.757 209.274 174.637 209.009C174.172 207.984 173.811 206.917 173.377 205.879C173.279 205.645 173.178 205.401 173.069 205.155C172.981 205.011 172.876 204.878 172.783 204.737V226.254L198.569 221.233V194.336L184.458 196.338Z" fill="#3D3D3D"/>
<path d="M177.999 223.24L175.07 223.735V221.126L177.999 220.632V223.24ZM175.271 223.459L177.798 223.032V220.907L175.271 221.334V223.459Z" fill="#823838"/>
<path d="M176.824 222.992L176.136 223.108V222.284L176.824 222.167V222.992ZM176.338 222.833L176.623 222.785V222.442L176.338 222.49V222.833ZM177.547 222.87L176.859 222.986V222.162L177.547 222.045V222.87ZM177.061 222.712L177.346 222.664V222.321L177.061 222.369V222.712Z" fill="#823838"/>
<path d="M181.36 222.672L178.43 223.167V220.559L181.36 220.064V222.672ZM178.631 222.892L181.159 222.465V220.339L178.631 220.766V222.892Z" fill="#823838"/>
<path d="M180.185 222.425L179.498 222.542V221.717L180.185 221.601V222.425ZM179.699 222.266L179.984 222.218V221.875L179.699 221.923V222.266ZM180.907 222.303L180.22 222.42V221.595L180.907 221.479V222.303ZM180.422 222.144L180.707 222.096V221.753L180.422 221.801V222.144Z" fill="#823838"/>
<path d="M178.863 208.803C179.027 208.864 179.155 208.97 179.245 209.121C179.334 209.271 179.379 209.457 179.379 209.68C179.379 209.903 179.334 210.105 179.245 210.284C179.156 210.463 179.028 210.611 178.863 210.728C178.698 210.844 178.504 210.922 178.281 210.96L177.85 211.032V211.807L177.151 211.925V208.959L178.281 208.768C178.504 208.731 178.698 208.742 178.863 208.803ZM178.563 210.138C178.635 210.051 178.672 209.938 178.672 209.8C178.672 209.661 178.635 209.56 178.563 209.496C178.489 209.432 178.381 209.413 178.238 209.437L177.849 209.503V210.372L178.238 210.306C178.381 210.281 178.49 210.225 178.563 210.138ZM181.25 210.657L180.205 210.833L180.011 211.443L179.298 211.563L180.389 208.413L181.077 208.297L182.172 211.078L181.445 211.201L181.25 210.657ZM181.045 210.073L180.727 209.178L180.409 210.18L181.045 210.073ZM182.868 210.822C182.662 210.725 182.501 210.57 182.383 210.355C182.266 210.141 182.207 209.885 182.207 209.588C182.207 209.291 182.266 209.017 182.383 208.762C182.501 208.507 182.662 208.298 182.868 208.132C183.074 207.966 183.307 207.861 183.566 207.817C183.792 207.779 183.995 207.792 184.177 207.858C184.358 207.923 184.508 208.036 184.628 208.197L184.184 208.755C184.024 208.55 183.829 208.467 183.602 208.506C183.468 208.529 183.348 208.584 183.243 208.672C183.139 208.76 183.057 208.874 183 209.012C182.943 209.15 182.913 209.303 182.913 209.469C182.913 209.635 182.942 209.779 183 209.897C183.058 210.016 183.139 210.102 183.243 210.155C183.348 210.208 183.467 210.224 183.602 210.201C183.829 210.163 184.024 210.014 184.184 209.755L184.628 210.163C184.508 210.364 184.358 210.529 184.177 210.655C183.995 210.781 183.792 210.864 183.566 210.902C183.307 210.945 183.074 210.919 182.868 210.822ZM185.892 209.374L185.631 209.753V210.494L184.938 210.611V207.645L185.631 207.528V208.761L186.588 207.367L187.357 207.237L186.348 208.72L187.411 210.193L186.599 210.33L185.892 209.374Z" fill="#823838"/>
<path d="M189.133 209.326L188.088 209.503L187.893 210.112L187.18 210.232L188.271 207.082L188.96 206.966L190.054 209.747L189.326 209.87L189.133 209.326ZM188.929 208.742L188.611 207.847L188.293 208.85L188.929 208.742ZM191.873 207.894L192.491 207.79V209.019C192.35 209.165 192.187 209.285 192.003 209.381C191.82 209.477 191.636 209.54 191.453 209.571C191.194 209.615 190.961 209.588 190.754 209.492C190.547 209.396 190.385 209.24 190.267 209.025C190.15 208.811 190.091 208.555 190.091 208.258C190.091 207.962 190.15 207.687 190.267 207.432C190.385 207.178 190.548 206.967 190.758 206.801C190.968 206.634 191.204 206.529 191.468 206.484C191.698 206.445 191.905 206.456 192.089 206.519C192.273 206.581 192.426 206.69 192.548 206.844L192.103 207.402C191.936 207.21 191.736 207.134 191.503 207.173C191.291 207.208 191.121 207.314 190.991 207.49C190.862 207.666 190.796 207.882 190.796 208.139C190.796 208.303 190.826 208.444 190.885 208.563C190.943 208.681 191.026 208.768 191.131 208.822C191.237 208.877 191.358 208.892 191.495 208.868C191.629 208.846 191.755 208.792 191.873 208.707V207.894ZM194.919 208.278V208.926L192.934 209.261V206.295L194.872 205.968V206.616L193.626 206.826V207.326L194.724 207.14V207.767L193.626 207.953V208.495L194.919 208.278Z" fill="#823838"/>
<path d="M122.045 64.1969C121.947 67.0264 119.566 69.2412 116.725 69.1444C113.884 69.0476 111.66 66.6759 111.757 63.8463C111.854 61.0175 114.236 58.802 117.077 58.8988C119.918 58.9956 122.142 61.3673 122.045 64.1969Z" fill="#D56F6F"/>
<path d="M121.59 64.1815C121.502 66.7614 119.331 68.7809 116.74 68.6922C114.15 68.6044 112.122 66.4417 112.211 63.8618C112.299 61.2819 114.471 59.2624 117.061 59.3511C119.652 59.4389 121.679 61.6016 121.59 64.1815Z" fill="#FF9800"/>
<path opacity="0.49" d="M113.819 61.791C114.074 61.3843 114.272 60.9761 114.646 60.6572C115.012 60.3441 115.445 60.1383 115.898 59.9813C116.566 59.7512 117.262 59.6454 117.944 59.4746C117.658 59.4096 117.365 59.3616 117.06 59.351C115.02 59.2819 113.244 60.523 112.537 62.3132C113.001 62.4222 113.52 62.2684 113.819 61.791Z" fill="#FFFAF2"/>
<path opacity="0.15" d="M119.803 61.0005C119.568 61.29 119.826 61.8886 119.93 62.1839C120.071 62.5783 120.264 62.9557 120.374 63.3599C120.654 64.3856 120.771 65.6845 120.027 66.5458C119.791 66.8191 119.474 66.9915 119.212 67.2347C118.986 67.4445 118.793 67.6869 118.553 67.8829C118.061 68.2847 117.453 68.4498 116.824 68.375C116.206 68.3018 115.155 67.839 114.381 67.9577C115.066 68.3937 115.871 68.6629 116.742 68.6922C119.332 68.78 121.503 66.7605 121.592 64.1814C121.637 62.8785 121.14 61.6837 120.306 60.8069C120.111 60.7955 119.93 60.8435 119.803 61.0005Z" fill="#2A2A2A"/>
<path d="M118.446 65.6999C118.187 65.9447 117.819 66.0944 117.342 66.1488L117.319 66.8451L116.563 66.819L116.586 66.148C116.272 66.1163 115.976 66.0529 115.697 65.9577C115.419 65.8626 115.189 65.7487 115.009 65.6169L115.45 64.7149C115.643 64.8516 115.868 64.9638 116.126 65.0517C116.383 65.1403 116.638 65.1883 116.891 65.1972C117.369 65.2135 117.613 65.1021 117.621 64.8638C117.625 64.7385 117.56 64.6434 117.425 64.5775C117.291 64.5124 117.074 64.4408 116.774 64.3636C116.445 64.2814 116.17 64.1952 115.951 64.1066C115.731 64.0179 115.544 63.8805 115.391 63.695C115.238 63.5096 115.167 63.2648 115.176 62.959C115.189 62.5995 115.329 62.2953 115.599 62.0472C115.868 61.7991 116.249 61.6544 116.742 61.6121L116.766 60.9224L117.521 60.9476L117.497 61.6251C117.736 61.6544 117.964 61.7032 118.183 61.7739C118.401 61.8447 118.594 61.9325 118.763 62.0383L118.348 62.9476C117.935 62.7068 117.532 62.5808 117.137 62.5669C116.89 62.5588 116.708 62.5897 116.592 62.6588C116.476 62.728 116.416 62.8215 116.412 62.9386C116.408 63.0557 116.472 63.146 116.605 63.2086C116.737 63.2721 116.951 63.3396 117.247 63.4128C117.581 63.4949 117.856 63.5812 118.073 63.6698C118.29 63.7585 118.477 63.8951 118.633 64.0781C118.788 64.2611 118.86 64.5059 118.85 64.8109C118.839 65.1598 118.704 65.4559 118.446 65.6999Z" fill="#D56F6F"/>
<path d="M89.8858 165.206C90.4085 167.988 88.5677 170.666 85.7739 171.187C82.9801 171.707 80.2908 169.874 79.7681 167.091C79.2455 164.308 81.0862 161.63 83.8809 161.11C86.6739 160.589 89.3632 162.423 89.8858 165.206Z" fill="#D56F6F"/>
<path d="M89.4391 165.289C89.916 167.825 88.237 170.267 85.6898 170.742C83.1426 171.217 80.691 169.545 80.214 167.008C79.7371 164.471 81.4162 162.029 83.9633 161.555C86.5113 161.08 88.963 162.752 89.4391 165.289Z" fill="#FF9800"/>
<path opacity="0.49" d="M81.3313 164.638C81.4913 164.186 81.5959 163.745 81.8907 163.352C82.1806 162.966 82.5571 162.672 82.9662 162.422C83.5681 162.052 84.2247 161.798 84.8527 161.484C84.5595 161.482 84.2623 161.498 83.9634 161.555C81.9568 161.929 80.4942 163.524 80.1945 165.425C80.6706 165.432 81.1442 165.17 81.3313 164.638Z" fill="#FFFAF2"/>
<path opacity="0.15" d="M86.9997 162.571C86.8331 162.905 87.2162 163.433 87.3828 163.698C87.6057 164.053 87.8768 164.379 88.0728 164.75C88.5685 165.69 88.9671 166.933 88.4281 167.935C88.2574 168.253 87.9863 168.49 87.7837 168.784C87.609 169.038 87.4734 169.316 87.2815 169.56C86.8887 170.059 86.3317 170.351 85.7004 170.415C85.0814 170.477 83.9552 170.253 83.2251 170.536C83.9887 170.813 84.8331 170.901 85.6898 170.742C88.237 170.267 89.916 167.825 89.4391 165.288C89.1982 164.007 88.4534 162.948 87.4464 162.273C87.2562 162.304 87.0904 162.39 86.9997 162.571Z" fill="#2A2A2A"/>
<path d="M86.7008 167.453C86.5016 167.747 86.1757 167.973 85.7225 168.13L85.8507 168.815L85.1075 168.953L84.9834 168.293C84.6698 168.33 84.3668 168.332 84.0745 168.299C83.7821 168.267 83.533 168.205 83.328 168.116L83.5616 167.14C83.7796 167.231 84.0238 167.292 84.295 167.323C84.5661 167.353 84.825 167.345 85.0724 167.299C85.5428 167.211 85.7568 167.05 85.7127 166.816C85.6898 166.692 85.6049 166.613 85.4595 166.579C85.3141 166.544 85.0863 166.522 84.7768 166.512C84.437 166.503 84.1504 166.478 83.9168 166.439C83.6825 166.4 83.4709 166.306 83.2806 166.158C83.0904 166.011 82.9671 165.786 82.9107 165.486C82.8446 165.132 82.9156 164.805 83.1238 164.504C83.3321 164.204 83.6726 163.98 84.1455 163.832L84.0181 163.153L84.7613 163.014L84.8862 163.681C85.1255 163.658 85.3591 163.657 85.5877 163.678C85.8164 163.699 86.0246 163.743 86.2125 163.811L86.005 164.788C85.5502 164.643 85.1288 164.607 84.7408 164.678C84.4975 164.724 84.3268 164.793 84.2288 164.886C84.1308 164.979 84.0924 165.083 84.1145 165.197C84.1357 165.313 84.2182 165.387 84.3619 165.419C84.5048 165.453 84.7286 165.472 85.0332 165.48C85.377 165.488 85.6645 165.512 85.8964 165.552C86.1284 165.592 86.3399 165.685 86.5318 165.829C86.7237 165.975 86.8478 166.197 86.9042 166.498C86.9671 166.84 86.9001 167.158 86.7008 167.453Z" fill="#D56F6F"/>
<path d="M228.575 103.348C228.523 103.369 228.482 103.41 228.46 103.462C228.437 103.515 228.437 103.573 228.46 103.626C228.78 104.395 228.943 105.211 228.943 106.052C228.943 109.541 226.093 112.38 222.588 112.38C219.085 112.38 216.234 109.541 216.234 106.052C216.234 102.563 219.084 99.7233 222.588 99.7233C224.103 99.7233 225.57 100.263 226.719 101.243C226.762 101.28 226.818 101.296 226.875 101.293C226.932 101.288 226.984 101.262 227.021 101.219C227.058 101.176 227.076 101.121 227.072 101.064C227.068 101.008 227.041 100.956 226.998 100.919C225.771 99.873 224.205 99.2971 222.588 99.2971C218.849 99.2971 215.807 102.327 215.807 106.051C215.807 109.775 218.849 112.805 222.588 112.805C226.328 112.805 229.37 109.775 229.37 106.051C229.37 105.154 229.196 104.283 228.853 103.461C228.809 103.355 228.685 103.303 228.575 103.348Z" fill="#D56F6F"/>
<path d="M228.465 106.052C228.465 109.284 225.835 111.904 222.589 111.904C219.344 111.904 216.713 109.284 216.713 106.052C216.713 102.82 219.344 100.2 222.589 100.2C225.835 100.2 228.465 102.821 228.465 106.052Z" fill="#D56F6F"/>
<path d="M229.787 100.032C229.744 99.995 229.688 99.9763 229.631 99.982C229.574 99.9868 229.523 100.014 229.485 100.058L222.467 108.361C222.432 108.403 222.381 108.428 222.328 108.43C222.27 108.435 222.219 108.412 222.179 108.375L217.839 104.143C217.755 104.061 217.62 104.062 217.537 104.146C217.497 104.187 217.475 104.241 217.475 104.298C217.475 104.354 217.499 104.407 217.54 104.447L221.88 108.679C221.996 108.791 222.155 108.856 222.317 108.856L222.346 108.855C222.519 108.847 222.682 108.767 222.793 108.635L229.813 100.331C229.889 100.241 229.876 100.107 229.787 100.032Z" fill="#FF9100"/>
<rect x="38" y="159" width="202" height="114" fill="#823838"/>
</g>
<path d="M120.123 288L118.587 283.639H112.582L111.046 288H108.328L114.172 272.23H117.029L122.862 288H120.123ZM117.921 281.426L116.428 277.129C116.37 276.943 116.288 276.681 116.181 276.345C116.073 276.001 115.966 275.654 115.858 275.303C115.751 274.945 115.661 274.644 115.59 274.4C115.518 274.694 115.429 275.023 115.321 275.389C115.221 275.747 115.121 276.083 115.021 276.398C114.927 276.714 114.856 276.957 114.806 277.129L113.302 281.426H117.921ZM137.687 279.997C137.687 281.766 137.357 283.245 136.698 284.434C136.039 285.615 135.083 286.507 133.83 287.108C132.577 287.703 131.066 288 129.297 288H124.936V272.295H129.77C131.395 272.295 132.799 272.589 133.98 273.176C135.162 273.756 136.075 274.619 136.72 275.765C137.364 276.903 137.687 278.314 137.687 279.997ZM135.001 280.072C135.001 278.783 134.797 277.723 134.389 276.893C133.988 276.062 133.393 275.446 132.605 275.045C131.825 274.637 130.862 274.433 129.716 274.433H127.514V285.841H129.34C131.238 285.841 132.656 285.357 133.594 284.391C134.532 283.424 135.001 281.984 135.001 280.072ZM152.715 272.295L147.226 288H144.497L139.008 272.295H141.65L144.959 282.135C145.059 282.421 145.167 282.769 145.281 283.177C145.403 283.585 145.514 283.997 145.614 284.412C145.722 284.827 145.804 285.196 145.861 285.519C145.919 285.196 145.997 284.827 146.098 284.412C146.205 283.997 146.316 283.585 146.431 283.177C146.545 282.769 146.653 282.418 146.753 282.124L150.072 272.295H152.715ZM154.777 288V272.295H157.355V288H154.777ZM168.194 274.261C167.442 274.261 166.769 274.397 166.175 274.669C165.588 274.941 165.09 275.335 164.682 275.851C164.273 276.359 163.962 276.979 163.747 277.709C163.532 278.432 163.425 279.249 163.425 280.158C163.425 281.376 163.597 282.425 163.94 283.306C164.284 284.179 164.807 284.853 165.509 285.325C166.211 285.791 167.099 286.023 168.173 286.023C168.839 286.023 169.487 285.959 170.117 285.83C170.747 285.701 171.399 285.526 172.072 285.304V287.495C171.435 287.746 170.79 287.928 170.139 288.043C169.487 288.158 168.735 288.215 167.883 288.215C166.279 288.215 164.947 287.882 163.887 287.216C162.834 286.55 162.046 285.612 161.523 284.401C161.008 283.191 160.75 281.773 160.75 280.147C160.75 278.959 160.915 277.87 161.244 276.882C161.574 275.894 162.053 275.041 162.684 274.325C163.314 273.602 164.091 273.047 165.015 272.66C165.946 272.266 167.009 272.069 168.205 272.069C168.993 272.069 169.766 272.159 170.525 272.338C171.292 272.51 172.001 272.757 172.652 273.079L171.75 275.206C171.206 274.948 170.636 274.726 170.042 274.54C169.448 274.354 168.832 274.261 168.194 274.261ZM184.34 288H175.445V272.295H184.34V274.465H178.023V278.729H183.942V280.889H178.023V285.819H184.34V288Z" fill="black"/>
</g>
<defs>
<filter id="filter0_d_531_1075" x="0.9" y="0.9" width="287.2" height="327.2" filterUnits="userSpaceOnUse" color-interpolation-filters="sRGB">
<feFlood flood-opacity="0" result="BackgroundImageFix"/>
<feColorMatrix in="SourceAlpha" type="matrix" values="0 0 0 0 0 0 0 0 0 0 0 0 0 0 0 0 0 0 127 0" result="hardAlpha"/>
<feOffset dy="4"/>
<feGaussianBlur stdDeviation="5.05"/>
<feComposite in2="hardAlpha" operator="out"/>
<feColorMatrix type="matrix" values="0 0 0 0 0 0 0 0 0 0 0 0 0 0 0 0 0 0 0.25 0"/>
<feBlend mode="normal" in2="BackgroundImageFix" result="effect1_dropShadow_531_1075"/>
<feBlend mode="normal" in="SourceGraphic" in2="effect1_dropShadow_531_1075" result="shape"/>
</filter>
<linearGradient id="paint0_linear_531_1075" x1="75.2866" y1="103.214" x2="72.2255" y2="103.077" gradientUnits="userSpaceOnUse">
<stop stop-color="#666464" stop-opacity="0.134"/>
<stop offset="1" stop-color="#212121" stop-opacity="0.2"/>
</linearGradient>
<linearGradient id="paint1_linear_531_1075" x1="85.2669" y1="103.188" x2="70.6169" y2="102.533" gradientUnits="userSpaceOnUse">
<stop stop-color="white" stop-opacity="0"/>
<stop offset="0.5" stop-color="#212121" stop-opacity="0.2"/>
</linearGradient>
<linearGradient id="paint2_linear_531_1075" x1="83.753" y1="95.9568" x2="72.0891" y2="110.659" gradientUnits="userSpaceOnUse">
<stop stop-color="white" stop-opacity="0"/>
<stop offset="0.5" stop-color="#212121" stop-opacity="0.2"/>
<stop offset="1" stop-color="#D2D2D1" stop-opacity="0"/>
</linearGradient>
<linearGradient id="paint3_linear_531_1075" x1="77.7418" y1="95.9241" x2="74.4708" y2="100.047" gradientUnits="userSpaceOnUse">
<stop stop-color="white" stop-opacity="0"/>
<stop offset="0.5" stop-color="#212121" stop-opacity="0.2"/>
</linearGradient>
<linearGradient id="paint4_linear_531_1075" x1="55.75" y1="76.4888" x2="72.1156" y2="83.6658" gradientUnits="userSpaceOnUse">
<stop stop-color="white" stop-opacity="0.2"/>
<stop offset="1" stop-color="white" stop-opacity="0"/>
</linearGradient>
<linearGradient id="paint5_linear_531_1075" x1="46.4733" y1="84.4053" x2="36.4207" y2="93.6621" gradientUnits="userSpaceOnUse">
<stop stop-color="white" stop-opacity="0.5"/>
<stop offset="1" stop-color="white" stop-opacity="0"/>
</linearGradient>
<clipPath id="clip0_531_1075">
<rect width="245" height="244" fill="white" transform="translate(19 7)"/>
</clipPath>
</defs>
</svg>
