<svg width="265" height="310" viewBox="0 0 289 329" fill="none" xmlns="http://www.w3.org/2000/svg">
<g filter="url(#filter0_d_531_1270)">
<rect x="11" y="125" width="267" height="189" rx="27" fill="#FFBF62" fill-opacity="0.58"/>
<path d="M100.54 283.374L99.0039 279.012H92.999L91.4629 283.374H88.7451L94.5889 267.604H97.4463L103.279 283.374H100.54ZM98.3379 276.799L96.8447 272.503C96.7874 272.316 96.7051 272.055 96.5977 271.718C96.4902 271.375 96.3828 271.027 96.2754 270.676C96.168 270.318 96.0785 270.018 96.0068 269.774C95.9352 270.068 95.8457 270.397 95.7383 270.762C95.638 271.12 95.5378 271.457 95.4375 271.772C95.3444 272.087 95.2728 272.331 95.2227 272.503L93.7188 276.799H98.3379ZM118.458 283.374H115.289L107.598 270.838H107.501C107.53 271.26 107.555 271.708 107.576 272.18C107.605 272.653 107.626 273.14 107.641 273.641C107.662 274.143 107.68 274.651 107.694 275.167V283.374H105.353V267.669H108.5L116.181 280.119H116.256C116.242 279.754 116.224 279.335 116.202 278.862C116.181 278.389 116.159 277.902 116.138 277.401C116.123 276.893 116.113 276.402 116.105 275.929V267.669H118.458V283.374ZM132.315 283.374L130.779 279.012H124.774L123.238 283.374H120.521L126.364 267.604H129.222L135.055 283.374H132.315ZM130.113 276.799L128.62 272.503C128.563 272.316 128.48 272.055 128.373 271.718C128.266 271.375 128.158 271.027 128.051 270.676C127.943 270.318 127.854 270.018 127.782 269.774C127.711 270.068 127.621 270.397 127.514 270.762C127.413 271.12 127.313 271.457 127.213 271.772C127.12 272.087 127.048 272.331 126.998 272.503L125.494 276.799H130.113ZM137.128 283.374V267.669H139.706V281.182H146.377V283.374H137.128ZM153.542 274.834L157.27 267.669H160.052L154.831 277.272V283.374H152.264V277.369L147.032 267.669H149.836L153.542 274.834ZM167.561 283.374H164.972V269.86H160.374V267.669H172.147V269.86H167.561V283.374ZM174.554 283.374V267.669H177.132V283.374H174.554ZM187.971 269.634C187.219 269.634 186.546 269.77 185.951 270.043C185.364 270.315 184.866 270.709 184.458 271.224C184.05 271.733 183.738 272.352 183.523 273.083C183.309 273.806 183.201 274.622 183.201 275.532C183.201 276.749 183.373 277.798 183.717 278.679C184.061 279.553 184.583 280.226 185.285 280.699C185.987 281.164 186.875 281.397 187.949 281.397C188.615 281.397 189.263 281.333 189.894 281.204C190.524 281.075 191.175 280.899 191.849 280.677V282.869C191.211 283.119 190.567 283.302 189.915 283.417C189.263 283.531 188.511 283.589 187.659 283.589C186.055 283.589 184.723 283.255 183.663 282.589C182.61 281.923 181.823 280.985 181.3 279.775C180.784 278.565 180.526 277.147 180.526 275.521C180.526 274.332 180.691 273.244 181.021 272.255C181.35 271.267 181.83 270.415 182.46 269.699C183.09 268.976 183.867 268.421 184.791 268.034C185.722 267.64 186.785 267.443 187.981 267.443C188.769 267.443 189.543 267.533 190.302 267.712C191.068 267.883 191.777 268.13 192.429 268.453L191.526 270.58C190.982 270.322 190.413 270.1 189.818 269.914C189.224 269.727 188.608 269.634 187.971 269.634ZM204.288 279.098C204.288 280.029 204.059 280.831 203.601 281.505C203.149 282.178 202.498 282.693 201.646 283.051C200.8 283.409 199.791 283.589 198.616 283.589C198.043 283.589 197.495 283.556 196.973 283.492C196.45 283.427 195.956 283.334 195.49 283.213C195.032 283.084 194.613 282.93 194.233 282.751V280.323C194.871 280.602 195.583 280.856 196.371 281.086C197.159 281.308 197.961 281.419 198.777 281.419C199.443 281.419 199.995 281.333 200.432 281.161C200.876 280.982 201.205 280.731 201.42 280.409C201.635 280.079 201.742 279.696 201.742 279.259C201.742 278.794 201.617 278.4 201.366 278.078C201.116 277.755 200.736 277.462 200.228 277.197C199.726 276.925 199.096 276.635 198.337 276.327C197.821 276.119 197.327 275.883 196.854 275.618C196.389 275.353 195.974 275.041 195.608 274.683C195.243 274.325 194.953 273.903 194.738 273.416C194.531 272.922 194.427 272.341 194.427 271.675C194.427 270.787 194.638 270.028 195.061 269.398C195.49 268.768 196.092 268.284 196.865 267.948C197.646 267.611 198.555 267.443 199.594 267.443C200.417 267.443 201.191 267.529 201.914 267.701C202.645 267.873 203.361 268.116 204.062 268.431L203.246 270.505C202.602 270.24 201.975 270.028 201.366 269.871C200.765 269.713 200.149 269.634 199.519 269.634C198.974 269.634 198.512 269.717 198.133 269.881C197.753 270.046 197.463 270.279 197.263 270.58C197.069 270.873 196.973 271.224 196.973 271.632C196.973 272.091 197.084 272.477 197.306 272.793C197.535 273.101 197.886 273.383 198.358 273.641C198.838 273.899 199.454 274.186 200.206 274.501C201.073 274.859 201.807 275.235 202.408 275.629C203.017 276.022 203.482 276.495 203.805 277.047C204.127 277.591 204.288 278.275 204.288 279.098Z" fill="black"/>
<g clip-path="url(#clip0_531_1270)">
<mask id="mask0_531_1270" style="mask-type:luminance" maskUnits="userSpaceOnUse" x="48" y="7" width="206" height="212">
<path d="M254 7H48V218.95H254V7Z" fill="white"/>
</mask>
<g mask="url(#mask0_531_1270)">
<path d="M129.789 57.4882H182.945V81.6785H129.789V57.4882Z" fill="#666464"/>
<path d="M231.501 179.577C229.542 182.198 225.86 181.968 224.058 181.482C223.93 181.448 223.855 181.311 223.883 181.178C225.76 172.312 232.643 171.302 237.03 172.079C237.319 172.13 237.334 172.844 237.085 173.002C235.297 174.138 233.476 176.936 231.501 179.577ZM216.284 178.664C217.628 181.062 221.221 181.234 223.282 180.979C223.577 180.943 223.761 180.638 223.68 180.344C221.265 171.545 215.177 170.509 211.423 171.264C210.954 171.358 210.924 172.017 211.328 172.277C213.356 173.579 214.743 175.915 216.284 178.664Z" fill="#FF9100"/>
<path fill-rule="evenodd" clip-rule="evenodd" d="M223.323 187.118V159.247H224.346V187.118H223.323Z" fill="#202020"/>
<path fill-rule="evenodd" clip-rule="evenodd" d="M243.773 75.2656C239.728 66.2743 230.514 60.4261 220.373 61.3639C207.465 62.5576 197.941 74.2913 199.101 87.5721C200.261 100.853 211.666 110.651 224.574 109.457C227.512 109.186 230.274 108.368 232.776 107.11L223.068 85.6512L243.773 75.2656Z" fill="#FF9100"/>
<path fill-rule="evenodd" clip-rule="evenodd" d="M235.794 105.131L227.322 87.5622L244.648 78.194C245.137 79.8069 245.468 81.4983 245.621 83.2497C246.397 92.1325 242.393 100.324 235.794 105.131Z" fill="#666464"/>
<path d="M125.955 53.5439H179.111V77.7347H125.955V53.5439Z" fill="white"/>
<path fill-rule="evenodd" clip-rule="evenodd" d="M125.444 53.0182H179.622V78.2605H125.444V53.0182ZM126.466 54.07V77.2088H178.601V54.07H126.466Z" fill="#202020"/>
<path fill-rule="evenodd" clip-rule="evenodd" d="M169.656 62.2211H135.922V61.1693H169.656V62.2211ZM169.656 70.8981H135.922V69.8463H169.656V70.8981Z" fill="#202020"/>
<path fill-rule="evenodd" clip-rule="evenodd" d="M102.469 124.584C103.045 123.558 104.318 123.207 105.315 123.799L111.226 127.311C112.222 127.902 112.563 129.213 111.988 130.238C111.517 131.078 111.661 132.131 112.274 132.867C113.993 134.93 115.3 137.288 116.159 139.8C116.472 140.716 117.288 141.371 118.232 141.371C119.384 141.371 120.318 142.332 120.318 143.518V150.535C120.318 151.72 119.385 152.68 118.234 152.68C117.292 152.68 116.477 153.334 116.164 154.247C115.736 155.492 115.192 156.715 114.527 157.899C113.863 159.083 113.106 160.179 112.272 161.182C111.66 161.919 111.517 162.972 111.988 163.811C112.563 164.837 112.222 166.149 111.225 166.741L105.318 170.25C104.32 170.842 103.044 170.491 102.468 169.464C101.996 168.623 101.036 168.223 100.109 168.402C97.565 168.893 94.9275 168.907 92.3316 168.407C91.4053 168.229 90.4464 168.628 89.9752 169.467C89.4 170.492 88.126 170.843 87.1296 170.252L81.219 166.74C80.2226 166.148 79.8813 164.838 80.4565 163.813C80.9277 162.973 80.7836 161.919 80.1703 161.183C78.4513 159.12 77.1444 156.763 76.2856 154.251C75.9725 153.335 75.1564 152.68 74.2128 152.68C73.0603 152.68 72.126 151.718 72.126 150.533V143.516C72.126 142.331 73.0592 141.371 74.2103 141.371C75.1523 141.371 75.9671 140.717 76.2809 139.803C76.7082 138.558 77.2524 137.336 77.917 136.152C78.5818 134.967 79.3386 133.871 80.1727 132.868C80.7849 132.131 80.9282 131.078 80.4572 130.239C79.8817 129.213 80.2232 127.902 81.2201 127.31L87.1266 123.801C88.1246 123.208 89.4009 123.56 89.9772 124.587C90.4489 125.428 91.4087 125.827 92.336 125.648C94.8797 125.157 97.5171 125.143 100.113 125.643C101.039 125.822 101.998 125.424 102.469 124.584ZM106.574 153.175C103.273 159.057 95.9627 161.072 90.2455 157.676C84.5283 154.28 82.5694 146.759 85.8702 140.876C89.1711 134.994 96.4817 132.978 102.199 136.374C107.916 139.771 109.875 147.293 106.574 153.175Z" fill="#666464"/>
<path d="M150.962 133.818C139.763 132.726 127.066 133.363 122.117 133.818C121.692 135.031 120.844 137.549 120.844 137.913C120.844 138.368 123.389 151.107 123.389 152.927C123.389 154.383 138.66 156.87 146.295 157.932C152.517 150.349 162.16 134.91 150.962 133.818Z" fill="#FF9100"/>
<path d="M124.422 116.387H147.933V145.837H124.422V116.387ZM205.857 123.393C206.961 126.527 205.929 128.404 205.274 128.95L208.657 134.874L217.677 137.283C218.377 135.97 220.476 132.698 223.275 130.122C226.774 126.901 228.582 120.718 228.659 117.969C228.721 115.77 227.272 115.117 226.54 115.066C226.695 113.584 225.231 112.812 224.48 112.611C223.903 110.865 222.049 110.664 221.194 110.782L224.256 102.455C224.528 101.717 224.228 100.885 223.553 100.51L222.702 100.036C221.994 99.642 221.111 99.8787 220.679 100.577L210.658 116.798L206.783 109.062C206.309 108.116 205.223 107.683 204.254 108.054L203.884 108.196C202.93 108.56 202.381 109.59 202.605 110.612C203.472 114.555 204.912 120.711 205.857 123.393Z" fill="#FFDFB0"/>
<path d="M84.779 180.296C81.7931 191.255 83.0727 198.707 85.2055 201.337C86.017 202.338 89.241 205.758 93.0415 209.731H174.663C174.737 199.01 174.993 187.103 175.206 179.419C181.32 183.656 188.941 190.975 192.695 190.273C196.448 189.572 198.808 185.889 199.52 184.137L219.746 137.948C216.333 130.934 207.256 129.096 204.412 128.219L188.311 153.199C185.468 150.13 182.372 146.629 175.206 141.72C168.04 136.81 156.012 134.706 151.32 134.268C150.04 137.482 146.031 143.912 136.818 143.912C127.604 143.912 123.594 137.482 122.315 134.268C108.665 138.213 99.7081 140.843 95.0161 147.418C90.3241 153.994 87.7647 169.337 84.779 180.296Z" fill="#FF9100"/>
<path d="M151.488 90.5338C157.317 107.523 154.917 119.716 151.488 122.172H124.486L119.771 119.138L114.199 108.303L122.343 90.5338C129.629 83.4547 145.659 73.5443 151.488 90.5338Z" fill="#FFDFB0"/>
<path d="M124.447 123.595C120.108 122.718 112.541 118.356 112.226 108.331C111.797 94.6746 113.085 83.6617 122.098 82.7807C122.527 79.4029 125.017 72.472 131.54 71.7672C139.695 70.8862 149.995 71.7672 155.145 69.1241C160.296 66.4809 161.584 69.1241 163.3 70.8862C165.017 72.6482 166.304 88.5076 150.854 90.2696C147.133 90.6935 144.208 90.786 141.841 90.7309C138.264 90.7238 130.939 91.855 130.252 96.4366C129.394 102.164 130.252 107.89 128.536 107.89C126.819 107.89 128.107 104.807 124.673 102.164C122.813 102.017 119.093 102.956 119.093 107.89C119.093 111.677 121.79 113.111 123.884 113.507C124.763 113.673 125.532 114.402 125.532 115.321V122.62C125.532 123.23 125.03 123.713 124.447 123.595Z" fill="#202020"/>
<path fill-rule="evenodd" clip-rule="evenodd" d="M47.7541 209.731C47.7541 209.441 47.9829 209.205 48.2652 209.205H251.435C251.717 209.205 251.946 209.441 251.946 209.731C251.946 210.021 251.717 210.257 251.435 210.257H48.2652C47.9829 210.257 47.7541 210.021 47.7541 209.731Z" fill="#202020"/>
<path d="M123.399 203.421H152.533L154.578 209.731H125.444L123.399 203.421Z" fill="#666464"/>
<path d="M61.3892 165.708C60.9565 164.04 62.1793 162.402 63.8584 162.402H116.836C117.994 162.402 119.007 163.202 119.306 164.353L131.067 209.731H72.7989L61.3892 165.708Z" fill="#666464"/>
<path d="M228.69 158.72C229.472 162.739 226.116 167.239 224.107 169.238C223.946 169.398 223.702 169.424 223.517 169.296C220.518 167.229 217.12 161.187 220.257 156.617C221.56 154.718 222.525 152.34 223.131 150.306C223.301 149.736 224.795 149.593 225.075 150.116C226.287 152.381 228.005 155.197 228.69 158.72Z" fill="#FF9100"/>
<path fill-rule="evenodd" clip-rule="evenodd" d="M187.397 95.8522C187.709 95.3202 188.379 95.1493 188.896 95.47L191.961 97.3705C192.477 97.6912 192.644 98.3822 192.333 98.9135C192.077 99.3487 192.143 99.9026 192.458 100.295C193.339 101.394 194 102.643 194.427 103.969C194.582 104.452 195.004 104.804 195.498 104.813C196.102 104.825 196.583 105.338 196.571 105.96L196.504 109.639C196.492 110.26 195.994 110.754 195.39 110.742C194.897 110.733 194.463 111.067 194.29 111.543C194.054 112.191 193.757 112.826 193.397 113.44C193.037 114.055 192.63 114.621 192.184 115.138C191.855 115.518 191.77 116.069 192.008 116.514C192.3 117.057 192.109 117.742 191.581 118.042L188.45 119.821C187.921 120.121 187.256 119.924 186.963 119.379C186.725 118.934 186.225 118.715 185.737 118.799C184.399 119.03 183.016 119.011 181.66 118.722C181.176 118.619 180.669 118.818 180.415 119.254C180.103 119.786 179.432 119.957 178.915 119.636L175.85 117.735C175.334 117.415 175.168 116.724 175.479 116.192C175.734 115.757 175.669 115.203 175.354 114.811C174.473 113.713 173.81 112.463 173.385 111.137C173.229 110.654 172.808 110.302 172.313 110.292C171.709 110.281 171.229 109.767 171.24 109.146L171.307 105.467C171.319 104.846 171.818 104.352 172.421 104.364C172.915 104.374 173.348 104.039 173.521 103.564C173.758 102.915 174.054 102.28 174.415 101.666C174.774 101.051 175.182 100.485 175.629 99.9676C175.956 99.5875 176.042 99.0371 175.803 98.592C175.511 98.0487 175.703 97.3648 176.231 97.0646L179.361 95.2856C179.89 94.9846 180.556 95.1825 180.848 95.7265C181.087 96.1716 181.587 96.3913 182.074 96.3065C183.413 96.0755 184.796 96.0953 186.151 96.3835C186.635 96.4867 187.142 96.2874 187.397 95.8522ZM189.273 110.882C187.486 113.932 183.635 114.914 180.67 113.075C177.705 111.237 176.751 107.274 178.538 104.224C180.325 101.174 184.177 100.192 187.141 102.031C190.106 103.869 191.06 107.832 189.273 110.882ZM69.378 114.388C69.6238 113.969 70.1535 113.833 70.5613 114.086L72.9799 115.587C73.3876 115.84 73.5189 116.385 73.273 116.804C73.0717 117.148 73.1233 117.585 73.3714 117.894C74.0669 118.762 74.5897 119.747 74.9259 120.794C75.0484 121.175 75.381 121.453 75.7714 121.46C76.2482 121.47 76.6274 121.875 76.6184 122.365L76.565 125.269C76.556 125.758 76.1626 126.148 75.6864 126.139C75.2967 126.131 74.9547 126.396 74.8179 126.771C74.6317 127.282 74.3973 127.784 74.1133 128.269C73.8292 128.753 73.5079 129.2 73.1552 129.609C72.8963 129.908 72.829 130.343 73.0175 130.694C73.2478 131.123 73.0966 131.663 72.6796 131.9L70.2094 133.304C69.7919 133.541 69.2666 133.385 69.036 132.956C68.8472 132.604 68.4531 132.431 68.0681 132.498C67.012 132.681 65.9207 132.665 64.8505 132.437C64.4687 132.356 64.069 132.513 63.8676 132.857C63.6219 133.276 63.0921 133.411 62.6844 133.158L60.2657 131.658C59.8581 131.405 59.7268 130.86 59.9726 130.44C60.1739 130.097 60.1223 129.66 59.8742 129.35C59.1787 128.483 58.6559 127.498 58.3197 126.451C58.1971 126.07 57.8645 125.792 57.4742 125.785C56.9973 125.775 56.6181 125.37 56.6271 124.88L56.6805 121.977C56.6895 121.486 57.0829 121.097 57.5591 121.106C57.9488 121.113 58.2909 120.85 58.4277 120.474C58.6139 119.962 58.8483 119.461 59.1323 118.976C59.4164 118.491 59.7378 118.044 60.0905 117.636C60.3494 117.336 60.4167 116.902 60.2282 116.551C59.9979 116.122 60.1491 115.582 60.5661 115.345L63.0364 113.941C63.4539 113.703 63.9792 113.86 64.2097 114.289C64.3986 114.641 64.7926 114.813 65.1776 114.747C66.2337 114.565 67.3249 114.58 68.3951 114.808C68.777 114.889 69.1767 114.732 69.378 114.388ZM70.8589 126.25C69.4485 128.657 66.4086 129.432 64.0692 127.981C61.7297 126.53 60.9765 123.402 62.3868 120.995C63.7972 118.588 66.8371 117.813 69.1765 119.264C71.516 120.715 72.2692 123.843 70.8589 126.25Z" fill="#666464"/>
<path d="M71.2655 55.6476H79.9545V79.8381H71.2655V55.6476Z" fill="#666464"/>
<path d="M86.0879 64.5875H94.777V79.838H86.0879V64.5875Z" fill="#FF9100"/>
<path d="M100.91 60.9064H109.599V79.838H100.91V60.9064Z" fill="#666464"/>
<path fill-rule="evenodd" clip-rule="evenodd" d="M106.533 92.1962H71.7767V91.1449H106.533V92.1962ZM97.077 104.029H71.7767V102.977H97.077V104.029Z" fill="#666464"/>
<path fill-rule="evenodd" clip-rule="evenodd" d="M254.246 134.793H230.223V133.741H254.246V134.793ZM243.001 144.259H230.223V143.207H243.001V144.259ZM186.778 61.9582C186.778 61.6677 187.007 61.4323 187.29 61.4323H199.799L208.897 72.9327C209.076 73.1579 209.043 73.4891 208.824 73.6724C208.604 73.8558 208.282 73.8219 208.105 73.5966L199.313 62.484H187.29C187.007 62.484 186.778 62.2486 186.778 61.9582Z" fill="#202020"/>
<path d="M189.845 61.9581C189.845 63.4103 188.701 64.5876 187.29 64.5876C185.878 64.5876 184.734 63.4103 184.734 61.9581C184.734 60.506 185.878 59.3287 187.29 59.3287C188.701 59.3287 189.845 60.506 189.845 61.9581ZM242.49 124.012C242.49 125.465 241.346 126.642 239.934 126.642C238.523 126.642 237.379 125.465 237.379 124.012C237.379 122.56 238.523 121.383 239.934 121.383C241.346 121.383 242.49 122.56 242.49 124.012Z" fill="#202020"/>
<path fill-rule="evenodd" clip-rule="evenodd" d="M239.934 92.9854C240.217 92.9854 240.446 93.2206 240.446 93.511V124.012C240.446 124.302 240.217 124.538 239.934 124.538C239.652 124.538 239.423 124.302 239.423 124.012V93.511C239.423 93.2206 239.652 92.9854 239.934 92.9854ZM175.534 164.505V179.23H174.511V164.505H175.534Z" fill="#202020"/>
<path fill-rule="evenodd" clip-rule="evenodd" d="M194.445 41.7117H106.022V39.0823H194.445V41.7117Z" fill="#666464"/>
</g>
</g>
</g>
<defs>
<filter id="filter0_d_531_1270" x="0.9" y="0.9" width="287.2" height="327.2" filterUnits="userSpaceOnUse" color-interpolation-filters="sRGB">
<feFlood flood-opacity="0" result="BackgroundImageFix"/>
<feColorMatrix in="SourceAlpha" type="matrix" values="0 0 0 0 0 0 0 0 0 0 0 0 0 0 0 0 0 0 127 0" result="hardAlpha"/>
<feOffset dy="4"/>
<feGaussianBlur stdDeviation="5.05"/>
<feComposite in2="hardAlpha" operator="out"/>
<feColorMatrix type="matrix" values="0 0 0 0 0 0 0 0 0 0 0 0 0 0 0 0 0 0 0.25 0"/>
<feBlend mode="normal" in2="BackgroundImageFix" result="effect1_dropShadow_531_1270"/>
<feBlend mode="normal" in="SourceGraphic" in2="effect1_dropShadow_531_1270" result="shape"/>
</filter>
<clipPath id="clip0_531_1270">
<rect width="206" height="211.95" fill="white" transform="translate(48 7)"/>
</clipPath>
</defs>
</svg>
