<svg width="32" height="32" viewBox="0 0 25 25" fill="none" xmlns="http://www.w3.org/2000/svg">
<path d="M19.5312 1.51562H7.03125C6.40965 1.51563 5.81351 1.76255 5.37397 2.20209C4.93443 2.64163 4.6875 3.23777 4.6875 3.85938V6.20312H3.90625C3.69905 6.20312 3.50034 6.28543 3.35382 6.43195C3.20731 6.57846 3.125 6.77717 3.125 6.98437C3.125 7.19158 3.20731 7.39029 3.35382 7.5368C3.50034 7.68332 3.69905 7.76562 3.90625 7.76562H4.6875V11.6719H3.90625C3.69905 11.6719 3.50034 11.7542 3.35382 11.9007C3.20731 12.0472 3.125 12.2459 3.125 12.4531C3.125 12.6603 3.20731 12.859 3.35382 13.0056C3.50034 13.1521 3.69905 13.2344 3.90625 13.2344H4.6875V17.1406H3.90625C3.69905 17.1406 3.50034 17.2229 3.35382 17.3694C3.20731 17.516 3.125 17.7147 3.125 17.9219C3.125 18.1291 3.20731 18.3278 3.35382 18.4743C3.50034 18.6208 3.69905 18.7031 3.90625 18.7031H4.6875V21.0469C4.6875 21.6685 4.93443 22.2646 5.37397 22.7042C5.81351 23.1437 6.40965 23.3906 7.03125 23.3906H19.5312C20.1529 23.3906 20.749 23.1437 21.1885 22.7042C21.6281 22.2646 21.875 21.6685 21.875 21.0469V3.85938C21.875 3.23777 21.6281 2.64163 21.1885 2.20209C20.749 1.76255 20.1529 1.51563 19.5312 1.51562ZM20.3125 21.0469C20.3125 21.2541 20.2302 21.4528 20.0837 21.5993C19.9372 21.7458 19.7385 21.8281 19.5312 21.8281H7.03125C6.82405 21.8281 6.62534 21.7458 6.47882 21.5993C6.33231 21.4528 6.25 21.2541 6.25 21.0469V18.7031H7.03125C7.23845 18.7031 7.43716 18.6208 7.58368 18.4743C7.73019 18.3278 7.8125 18.1291 7.8125 17.9219C7.8125 17.7147 7.73019 17.516 7.58368 17.3694C7.43716 17.2229 7.23845 17.1406 7.03125 17.1406H6.25V13.2344H7.03125C7.23845 13.2344 7.43716 13.1521 7.58368 13.0056C7.73019 12.859 7.8125 12.6603 7.8125 12.4531C7.8125 12.2459 7.73019 12.0472 7.58368 11.9007C7.43716 11.7542 7.23845 11.6719 7.03125 11.6719H6.25V7.76562H7.03125C7.23845 7.76562 7.43716 7.68332 7.58368 7.5368C7.73019 7.39029 7.8125 7.19158 7.8125 6.98437C7.8125 6.77717 7.73019 6.57846 7.58368 6.43195C7.43716 6.28543 7.23845 6.20312 7.03125 6.20312H6.25V3.85938C6.25 3.65217 6.33231 3.45346 6.47882 3.30695C6.62534 3.16043 6.82405 3.07812 7.03125 3.07812H19.5312C19.7385 3.07813 19.9372 3.16043 20.0837 3.30695C20.2302 3.45346 20.3125 3.65217 20.3125 3.85938V21.0469ZM16.2445 13.125C16.6893 12.6911 16.9947 12.1345 17.1216 11.5262C17.2485 10.9179 17.1912 10.2856 16.957 9.71006C16.7228 9.13451 16.3223 8.64186 15.8067 8.29503C15.2912 7.9482 14.6839 7.76296 14.0625 7.76296C13.4411 7.76296 12.8338 7.9482 12.3183 8.29503C11.8027 8.64186 11.4022 9.13451 11.168 9.71006C10.9338 10.2856 10.8765 10.9179 11.0034 11.5262C11.1303 12.1345 11.4357 12.6911 11.8805 13.125C11.3504 13.482 10.9161 13.9635 10.6155 14.5274C10.3148 15.0913 10.1572 15.7203 10.1562 16.3594C10.1562 16.5666 10.2386 16.7653 10.3851 16.9118C10.5316 17.0583 10.7303 17.1406 10.9375 17.1406C11.1447 17.1406 11.3434 17.0583 11.4899 16.9118C11.6364 16.7653 11.7188 16.5666 11.7188 16.3594C11.7188 15.7378 11.9657 15.1416 12.4052 14.7021C12.8448 14.2626 13.4409 14.0156 14.0625 14.0156C14.6841 14.0156 15.2802 14.2626 15.7198 14.7021C16.1593 15.1416 16.4062 15.7378 16.4062 16.3594C16.4062 16.5666 16.4886 16.7653 16.6351 16.9118C16.7816 17.0583 16.9803 17.1406 17.1875 17.1406C17.3947 17.1406 17.5934 17.0583 17.7399 16.9118C17.8864 16.7653 17.9688 16.5666 17.9688 16.3594C17.9678 15.7203 17.8102 15.0913 17.5095 14.5274C17.2089 13.9635 16.7746 13.482 16.2445 13.125ZM14.0625 12.4531C13.7535 12.4531 13.4514 12.3615 13.1944 12.1898C12.9375 12.0181 12.7372 11.7741 12.6189 11.4886C12.5007 11.2031 12.4697 10.8889 12.53 10.5858C12.5903 10.2827 12.7391 10.0043 12.9576 9.78577C13.1762 9.56725 13.4546 9.41844 13.7577 9.35815C14.0608 9.29786 14.3749 9.3288 14.6604 9.44706C14.946 9.56533 15.19 9.76559 15.3617 10.0225C15.5334 10.2795 15.625 10.5816 15.625 10.8906C15.625 11.305 15.4604 11.7025 15.1674 11.9955C14.8743 12.2885 14.4769 12.4531 14.0625 12.4531Z" fill="#FF9800"/>
</svg>
