<svg width="250" height="250" viewBox="0 0 250 250" fill="none" xmlns="http://www.w3.org/2000/svg">
<circle cx="125" cy="125" r="125" fill="url(#paint0_linear_500_1063)"/>
<path d="M154.264 209.715C154.39 210.334 154.477 211.294 153.994 212.156C153.463 213.105 152.576 213.339 150.044 214.16C146.463 215.321 145.524 215.658 144.004 215.636C143.101 215.624 141.563 215.564 141.319 214.831C141.123 214.24 141.814 213.338 142.975 212.594C144.881 211.635 147.47 210.675 149.377 209.715" fill="#FC3E3E"/>
<path d="M154.024 209.685H149.64L147.246 154.217H156.418C156.641 161.909 156.59 169.606 156.265 177.294C155.862 186.833 155.061 201.432 154.024 209.685ZM166.439 209.685H162.055L159.661 154.217H168.833C169.056 161.909 169.005 169.606 168.68 177.294C168.277 186.833 167.477 201.432 166.439 209.685Z" fill="#FFDFB0"/>
<path d="M143.533 55.1689C143.197 55.565 140.624 58.687 140.698 62.9102C140.761 66.4722 142.67 71.378 142.169 74.1773C141.864 75.8799 141.444 76.2926 140.6 78.5108C139.608 81.1181 137.072 87.7838 138.345 92.667C139.943 98.7904 147.698 102.75 153.935 103.549C163.958 104.832 175.101 98.5969 175.799 92.1853C176.404 86.6324 168.748 84.849 168.053 75.7181C167.754 71.7889 169.038 70.3595 168.151 65.2213C167.806 63.2168 167.214 59.2503 164.622 56.0729C161.036 51.6779 155.493 51.0039 153.504 50.8791C153.334 50.8684 153.169 50.8566 152.938 50.852C149.305 50.7783 145.727 52.5815 143.533 55.1689Z" fill="black"/>
<path d="M145.42 86.0105C143.204 85.754 141.246 87.4525 141.186 89.682L140.524 114.492C140.499 115.447 141.405 116.295 142.6 116.433C143.834 116.576 144.933 115.913 145.078 114.938L148.739 90.3427C149.055 88.22 147.551 86.2574 145.42 86.0105Z" fill="#FFDFB0"/>
<path d="M141.462 112.542L123.065 128.656L124.7 130.821L144.312 116.198C145.009 115.679 144.945 114.424 144.171 113.399C143.372 112.341 142.137 111.95 141.462 112.542ZM150.706 74.9313L151.4 82.9307H159.949L160.643 65.3992L150.706 74.9313Z" fill="#FFDFB0"/>
<path d="M159.984 82.0422C168.594 84.3488 172.333 87.601 172.333 87.601C157.084 96.0232 141.991 87.601 141.991 87.601C144.035 85.7481 151.267 82.0422 151.267 82.0422H159.984Z" fill="#FFDFB0"/>
<path d="M142.756 100.583C143.858 103.484 145.182 103.585 146.836 107.212C147.55 108.784 148.068 110.438 148.378 112.136H167.843C167.731 109.929 167.755 107.717 167.914 105.512C168.443 98.1833 170.391 92.1035 172.333 87.6011C169.433 85.6227 166.275 84.0514 162.948 82.9309C162.948 82.9309 155.509 90.2699 149.579 82.9309C149.579 82.9309 144.448 85.0944 143.173 86.6934C142.657 88.4661 142.315 90.2849 142.152 92.1238C141.899 94.9648 141.657 97.6899 142.756 100.583Z" fill="#FF9800"/>
<path d="M148.378 112.136C148.378 112.136 141.736 151.849 132.557 169.101C132.557 169.101 139.721 172.356 148.378 169.101C148.378 169.101 162.899 174.635 172.333 168.775C172.333 168.775 183.042 169.101 186.867 166.171C186.867 166.171 180.176 141.608 167.843 112.136L148.378 112.136Z" fill="#666464"/>
<path d="M123.213 128.601C123.213 128.601 120.153 129.228 118.827 132.053C117.501 134.878 120.389 134.109 121.484 132.13C122.579 130.15 124.772 132.419 125.421 130.357C125.421 130.357 125.564 128.936 123.213 128.601Z" fill="#FFDFB0"/>
<path d="M97.3604 214.985C99.1478 214.985 100.597 213.536 100.597 211.748C100.597 209.961 99.1478 208.512 97.3604 208.512C95.573 208.512 94.124 209.961 94.124 211.748C94.124 213.536 95.573 214.985 97.3604 214.985Z" fill="black"/>
<path d="M97.3604 214.985C99.1478 214.985 100.597 213.536 100.597 211.748C100.597 209.961 99.1478 208.512 97.3604 208.512C95.573 208.512 94.124 209.961 94.124 211.748C94.124 213.536 95.573 214.985 97.3604 214.985Z" fill="black"/>
<path opacity="0.1" d="M97.3602 214.037C98.6241 214.037 99.6486 213.012 99.6486 211.748C99.6486 210.485 98.6241 209.46 97.3602 209.46C96.0963 209.46 95.0718 210.485 95.0718 211.748C95.0718 213.012 96.0963 214.037 97.3602 214.037Z" fill="#202020"/>
<path opacity="0.11" d="M97.3604 214.985C99.1478 214.985 100.597 213.536 100.597 211.748C100.597 209.961 99.1478 208.512 97.3604 208.512C95.573 208.512 94.124 209.961 94.124 211.748C94.124 213.536 95.573 214.985 97.3604 214.985Z" fill="#202020"/>
<path d="M69.1221 214.985C70.9095 214.985 72.3585 213.536 72.3585 211.748C72.3585 209.961 70.9095 208.512 69.1221 208.512C67.3347 208.512 65.8857 209.961 65.8857 211.748C65.8857 213.536 67.3347 214.985 69.1221 214.985Z" fill="black"/>
<path d="M69.1221 214.985C70.9095 214.985 72.3585 213.536 72.3585 211.748C72.3585 209.961 70.9095 208.512 69.1221 208.512C67.3347 208.512 65.8857 209.961 65.8857 211.748C65.8857 213.536 67.3347 214.985 69.1221 214.985Z" fill="black"/>
<path opacity="0.1" d="M69.1222 214.037C70.386 214.037 71.4106 213.012 71.4106 211.748C71.4106 210.485 70.386 209.46 69.1222 209.46C67.8583 209.46 66.8337 210.485 66.8337 211.748C66.8337 213.012 67.8583 214.037 69.1222 214.037Z" fill="#202020"/>
<path opacity="0.11" d="M69.1221 214.985C70.9095 214.985 72.3585 213.536 72.3585 211.748C72.3585 209.961 70.9095 208.512 69.1221 208.512C67.3347 208.512 65.8857 209.961 65.8857 211.748C65.8857 213.536 67.3347 214.985 69.1221 214.985Z" fill="#202020"/>
<path d="M124.624 214.985C126.411 214.985 127.86 213.536 127.86 211.748C127.86 209.961 126.411 208.512 124.624 208.512C122.837 208.512 121.388 209.961 121.388 211.748C121.388 213.536 122.837 214.985 124.624 214.985Z" fill="black"/>
<path d="M97.9935 184.717L105.795 166.999L118.164 138.907L121.021 132.42L120.387 132.783H145.96L145.253 131.854L138.69 149.503L128.221 177.657L125.806 184.152L126.514 183.613H97.36C96.4159 183.613 96.4144 185.08 97.36 185.08H126.514C126.859 185.08 127.107 184.848 127.221 184.542L133.783 166.893L144.253 138.739L146.668 132.244C146.837 131.79 146.403 131.316 145.96 131.316H120.387C120.152 131.316 119.855 131.45 119.754 131.679L111.953 149.396L99.5832 177.489L96.7268 183.976C96.3499 184.832 97.6136 185.58 97.9935 184.717Z" fill="black"/>
<path d="M126.303 207.779H97.3603L98.0938 208.512V184.64L97.3603 185.374H126.303L125.569 184.64V208.512C125.569 209.456 127.036 209.458 127.036 208.512V184.64C127.036 184.243 126.7 183.906 126.303 183.906H97.3603C96.9637 183.906 96.6267 184.243 96.6267 184.64V208.512C96.6267 208.909 96.9628 209.246 97.3603 209.246H126.303C127.247 209.246 127.248 207.779 126.303 207.779Z" fill="black"/>
<path d="M126.303 208.072H62.8197C61.8756 208.072 61.8741 209.539 62.8197 209.539H126.303C127.247 209.539 127.248 208.072 126.303 208.072ZM112.335 148.938H48.1609C47.5907 148.938 47.2657 149.557 47.5275 150.042L63.9321 180.409L66.259 184.717C66.3805 184.942 66.6407 185.08 66.8923 185.08H126.009C126.36 185.08 126.597 184.847 126.717 184.542L138.614 154.159L140.295 149.867C140.472 149.414 140.023 148.938 139.587 148.938H112.335C111.391 148.938 111.389 150.405 112.335 150.405H139.587L138.88 149.477L126.983 179.859L125.302 184.152L126.01 183.613H66.8925L67.5259 183.976L51.1212 153.608L48.7944 149.301L48.1611 150.405H112.335C113.279 150.405 113.28 148.938 112.335 148.938Z" fill="black"/>
<path d="M56.045 149.949L72.4496 180.317L74.7764 184.624C75.1131 185.248 76.0634 184.693 75.7266 184.069L59.322 153.701L56.9951 149.394C56.6585 148.771 55.7082 149.325 56.045 149.949ZM67.0995 149.949L83.5041 180.317L85.8309 184.624C86.1676 185.248 87.1178 184.693 86.781 184.069L70.3764 153.701L68.0496 149.394C67.7128 148.771 66.7625 149.325 67.0995 149.949ZM76.4652 149.949L92.8698 180.317L95.1966 184.624C95.5333 185.248 96.4836 184.693 96.1468 184.069L79.7421 153.701L77.4153 149.394C77.0785 148.771 76.1282 149.325 76.4652 149.949ZM133.515 149.394L117.11 179.762L114.783 184.069C114.447 184.692 115.396 185.248 115.733 184.624L132.138 154.257L134.465 149.949C134.801 149.326 133.852 148.77 133.515 149.394ZM122.693 149.394L106.288 179.762L103.961 184.069C103.624 184.692 104.574 185.248 104.911 184.624L121.316 154.257L123.643 149.949C123.979 149.326 123.03 148.77 122.693 149.394Z" fill="black"/>
<path d="M98.7347 149.394L82.3301 179.762L80.0032 184.069C79.6666 184.692 80.6162 185.248 80.9534 184.624L97.358 154.257L99.6848 149.949C100.021 149.326 99.0716 148.77 98.7347 149.394ZM101.452 149.671V184.346C101.452 185.054 102.553 185.056 102.553 184.346V149.671C102.553 148.964 101.452 148.962 101.452 149.671Z" fill="black"/>
<path d="M59.2067 170.224H90.3451C94.2707 170.224 98.211 170.125 102.136 170.224C106.283 170.329 110.438 170.684 114.58 170.915L131.053 171.834C131.524 171.86 131.523 171.126 131.053 171.1C121.461 170.565 111.853 169.791 102.252 169.494C92.32 169.187 82.3322 169.491 72.3961 169.491H59.2066C58.7347 169.491 58.734 170.224 59.2067 170.224ZM54.7289 162.197H88.9639C93.3479 162.197 97.7472 162.089 102.13 162.197C106.711 162.31 111.301 162.705 115.875 162.96L133.93 163.967C134.402 163.993 134.4 163.259 133.93 163.233C123.383 162.645 112.819 161.798 102.262 161.467C98.6543 161.355 95.0262 161.463 91.4171 161.463H54.7289C54.2569 161.464 54.2562 162.197 54.7289 162.197Z" fill="black"/>
<path d="M124.624 214.985C126.411 214.985 127.86 213.536 127.86 211.748C127.86 209.961 126.411 208.512 124.624 208.512C122.837 208.512 121.388 209.961 121.388 211.748C121.388 213.536 122.837 214.985 124.624 214.985Z" fill="black"/>
<path opacity="0.1" d="M124.624 214.037C125.888 214.037 126.913 213.012 126.913 211.748C126.913 210.485 125.888 209.46 124.624 209.46C123.36 209.46 122.336 210.485 122.336 211.748C122.336 213.012 123.36 214.037 124.624 214.037Z" fill="#202020"/>
<path d="M81.335 214.985C83.1224 214.985 84.5714 213.536 84.5714 211.748C84.5714 209.961 83.1224 208.512 81.335 208.512C79.5476 208.512 78.0986 209.961 78.0986 211.748C78.0986 213.536 79.5476 214.985 81.335 214.985Z" fill="black"/>
<path d="M81.335 214.985C83.1224 214.985 84.5714 213.536 84.5714 211.748C84.5714 209.961 83.1224 208.512 81.335 208.512C79.5476 208.512 78.0986 209.961 78.0986 211.748C78.0986 213.536 79.5476 214.985 81.335 214.985Z" fill="black"/>
<path opacity="0.1" d="M81.3348 214.037C82.5987 214.037 83.6232 213.012 83.6232 211.748C83.6232 210.485 82.5987 209.46 81.3348 209.46C80.0709 209.46 79.0464 210.485 79.0464 211.748C79.0464 213.012 80.0709 214.037 81.3348 214.037Z" fill="#202020"/>
<path d="M149.377 209.715C149.377 209.715 146.679 210.978 144.568 212.644C144.287 212.866 144.38 213.323 144.729 213.403C145.885 213.669 148.631 213.518 154.264 209.715C152.656 209.34 150.984 209.34 149.377 209.715Z" fill="#FFDFB0"/>
<path d="M166.924 209.715C167.051 210.334 167.137 211.294 166.655 212.156C166.123 213.105 165.236 213.339 162.705 214.16C159.123 215.321 158.184 215.658 156.664 215.636C155.761 215.624 154.223 215.564 153.98 214.831C153.784 214.24 154.475 213.338 155.635 212.594C157.541 211.635 160.131 210.675 162.037 209.715" fill="#FC3E3E"/>
<path d="M162.037 209.715C162.037 209.715 159.339 210.978 157.229 212.644C156.947 212.866 157.04 213.323 157.39 213.404C158.545 213.669 161.291 213.518 166.924 209.715C165.317 209.337 163.644 209.337 162.037 209.715ZM169.723 85.9765C167.368 85.7038 165.286 87.5093 165.223 89.8792L164.519 116.252C164.492 117.267 165.456 118.168 166.725 118.315C168.037 118.467 169.206 117.762 169.36 116.726L173.252 90.5813C173.588 88.325 171.989 86.2389 169.723 85.9765Z" fill="#FFDFB0"/>
<path d="M165.516 114.178L145.961 131.307L147.699 133.609L168.547 118.065C169.287 117.513 169.219 116.178 168.396 115.089C167.546 113.965 166.234 113.55 165.516 114.178Z" fill="#FFDFB0"/>
<path d="M146.058 130.823C146.058 130.823 142.44 130.644 140.136 133.432C137.832 136.22 141.296 136.191 143.097 134.285C144.898 132.379 146.704 135.56 148.029 133.432C148.029 133.432 148.6 131.879 146.058 130.823Z" fill="#FFDFB0"/>
<path d="M151.027 78.6307C152.036 78.6086 153.041 78.4963 154.03 78.2951C155.18 78.0614 156.239 77.846 157.274 77.248C157.882 76.897 159.339 75.9186 160.317 73.626C160.065 74.6812 159.666 75.4825 159.339 76.0234C159.004 76.5772 157.881 78.287 155.72 79.2459C154.997 79.5666 154.295 79.8786 153.343 79.774C152.15 79.6427 151.343 78.9404 151.027 78.6307Z" fill="#E5C391"/>
<path d="M162.296 64.2891C162.352 63.7878 162.837 58.6177 158.531 55.4438C157.861 54.9502 154.716 52.7633 150.668 53.4208C149.877 53.5493 148.148 53.8581 146.576 55.1103C141.546 59.1156 143.772 68.2902 144.152 69.737C145.007 72.9957 146.379 74.7365 146.771 75.2119C147.59 76.2073 150.11 79.2672 153.376 78.9794C154.696 78.8631 155.607 78.2464 156.692 77.512C159.427 75.6605 160.641 73.1182 161.091 72.1522C162.567 68.9798 162.515 66.056 162.296 64.2891Z" fill="#FFDFB0"/>
<path d="M161.907 63.4516C162.775 63.0592 164.326 64.1218 164.575 65.5787C164.931 67.6583 162.453 69.4693 161.555 68.9987C160.486 68.439 160.547 64.0672 161.907 63.4516Z" fill="#FFDFB0"/>
<path d="M148.929 59.8713C148.929 59.8713 152.784 65.4802 161.109 66.2218C161.109 66.2218 160.713 63.8315 162.712 63.4314C162.712 63.4314 164.447 52.7021 153.026 52.3166C153.026 52.3166 141.529 51.6999 142.839 63.4174C142.839 63.4174 145.383 63.0321 148.929 59.8713Z" fill="black"/>
<path d="M159.26 65.9994C159.26 65.9994 162.962 71.9669 160.922 77.7133C160.922 77.7133 162.941 71.1787 161.517 66.3232C160.094 61.4676 159.26 65.9994 159.26 65.9994Z" fill="black"/>
<defs>
<linearGradient id="paint0_linear_500_1063" x1="125" y1="0" x2="125" y2="250" gradientUnits="userSpaceOnUse">
<stop offset="0.472222" stop-color="#FF9800"/>
<stop offset="1" stop-color="#D9D9D9" stop-opacity="0"/>
</linearGradient>
</defs>
</svg>
