<svg width="20" height="20" viewBox="0 0 20 20" fill="none" xmlns="http://www.w3.org/2000/svg">
<g id="delete-bin-7-fill 2" clip-path="url(#clip0_657_348)">
<path id="Vector" d="M5.83342 5.00033V2.50033C5.83342 2.27931 5.92121 2.06735 6.07749 1.91107C6.23377 1.75479 6.44573 1.66699 6.66675 1.66699H13.3334C13.5544 1.66699 13.7664 1.75479 13.9227 1.91107C14.079 2.06735 14.1667 2.27931 14.1667 2.50033V5.00033H18.3334V6.66699H16.6667V17.5003C16.6667 17.7213 16.579 17.9333 16.4227 18.0896C16.2664 18.2459 16.0544 18.3337 15.8334 18.3337H4.16675C3.94573 18.3337 3.73377 18.2459 3.57749 18.0896C3.42121 17.9333 3.33341 17.7213 3.33341 17.5003V6.66699H1.66675V5.00033H5.83342ZM7.50008 3.33366V5.00033H12.5001V3.33366H7.50008Z" fill="#777777"/>
</g>
<defs>
<clipPath id="clip0_657_348">
<rect width="20" height="20" fill="white"/>
</clipPath>
</defs>
</svg>
