<svg width="250" height="250" viewBox="0 0 250 250" fill="none" xmlns="http://www.w3.org/2000/svg">
<circle cx="125" cy="125" r="125" fill="url(#paint0_linear_500_1064)"/>
<path d="M76.912 128.572C76.912 128.572 70.3483 139.934 71.1933 144.26C72.0383 148.587 91.1329 147.029 91.1329 147.029V136.644H87.0828L89.068 134.221L76.912 128.572Z" fill="url(#paint1_linear_500_1064)"/>
<path d="M107.699 82.8861C107.513 82.8767 107.328 82.9099 107.157 82.9832C106.985 83.0565 106.832 83.168 106.708 83.3098C106.556 83.5248 106.46 83.776 106.429 84.0398C106.302 84.8269 106.382 85.6342 106.659 86.3798C106.936 87.1253 107.4 87.7825 108.006 88.2845C108.408 88.6088 108.911 88.8673 109.416 88.7778C109.474 88.7727 109.529 88.7483 109.571 88.7082C109.615 88.6474 109.635 88.5723 109.628 88.4974C109.669 87.105 109.702 85.6808 109.179 84.4038C108.814 83.5146 108.787 82.9 107.699 82.8861Z" fill="url(#paint2_linear_500_1064)"/>
<path d="M139.163 82.8861C139.349 82.8767 139.535 82.9098 139.706 82.9831C139.878 83.0564 140.032 83.168 140.156 83.3098C140.306 83.5256 140.402 83.7765 140.434 84.0398C140.56 84.8267 140.481 85.634 140.205 86.3796C139.928 87.1251 139.463 87.7824 138.858 88.2845C138.456 88.6088 137.951 88.8673 137.446 88.7778C137.388 88.7723 137.334 88.7479 137.291 88.7082C137.248 88.647 137.228 88.5723 137.234 88.4974C137.194 87.105 137.163 85.6808 137.685 84.4038C138.048 83.5146 138.076 82.9 139.163 82.8861Z" fill="url(#paint3_linear_500_1064)"/>
<path d="M182.31 151.669H67.0741C63.5617 151.669 60.7144 154.585 60.7144 158.182V165.754C60.7144 169.351 63.5617 172.267 67.0741 172.267H182.31C185.823 172.267 188.67 169.351 188.67 165.754V158.182C188.67 154.585 185.823 151.669 182.31 151.669Z" fill="#FF9800"/>
<path d="M182.31 151.669H67.0741C63.5617 151.669 60.7144 154.585 60.7144 158.182V165.754C60.7144 169.351 63.5617 172.267 67.0741 172.267H182.31C185.823 172.267 188.67 169.351 188.67 165.754V158.182C188.67 154.585 185.823 151.669 182.31 151.669Z" fill="url(#paint4_linear_500_1064)"/>
<path d="M109.902 96.2925C109.902 96.2925 94.9445 95.3954 88.4061 103.571C81.8677 111.746 85.2768 150.281 85.2768 150.281L154.375 151.892L157.188 108.295C157.465 99.0991 146.689 96.2507 135.323 96.2885H134.729C114.723 96.4974 109.902 96.2925 109.902 96.2925Z" fill="#FF9800"/>
<path d="M109.902 96.2925C109.902 96.2925 94.9445 95.3954 88.4061 103.571C81.8677 111.746 85.2768 150.281 85.2768 150.281L154.375 151.892L157.188 108.295C157.465 99.0991 146.688 96.2507 135.323 96.2885H134.729C114.723 96.4974 109.902 96.2925 109.902 96.2925Z" fill="url(#paint5_linear_500_1064)"/>
<path d="M97.8975 98.1143C97.8975 98.1143 85.5899 98.1143 73.8301 129.496L88.9154 136.506L96.5222 126.803L97.8975 98.1143ZM148.227 98.1143C148.227 98.1143 160.535 98.1143 172.295 129.496L157.209 136.506L149.603 126.803L148.227 98.1143Z" fill="#FF9800"/>
<path opacity="0.24" d="M81.118 130.181C80.7864 130.024 80.489 129.802 80.2434 129.525C79.9978 129.249 79.809 128.925 79.6883 128.572C79.5675 128.219 79.5174 127.845 79.5407 127.473C79.5641 127.1 79.6605 126.735 79.8243 126.401C82.9167 120.094 92.3863 105.317 98.814 104.446C106.866 103.35 116.044 102.202 116.044 102.202C116.044 102.202 143.934 101.681 148.567 104.987C152.194 107.572 160.416 118.608 164.896 124.732C165.931 126.151 165.544 128.752 163.975 129.506L152.903 138.698C152.54 138.871 152.218 139.124 151.96 139.438L144.53 148.532C144.26 148.863 143.919 149.125 143.533 149.298C143.147 149.47 142.727 149.549 142.306 149.527L103.288 147.556C102.75 147.529 102.233 147.341 101.8 147.013C101.367 146.686 101.039 146.234 100.858 145.716L96.2344 132.576C96.0589 132.07 95.7445 131.627 95.329 131.3C94.9136 130.974 94.4148 130.777 93.8926 130.733C93.3704 130.69 92.8471 130.801 92.3855 131.055C91.9239 131.309 91.5438 131.694 91.2908 132.164C90.9566 132.78 90.4065 133.244 89.7514 133.462C89.0964 133.679 88.3851 133.634 87.7613 133.335L81.118 130.181Z" fill="#FF9100"/>
<path d="M183.509 147.745H68.2725C64.7602 147.745 61.9128 150.66 61.9128 154.257V161.83C61.9128 165.426 64.7602 168.342 68.2725 168.342H183.509C187.021 168.342 189.868 165.426 189.868 161.83V154.257C189.868 150.66 187.021 147.745 183.509 147.745Z" fill="#666464"/>
<path opacity="0.18" d="M71.53 155.182C72.0137 155.493 72.5848 155.506 73.1306 155.516L83.2082 155.664C82.5292 156.041 81.8961 156.5 81.3221 157.03C79.0882 159.087 80.4305 162.878 83.4336 162.984C106.248 163.779 129.082 163.503 151.902 163.226C155.465 163.182 159.041 163.139 162.586 162.767C163.097 162.715 163.585 162.526 164.001 162.219C164.417 161.912 164.747 161.498 164.957 161.018C165.167 160.539 165.25 160.011 165.197 159.489C165.143 158.966 164.957 158.467 164.655 158.043C164.583 157.854 164.554 157.652 164.571 157.45C164.588 157.249 164.65 157.054 164.752 156.881C164.854 156.708 164.994 156.561 165.16 156.452C165.327 156.343 165.515 156.275 165.712 156.252C169.437 155.809 173.287 155.95 176.978 155.304C177.706 155.176 178.557 154.942 178.852 154.11C179.047 153.595 178.936 152.996 178.777 152.469C178.029 150.017 176.084 148.336 174.027 147.584C171.97 146.832 169.783 146.872 167.637 146.915L83.282 148.652C80.3683 148.712 75.6772 147.657 72.9441 148.932C71.2328 149.734 69.098 153.625 71.53 155.182Z" fill="#2F2F2F"/>
<path d="M89.496 158.422L86.4755 149.845C86.4755 149.845 85.24 148.385 88.5345 147.737C91.8289 147.088 155.574 147.737 155.574 147.737L157.058 158.414L89.496 158.422Z" fill="url(#paint6_linear_500_1064)"/>
<path d="M157.057 158.422V159.306C157.057 160.011 156.784 160.688 156.296 161.188C155.809 161.687 155.148 161.967 154.458 161.967H92.1044C91.4151 161.967 90.754 161.687 90.2666 161.188C89.7792 160.688 89.5054 160.011 89.5054 159.306V158.422C89.5044 158.073 89.5709 157.726 89.7011 157.402C89.8313 157.079 90.0227 156.785 90.2642 156.538C90.5057 156.29 90.7927 156.094 91.1085 155.96C91.4243 155.827 91.7627 155.758 92.1044 155.759H154.458C154.8 155.758 155.138 155.827 155.454 155.96C155.77 156.094 156.057 156.29 156.298 156.538C156.54 156.785 156.731 157.079 156.862 157.402C156.992 157.726 157.058 158.073 157.057 158.422Z" fill="url(#paint7_linear_500_1064)"/>
<path d="M156.949 157.653C156.787 158.2 156.457 158.679 156.009 159.02C155.56 159.36 155.017 159.544 154.459 159.544H92.1048C91.5465 159.544 91.003 159.36 90.5546 159.02C90.1062 158.679 89.7766 158.2 89.6145 157.653C89.7762 157.105 90.1057 156.626 90.5541 156.285C91.0025 155.944 91.5462 155.759 92.1048 155.759H154.459C155.017 155.759 155.561 155.944 156.009 156.285C156.458 156.626 156.787 157.105 156.949 157.653Z" fill="#FF9800"/>
<path d="M89.496 158.422L86.4755 149.845C86.4755 149.845 85.24 148.385 88.5345 147.737C91.8289 147.088 155.574 147.737 155.574 147.737L157.058 158.414L89.496 158.422Z" fill="url(#paint8_linear_500_1064)"/>
<path d="M156.949 157.653C156.787 158.2 156.457 158.679 156.009 159.02C155.56 159.36 155.017 159.544 154.459 159.545H92.1048C91.5465 159.544 91.003 159.36 90.5546 159.02C90.1062 158.679 89.7766 158.2 89.6145 157.653C89.7762 157.105 90.1057 156.626 90.5541 156.285C91.0025 155.944 91.5462 155.76 92.1048 155.759L155.583 154.681C156.749 154.681 156.624 156.557 156.949 157.653Z" fill="url(#paint9_linear_500_1064)"/>
<path d="M155.574 115.08V151.892C155.574 152.918 155.176 153.902 154.467 154.627C153.759 155.352 152.799 155.759 151.797 155.759H94.7562C94.2601 155.76 93.7689 155.66 93.3105 155.466C92.8521 155.272 92.4356 154.987 92.0849 154.628C91.7341 154.269 91.456 153.842 91.2664 153.373C91.0768 152.903 90.9795 152.4 90.98 151.892V115.08C90.98 114.054 91.3778 113.071 92.086 112.346C92.7942 111.621 93.7547 111.213 94.7562 111.213H151.797C152.293 111.213 152.785 111.312 153.243 111.506C153.701 111.701 154.118 111.985 154.469 112.345C154.819 112.704 155.098 113.13 155.287 113.6C155.477 114.069 155.574 114.572 155.574 115.08Z" fill="#FF9800"/>
<path d="M155.574 115.08V151.892C155.574 152.918 155.176 153.902 154.467 154.627C153.759 155.352 152.799 155.759 151.797 155.759H94.7562C94.2601 155.76 93.7689 155.66 93.3105 155.466C92.8521 155.272 92.4356 154.987 92.0849 154.628C91.7341 154.269 91.456 153.842 91.2664 153.373C91.0768 152.903 90.9795 152.4 90.98 151.892V115.08C90.98 114.054 91.3778 113.071 92.086 112.346C92.7942 111.621 93.7547 111.213 94.7562 111.213H151.797C152.293 111.213 152.785 111.312 153.243 111.506C153.701 111.701 154.118 111.985 154.469 112.345C154.819 112.704 155.098 113.13 155.287 113.6C155.477 114.069 155.574 114.572 155.574 115.08Z" fill="url(#paint10_linear_500_1064)"/>
<path d="M155.573 115.08V151.894C155.574 152.521 155.425 153.138 155.14 153.693C154.855 154.247 154.442 154.722 153.938 155.077C153.928 155.085 153.918 155.092 153.907 155.099C153.342 155.492 152.683 155.718 152.001 155.753H94.7539C94.1998 155.753 93.6525 155.627 93.1514 155.385C92.9139 154.871 92.7911 154.31 92.792 153.742V116.935C92.792 115.91 93.1898 114.926 93.898 114.201C94.6062 113.476 95.5667 113.069 96.5682 113.069H153.609C154.164 113.068 154.712 113.193 155.214 113.435C155.452 113.949 155.574 114.511 155.573 115.08Z" fill="#202020"/>
<path d="M169.365 130.857C169.365 130.857 174.998 143.603 175.163 146.199C175.329 148.795 174.041 149.859 168.856 150.539C163.672 151.22 155.573 150.539 155.573 150.539V137.712L158.392 137.539L157.209 136.5L169.365 130.857Z" fill="url(#paint11_linear_500_1064)"/>
<path d="M116.036 100.086C116.036 100.086 115.854 104.48 119.479 107.246C123.103 110.013 127.248 107.336 128.257 105.518C129.265 103.7 130.762 99.28 130.762 99.28L116.036 100.086Z" fill="url(#paint12_linear_500_1064)"/>
<path d="M108.313 82.0167C108.313 82.0167 109.603 98.8883 119.48 101.922C129.358 104.955 137.644 94.2935 138.483 82.0167C139.323 69.7399 131.49 58.6068 120.962 60.8804C110.434 63.1539 106.877 74.6033 108.313 82.0167Z" fill="url(#paint13_linear_500_1064)"/>
<path d="M142.926 73.5511C143.157 74.4303 142.926 75.3612 142.647 76.2245C141.653 79.3041 140.082 82.155 138.02 84.6165C138.074 84.2784 138.121 83.9363 138.157 83.5961C138.462 80.8923 138.278 78.1541 137.616 75.5183C136.128 74.856 134.554 76.7118 132.954 76.4234C131.528 76.1747 130.873 74.4343 129.612 73.7003C128.352 72.9663 126.699 73.4437 125.454 74.2194C124.208 74.9952 123.097 76.0554 121.73 76.5905C118.599 77.8098 115.199 75.9659 112.336 74.1836L111.782 76.1867H111.615L111.275 76.2006C110.668 76.2263 110.082 76.4427 109.598 76.8206C109.115 77.1984 108.756 77.7195 108.571 78.313C107.944 80.3021 108.307 82.0008 108.62 84.4236C108.643 84.6026 108.77 85.4181 108.828 85.5932C106.885 82.335 104.89 77.8356 105.72 74.124C105.88 73.5345 106.009 72.937 106.108 72.3338C106.207 71.4884 106.07 70.6351 106.021 69.7857C105.902 67.7329 106.382 65.531 107.822 64.0949C111.238 60.6935 114.038 56.0489 118.554 54.4894C120.822 53.7208 123.219 53.4302 125.6 53.6353C127.981 53.8405 130.297 54.537 132.408 55.6829C134.544 56.8565 136.407 58.4677 138.258 60.0589C139.669 61.2823 141.093 62.5235 142.074 64.1147C143.054 65.706 143.548 67.717 142.922 69.4854C142.67 70.2014 142.237 70.8936 142.287 71.6515C142.332 72.3139 142.753 72.8987 142.926 73.5511Z" fill="black"/>
<path opacity="0.24" d="M140.125 79.695C139.56 81.0336 138.969 82.4081 138.157 83.5956C138.462 80.8918 138.278 78.1536 137.615 75.5178C136.127 74.8555 134.554 76.7113 132.953 76.4229C131.528 76.1742 130.873 74.4338 129.612 73.6998C128.352 72.9658 126.699 73.4432 125.453 74.2189C124.208 74.9947 123.097 76.0549 121.73 76.59C118.622 77.8013 115.244 75.9932 112.394 74.2189C112.252 72.928 115.038 71.7425 119.675 73.5884C123.478 75.1041 126.862 68.0507 131.757 69.9742C132.314 70.195 132.612 70.8613 133.169 71.0861C133.946 71.3964 134.799 71.1497 135.619 71.0304C136.438 70.9111 137.421 71.0085 137.858 71.7306C138.192 72.2835 138.074 72.9976 138.225 73.6302C138.377 74.2627 139.15 74.8495 139.603 74.394C139.764 75.3901 139.816 76.4015 139.76 77.4095C140.043 77.0376 140.414 76.7459 140.838 76.5621C140.976 77.6402 140.547 78.6984 140.125 79.695ZM109.368 76.2836C108.214 78.7581 108.14 82.9531 108.832 85.5987C108.317 84.3097 107.289 81.8193 106.986 80.4528C106.726 79.2932 106.576 77.9664 107.262 77.0037C107.447 76.7937 107.605 76.5612 107.734 76.3115C107.799 76.1048 107.84 75.8912 107.856 75.675C107.963 74.9728 108.459 74.2189 109.152 74.2548C109.433 74.2907 109.7 74.3988 109.929 74.569C110.347 74.8415 111.545 75.5497 111.621 76.1921L109.368 76.2836Z" fill="black"/>
<path d="M155.504 151.894C155.504 151.894 155.309 153.967 153.868 155.077C153.858 155.085 153.848 155.092 153.837 155.099C153.282 155.51 152.617 155.739 151.931 155.753H94.6843C94.1296 155.753 93.5817 155.627 93.0798 155.385C92.8439 154.871 92.7218 154.31 92.7224 153.742V134.414L155.504 151.894Z" fill="url(#paint14_linear_500_1064)"/>
<path opacity="0.24" d="M98.6006 155.216H93.1616L92.8022 149.895V116.935C92.8022 115.91 93.2001 114.926 93.9083 114.201C94.6164 113.476 95.5769 113.069 96.5784 113.069H110.434C110.434 113.069 95.8811 113.12 95.2109 116.428C94.5408 119.736 95.2109 152.948 95.2109 152.948C95.2109 152.948 94.5369 154.699 98.6006 155.216Z" fill="#FF9100"/>
<path d="M128.433 134.685C128.433 133.948 128.849 133.304 129.465 132.963C129.143 132.58 128.659 132.237 128.126 132.136C127.398 131.998 126.983 132.227 126.715 132.319C126.447 132.411 126.09 132.493 126.09 132.493C126.09 132.493 125.734 132.411 125.465 132.319C125.197 132.227 124.782 131.998 124.055 132.135C123.327 132.273 122.692 132.862 122.434 133.387C121.936 134.401 122.141 135.676 122.493 136.593C122.844 137.51 123.773 138.792 124.494 138.895C125.007 138.968 125.324 138.624 126.09 138.537C126.856 138.624 127.174 138.968 127.686 138.895C128.407 138.792 129.336 137.51 129.687 136.593C129.696 136.57 129.705 136.547 129.713 136.524C128.963 136.231 128.433 135.518 128.433 134.685ZM125.908 131.968C125.908 131.968 126.621 132.06 127.268 131.346C127.915 130.633 127.731 129.958 127.731 129.958C127.731 129.958 127.018 129.866 126.371 130.58C125.724 131.293 125.908 131.968 125.908 131.968Z" fill="white"/>
<defs>
<linearGradient id="paint0_linear_500_1064" x1="125" y1="0" x2="125" y2="250" gradientUnits="userSpaceOnUse">
<stop offset="0.472222" stop-color="#FF9800"/>
<stop offset="1" stop-color="#D9D9D9" stop-opacity="0"/>
</linearGradient>
<linearGradient id="paint1_linear_500_1064" x1="79.4566" y1="173.671" x2="84.4196" y2="92.6808" gradientUnits="userSpaceOnUse">
<stop stop-color="#ECDCC4"/>
<stop offset="0.16" stop-color="#EDDFCB"/>
<stop offset="0.42" stop-color="#EFE3D1"/>
<stop offset="0.7" stop-color="#FFDFB0"/>
</linearGradient>
<linearGradient id="paint2_linear_500_1064" x1="108.94" y1="85.7544" x2="106.509" y2="86.1475" gradientUnits="userSpaceOnUse">
<stop stop-color="#ECDCC4"/>
<stop offset="0.16" stop-color="#EDDFCB"/>
<stop offset="0.42" stop-color="#EFE3D1"/>
<stop offset="0.7" stop-color="#FFDFB0"/>
</linearGradient>
<linearGradient id="paint3_linear_500_1064" x1="137.922" y1="85.7544" x2="140.355" y2="86.1475" gradientUnits="userSpaceOnUse">
<stop stop-color="#ECDCC4"/>
<stop offset="0.16" stop-color="#EDDFCB"/>
<stop offset="0.42" stop-color="#EFE3D1"/>
<stop offset="0.7" stop-color="#FFDFB0"/>
</linearGradient>
<linearGradient id="paint4_linear_500_1064" x1="124.673" y1="159.886" x2="125.08" y2="201.483" gradientUnits="userSpaceOnUse">
<stop offset="0.01" stop-opacity="0"/>
<stop offset="0.26" stop-color="#202020" stop-opacity="0.21"/>
<stop offset="0.77" stop-color="#373737" stop-opacity="0.75"/>
<stop offset="0.99" stop-color="#563D3D"/>
</linearGradient>
<linearGradient id="paint5_linear_500_1064" x1="120.836" y1="115.786" x2="123.972" y2="48.8908" gradientUnits="userSpaceOnUse">
<stop offset="0.01" stop-opacity="0"/>
<stop offset="0.26" stop-color="#202020" stop-opacity="0.21"/>
<stop offset="0.77" stop-color="#373737" stop-opacity="0.75"/>
<stop offset="0.99" stop-color="#563D3D"/>
</linearGradient>
<linearGradient id="paint6_linear_500_1064" x1="86.2482" y1="152.938" x2="157.058" y2="152.938" gradientUnits="userSpaceOnUse">
<stop offset="0.01" stop-opacity="0"/>
<stop offset="0.26" stop-color="#202020" stop-opacity="0.21"/>
<stop offset="0.77" stop-color="#373737" stop-opacity="0.75"/>
<stop offset="0.99" stop-color="#563D3D"/>
</linearGradient>
<linearGradient id="paint7_linear_500_1064" x1="122.72" y1="169.247" x2="123.482" y2="155.689" gradientUnits="userSpaceOnUse">
<stop stop-color="#FDC168"/>
<stop offset="1" stop-color="#EB6969"/>
</linearGradient>
<linearGradient id="paint8_linear_500_1064" x1="121.633" y1="158.733" x2="121.749" y2="132.25" gradientUnits="userSpaceOnUse">
<stop offset="0.01" stop-opacity="0"/>
<stop offset="0.26" stop-color="#202020" stop-opacity="0.21"/>
<stop offset="0.77" stop-color="#373737" stop-opacity="0.75"/>
<stop offset="0.99" stop-color="#563D3D"/>
</linearGradient>
<linearGradient id="paint9_linear_500_1064" x1="144.402" y1="149.828" x2="61.7123" y2="179.034" gradientUnits="userSpaceOnUse">
<stop offset="0.01" stop-opacity="0"/>
<stop offset="0.26" stop-color="#202020" stop-opacity="0.21"/>
<stop offset="0.77" stop-color="#373737" stop-opacity="0.75"/>
<stop offset="0.99" stop-color="#563D3D"/>
</linearGradient>
<linearGradient id="paint10_linear_500_1064" x1="122.132" y1="101.397" x2="124.421" y2="162.588" gradientUnits="userSpaceOnUse">
<stop offset="0.01" stop-opacity="0"/>
<stop offset="0.26" stop-color="#202020" stop-opacity="0.21"/>
<stop offset="0.77" stop-color="#373737" stop-opacity="0.75"/>
<stop offset="0.99" stop-color="#563D3D"/>
</linearGradient>
<linearGradient id="paint11_linear_500_1064" x1="162.261" y1="195.535" x2="167.789" y2="105.341" gradientUnits="userSpaceOnUse">
<stop stop-color="#ECDCC4"/>
<stop offset="0.16" stop-color="#EDDFCB"/>
<stop offset="0.42" stop-color="#EFE3D1"/>
<stop offset="0.7" stop-color="#FFDFB0"/>
</linearGradient>
<linearGradient id="paint12_linear_500_1064" x1="122.388" y1="116.983" x2="124.985" y2="74.5945" gradientUnits="userSpaceOnUse">
<stop stop-color="#ECDCC4"/>
<stop offset="0.16" stop-color="#EDDFCB"/>
<stop offset="0.42" stop-color="#EFE3D1"/>
<stop offset="0.7" stop-color="#FFDFB0"/>
</linearGradient>
<linearGradient id="paint13_linear_500_1064" x1="123.522" y1="54.6525" x2="122.814" y2="122.849" gradientUnits="userSpaceOnUse">
<stop stop-color="#ECDCC4"/>
<stop offset="0.16" stop-color="#EDDFCB"/>
<stop offset="0.42" stop-color="#EFE3D1"/>
<stop offset="0.7" stop-color="#FFDFB0"/>
</linearGradient>
<linearGradient id="paint14_linear_500_1064" x1="126.988" y1="121.761" x2="107.104" y2="262.914" gradientUnits="userSpaceOnUse">
<stop offset="0.01" stop-opacity="0"/>
<stop offset="0.26" stop-color="#202020" stop-opacity="0.21"/>
<stop offset="0.77" stop-color="#373737" stop-opacity="0.75"/>
<stop offset="0.99" stop-color="#563D3D"/>
</linearGradient>
</defs>
</svg>
