<svg width="609" height="610" viewBox="0 0 609 610" fill="none" xmlns="http://www.w3.org/2000/svg">
<path d="M575.535 342.619C577.667 339.575 588.435 340.38 588.435 340.38C584.871 341.326 582.6 343.625 581.193 345.766C573.154 343.314 565.152 342.674 565.152 342.674C565.152 342.674 568.788 340.74 571.973 337.965C574.878 336.995 578.446 337.129 578.446 337.129C574.591 340.38 575.535 342.619 575.535 342.619Z" fill="#707070"/>
<path d="M571.973 337.964C568.788 340.74 565.152 342.674 565.152 342.674C565.152 342.674 573.154 343.314 581.193 345.766C589.293 348.243 597.429 352.562 597.429 359.918C597.429 374.571 551.145 388.478 551.145 388.478C551.145 388.478 572.46 405.04 500.598 426.39C457.517 439.188 416.629 442.122 390.783 442.421L390.777 441.841C391.179 432.899 397.677 433.71 397.677 433.71C388.95 428.22 378.999 435.949 378.999 435.949C380.625 427.61 373.317 425.579 373.317 425.579C375.552 435.131 371.502 437.382 371.502 437.382C368.25 429.294 353.422 430.947 353.422 430.947C361.393 433.345 363.342 438.108 363.561 441.695L362.964 441.64C362.964 441.64 309.372 460.55 212.541 469.7C115.71 478.85 32.886 452.01 25.578 423.157C18.27 394.304 56.028 393.45 66.99 388.478C77.952 383.507 44.457 381.25 45.066 374.54C45.675 367.83 88.914 356.24 88.914 356.24C88.914 356.24 141.897 344.803 175.392 344.803C208.887 344.803 192.036 353.8 192.036 353.8C192.036 353.8 484.155 314.76 543.228 318.841C583.824 321.641 578.976 331.846 571.973 337.964Z" fill="#707070"/>
<path d="M397.677 433.71C397.677 433.71 391.179 432.899 390.777 441.841L390.783 442.421C375.905 442.591 366.009 441.89 363.561 441.695C363.342 438.108 361.393 433.345 353.422 430.947C353.422 430.947 368.251 429.294 371.502 437.382C371.502 437.382 375.552 435.132 373.317 425.579C373.317 425.579 380.625 427.61 378.999 435.949C378.999 435.949 388.95 428.22 397.677 433.71Z" fill="#707070"/>
<path d="M547.491 336.11C547.679 332.917 545.927 329.574 545.649 326.418C545.414 323.767 545.509 320.768 545.664 318.108C545.782 316.088 546.357 312.234 548.694 311.39C551.586 310.345 552.135 313.404 554.412 310.184C557.705 305.526 554.633 299.376 556.247 294.317C556.843 292.451 559.166 289.815 561.513 290.955C564.156 292.237 562.01 295.283 565.762 294.018C567.151 293.55 568.178 292.008 569.948 291.64C571.467 291.324 573.944 291.327 575.496 291.573C578.966 292.12 583.409 294.837 585.18 297.984C589.332 305.36 580.2 304.85 575.505 305.603C573.652 305.899 570.036 306.412 569.027 308.271C567.244 311.556 572.138 312.468 573.981 314.439C580.694 321.621 567.021 320.648 563.563 320.548C561.075 320.476 558.611 320.58 557.769 323.3C556.905 326.095 559.775 327.699 559.001 330.627C557.92 334.719 551.204 338.014 547.491 336.11Z" fill="#C52929"/>
<path d="M267.351 351.36C267.587 348.153 269.795 345.891 269.786 342.598C269.78 340.332 269.143 338.036 267.976 336.103C266.377 333.453 264.17 332.341 261.261 331.842C259.095 331.47 256.256 331.892 255.461 329.094C255.176 328.092 255.993 326.508 256.085 325.436C256.224 323.813 255.929 322.647 255.477 321.166C253.635 315.142 248.362 314.827 244.581 319.352C240.053 324.773 237.577 330.306 243.905 335.279C246.129 337.027 249.975 338.951 250.84 341.905C251.938 345.652 247.788 345.011 246.4 348.073C244.373 352.545 247.764 352.681 250.908 353.19C256.126 354.034 251.406 355.723 252.179 358.932C254.955 359.791 261.868 364.454 264.609 362.971C267.819 361.236 270.002 352.209 268.265 349.225" fill="#FC3E3E"/>
<path d="M551.145 225.792V367.983L461.719 391.163V243.36L551.145 225.792Z" fill="#FF9800"/>
<path d="M551.145 225.792L461.719 243.36L386.508 204.93L467.712 189.802L551.145 225.792Z" fill="#FFBF62"/>
<path d="M461.719 243.359V391.162L425.594 370.801V303.902L386.508 287.042V204.929L461.719 243.359Z" fill="#FF9100"/>
<path d="M425.594 370.801V397.72L336.168 420.9V321.47L386.508 311.582V348.767L425.594 370.801Z" fill="#FF9800"/>
<path d="M425.594 303.902V370.801L386.508 348.768V311.582L425.594 303.902Z" fill="#FF9800"/>
<path d="M425.594 303.902L386.508 311.582V287.042L425.594 303.902ZM386.508 287.042V311.582L336.168 321.47L260.957 283.04L342.161 267.912L386.508 287.042Z" fill="#FFBF62"/>
<path d="M336.168 321.47V420.9L290.134 394.951V388.479L260.957 373.283V283.04L336.168 321.47Z" fill="#FF9100"/>
<path d="M290.134 394.951V434.351L200.708 457.531V406.047L281.62 390.15L290.134 394.951ZM290.134 388.479V394.951L281.62 390.15L290.134 388.479Z" fill="#FF9800"/>
<path d="M290.134 388.479L281.62 390.15L260.957 378.505V373.283L290.134 388.479Z" fill="#FFBF62"/>
<path d="M281.62 390.15L200.708 406.047L125.497 367.617L214.569 349.121L260.957 373.283V378.505L281.62 390.15Z" fill="#FFBF62"/>
<path d="M200.708 406.046V457.53L125.497 415.135V367.616L200.708 406.046Z" fill="#FF9100"/>
<path d="M418.992 135.725L391.282 178.12V158.905L233.838 254.931L229.496 236.717L385.192 147.315L376.666 137.25L418.992 135.725Z" fill="#E29229"/>
<path d="M236.901 370.88C241.468 372.1 242.382 377.895 242.077 378.658C241.773 379.42 204.928 378.963 204.319 378.658C203.71 378.353 207.054 364.347 207.054 364.347C209.66 366.049 219.094 366.171 222.285 366.164L221.676 369.202C221.676 369.202 232.333 369.66 236.901 370.88Z" fill="#343434"/>
<path d="M181.713 295.033C181.713 295.033 235.987 322.233 235.683 329.553C235.378 336.873 223.351 366.153 223.351 366.153C223.351 366.153 222.955 366.165 222.285 366.165C219.094 366.172 209.66 366.05 207.054 364.348C206.762 364.159 206.555 363.945 206.451 363.713L214.063 335.348L163.212 322.373L162.841 322.244L169.339 303.377V303.371C178.12 299.424 181.786 295.544 181.786 295.544L181.713 295.033Z" fill="#666464"/>
<path d="M230.05 303.371C232.181 307.062 232.407 319.64 230.58 318.798C228.753 317.963 223.734 307.367 223.046 307.208C223.046 307.208 224.648 314.077 223.655 313.845C222.943 313.68 219.155 310.368 216.981 307.318C217.035 306.324 217.297 305.183 217.894 303.926C219.435 300.681 219.514 296.369 219.362 293.593C222.474 295.935 228.491 300.675 230.05 303.371Z" fill="#FDCB81"/>
<path d="M219.362 293.593C219.514 296.368 219.435 300.681 217.894 303.926C217.297 305.183 217.035 306.324 216.981 307.318C216.116 306.111 215.507 304.945 215.44 304.03C218.759 299.406 217.894 293.996 217.468 292.196H217.474C217.474 292.196 218.223 292.733 219.362 293.593Z" fill="#F7B256"/>
<path d="M217.468 292.196C217.894 293.996 218.759 299.406 215.44 304.03C215.208 304.359 214.953 304.683 214.672 305C214.672 305 197.474 294.947 186.744 283.741C186.744 283.735 186.738 283.729 186.738 283.729C183.108 274.372 181.567 251.045 181.001 239.279C180.276 246.928 179.387 260.025 179.923 274.549C180.167 281.21 180.709 288.164 181.713 295.033L181.786 295.545C181.786 295.545 178.12 299.425 169.339 303.371V303.377C161.141 307.056 148.48 310.795 130.174 311.49C130.174 311.49 129.888 294.191 130.381 278.837C132.494 270.23 136.44 256.56 138.919 248.124C136.684 252.491 133.895 257.969 131.349 263.038C128.085 269.528 125.21 275.36 124.388 277.349C122.208 282.631 118.042 301.444 118.042 301.444C117.153 301.785 116.234 302.048 115.302 302.243C110.996 303.158 106.599 302.682 105.32 302.511C105.077 302.481 104.949 302.456 104.949 302.456C104.949 302.456 107.08 281.314 108.603 276.94C110.125 272.566 125.253 230.275 127.385 227.426C128.956 225.334 137.116 221.534 141.318 219.667L158.431 224.559L162.816 231.605H162.81L159.607 238.205L155.399 281.515L158.182 290.055L164.125 281.924L167.883 238.205L164.406 231.605L167.14 224.053L180.063 219.374C182.195 220.186 184.344 221.168 184.831 221.936C185.849 223.565 190.617 263.624 190.617 263.624C190.617 263.624 206.25 285.681 217.309 291.58C217.309 291.58 217.383 291.8 217.468 292.196Z" fill="#DD571C"/>
<path d="M186.738 283.729C183.833 280.698 181.403 277.574 179.923 274.549C179.387 260.025 180.276 246.928 181.001 239.279C181.567 251.046 183.108 274.372 186.738 283.729ZM180.063 219.374L167.14 224.053L167.445 223.211L175.392 217.77C175.392 217.77 177.712 218.472 180.063 219.374Z" fill="#C52929"/>
<path d="M180.063 193.779C180.063 193.779 177.95 196.115 175.696 197.231L174.606 188.508C174.673 188.673 174.734 188.807 174.783 188.899C175.593 190.32 180.063 193.779 180.063 193.779Z" fill="#F7B256"/>
<path d="M175.709 199.263C175.885 199.433 175.897 199.714 175.727 199.897C175.678 199.946 174.887 200.769 172.822 200.769C171.829 200.769 170.538 200.58 168.9 200.019C168.786 199.98 168.691 199.897 168.638 199.788C168.584 199.68 168.576 199.554 168.614 199.44C168.693 199.202 168.955 199.074 169.192 199.153C173.602 200.653 175.051 199.281 175.063 199.269C175.24 199.092 175.526 199.086 175.709 199.263Z" fill="black"/>
<path d="M175.696 197.231C175.696 197.231 177.018 206.589 175.696 206.991C174.375 207.4 166.866 209.029 166.866 209.029C166.866 209.029 162.542 209.23 159.905 207.552C159.905 207.552 162.914 211.755 167.475 212.927C167.688 214.22 167.92 215.489 168.084 216.141L163.212 226.109L152.354 214.519C152.354 213.604 151.397 206.857 151.397 206.857L156.617 205.265L156.312 198.756C156.312 198.756 153.364 198.964 152.658 194.694C151.945 190.424 154.99 190.35 156.105 191.503C157.226 192.656 158.035 193.675 158.035 193.675L160.672 192.559L158.949 184.934C158.949 184.934 156.318 184.525 156.208 181.676C156.008 176.394 171.33 176.089 171.33 176.089C171.33 176.089 171.823 178.205 172.444 180.731C169.661 179.785 166.58 182.634 166.452 182.756C166.393 182.81 166.345 182.875 166.312 182.948C166.278 183.021 166.259 183.099 166.256 183.18C166.254 183.26 166.267 183.34 166.295 183.414C166.323 183.489 166.366 183.558 166.421 183.616C166.543 183.744 166.702 183.811 166.866 183.811C167.018 183.811 167.164 183.756 167.28 183.647C168.066 182.908 170.49 181.176 172.268 181.957C172.426 182.03 172.603 182.024 172.755 181.963C173.419 184.598 174.156 187.368 174.606 188.508L175.696 197.231ZM175.727 199.897C175.808 199.81 175.851 199.695 175.848 199.576C175.844 199.457 175.794 199.345 175.709 199.263C175.622 199.178 175.506 199.132 175.385 199.133C175.264 199.134 175.148 199.183 175.063 199.269C175.051 199.281 173.602 200.653 169.192 199.153C169.078 199.114 168.953 199.123 168.844 199.177C168.736 199.231 168.653 199.325 168.614 199.439C168.535 199.677 168.663 199.94 168.9 200.019C170.538 200.58 171.829 200.769 172.822 200.769C174.887 200.769 175.678 199.946 175.727 199.897ZM172.511 187.422C172.511 186.666 172.17 186.05 171.75 186.05C171.33 186.05 170.989 186.666 170.989 187.422C170.989 188.179 171.33 188.795 171.75 188.795C172.17 188.795 172.511 188.179 172.511 187.422Z" fill="#FDCB81"/>
<path d="M175.392 217.77L167.445 223.211L165.185 224.761H165.179L163.212 226.109L168.084 216.141L175.392 217.77Z" fill="#FC3E3E"/>
<path d="M172.755 180.847C173.066 180.981 173.206 181.341 173.066 181.646C173.005 181.792 172.889 181.902 172.755 181.963C172.645 181.542 172.542 181.127 172.444 180.731C172.548 180.761 172.652 180.798 172.755 180.847Z" fill="black"/>
<path d="M172.444 180.731C172.542 181.127 172.645 181.542 172.755 181.963C172.603 182.024 172.426 182.03 172.268 181.957C170.49 181.176 168.066 182.908 167.28 183.647C167.164 183.756 167.018 183.811 166.866 183.811C166.702 183.811 166.543 183.744 166.421 183.616C166.366 183.558 166.323 183.489 166.295 183.414C166.267 183.34 166.254 183.26 166.256 183.18C166.259 183.1 166.278 183.021 166.312 182.948C166.345 182.875 166.393 182.81 166.452 182.756C166.58 182.634 169.661 179.785 172.444 180.731Z" fill="black"/>
<path d="M171.75 188.795C172.171 188.795 172.511 188.181 172.511 187.423C172.511 186.665 172.171 186.05 171.75 186.05C171.33 186.05 170.989 186.665 170.989 187.423C170.989 188.181 171.33 188.795 171.75 188.795Z" fill="white"/>
<path d="M172.243 172.124C172.755 175.07 171.33 176.089 171.33 176.089C171.33 176.089 156.008 176.394 156.209 181.676C156.318 184.525 158.949 184.934 158.949 184.934L160.672 192.559L158.036 193.675C158.036 193.675 157.226 192.656 156.105 191.503C154.99 190.351 151.946 190.424 152.658 194.694C153.364 198.964 156.312 198.756 156.312 198.756L156.617 205.265L151.397 206.857L150.624 207.095C150.624 207.095 150.527 205.979 149.613 202.416C148.7 198.86 140.575 189.301 139.869 188.289C139.157 187.27 141.897 184.525 141.897 184.525C137.835 177.711 146.873 169.476 156.921 167.445C166.97 165.414 171.738 169.171 172.243 172.124Z" fill="#343434"/>
<path d="M169.339 303.377L162.841 322.245L147.329 367.288L145.959 366.812L143.828 323.959L137.433 321.672L128.962 322.08L130.174 311.49C148.48 310.795 161.141 307.056 169.339 303.377Z" fill="#666464"/>
<path d="M164.406 231.605L167.883 238.205L164.126 281.924L158.182 290.055L155.399 281.515L159.607 238.205L162.81 231.605H162.816L163.821 233.221L164.406 231.605ZM167.445 223.211L167.14 224.053L165.185 224.761L167.445 223.211Z" fill="#343434"/>
<path d="M167.14 224.053L164.406 231.605L163.821 233.221L162.816 231.605L158.431 224.559L161.415 225.413H161.422L163.212 226.109L165.179 224.761H165.185L167.14 224.053Z" fill="#343434"/>
<path d="M166.866 209.029C166.866 209.029 167.158 210.999 167.475 212.927C162.914 211.755 159.905 207.552 159.905 207.552C162.542 209.23 166.866 209.029 166.866 209.029Z" fill="#F7B256"/>
<path d="M152.354 214.519L163.212 226.109L161.422 225.413H161.415L158.182 224.157L143.828 218.581L152.354 214.519Z" fill="#DD571C"/>
<path d="M161.415 225.413L158.431 224.559L158.182 224.157L161.415 225.413Z" fill="#343434"/>
<path d="M158.182 224.157L158.431 224.559L141.318 219.667C142.829 219.002 143.828 218.581 143.828 218.581L158.182 224.157Z" fill="#C52929"/>
<path d="M150.118 423.157C153.62 425.115 153.316 429.287 151.793 430.355C150.271 431.422 115.558 430.812 114.949 430.355C114.34 429.897 116.63 415.367 116.63 415.367C126.173 416.782 131.045 416.532 133.225 416.209L132.914 419.68C132.914 419.68 146.617 421.205 150.118 423.157Z" fill="#343434"/>
<path d="M147.329 367.287L145.094 373.777L134.741 415.867C134.741 415.867 134.321 416.044 133.225 416.209C131.045 416.532 126.173 416.782 116.63 415.367C116.38 415.337 116.13 415.294 115.874 415.257L125.454 368.336V368.025L138.956 367.934L145.959 366.811L147.329 367.287Z" fill="#666464"/>
<path d="M143.828 323.959L145.959 366.811L138.956 367.934L137.433 321.671L143.828 323.959Z" fill="#FF9100"/>
<path d="M137.433 321.671L138.956 367.934L125.454 368.025L79.6755 368.336L80.8996 324.416C80.8996 324.416 96.1794 340.453 106.106 342.668V342.674L106.679 348.206H110.637V342.674L110.594 342.527C120.235 339.557 137.433 321.671 137.433 321.671Z" fill="#FF9800"/>
<path d="M128.962 322.08L137.433 321.671C137.433 321.671 120.235 339.557 110.594 342.527C110.186 342.649 109.797 342.752 109.419 342.819C108.414 343.002 107.3 342.935 106.106 342.667C96.1793 340.453 80.8995 324.416 80.8995 324.416L97.6105 323.604H98.3108V323.568L124.845 322.281L128.962 322.08Z" fill="#FFBF62"/>
<path d="M131.349 263.038C133.895 257.969 136.684 252.491 138.919 248.124C136.44 256.56 132.494 270.23 130.381 278.837C130.563 272.914 130.868 267.278 131.349 263.038Z" fill="#C52929"/>
<path d="M124.845 312.216V322.269L122.305 322.373L122.61 314.735L115.88 314.839L117.232 312.521L119.267 312.319L124.845 312.216Z" fill="#FF9100"/>
<path d="M118.45 306.934C119.668 309.679 119.267 312.32 119.267 312.32L117.232 312.521L115.88 314.839H115.874C115.765 315.034 115.643 315.242 115.509 315.474C113.779 318.42 111.551 319.945 108.298 319.134C107.233 318.866 106.545 316.98 106.106 314.571C105.936 313.625 105.802 312.673 105.704 311.716C105.412 308.916 105.333 305.983 105.32 304.201C106.843 304.054 112.695 303.579 117.013 304.39C117.507 305.104 118.024 305.97 118.45 306.934Z" fill="#FDCB81"/>
<path d="M115.302 302.243C115.302 302.243 116.112 303.06 117.013 304.39C112.695 303.579 106.843 304.055 105.32 304.201C105.308 303.158 105.32 302.511 105.32 302.511C106.599 302.682 110.996 303.158 115.302 302.243Z" fill="#F7B256"/>
<path d="M110.637 342.674V348.206H106.679L106.106 342.674V342.668C107.3 342.936 108.414 343.003 109.419 342.82C109.797 342.753 110.186 342.649 110.594 342.527L110.637 342.674Z" fill="black"/>
<path d="M106.106 314.571L98.658 314.15L98.3109 323.568L97.6105 323.605H96.2768C96.2768 323.605 96.7275 312.216 96.7275 311.716C96.7275 311.222 105.43 311.698 105.704 311.716C105.808 312.704 105.942 313.674 106.106 314.571Z" fill="#FF9100"/>
<path d="M131.349 263.496C131.271 263.496 131.194 263.475 131.126 263.437C131.058 263.399 131 263.344 130.96 263.277C130.919 263.21 130.896 263.134 130.893 263.056C130.89 262.978 130.907 262.9 130.942 262.83L141.036 242.979C141.091 242.871 141.186 242.789 141.302 242.751C141.417 242.714 141.542 242.724 141.65 242.779C141.758 242.834 141.84 242.93 141.877 243.045C141.915 243.16 141.905 243.286 141.85 243.394L131.757 263.245C131.718 263.321 131.66 263.384 131.588 263.428C131.516 263.472 131.433 263.496 131.349 263.496ZM180.023 275.169H180.014C179.954 275.168 179.895 275.155 179.84 275.131C179.785 275.107 179.735 275.072 179.694 275.029C179.652 274.986 179.619 274.935 179.598 274.879C179.576 274.823 179.565 274.763 179.566 274.703C179.59 273.401 180.143 242.746 180.665 238.037C180.682 237.92 180.744 237.813 180.838 237.74C180.932 237.668 181.051 237.634 181.169 237.647C181.287 237.66 181.395 237.719 181.47 237.811C181.546 237.902 181.583 238.02 181.574 238.138C181.056 242.806 180.486 274.401 180.48 274.72C180.478 274.84 180.428 274.954 180.343 275.038C180.257 275.122 180.142 275.169 180.023 275.169ZM260.957 362.858C260.89 362.859 260.823 362.844 260.762 362.815C260.701 362.786 260.647 362.744 260.604 362.692C260.561 362.64 260.53 362.578 260.514 362.513C260.497 362.447 260.495 362.379 260.508 362.313C260.531 362.196 262.672 350.435 252.555 334.937C252.522 334.887 252.499 334.83 252.488 334.771C252.477 334.712 252.477 334.651 252.489 334.592C252.501 334.533 252.525 334.477 252.559 334.427C252.593 334.377 252.636 334.335 252.687 334.302C252.737 334.269 252.794 334.246 252.853 334.235C252.912 334.224 252.973 334.225 253.031 334.237C253.09 334.25 253.146 334.274 253.196 334.308C253.245 334.342 253.288 334.386 253.32 334.437C263.656 350.271 261.501 361.998 261.404 362.489C261.384 362.593 261.328 362.687 261.247 362.754C261.165 362.822 261.063 362.858 260.957 362.858ZM551.146 335.347C551.081 335.348 551.017 335.334 550.959 335.308C550.9 335.281 550.847 335.243 550.804 335.195C550.761 335.146 550.729 335.09 550.71 335.028C550.69 334.967 550.684 334.902 550.691 334.838C550.725 334.543 554.272 305.331 571.666 297.627C571.721 297.603 571.78 297.59 571.84 297.588C571.9 297.587 571.959 297.597 572.015 297.619C572.071 297.641 572.122 297.673 572.166 297.715C572.209 297.756 572.244 297.806 572.268 297.861C572.293 297.916 572.306 297.975 572.307 298.035C572.309 298.095 572.298 298.155 572.277 298.211C572.255 298.267 572.223 298.318 572.181 298.362C572.14 298.405 572.09 298.44 572.035 298.464C555.114 305.958 551.632 334.653 551.598 334.942C551.585 335.054 551.532 335.157 551.449 335.231C551.365 335.306 551.257 335.347 551.146 335.347Z" fill="white"/>
<path d="M432.085 409.615C430.075 406.217 424.073 400.859 427.739 396.111C429.002 394.474 431.937 395.136 432.71 392.55C433.414 390.197 431.149 387.95 431.172 385.52C431.199 382.509 432.187 381.197 434.892 381.167C438.268 381.129 437.663 382.379 439.157 378.817C441.125 374.121 447.341 368.623 450.584 375.759C451.848 378.542 451.041 379.286 449.761 381.31C448.085 383.961 447.228 384.934 449.146 387.579C450.34 389.226 453.36 390.444 452.502 393.143C451.575 396.055 448.496 394.665 446.397 395.264C439.727 397.165 444.976 403.446 443.367 407.495C442.035 410.841 433.347 411.475 431.781 408.7" fill="#FC3E3E"/>
<path d="M431.476 418.308C431.361 418.308 431.251 418.264 431.167 418.187C431.082 418.109 431.031 418.002 431.022 417.887C431.009 417.737 429.897 402.625 439.342 390.876C439.38 390.829 439.427 390.79 439.479 390.761C439.532 390.733 439.59 390.715 439.649 390.708C439.709 390.702 439.769 390.707 439.827 390.724C439.885 390.741 439.938 390.769 439.985 390.807C440.032 390.845 440.07 390.891 440.099 390.944C440.128 390.997 440.146 391.055 440.152 391.114C440.159 391.174 440.153 391.235 440.136 391.292C440.119 391.35 440.091 391.404 440.054 391.451C430.843 402.908 431.92 417.666 431.931 417.814C431.941 417.935 431.903 418.055 431.824 418.147C431.746 418.24 431.634 418.297 431.513 418.307L431.476 418.308Z" fill="white"/>
<path d="M417.774 408.395C415.868 409.435 412.952 410.656 410.839 409.53C407.758 407.889 410.264 406.533 409.558 404.421C408.792 402.128 404.902 401.772 403.142 400.236C400.558 397.98 401.258 395.337 402.862 392.535C404.641 389.426 406.309 389.855 409.551 391.545C411.728 392.679 416.079 395.771 417.17 398.093C417.647 399.106 416.957 400.752 417.448 401.69C417.99 402.728 419.799 402.537 420.52 403.575C422.137 405.907 419.391 407.809 417.469 408.394" fill="#C52929"/>
<path d="M420.209 418.307C420.099 418.307 419.992 418.267 419.909 418.194C419.826 418.121 419.772 418.02 419.758 417.91C419.736 417.751 417.57 401.948 410.269 398.437C410.213 398.413 410.162 398.377 410.12 398.332C410.079 398.288 410.046 398.235 410.025 398.177C410.004 398.12 409.994 398.059 409.997 397.998C410 397.936 410.015 397.876 410.041 397.821C410.068 397.766 410.105 397.716 410.151 397.676C410.197 397.635 410.25 397.604 410.308 397.585C410.366 397.565 410.428 397.558 410.489 397.563C410.55 397.567 410.609 397.584 410.663 397.613C418.41 401.337 420.574 417.12 420.663 417.79C420.671 417.854 420.666 417.92 420.647 417.982C420.628 418.045 420.596 418.103 420.554 418.152C420.511 418.201 420.458 418.24 420.398 418.267C420.339 418.294 420.275 418.308 420.209 418.307Z" fill="white"/>
<path d="M75.7188 416.461C81.7729 416.461 86.6808 415.114 86.6808 413.452C86.6808 411.791 81.7729 410.444 75.7188 410.444C69.6646 410.444 64.7568 411.791 64.7568 413.452C64.7568 415.114 69.6646 416.461 75.7188 416.461Z" fill="black"/>
<path d="M92.462 425.842C97.2828 425.842 101.191 424.64 101.191 423.158C101.191 421.675 97.2828 420.473 92.462 420.473C87.6412 420.473 83.7332 421.675 83.7332 423.158C83.7332 424.64 87.6412 425.842 92.462 425.842Z" fill="black"/>
<path d="M101.191 389.813C103.588 389.813 105.531 389.216 105.531 388.478C105.531 387.741 103.588 387.144 101.191 387.144C98.7937 387.144 96.8505 387.741 96.8505 388.478C96.8505 389.216 98.7937 389.813 101.191 389.813Z" fill="black"/>
<path d="M489.559 401.442C491.956 401.442 493.899 400.844 493.899 400.107C493.899 399.37 491.956 398.772 489.559 398.772C487.162 398.772 485.218 399.37 485.218 400.107C485.218 400.844 487.162 401.442 489.559 401.442Z" fill="black"/>
</svg>
