<svg width="25" height="24" viewBox="0 0 25 24" fill="none" xmlns="http://www.w3.org/2000/svg">
<g clip-path="url(#clip0_639_673)">
<rect width="25" height="23.0363" transform="translate(0 0.664673)" fill="white"/>
<path d="M24.3255 10.6844C24.3249 10.6838 24.3243 10.6833 24.3238 10.6828L14.1257 1.28614C13.6911 0.885419 13.1131 0.664673 12.4984 0.664673C11.8837 0.664673 11.3057 0.885243 10.8709 1.28596L0.678172 10.6779C0.674739 10.681 0.671305 10.6844 0.667872 10.6875C-0.224767 11.5148 -0.223241 12.857 0.672259 13.6822C1.08139 14.0593 1.62174 14.2778 2.19947 14.3007C2.22293 14.3028 2.24658 14.3038 2.27043 14.3038H2.67688V21.2192C2.67688 22.5876 3.88519 23.701 5.37063 23.701H9.36042C9.76478 23.701 10.0928 23.3989 10.0928 23.0261V17.6045C10.0928 16.98 10.6441 16.4721 11.3217 16.4721H13.675C14.3527 16.4721 14.9039 16.98 14.9039 17.6045V23.0261C14.9039 23.3989 15.2318 23.701 15.6364 23.701H19.6262C21.1116 23.701 22.3199 22.5876 22.3199 21.2192V14.3038H22.6968C23.3113 14.3038 23.8893 14.0833 24.3243 13.6825C25.2208 12.856 25.2212 11.5115 24.3255 10.6844Z" fill="#FF9800"/>
</g>
<defs>
<clipPath id="clip0_639_673">
<rect width="25" height="23.0363" fill="white" transform="translate(0 0.664673)"/>
</clipPath>
</defs>
</svg>
