 <svg xmlns="http://www.w3.org/2000/svg" width="60" height="60" viewBox="0 0 71 71" fill="none">
            <g filter="url(#filter0_d_362_114)">
                <path d="M35.5 60C50.6878 60 63 47.6878 63 32.5C63 17.3122 50.6878 5 35.5 5C20.3122 5 8 17.3122 8 32.5C8 47.6878 20.3122 60 35.5 60Z" fill="#95989A"/>
            </g>
            <path d="M49.2441 49.8329L18.6716 50.1768L24.0895 20.2381L45.6321 21.4689L49.2441 49.8329Z" fill="#FFBF62"/>
            <path d="M52.0821 51.3796H23.5305L23.6909 50.1201L49.2442 49.8326L45.7576 22.4538L49.2442 22.0798L52.0821 51.3796Z" fill="#FF9800" fill-opacity="0.6"/>
            <path d="M23.6909 50.1211L26.9574 24.4699L45.7576 22.4548L49.2442 49.8336L23.6909 50.1211Z" fill="#FF9800" fill-opacity="0.6"/>
            <path d="M42.212 19.4314H40.3852C40.3852 17.2332 38.5962 15.445 36.3967 15.445C34.1977 15.445 32.4083 17.2332 32.4083 19.4314H30.5815C30.5815 16.2266 33.1903 13.6191 36.3967 13.6191C39.6032 13.6191 42.212 16.2266 42.212 19.4314Z" fill="#FF9800"/>
            <defs>
                <filter id="filter0_d_362_114" x="0" y="0" width="71" height="71" filterUnits="userSpaceOnUse" color-interpolation-filters="sRGB">
                <feFlood flood-opacity="0" result="BackgroundImageFix"/>
                <feColorMatrix in="SourceAlpha" type="matrix" values="0 0 0 0 0 0 0 0 0 0 0 0 0 0 0 0 0 0 127 0" result="hardAlpha"/>
                <feOffset dy="3"/>
                <feGaussianBlur stdDeviation="4"/>
                <feColorMatrix type="matrix" values="0 0 0 0 0 0 0 0 0 0 0 0 0 0 0 0 0 0 0.160784 0"/>
                <feBlend mode="normal" in2="BackgroundImageFix" result="effect1_dropShadow_362_114"/>
                <feBlend mode="normal" in="SourceGraphic" in2="effect1_dropShadow_362_114" result="shape"/>
                </filter>
            </defs>
            </svg>