<svg width="25" height="20" viewBox="0 0 25 20" fill="none" xmlns="http://www.w3.org/2000/svg">
<g id="fa-solid:money-check-alt" clip-path="url(#clip0_537_237)">
<path id="Vector" d="M22.9587 1.729H1.69036C1.03791 1.729 0.508789 2.25813 0.508789 2.91058V17.0895C0.508789 17.7419 1.03791 18.2711 1.69036 18.2711H22.9587C23.6112 18.2711 24.1403 17.7419 24.1403 17.0895V2.91058C24.1403 2.25813 23.6112 1.729 22.9587 1.729ZM7.00745 12.6541V13.2494C7.00745 13.4126 6.87527 13.5448 6.71206 13.5448H6.12127C5.95807 13.5448 5.82588 13.4126 5.82588 13.2494V12.6479C5.409 12.6265 5.00358 12.481 4.66757 12.2288C4.52356 12.1206 4.51618 11.905 4.64652 11.7805L5.08038 11.3666C5.18266 11.2691 5.33479 11.2647 5.45442 11.3396C5.59732 11.429 5.75942 11.477 5.92779 11.477H6.96573C7.20574 11.477 7.40144 11.2584 7.40144 10.99C7.40144 10.7703 7.26814 10.5768 7.07761 10.5199L5.41602 10.0214C4.7296 9.81541 4.24995 9.15668 4.24995 8.41931C4.24995 7.51392 4.95336 6.77839 5.82551 6.75513V6.15991C5.82551 5.99671 5.9577 5.86452 6.1209 5.86452H6.71169C6.8749 5.86452 7.00709 5.99671 7.00709 6.15991V6.76141C7.42396 6.78282 7.82939 6.92794 8.1654 7.1805C8.3094 7.28869 8.31679 7.50432 8.18645 7.62876L7.75259 8.04268C7.65031 8.14016 7.49818 8.14459 7.37854 8.06963C7.23565 7.97991 7.07355 7.93228 6.90517 7.93228H5.86723C5.62723 7.93228 5.43153 8.15087 5.43153 8.41931C5.43153 8.63901 5.56482 8.83249 5.75535 8.88935L7.41694 9.38783C8.10337 9.59387 8.58301 10.2526 8.58301 10.99C8.58301 11.8957 7.8796 12.6309 7.00745 12.6541ZM15.8693 12.0678C15.8693 12.231 15.7371 12.3632 15.5739 12.3632H11.4384C11.2752 12.3632 11.143 12.231 11.143 12.0678V11.477C11.143 11.3138 11.2752 11.1816 11.4384 11.1816H15.5739C15.7371 11.1816 15.8693 11.3138 15.8693 11.477V12.0678ZM21.7771 12.0678C21.7771 12.231 21.645 12.3632 21.4818 12.3632H18.5278C18.3646 12.3632 18.2324 12.231 18.2324 12.0678V11.477C18.2324 11.3138 18.3646 11.1816 18.5278 11.1816H21.4818C21.645 11.1816 21.7771 11.3138 21.7771 11.477V12.0678ZM21.7771 8.52306C21.7771 8.68627 21.645 8.81846 21.4818 8.81846H11.4384C11.2752 8.81846 11.143 8.68627 11.143 8.52306V7.93228C11.143 7.76907 11.2752 7.63688 11.4384 7.63688H21.4818C21.645 7.63688 21.7771 7.76907 21.7771 7.93228V8.52306Z" fill="#FFDFB0"/>
</g>
<defs>
<clipPath id="clip0_537_237">
<rect width="23.6315" height="18.9052" fill="white" transform="translate(0.508789 0.547363)"/>
</clipPath>
</defs>
</svg>
