<svg width="265" height="310" viewBox="0 0 289 329" fill="none" xmlns="http://www.w3.org/2000/svg">
<g filter="url(#filter0_d_531_1658)">
<rect x="11" y="122.993" width="267" height="194.007" rx="27" fill="#FFBF62" fill-opacity="0.58"/>
<path d="M107.211 289.488L102.688 276.372H102.592C102.613 276.666 102.638 277.067 102.667 277.575C102.696 278.084 102.721 278.628 102.742 279.208C102.764 279.788 102.774 280.343 102.774 280.873V289.488H100.433V273.783H104.053L108.403 286.319H108.468L112.969 273.783H116.578V289.488H114.118V280.744C114.118 280.264 114.125 279.745 114.14 279.187C114.161 278.628 114.183 278.098 114.204 277.597C114.233 277.095 114.254 276.694 114.269 276.394H114.183L109.488 289.488H107.211ZM118.662 277.597H121.412L123.851 284.386C123.958 284.694 124.055 284.998 124.141 285.299C124.234 285.592 124.312 285.882 124.377 286.169C124.449 286.455 124.506 286.742 124.549 287.028H124.613C124.685 286.656 124.785 286.241 124.914 285.782C125.05 285.317 125.201 284.851 125.365 284.386L127.707 277.597H130.425L125.322 291.121C125.029 291.895 124.667 292.553 124.237 293.098C123.815 293.649 123.313 294.064 122.733 294.344C122.153 294.63 121.491 294.773 120.746 294.773C120.388 294.773 120.076 294.752 119.812 294.709C119.547 294.673 119.321 294.634 119.135 294.591V292.571C119.285 292.607 119.475 292.639 119.704 292.668C119.933 292.697 120.17 292.711 120.413 292.711C120.864 292.711 121.255 292.621 121.584 292.442C121.913 292.263 122.193 292.009 122.422 291.68C122.651 291.357 122.841 290.989 122.991 290.573L123.41 289.456L118.662 277.597ZM147.269 285.213C147.269 286.144 147.039 286.946 146.581 287.619C146.13 288.292 145.478 288.808 144.626 289.166C143.781 289.524 142.771 289.703 141.597 289.703C141.024 289.703 140.476 289.671 139.953 289.606C139.43 289.542 138.936 289.449 138.471 289.327C138.012 289.198 137.593 289.044 137.214 288.865V286.438C137.851 286.717 138.564 286.971 139.352 287.2C140.139 287.422 140.941 287.533 141.758 287.533C142.424 287.533 142.975 287.447 143.412 287.275C143.856 287.096 144.186 286.846 144.4 286.523C144.615 286.194 144.723 285.811 144.723 285.374C144.723 284.909 144.597 284.515 144.347 284.192C144.096 283.87 143.716 283.576 143.208 283.312C142.707 283.039 142.076 282.749 141.317 282.441C140.802 282.234 140.308 281.997 139.835 281.732C139.369 281.467 138.954 281.156 138.589 280.798C138.224 280.44 137.934 280.017 137.719 279.53C137.511 279.036 137.407 278.456 137.407 277.79C137.407 276.902 137.618 276.143 138.041 275.513C138.471 274.882 139.072 274.399 139.846 274.062C140.626 273.726 141.536 273.558 142.574 273.558C143.398 273.558 144.171 273.644 144.895 273.815C145.625 273.987 146.341 274.231 147.043 274.546L146.227 276.619C145.582 276.354 144.955 276.143 144.347 275.985C143.745 275.828 143.129 275.749 142.499 275.749C141.955 275.749 141.493 275.831 141.113 275.996C140.734 276.161 140.444 276.394 140.243 276.694C140.05 276.988 139.953 277.339 139.953 277.747C139.953 278.205 140.064 278.592 140.286 278.907C140.515 279.215 140.866 279.498 141.339 279.756C141.819 280.014 142.435 280.3 143.187 280.615C144.053 280.973 144.787 281.349 145.389 281.743C145.997 282.137 146.463 282.61 146.785 283.161C147.107 283.705 147.269 284.389 147.269 285.213ZM162.684 289.488H160.116V282.398H152.876V289.488H150.298V273.783H152.876V280.207H160.116V273.783H162.684V289.488ZM180.784 281.614C180.784 282.825 180.63 283.927 180.322 284.923C180.021 285.911 179.567 286.763 178.958 287.479C178.349 288.188 177.587 288.736 176.67 289.123C175.753 289.51 174.679 289.703 173.447 289.703C172.194 289.703 171.105 289.51 170.182 289.123C169.265 288.736 168.502 288.185 167.894 287.469C167.292 286.753 166.841 285.897 166.54 284.901C166.239 283.906 166.089 282.803 166.089 281.593C166.089 279.974 166.354 278.563 166.884 277.36C167.421 276.15 168.234 275.212 169.322 274.546C170.418 273.873 171.8 273.536 173.469 273.536C175.102 273.536 176.459 273.869 177.54 274.535C178.621 275.201 179.431 276.139 179.968 277.35C180.512 278.553 180.784 279.974 180.784 281.614ZM168.796 281.614C168.796 282.825 168.961 283.874 169.29 284.762C169.619 285.643 170.124 286.323 170.805 286.803C171.492 287.275 172.373 287.512 173.447 287.512C174.529 287.512 175.41 287.275 176.09 286.803C176.77 286.323 177.271 285.643 177.594 284.762C177.916 283.874 178.077 282.825 178.077 281.614C178.077 279.774 177.708 278.334 176.971 277.296C176.24 276.25 175.073 275.728 173.469 275.728C172.395 275.728 171.51 275.964 170.815 276.437C170.128 276.909 169.619 277.586 169.29 278.467C168.961 279.34 168.796 280.39 168.796 281.614ZM188.723 273.783C190.749 273.783 192.228 274.199 193.159 275.029C194.09 275.86 194.556 277.024 194.556 278.521C194.556 279.201 194.448 279.849 194.233 280.465C194.026 281.074 193.682 281.614 193.202 282.087C192.722 282.552 192.089 282.921 191.301 283.193C190.52 283.465 189.557 283.602 188.411 283.602H186.735V289.488H184.157V273.783H188.723ZM188.551 275.921H186.735V281.453H188.143C188.952 281.453 189.639 281.36 190.205 281.174C190.771 280.98 191.201 280.676 191.494 280.261C191.788 279.845 191.935 279.298 191.935 278.617C191.935 277.708 191.659 277.031 191.107 276.587C190.563 276.143 189.711 275.921 188.551 275.921Z" fill="black"/>
<path d="M152.569 228.298H219.208C217.449 224.955 213.712 225.991 209.688 225.902C208.936 223.403 206.852 223.456 202.363 224.225C208.05 218.763 206.276 213.396 196.357 216.894C207.686 200.651 190.124 196.939 187.531 196.614C184.263 196.203 169.241 198.733 177.203 215.648C167.557 211.432 164.918 216.415 172.198 225.184C165.243 225.527 156.911 227.136 152.569 228.298ZM67.6641 228.298H135.06C130.689 227.228 121.63 225.962 117.555 225.872C116.793 223.34 114.682 223.394 110.135 224.173C115.896 218.641 114.099 213.205 104.053 216.748C115.527 200.296 97.7395 196.536 95.1128 196.207C91.8029 195.792 76.588 198.354 84.6524 215.486C74.883 211.215 72.2103 216.263 79.5833 225.144C72.5396 225.492 70.0404 226.362 67.6641 228.298Z" fill="#E5C493"/>
<path d="M232.77 134.051C232.637 135.407 232.419 136.746 232.114 138.061C232.06 138.332 231.997 138.603 231.927 138.874C230.796 143.303 228.736 147.477 225.896 151.339C225.733 151.561 225.569 151.783 225.397 152.004C205.963 177.386 152.575 188.725 109.369 169.761C108.971 169.588 108.573 169.407 108.175 169.227C104.555 167.583 101.013 165.726 97.5723 163.647C80.9622 153.598 70.141 139.877 64.5237 125.432C64.5237 125.432 64.5159 125.432 64.5159 125.423C64.2351 124.692 63.9698 123.961 63.7124 123.221C54.9587 98.2592 61.5356 71.5879 80.455 58.1865C80.6735 58.0222 80.8997 57.8661 81.1338 57.7182C85.8773 54.4808 91.3698 52.0652 97.5722 50.7012C98.9765 50.389 100.35 50.1589 101.707 49.9946C101.965 49.9536 102.222 49.9289 102.48 49.9043C122.561 47.7679 137.447 60.6024 149.61 74.1763C149.797 74.3817 149.977 74.5871 150.156 74.7844C154.291 79.4185 158.099 84.1267 161.703 88.3171C161.875 88.5226 162.054 88.728 162.226 88.9334C170.511 98.5141 177.665 105.252 184.929 102.105C211.564 90.5684 236.312 97.7744 232.77 134.051Z" fill="#FFDFB0"/>
<path d="M184.93 65.4336C175.882 52.5664 162.269 66.5292 170.423 79.1281C178.578 91.727 206.886 96.657 184.93 65.4336Z" fill="#FFDFB0"/>
<path d="M232.114 138.061C232.06 138.332 231.997 138.603 231.927 138.874C214.716 132.835 184.991 129.211 135.941 140.37C105.265 147.337 81.9998 143.139 66.8019 127.88C66.0139 127.083 65.2572 126.27 64.5238 125.432C64.5238 125.432 64.516 125.432 64.516 125.424C64.2351 124.692 63.9699 123.961 63.7125 123.222C64.8437 124.635 66.053 125.982 67.3403 127.281C82.3432 142.342 105.366 146.475 135.77 139.564C184.906 128.398 214.771 132.013 232.114 138.061Z" fill="white"/>
<path d="M225.896 151.339C225.732 151.561 225.569 151.783 225.397 152.005C208.849 143.55 184.211 139.022 151.522 154.264C135.473 161.749 121.43 166.647 109.369 169.761C108.971 169.588 108.573 169.407 108.175 169.227C120.416 166.137 134.748 161.199 151.21 153.516C184.258 138.094 209.185 142.744 225.896 151.339ZM162.226 88.9334C155.501 95.8929 146.037 101.645 132.743 103.814C130.176 104.225 127.679 104.438 125.253 104.438C116.359 104.438 108.44 101.628 101.637 96.0573C89.9888 86.5177 83.7161 70.5035 80.455 58.1866C80.6735 58.0222 80.8997 57.8661 81.1337 57.7183C84.3481 69.9447 90.5427 85.9343 102.113 95.4081C110.609 102.359 120.868 104.915 132.626 103C145.748 100.856 155.071 95.1781 161.703 88.3172C161.875 88.5225 162.054 88.7279 162.226 88.9334Z" fill="white"/>
<path d="M150.156 74.7842C145.007 82.3928 137.471 88.7443 126.61 89.0319H126.111C121.227 89.0319 116.944 87.1174 113.379 83.3213C106.271 75.7619 103.104 61.8183 101.707 49.9945C101.965 49.9535 102.222 49.9288 102.479 49.9042C103.853 61.5965 106.958 75.3347 113.933 82.7461C117.459 86.5011 121.734 88.3252 126.587 88.2102C137.205 87.9226 144.578 81.6697 149.61 74.1761C149.797 74.3816 149.977 74.587 150.156 74.7842Z" fill="white"/>
<path d="M93.1599 70.9075L83.8692 73.7633L93.1599 80.4308L102.451 73.7633L93.1599 70.9075Z" fill="url(#paint0_linear_531_1658)"/>
<path d="M93.1599 59.7367L83.8692 66.4057L93.1599 73.0717L102.451 66.4057L93.1599 59.7367Z" fill="#940000"/>
<path d="M93.1599 73.076V80.4352L83.8733 73.9806V66.4043L93.1599 73.076Z" fill="#940000"/>
<path d="M102.451 66.4043V73.9806L93.1599 80.4352V73.076L102.451 66.4043Z" fill="#424242"/>
<path opacity="0.25" d="M87.1567 69.388L96.744 62.2518L98.8637 63.7728L89.5434 70.4772V77.913L87.1567 76.2628V69.388Z" fill="#FFEBCD"/>
<path opacity="0.25" d="M99.4678 69.192L89.573 62.3441L87.4561 63.8665L97.0838 70.2812V77.7199L99.4678 76.0683V69.192Z" fill="#FFEBCD"/>
<path d="M107.893 48.1996C107.789 48.103 93.8988 64.9855 93.8988 64.9855C93.8988 64.9855 99.4355 46.751 99.306 46.7042C99.1793 46.6616 93.1599 65.7055 93.1599 65.7055C93.1599 65.7055 87.1418 46.6616 87.0138 46.7042C86.883 46.751 92.4169 64.9855 92.4169 64.9855C92.4169 64.9855 78.5294 48.103 78.427 48.1996C78.3231 48.2905 78.3109 48.4524 78.4027 48.5632L92.8497 66.3148C92.8955 66.3716 92.967 66.4057 93.0358 66.4057C93.0762 66.4057 93.1195 66.3929 93.1544 66.3716C93.1599 66.3702 93.1599 66.3702 93.1599 66.3702C93.1599 66.3702 93.1612 66.3702 93.1612 66.3716C93.2004 66.3929 93.2421 66.4057 93.284 66.4057C93.3542 66.4057 93.4216 66.3716 93.4701 66.3148L107.918 48.5633C108.009 48.4524 107.995 48.2905 107.893 48.1996Z" fill="#FF9800"/>
<path d="M108.149 48.6654C106.268 48.0973 104.158 47.6329 101.883 47.2936C100.147 47.0365 98.3162 46.8505 96.4136 46.7525C95.312 46.6915 94.182 46.6616 93.0358 46.6616C91.8897 46.6616 90.7623 46.6915 89.6579 46.7525C87.7554 46.8505 85.9241 47.0365 84.1887 47.2936C81.914 47.633 79.8036 48.0973 77.9226 48.6654C78.5833 40.484 85.0989 34.0651 93.0358 34.0651C100.973 34.0651 107.488 40.4841 108.149 48.6654Z" fill="#FF9800"/>
<path d="M93.0358 34.0651C91.3732 34.0651 89.9857 39.5056 89.6579 46.7525C87.7553 46.8505 85.9241 47.0365 84.1887 47.2936C84.9209 39.7811 88.6022 34.0651 93.0358 34.0651ZM101.883 47.2936C100.147 47.0365 98.3162 46.8505 96.4136 46.7525C96.0859 39.5056 94.6984 34.0651 93.0358 34.0651C97.4694 34.0651 101.151 39.7811 101.883 47.2936Z" fill="#F2A533"/>
<path d="M91.1873 70.5538L87.823 66.9807L85.9325 68.0004L79.4601 74.7574L79.9131 75.2431L83.2747 78.8134L83.7291 79.2961L90.2002 72.5363L91.1873 70.5538ZM88.4284 69.8921C88.2302 69.6805 88.2343 69.341 88.4324 69.1351C88.632 68.9235 88.9516 68.9235 89.1525 69.1351C89.3507 69.3467 89.3507 69.6876 89.1498 69.8948C88.9503 70.1022 88.628 70.0994 88.4284 69.8921Z" fill="#F2A533"/>
<path d="M83.7764 75.6492C83.8182 75.6067 83.8505 75.5669 83.8708 75.53C83.891 75.4931 83.9018 75.4647 83.9072 75.4307C83.9112 75.4022 83.9072 75.3738 83.8978 75.354C83.8897 75.3285 83.8736 75.3042 83.8546 75.2858C83.8101 75.2403 83.7562 75.2262 83.6875 75.2361C83.6186 75.2489 83.5216 75.2872 83.3895 75.3568C83.3315 75.3882 83.2721 75.4136 83.2074 75.4393C83.1467 75.462 83.0847 75.479 83.0213 75.4819C82.9592 75.4846 82.8959 75.4761 82.8339 75.4563C82.7705 75.4335 82.7058 75.3895 82.6478 75.3285C82.5871 75.266 82.5439 75.1935 82.5183 75.121C82.4914 75.0472 82.4832 74.9706 82.4914 74.8881C82.4981 74.81 82.5224 74.7333 82.5641 74.6481C82.6032 74.5701 82.6612 74.4862 82.7341 74.4138C82.8231 74.32 82.9066 74.2491 82.9916 74.2008C83.0738 74.1526 83.1453 74.1213 83.2113 74.1015L83.3596 74.4309C83.3044 74.4521 83.2464 74.4778 83.187 74.5075C83.1263 74.5416 83.0684 74.5872 83.005 74.6553C82.9349 74.7291 82.8917 74.793 82.8822 74.8441C82.8701 74.8952 82.8863 74.945 82.9227 74.9889C82.9484 75.0103 82.9752 75.0273 83.0009 75.033C83.0319 75.0358 83.0603 75.0358 83.0939 75.0273C83.1262 75.0231 83.1654 75.006 83.2018 74.9904C83.2395 74.9762 83.2786 74.9549 83.3231 74.9335C83.4162 74.8867 83.4984 74.8512 83.5712 74.8257C83.6508 74.7972 83.7196 74.7831 83.7856 74.7831C83.8503 74.7831 83.9151 74.7944 83.9744 74.8271C84.0323 74.8569 84.0971 74.9024 84.1564 74.9676C84.2791 75.0954 84.3303 75.2432 84.3115 75.4022C84.2939 75.5641 84.2009 75.7302 84.0269 75.9134C83.9676 75.976 83.9137 76.0242 83.8611 76.0668C83.8099 76.1052 83.76 76.1407 83.7128 76.1662C83.6669 76.1976 83.6238 76.2159 83.5873 76.2317C83.5509 76.2458 83.5186 76.2586 83.4929 76.2657L83.3432 75.9348C83.4012 75.9164 83.4686 75.8851 83.5415 75.8425C83.6186 75.7997 83.6955 75.7345 83.7764 75.6492ZM85.617 74.1866C85.5536 74.1539 85.4956 74.1212 85.4282 74.09C85.3635 74.0559 85.3014 74.0247 85.2368 73.992L84.7271 74.5289C84.7594 74.5957 84.7891 74.6638 84.8201 74.7291C84.8524 74.7972 84.8822 74.8654 84.9131 74.9251L84.6097 75.2446C84.518 75.0473 84.4358 74.8612 84.3589 74.6865C84.2861 74.519 84.2173 74.3542 84.1526 74.198C84.0893 74.0446 84.0326 73.894 83.976 73.7521C83.9234 73.6086 83.8735 73.4652 83.8263 73.3261L84.1081 73.0335C84.239 73.0818 84.3724 73.1386 84.51 73.1911C84.6475 73.2465 84.7891 73.309 84.9348 73.3772C85.0831 73.4425 85.2368 73.5149 85.4027 73.593C85.5645 73.6755 85.7384 73.762 85.9286 73.8558L85.617 74.1866ZM84.255 73.4977C84.2658 73.5232 84.2834 73.5588 84.3036 73.6085C84.3225 73.6583 84.3481 73.7121 84.3724 73.7718C84.4007 73.8315 84.4277 73.9054 84.46 73.9763C84.4924 74.053 84.5247 74.1297 84.5625 74.2093L84.9347 73.8202C84.8578 73.779 84.7837 73.7449 84.7149 73.7108C84.6434 73.6755 84.5788 73.647 84.5208 73.6172C84.4601 73.5916 84.4075 73.566 84.363 73.5477C84.3184 73.5247 84.2834 73.5062 84.255 73.4977ZM86.7173 72.4995L86.9695 72.765L86.0997 73.6781L84.7931 72.3063L85.0884 71.9995L86.1389 73.1058L86.7173 72.4995ZM87.1556 72.5647L85.8516 71.1957L86.7348 70.2683L86.9803 70.5282L86.3937 71.1447L86.6485 71.4144L87.1704 70.8648L87.4091 71.1204L86.8872 71.6672L87.2001 71.9968L87.8339 71.3349L88.0807 71.5934L87.1556 72.5647Z" fill="#FF9800"/>
<path d="M89.0459 69.0175C89.1038 68.9546 91.0933 66.5907 92.9533 66.0392C93.0773 66.0024 93.3434 66.3931 93.2839 66.4058C91.5987 66.7622 89.2376 69.0905 89.183 69.189C89.0631 69.4054 88.7914 69.2941 89.0459 69.0175Z" fill="#FFEBCD"/>
<path d="M113.777 231.553C110.304 231.553 107.478 228.578 107.478 224.92V87.8658C107.478 84.2078 110.304 81.2316 113.777 81.2316H179.223C182.696 81.2316 185.522 84.2078 185.522 87.8658V224.92C185.522 228.578 182.696 231.554 179.223 231.554L113.777 231.553Z" fill="#666464"/>
<path d="M113.777 226.708C112.841 226.708 112.079 225.906 112.079 224.92V87.8658C112.079 86.8792 112.841 86.0768 113.777 86.0768H179.223C180.159 86.0768 180.921 86.8792 180.921 87.8658V224.92C180.921 225.906 180.159 226.708 179.223 226.708L113.777 226.708Z" fill="#FFEBCD"/>
<path d="M169.941 95.1428L177.778 100.33L177.859 100.529V100.535L177.982 100.829C178.936 103.038 182.663 104.917 186.281 104.917C188.236 104.917 189.674 104.377 190.403 103.531V100.529L190.287 100.336L179.408 95.1428H169.941Z" fill="#424242"/>
<path d="M171.289 104.916H174.755C177.46 104.916 179.071 102.353 178.382 100.669L169.941 95.142H160.566L165.63 100.636C166.043 102.32 168.584 104.916 171.289 104.916Z" fill="#FFAF39"/>
<path d="M151.19 95.1439L152.792 100.772C152.975 103.005 156.105 104.919 159.762 104.919C163.428 104.919 166.081 102.768 165.533 100.535L160.566 95.1439H151.19Z" fill="#424242"/>
<path d="M144.768 104.916H148.234C150.939 104.916 153.235 103.122 153.097 101.437L151.19 95.1418H141.813L139.985 101.087C139.847 102.771 142.064 104.916 144.768 104.916Z" fill="#FFAF39"/>
<path d="M132.436 95.1439L126.947 101.12C126.399 103.353 129.584 104.919 133.241 104.919C136.907 104.919 139.85 103.169 140.033 100.936L141.813 95.1439H132.436Z" fill="#424242"/>
<path d="M118.248 104.916H121.714C124.418 104.916 126.533 102.888 126.947 101.204L132.437 95.1418H123.062L113.906 101.2C113.216 102.884 115.543 104.916 118.248 104.916Z" fill="#FFAF39"/>
<path d="M102.597 100.547V103.525C103.319 104.371 104.764 104.917 106.719 104.917C110.385 104.917 114.132 103.002 115.045 100.77L115.141 100.541V100.535L115.222 100.329H115.229L123.059 95.1427H113.231L102.719 100.335L102.597 100.547Z" fill="#424242"/>
<path d="M177.86 100.335V108.676C177.86 111.661 180.674 114.086 184.135 114.086C187.603 114.086 190.403 111.661 190.403 108.676V100.529L190.287 100.335H177.86ZM152.774 100.332V108.678C152.774 111.66 155.586 114.085 159.046 114.085C162.513 114.085 165.317 111.66 165.317 108.678V100.332H152.774V100.332ZM127.686 100.332V108.678C127.686 111.66 130.499 114.085 133.958 114.085C137.426 114.085 140.23 111.66 140.23 108.678V100.332H127.686V100.332Z" fill="#940000"/>
<path d="M165.317 100.329V107.536C165.317 111.151 168.125 114.082 171.589 114.082C175.053 114.082 177.861 111.151 177.861 107.536V100.329H165.317ZM140.23 107.536C140.23 111.151 143.038 114.082 146.502 114.082C149.966 114.082 152.774 111.151 152.774 107.536V100.329H140.23V107.536ZM115.143 107.536C115.143 111.151 117.951 114.082 121.415 114.082C124.878 114.082 127.686 111.151 127.686 107.536V100.329H115.143V107.536Z" fill="#FF9800"/>
<path d="M102.597 100.547V108.677C102.597 111.661 105.411 114.086 108.872 114.086C112.34 114.086 115.141 111.661 115.141 108.677V100.335H102.719L102.597 100.547Z" fill="#940000"/>
<path d="M122.713 87.1986H113.254V95.1428H122.713V87.1986Z" fill="#940000"/>
<path d="M132.172 87.1986H122.713V95.1428H132.172V87.1986Z" fill="#FF9800"/>
<path d="M141.631 87.1986H132.172V95.1428H141.631V87.1986Z" fill="#940000"/>
<path d="M151.09 87.1986H141.631V95.1428H151.09V87.1986Z" fill="#FF9800"/>
<path d="M160.549 87.1986H151.09V95.1428H160.549V87.1986Z" fill="#940000"/>
<path d="M170.008 87.1986H160.549V95.1428H170.008V87.1986Z" fill="#FF9800"/>
<path d="M179.468 87.1986H170.008V95.1428H179.468V87.1986Z" fill="#940000"/>
<path d="M162.184 150.13H161.326V158.163H162.184V150.13Z" fill="#363636"/>
<path d="M130.996 150.13H130.137V158.163H130.996V150.13Z" fill="#363636"/>
<path d="M171.416 142.072V151.05H121.303V142.072C121.303 141.378 121.843 140.808 122.503 140.808H170.22C170.884 140.808 171.416 141.378 171.416 142.072ZM121.303 171.369V156.349H171.418V171.369C171.418 172.062 170.88 172.632 170.218 172.632H122.501C121.839 172.632 121.303 172.062 121.303 171.369Z" fill="#FFAF39"/>
<g opacity="0.35">
<path d="M131.482 144.546C131.417 144.315 131.279 144.195 131.118 144.128C130.954 144.069 130.764 144.06 130.559 144.09C130.096 144.157 129.908 144.328 129.94 144.57C130.078 145.588 133.684 144.412 134.014 146.87C134.222 148.439 133.083 149.384 131.321 149.645C129.625 149.897 128.377 149.02 128.173 147.804L130.186 147.505C130.262 147.743 130.411 147.899 130.606 147.991C130.793 148.073 131.021 148.1 131.227 148.069C131.753 147.991 132.077 147.76 132.034 147.444C131.897 146.417 128.297 147.669 127.955 145.087C127.763 143.652 128.844 142.754 130.449 142.516C132.233 142.249 133.172 143.086 133.482 144.25L131.482 144.546ZM135.488 142.771H141.429V144.559H139.522V149.598H137.395V144.559H135.488V142.771ZM149.761 146.146C149.761 148.467 148.276 149.775 146.356 149.775C144.324 149.775 142.961 148.45 142.961 146.125C142.961 143.981 144.339 142.588 146.356 142.588C148.672 142.588 149.761 144.342 149.761 146.146ZM145.089 146.146C145.089 147.015 145.341 148.107 146.356 148.107C147.275 148.107 147.633 147.274 147.633 146.146C147.633 145.212 147.275 144.229 146.34 144.254C145.377 144.254 145.089 145.279 145.089 146.146ZM153.692 147.217V149.598H151.564V142.771H154.625C156.786 142.771 157.499 143.383 157.499 144.709C157.499 145.5 157.164 146.165 156.409 146.381C157.094 146.646 157.504 146.815 157.504 148.191C157.504 149.083 157.483 149.388 157.734 149.388V149.598H155.581C155.528 149.443 155.474 149.007 155.474 148.403C155.474 147.509 155.328 147.217 154.338 147.217H153.692V147.217ZM153.692 145.718H154.529C155.185 145.718 155.534 145.548 155.534 145.073C155.534 144.589 155.176 144.359 154.68 144.359H153.692V145.718H153.692ZM159.607 149.598V142.771H164.893V144.359H161.733V145.338H164.408V146.931H161.733V148.004H165.019V149.598H159.607Z" fill="#FF9800"/>
</g>
<path d="M130.926 144.16C130.856 143.93 130.724 143.806 130.559 143.743C130.396 143.68 130.206 143.673 130 143.703C129.535 143.772 129.35 143.943 129.383 144.189C129.521 145.199 133.125 144.023 133.454 146.484C133.664 148.056 132.524 148.997 130.76 149.262C129.068 149.51 127.819 148.635 127.613 147.417L129.629 147.12C129.703 147.358 129.853 147.519 130.045 147.604C130.233 147.69 130.461 147.715 130.669 147.682C131.192 147.604 131.516 147.379 131.475 147.057C131.339 146.034 127.742 147.288 127.398 144.702C127.206 143.265 128.286 142.365 129.891 142.127C131.672 141.862 132.613 142.701 132.922 143.863L130.926 144.16ZM134.927 142.385H140.871V144.178H138.962V149.214H136.836V144.178H134.927V142.385ZM149.203 145.759C149.203 148.082 147.715 149.394 145.797 149.394C143.767 149.394 142.404 148.065 142.404 145.738C142.404 143.595 143.783 142.202 145.797 142.202C148.111 142.202 149.203 143.955 149.203 145.759ZM144.528 145.759C144.528 146.634 144.782 147.722 145.797 147.722C146.718 147.722 147.076 146.89 147.076 145.759C147.076 144.828 146.718 143.842 145.781 143.873C144.816 143.873 144.528 144.898 144.528 145.759ZM153.131 146.832V149.214H151.005V142.384H154.068C156.229 142.384 156.94 143.002 156.94 144.328C156.94 145.115 156.607 145.777 155.852 145.994C156.536 146.259 156.949 146.434 156.949 147.808C156.949 148.698 156.922 149.001 157.175 149.001V149.214H155.02C154.969 149.058 154.913 148.624 154.913 148.016C154.913 147.128 154.772 146.832 153.78 146.832L153.131 146.832ZM153.131 145.331H153.969C154.625 145.331 154.978 145.161 154.978 144.688C154.978 144.203 154.618 143.978 154.122 143.978H153.131V145.331ZM159.05 149.214V142.384H164.335V143.977H161.174V144.953H163.848V146.546H161.174V147.617H164.46V149.214H159.05V149.214Z" fill="#FF9800"/>
<path d="M123.567 143.764C123.422 143.764 123.278 143.696 123.184 143.558C123.024 143.339 123.066 143.023 123.278 142.853C123.466 142.701 142.189 127.808 144.838 123.617C144.869 123.571 144.905 123.529 144.947 123.499C145.09 123.381 146.352 122.405 147.109 123.203C147.565 123.668 161.936 136.271 169.469 142.867C169.673 143.044 169.701 143.366 169.532 143.583C169.36 143.798 169.056 143.825 168.852 143.646C166.608 141.679 146.91 124.427 146.425 123.92C146.358 123.84 145.929 124.002 145.592 124.253C142.69 128.675 124.63 143.048 123.857 143.659C123.77 143.73 123.669 143.764 123.567 143.764Z" fill="#363636"/>
<path d="M124.689 143.383C124.689 144.035 124.186 144.563 123.567 144.563C122.948 144.563 122.445 144.035 122.445 143.383C122.445 142.731 122.948 142.202 123.567 142.202C124.186 142.202 124.689 142.731 124.689 143.383ZM170.363 143.383C170.363 144.035 169.861 144.563 169.242 144.563C168.624 144.563 168.121 144.035 168.121 143.383C168.121 142.731 168.624 142.202 169.242 142.202C169.861 142.202 170.363 142.731 170.363 143.383ZM148.062 125.561C148.062 126.548 147.3 127.352 146.361 127.352C145.419 127.352 144.659 126.548 144.659 125.561C144.659 124.572 145.419 123.768 146.361 123.768C147.3 123.768 148.062 124.572 148.062 125.561Z" fill="#666464"/>
<g opacity="0.5">
<path d="M136.286 164.664C136.286 167.506 134.469 169.112 132.121 169.112C129.631 169.112 127.966 167.485 127.966 164.641C127.966 162.017 129.653 160.309 132.121 160.309C134.954 160.309 136.286 162.459 136.286 164.664ZM130.566 164.664C130.566 165.731 130.876 167.069 132.121 167.069C133.246 167.069 133.688 166.044 133.688 164.664C133.688 163.526 133.246 162.32 132.101 162.35C130.919 162.35 130.566 163.605 130.566 164.664ZM138.458 168.891V160.532H142.281C144.565 160.532 145.668 161.636 145.668 163.349C145.668 165.154 144.653 166.292 142.37 166.292H141.061V168.891H138.458ZM142.14 164.338C142.746 164.338 143.189 164.081 143.189 163.361C143.189 162.585 142.348 162.482 141.798 162.482H141.062V164.338H142.14ZM147.737 168.891V160.532H154.211V162.482H150.339V163.675H153.612V165.627H150.339V166.938H154.363V168.891L147.737 168.891ZM161.999 165.093L161.899 163.189V160.532H164.393V168.891H161.957L159.126 164.338L159.223 166.244V168.891H156.73V160.532H159.167L161.999 165.093Z" fill="#FF9800"/>
</g>
<path d="M135.846 164.441C135.846 167.284 134.03 168.891 131.681 168.891C129.187 168.891 127.525 167.264 127.525 164.42C127.525 161.796 129.211 160.088 131.681 160.088C134.511 160.088 135.846 162.234 135.846 164.441ZM130.125 164.441C130.125 165.508 130.433 166.842 131.681 166.842C132.803 166.842 133.246 165.823 133.246 164.441C133.246 163.305 132.803 162.093 131.658 162.133C130.476 162.133 130.125 163.384 130.125 164.441ZM138.014 168.664V160.31H141.843C144.123 160.31 145.225 161.413 145.225 163.132C145.225 164.929 144.212 166.065 141.93 166.065H140.618V168.664L138.014 168.664ZM141.697 164.117C142.303 164.117 142.746 163.86 142.746 163.144C142.746 162.364 141.907 162.259 141.355 162.259H140.618V164.117H141.697ZM147.297 168.664V160.31H153.768V162.259H149.897V163.458H153.172V165.405H149.897V166.717H153.922V168.664L147.297 168.664ZM161.558 164.872L161.458 162.968V160.31H163.951V168.664H161.514L158.682 164.117L158.782 166.017V168.664H156.288V160.31H158.724L161.558 164.872Z" fill="#FF9800"/>
<path d="M110.782 134.271L110.474 139.477C110.474 139.477 109.875 141.028 108.816 140.473C107.757 139.918 106.822 138.444 106.822 138.444L107.791 133.629L110.782 134.271Z" fill="#D7B98E"/>
<path d="M112.235 131.133C112.235 131.133 113.035 132.354 112.932 132.664C112.83 132.973 112.3 132.938 112.3 132.938L112.235 131.133Z" fill="#C17C7C"/>
<path d="M106.367 130.346C106.367 130.346 106.373 130.673 106.405 131.166C106.22 131.173 108.029 136.146 109.205 136.193C110.224 136.233 111.528 136.201 112.056 135.161C112.65 133.989 112.394 131.683 112.183 129.514C112.183 129.514 110.037 126.457 106.367 130.346Z" fill="#D7B98E"/>
<path d="M111.277 133.795C111.27 133.763 112.523 133.453 112.522 133.606C112.522 133.759 112.346 134.281 112.259 134.29C112.171 134.299 111.425 134.425 111.277 133.795Z" fill="#FFDFB0"/>
<path d="M111.373 131.301C111.366 131.536 111.478 131.731 111.624 131.736C111.769 131.741 111.893 131.554 111.899 131.318C111.906 131.082 111.794 130.887 111.649 130.882C111.503 130.878 111.38 131.065 111.373 131.301ZM111.844 130.195C111.844 130.195 111.891 130.379 111.856 130.432C111.821 130.484 111.626 130.424 111.424 130.557C111.222 130.691 111.043 130.792 111.043 130.792C111.043 130.792 110.865 130.592 110.992 130.422C111.119 130.252 111.819 130.031 111.844 130.195Z" fill="#363636"/>
<path d="M111.668 131.2C111.672 131.28 111.736 131.341 111.812 131.337C111.887 131.333 111.946 131.265 111.942 131.185C111.938 131.105 111.873 131.044 111.797 131.048C111.722 131.053 111.664 131.121 111.668 131.2Z" fill="#FFDFB0"/>
<path d="M111.9 135.411C111.9 135.411 111.274 136.336 110.673 136.115L110.655 137.542L108.918 135.725C108.918 135.725 110.96 135.959 111.9 135.411Z" fill="#C17C7C"/>
<path d="M103.157 129.34C103.157 129.34 102.197 128.279 102.322 127.371C102.447 126.464 102.978 125.802 103.736 125.857C102.048 127.664 103.157 129.34 103.157 129.34Z" fill="#363636"/>
<path d="M112.93 126.262C113.513 124.403 112.248 123.463 110.982 124.334C110.894 124.395 110.822 124.469 110.743 124.538C110.712 124.408 110.666 124.28 110.592 124.162C110.241 123.596 109.521 123.438 108.985 123.807C108.945 123.835 108.912 123.868 108.876 123.9C108.278 123.731 107.619 123.812 107.06 124.197C106.637 124.488 106.345 124.906 106.184 125.369C105.589 125.345 104.982 125.506 104.446 125.876C103.071 126.823 102.866 130.137 105.417 130.882C103.445 132.785 106.608 135.582 107.922 134.955C107.93 134.955 107.936 134.957 107.944 134.957C111.371 134.957 110.038 130.419 110.038 130.419C110.033 130.403 110.022 130.389 110.016 130.374C110.566 130.605 111.726 129.99 112.343 129.62C112.902 129.65 113.475 129.509 113.979 129.161C115.245 128.29 113.758 127.595 112.93 126.262Z" fill="#363636"/>
<path d="M102.067 222.378L101.203 230.649L98.0225 229.449L97.6808 221.86L102.067 222.378Z" fill="#D7B98E"/>
<path d="M97.6418 227.134C97.1474 226.748 97.2315 232.913 97.6418 233.078C98.0519 233.243 108.51 233.53 109.477 233.078C110.444 232.625 110.502 230.575 108.891 230.227C107.28 229.879 103.901 229.26 102.876 227.905C102.876 227.905 102.167 226.097 101.904 225.927C101.641 225.757 101.553 227.134 101.553 227.134C101.553 227.134 98.8282 228.059 97.6418 227.134Z" fill="#FFAF39"/>
<path d="M107.848 230.01C107.871 230.077 107.748 230.17 107.625 230.347C107.502 230.526 107.394 230.818 107.321 231.173C107.18 231.887 107.169 232.523 107.046 232.534C106.936 232.551 106.742 231.902 106.902 231.076C106.984 230.667 107.177 230.297 107.412 230.12C107.65 229.944 107.836 229.961 107.848 230.01Z" fill="#363636"/>
<path d="M97.3019 232.07C97.2903 232.286 97.2872 233.244 97.6564 233.321C98.0256 233.397 109.839 233.491 109.916 233.321C109.994 233.15 110.019 232.516 110.058 232.394C110.097 232.273 97.3019 232.07 97.3019 232.07ZM103.691 229.749C103.409 229.412 104.035 228.63 104.218 228.684C104.402 228.738 103.969 230.08 103.691 229.749ZM104.709 230.096C104.427 229.759 105.053 228.977 105.236 229.031C105.42 229.085 104.987 230.427 104.709 230.096ZM105.77 230.373C105.487 230.037 106.114 229.255 106.297 229.309C106.48 229.363 106.048 230.705 105.77 230.373Z" fill="#363636"/>
<path d="M100.352 231.206C100.91 231.206 101.362 230.73 101.362 230.142C101.362 229.554 100.91 229.078 100.352 229.078C99.7934 229.078 99.3409 229.554 99.3409 230.142C99.3409 230.73 99.7934 231.206 100.352 231.206Z" fill="#FF9800"/>
<path d="M111.619 165.886C111.619 165.886 103.199 222.766 102.99 224.557C102.781 226.348 96.9226 224.616 96.9226 224.616L97.6808 183.002C97.6808 183.002 96.1548 170.769 96.8044 163.794C99.557 161.133 111.619 165.886 111.619 165.886Z" fill="#363636"/>
<path d="M141.29 123.08C141.872 123.008 141.94 123.633 141.94 123.633L142.149 125.543L146.183 123.173C146.183 123.173 146.595 123.479 146.424 123.805C146.345 123.955 144.481 125.329 144.481 125.329L147.176 123.749C147.176 123.749 147.573 124.142 147.339 124.373C147.227 124.484 144.993 126.346 144.993 126.346L147.473 124.825C147.473 124.825 147.656 125.421 147.57 125.506C147.125 125.949 145.406 127.357 145.406 127.357L147.175 126.173C147.175 126.173 147.507 126.592 147.141 126.85C146.704 127.159 144.754 128.898 143.991 129.239C142.993 129.686 140.406 131.815 140.406 131.815C140.406 131.815 138.472 128.634 138.293 128.382C138.657 128.137 139.946 127.24 139.946 127.24C140.559 126.008 140.552 124.863 141.29 123.08Z" fill="#D7B98E"/>
<path d="M144.096 125.535C144.121 125.579 144.403 125.453 144.726 125.254C145.05 125.054 145.292 124.857 145.267 124.813C145.243 124.768 144.961 124.894 144.638 125.094C144.314 125.294 144.072 125.491 144.096 125.535ZM144.568 126.597C144.595 126.64 144.856 126.511 145.151 126.31C145.446 126.108 145.664 125.91 145.638 125.867C145.611 125.824 145.351 125.953 145.055 126.154C144.76 126.356 144.542 126.554 144.568 126.597ZM144.931 127.628C144.956 127.672 145.179 127.578 145.429 127.418C145.679 127.257 145.861 127.092 145.836 127.049C145.811 127.005 145.588 127.099 145.338 127.259C145.088 127.42 144.906 127.585 144.931 127.628Z" fill="#C17C7C"/>
<path d="M144.749 127.217C144.717 127.261 144.821 127.383 144.888 127.547C144.959 127.71 144.969 127.866 145.016 127.877C145.063 127.895 145.143 127.696 145.049 127.472C144.953 127.249 144.771 127.178 144.749 127.217ZM144.4 126.251C144.368 126.295 144.473 126.416 144.539 126.581C144.61 126.744 144.62 126.899 144.667 126.911C144.714 126.929 144.794 126.73 144.7 126.506C144.604 126.283 144.422 126.211 144.4 126.251ZM143.962 125.244C143.93 125.288 144.035 125.41 144.101 125.574C144.172 125.737 144.182 125.893 144.229 125.904C144.276 125.922 144.357 125.723 144.262 125.499C144.166 125.276 143.984 125.205 143.962 125.244Z" fill="#C17C7C"/>
<path d="M113.931 223.121L115.258 230.021L118.088 230.662L118.442 222.366L113.931 223.121Z" fill="#D7B98E"/>
<path d="M114.471 227.134C113.977 226.748 114.061 232.913 114.471 233.078C114.881 233.243 125.339 233.53 126.306 233.078C127.273 232.625 127.331 230.575 125.72 230.227C124.109 229.879 120.731 229.26 119.705 227.905C119.705 227.905 118.996 226.097 118.733 225.927C118.47 225.757 118.382 227.134 118.382 227.134C118.382 227.134 115.657 228.059 114.471 227.134Z" fill="#FFAF39"/>
<path d="M124.677 230.01C124.7 230.077 124.577 230.17 124.454 230.347C124.331 230.526 124.224 230.817 124.15 231.173C124.009 231.887 123.998 232.523 123.875 232.534C123.765 232.551 123.572 231.902 123.731 231.076C123.813 230.667 124.006 230.297 124.241 230.12C124.479 229.944 124.665 229.961 124.677 230.01Z" fill="#363636"/>
<path d="M114.131 232.07C114.119 232.286 114.116 233.244 114.486 233.321C114.855 233.397 126.668 233.491 126.745 233.321C126.823 233.15 126.849 232.516 126.887 232.394C126.926 232.273 114.131 232.07 114.131 232.07ZM120.52 229.749C120.238 229.412 120.865 228.63 121.048 228.684C121.231 228.738 120.799 230.08 120.52 229.749ZM121.538 230.096C121.256 229.759 121.883 228.977 122.066 229.031C122.249 229.085 121.817 230.427 121.538 230.096ZM122.599 230.373C122.317 230.037 122.943 229.255 123.126 229.309C123.309 229.363 122.877 230.705 122.599 230.373Z" fill="#363636"/>
<path d="M117.181 231.206C117.739 231.206 118.191 230.73 118.191 230.142C118.191 229.554 117.739 229.078 117.181 229.078C116.622 229.078 116.17 229.554 116.17 230.142C116.17 230.73 116.622 231.206 117.181 231.206Z" fill="#FF9800"/>
<path d="M115.423 164.221C115.423 164.221 119.177 221.651 119.35 223.447C119.522 225.242 113.445 224.92 113.445 224.92L100.536 165.637L115.423 164.221Z" fill="#363636"/>
<path d="M106.723 165.917L106.521 172.039L103.951 173.666L101.779 172.187L101.651 165.874L106.723 165.917Z" fill="#666464"/>
<path d="M100.3 165.995L99.9408 171.364L98.3351 172.632L97.0887 171.194L97.2578 165.637L100.3 165.995Z" fill="#666464"/>
<path d="M100.536 173.336L104.212 181.851L107.838 199.171L103.731 182.714L100.536 173.336Z" fill="#666464"/>
<path d="M93.0358 150.752C93.0358 152.623 93.6439 153.704 95.1527 153.283C96.3284 152.964 97.2413 152.707 98.273 152.311C97.8377 155.528 95.4377 162.869 96.7098 166.126C99.7197 168.274 115.507 169.278 116.311 166.164C116.48 165.489 115.426 165.117 115.423 164.221C115.406 159.438 114.58 151.623 116.361 147.603L116.392 147.571C116.422 147.571 116.461 147.571 116.461 147.533C117.067 147.359 117.804 147.035 118.639 146.611C123.273 144.248 135.953 138.712 141.153 131.698C142.524 129.849 138.852 127.447 138.852 127.447C129.252 134.064 114.876 137.111 114.876 137.111C114.876 137.111 111.017 136.593 106.822 136.476C105.816 136.448 101.574 137.852 100.494 138.466C95.9936 141.023 93.0358 148.067 93.0358 150.752Z" fill="#FFAF39"/>
<path d="M98.273 152.311C98.273 152.311 99.4004 148.929 99.1271 148.929C98.8538 148.929 93.625 153.205 94.5483 153.37C95.4716 153.535 98.273 152.311 98.273 152.311ZM98.6943 155.734C98.6943 155.734 98.421 162.282 98.4552 163.901C98.4894 165.52 98.3853 166.42 98.0274 164.729C97.6694 163.038 98.6943 155.734 98.6943 155.734ZM112.941 165.516C112.659 165.859 113.056 153.715 112.941 151.628C112.827 149.541 111.334 149.142 111.636 147.722C111.938 146.303 122.939 142.057 124.396 141.194C125.854 140.33 125.581 137.404 125.809 138.123C126.036 138.843 126.173 140.664 126.765 140.593C127.357 140.522 137.087 136.543 141.33 130.137C141.33 130.137 142.056 131.139 141.66 131.736C138.255 136.876 126.196 144.096 116.361 147.603C116.361 147.603 114.011 149.232 113.965 150.13C113.92 151.028 113.969 164.269 112.941 165.516Z" fill="#FF9800"/>
<path d="M173.89 232.194L149.729 227.658L154.338 190.97L175.464 192.907L173.89 232.194Z" fill="#F6CD91"/>
<path d="M175.464 192.907L176.423 193.773L177.126 193.06L179.028 229.825L177.158 230.275L173.89 232.194L175.464 192.907Z" fill="#EC5454"/>
<path d="M159.746 196.774C159.746 197.305 159.454 197.736 159.094 197.736C158.733 197.736 158.441 197.305 158.441 196.774C158.441 196.242 158.733 195.812 159.094 195.812C159.454 195.812 159.746 196.242 159.746 196.774ZM167.932 197.19C167.932 197.705 167.649 198.123 167.3 198.123C166.95 198.123 166.667 197.705 166.667 197.19C166.667 196.675 166.95 196.257 167.3 196.257C167.649 196.257 167.932 196.675 167.932 197.19Z" fill="#EC5454"/>
<path d="M158.733 196.75C158.49 198.25 158.248 199.749 158.006 201.249C157.797 202.537 157.528 203.837 157.483 205.146C157.403 207.501 158.486 209.489 160.555 210.453C161.604 210.942 162.765 211.116 163.906 211.102C164.76 211.092 165.766 211.014 166.308 210.214C166.922 209.308 166.309 208.397 165.705 207.695C164.998 206.874 163.34 206.189 163.405 204.919C163.449 204.048 164.09 203.393 164.619 202.799C165.055 202.31 165.468 201.803 165.847 201.264C166.53 200.293 167.631 198.831 167.495 197.543C167.46 197.211 166.961 197.207 166.996 197.543C167.112 198.636 166.135 199.947 165.553 200.8C164.941 201.697 164.156 202.427 163.528 203.304C163.056 203.964 162.729 204.83 163.007 205.651C163.285 206.473 164.079 206.883 164.682 207.399C165.106 207.762 165.516 208.194 165.813 208.679C166.31 209.49 165.906 210.196 165.088 210.451C164.065 210.769 162.724 210.596 161.713 210.32C159.404 209.69 157.925 207.807 157.978 205.269C158.006 203.921 158.295 202.578 158.509 201.252C158.744 199.798 158.979 198.344 159.214 196.89C159.268 196.559 158.787 196.417 158.733 196.75Z" fill="#FFEBCD"/>
<path d="M183.661 233.163L202.317 229.66L198.758 201.332L182.446 202.828L183.661 233.163Z" fill="#940000"/>
<path d="M182.446 202.828L181.706 203.496L181.163 202.945L179.694 231.333L181.138 231.681L183.661 233.163L182.446 202.828Z" fill="#424242"/>
<path d="M194.582 205.813C194.582 206.224 194.808 206.556 195.086 206.556C195.364 206.556 195.59 206.224 195.59 205.813C195.59 205.403 195.364 205.07 195.086 205.07C194.808 205.07 194.582 205.403 194.582 205.813ZM188.261 206.135C188.261 206.533 188.48 206.855 188.75 206.855C189.02 206.855 189.239 206.533 189.239 206.135C189.239 205.737 189.02 205.414 188.75 205.414C188.48 205.414 188.261 205.737 188.261 206.135Z" fill="#424242"/>
<path d="M195.365 205.795C195.552 206.953 195.739 208.111 195.926 209.269C196.087 210.263 196.295 211.267 196.33 212.278C196.392 214.096 195.556 215.631 193.958 216.376C193.148 216.753 192.252 216.887 191.371 216.877C190.711 216.869 189.934 216.808 189.516 216.191C189.042 215.492 189.515 214.788 189.982 214.246C190.528 213.612 191.807 213.083 191.758 212.102C191.724 211.43 191.229 210.924 190.82 210.465C190.483 210.088 190.164 209.696 189.872 209.28C189.344 208.53 188.494 207.401 188.599 206.407C188.626 206.151 189.012 206.148 188.984 206.407C188.895 207.251 189.649 208.263 190.099 208.922C190.571 209.615 191.178 210.178 191.662 210.856C192.027 211.365 192.28 212.034 192.065 212.668C191.85 213.302 191.237 213.619 190.772 214.017C190.444 214.298 190.127 214.631 189.898 215.006C189.515 215.632 189.827 216.177 190.458 216.374C191.248 216.62 192.283 216.486 193.063 216.273C194.846 215.787 195.988 214.333 195.948 212.373C195.926 211.332 195.703 210.295 195.538 209.271C195.356 208.149 195.175 207.026 194.993 205.903C194.952 205.647 195.323 205.538 195.365 205.795Z" fill="#FFEBCD"/>
<path d="M134.059 214.485L151.323 210.623L168.586 213.29L151.627 219.45L134.059 214.485Z" fill="#FFAF39"/>
<path d="M152.096 237.963L168.898 233.642L168.586 213.29L151.567 217.104L152.096 237.963Z" fill="#FF9800"/>
<path opacity="0.5" d="M141.784 212.757L147.185 211.582L162.485 214.552L162.67 218.641L160.544 219.333L160.15 218.667L159.944 219.612L158.32 220.203L158.266 215.824L141.784 212.757Z" fill="#FFEBCD"/>
<path opacity="0.5" d="M160.165 235.895L160.155 232.72L161.198 232.507L161.427 232.895L161.547 232.352L164.274 231.537L164.593 234.753L160.165 235.895Z" fill="#FFEBCD"/>
<path d="M134.059 214.485L134.614 235.391L152.096 237.963L151.567 217.104L134.059 214.485Z" fill="#FFAF39"/>
<path d="M134.059 214.485L151.567 217.104C151.567 217.104 146.105 217.781 142.477 217.104C138.849 216.427 134.059 214.485 134.059 214.485Z" fill="#FF9800"/>
<path d="M158.266 219.387L171.926 216.33L185.585 218.441L172.166 223.315L158.266 219.387Z" fill="#FFAF39"/>
<path d="M172.537 237.963L185.832 234.544L185.585 218.441L172.119 221.459L172.537 237.963Z" fill="#FF9800"/>
<path opacity="0.5" d="M164.378 218.019L168.652 217.09L180.757 219.44L180.904 222.675L179.222 223.223L178.91 222.695L178.747 223.443L177.462 223.911L177.42 220.446L164.378 218.019Z" fill="#FFEBCD"/>
<path opacity="0.5" d="M178.922 236.327L178.914 233.815L179.739 233.646L179.921 233.953L180.016 233.523L182.173 232.879L182.426 235.423L178.922 236.327Z" fill="#FFEBCD"/>
<path d="M158.266 219.387L158.705 235.928L172.537 237.963L172.119 221.459L158.266 219.387Z" fill="#FFAF39"/>
<path d="M158.266 219.387L172.119 221.459C172.119 221.459 167.797 221.994 164.927 221.459C162.057 220.923 158.266 219.387 158.266 219.387Z" fill="#FF9800"/>
<path d="M200.198 124.023L193.265 126.11L193.167 129.484L196.946 143.418L197.885 143.139L204.815 141.052L205.753 140.769L201.971 126.837L200.198 124.023ZM197.357 127.383C196.951 127.506 196.528 127.254 196.41 126.828C196.295 126.397 196.528 125.947 196.938 125.824C197.343 125.702 197.773 125.949 197.892 126.381C198.004 126.812 197.768 127.26 197.357 127.383Z" fill="#FFAF39"/>
<path d="M197.927 131.348L197.771 130.776L198.712 130.495L198.872 131.064C199.736 130.999 200.335 131.533 200.617 132.582L200.684 132.822L199.592 133.152L199.504 132.833C199.355 132.279 199.088 132.132 198.724 132.244C198.357 132.353 198.205 132.626 198.352 133.178C198.784 134.765 201.061 134.164 201.658 136.377C201.939 137.422 201.692 138.227 200.924 138.648L201.078 139.212L200.134 139.497L199.979 138.932C199.103 139.004 198.505 138.457 198.221 137.408L198.08 136.878L199.166 136.554L199.329 137.158C199.481 137.71 199.765 137.842 200.13 137.729C200.498 137.62 200.676 137.352 200.526 136.799C200.095 135.208 197.818 135.811 197.223 133.604C196.939 132.566 197.169 131.78 197.927 131.348Z" fill="#FF9800"/>
<path d="M76.062 106.044L73.3256 120.883C73.3256 120.883 82.1887 125.606 82.5117 125.264C82.8346 124.922 88.4294 110.89 88.4294 110.89L76.062 106.044Z" fill="#F2A533"/>
<path d="M80.5984 112.591C81.2146 112.873 81.4533 113.454 81.0134 114.146C80.5801 114.841 79.8911 114.997 79.2749 114.715C78.6522 114.43 78.4136 113.849 78.8469 113.154C79.2867 112.462 79.9821 112.309 80.5984 112.591ZM82.6394 113.607L83.7097 114.097L78.417 117.392L77.3467 116.902L82.6394 113.607ZM79.6189 113.508C79.4372 113.798 79.4689 113.983 79.6635 114.072C79.8582 114.161 80.0666 114.086 80.2481 113.796C80.4297 113.505 80.3915 113.317 80.197 113.228C80.0023 113.139 79.8004 113.217 79.6189 113.508ZM81.7945 116.29C82.4107 116.572 82.6429 117.15 82.203 117.842C81.7697 118.537 81.0808 118.692 80.4645 118.41C79.8484 118.128 79.6096 117.548 80.0494 116.856C80.4828 116.161 81.1782 116.008 81.7945 116.29ZM80.8084 117.203C80.6268 117.494 80.6585 117.679 80.8596 117.771C81.0477 117.857 81.2561 117.782 81.4377 117.491C81.6192 117.201 81.5811 117.013 81.393 116.927C81.1984 116.838 80.99 116.913 80.8084 117.203Z" fill="#FF9800"/>
<path d="M179.488 61.5119L185.716 77.3887C185.716 77.3887 196.929 76.0216 197.032 75.4846C197.136 74.9475 194.098 57.9508 194.098 57.9508L179.488 61.5119Z" fill="#F2A533"/>
<path d="M187.683 64.7288C188.435 64.5899 189.006 64.9827 189.001 65.9292C189.003 66.8741 188.443 67.4762 187.69 67.6152C186.93 67.7556 186.359 67.3627 186.357 66.4178C186.362 65.4714 186.931 64.8678 187.683 64.7288ZM190.222 64.3457L191.528 64.1042L188.469 70.72L187.162 70.9613L190.222 64.3457ZM187.299 66.2436C187.299 66.6389 187.439 66.7935 187.677 66.7496C187.914 66.7058 188.067 66.497 188.067 66.1018C188.066 65.7066 187.918 65.5535 187.681 65.5974C187.443 65.6412 187.298 65.8484 187.299 66.2436ZM191.016 67.4475C191.768 67.3086 192.332 67.7029 192.326 68.6493C192.329 69.5942 191.768 70.1964 191.016 70.3353C190.264 70.4743 189.692 70.0814 189.698 69.135C189.696 68.1899 190.264 67.5865 191.016 67.4475ZM190.624 68.9638C190.625 69.3591 190.765 69.5136 191.01 69.4683C191.24 69.4259 191.393 69.2172 191.392 68.8219C191.392 68.4267 191.244 68.2736 191.014 68.316C190.777 68.3599 190.624 68.5686 190.624 68.9638Z" fill="#FF9800"/>
</g>
<defs>
<filter id="filter0_d_531_1658" x="0.9" y="0.9" width="287.2" height="330.2" filterUnits="userSpaceOnUse" color-interpolation-filters="sRGB">
<feFlood flood-opacity="0" result="BackgroundImageFix"/>
<feColorMatrix in="SourceAlpha" type="matrix" values="0 0 0 0 0 0 0 0 0 0 0 0 0 0 0 0 0 0 127 0" result="hardAlpha"/>
<feOffset dy="4"/>
<feGaussianBlur stdDeviation="5.05"/>
<feComposite in2="hardAlpha" operator="out"/>
<feColorMatrix type="matrix" values="0 0 0 0 0 0 0 0 0 0 0 0 0 0 0 0 0 0 0.25 0"/>
<feBlend mode="normal" in2="BackgroundImageFix" result="effect1_dropShadow_531_1658"/>
<feBlend mode="normal" in="SourceGraphic" in2="effect1_dropShadow_531_1658" result="shape"/>
</filter>
<linearGradient id="paint0_linear_531_1658" x1="93.1598" y1="79.0703" x2="93.1598" y2="68.0584" gradientUnits="userSpaceOnUse">
<stop offset="0.037" stop-color="#D4A45E"/>
<stop offset="1" stop-color="#FF9100"/>
</linearGradient>
</defs>
</svg>
