<svg width="25" height="25" viewBox="0 0 25 25" fill="none" xmlns="http://www.w3.org/2000/svg">
<g clip-path="url(#clip0_830_28)">
<path d="M24.8559 9.30448L21.6363 6.68466V3.34906C21.6363 3.24546 21.5951 3.1461 21.5219 3.07285C21.4486 2.99959 21.3493 2.95843 21.2457 2.95843H17.057L14.1354 0.58114C13.1881 -0.189807 11.813 -0.189807 10.8657 0.58114L7.94419 2.95843H3.7543C3.6507 2.95843 3.55134 2.99959 3.47808 3.07285C3.40483 3.1461 3.36367 3.24546 3.36367 3.34906V6.68539L0.144092 9.30443C0.0990697 9.34106 0.0627767 9.38727 0.0378517 9.43968C0.0129266 9.4921 -3.99561e-06 9.54942 9.26141e-10 9.60746L9.26141e-10 23.0514C9.26141e-10 24.1258 0.899951 24.9999 2.0061 24.9999H22.9939C24.1 24.9999 25 24.1258 25 23.0514V9.60746C25 9.54942 24.9871 9.49211 24.9622 9.4397C24.9372 9.38729 24.9009 9.3411 24.8559 9.30448ZM23.9665 9.58793L21.6362 11.2596V7.69178L23.9665 9.58793ZM11.3588 1.1871C12.0203 0.648718 12.9806 0.648669 13.6423 1.1871L15.8192 2.95839H9.18188L11.3588 1.1871ZM20.855 3.73969V11.82L14.6925 16.2407H10.3074L4.14492 11.8199V3.73969H20.855ZM3.36367 11.2595L1.03359 9.58798L3.36367 7.69252V11.2595ZM0.78125 10.3684L9.53896 16.6509L0.949219 23.6403C0.842627 23.4673 0.78125 23.2661 0.78125 23.0514V10.3684ZM2.0061 24.2186C1.85264 24.2186 1.70586 24.1913 1.57036 24.142L10.3207 17.0219H14.6793L23.4296 24.142C23.29 24.1928 23.1425 24.2188 22.9939 24.2186H2.0061ZM24.0508 23.6403L15.461 16.6508L24.2188 10.3684V23.0514C24.2188 23.2661 24.1573 23.4673 24.0508 23.6403ZM12.8826 14.0681C15.4539 14.0681 17.5457 11.9763 17.5457 9.40502C17.5457 6.83378 15.4539 4.74188 12.8826 4.74188C10.3114 4.74188 8.21953 6.83378 8.21953 9.40502C8.21953 11.9763 10.3114 14.0681 12.8826 14.0681ZM10.3486 12.342C10.603 11.1638 11.6582 10.2983 12.8826 10.2983C14.1071 10.2983 15.1623 11.1638 15.4166 12.342C14.736 12.93 13.8505 13.2869 12.8826 13.2869C11.9147 13.2869 11.0292 12.93 10.3486 12.342ZM12.8827 9.29696C12.2663 9.29696 11.7647 8.79545 11.7647 8.17904C11.7647 7.56263 12.2663 7.06117 12.8827 7.06117C13.4991 7.06117 14.0005 7.56263 14.0005 8.17904C14.0005 8.79545 13.4991 9.29696 12.8827 9.29696ZM12.8826 5.52313C15.0231 5.52313 16.7645 7.26454 16.7645 9.40502C16.7645 10.2516 16.4913 11.0351 16.0295 11.6738C15.6726 10.7549 14.9249 10.0376 14.0038 9.71068C14.475 9.36478 14.7818 8.80717 14.7818 8.17904C14.7818 7.13187 13.9299 6.27992 12.8827 6.27992C11.8354 6.27992 10.9835 7.13182 10.9835 8.17904C10.9835 8.80717 11.2902 9.36473 11.7615 9.71068C10.8404 10.0376 10.0926 10.7549 9.73574 11.6738C9.27397 11.0351 9.00078 10.2516 9.00078 9.40502C9.00078 7.26454 10.7421 5.52313 12.8826 5.52313Z" fill="#FF9800"/>
</g>
<defs>
<clipPath id="clip0_830_28">
<rect width="25" height="25" fill="white"/>
</clipPath>
</defs>
</svg>
