<svg width="25" height="25" viewBox="0 0 25 25" fill="none" xmlns="http://www.w3.org/2000/svg">
<g clip-path="url(#clip0_641_192)">
<path d="M13.1155 22.4292C12.7712 22.2485 12.427 22.0654 12.0827 21.8847C11.2551 21.4477 10.4299 21.0107 9.60227 20.5737C8.59885 20.0439 7.59299 19.5141 6.58957 18.9819C5.72531 18.5253 4.85862 18.0688 3.99436 17.6123C3.57444 17.3901 3.15696 17.1606 2.73215 16.9458C2.72727 16.9433 2.71994 16.9384 2.71506 16.936C2.9177 17.2876 3.11789 17.6391 3.32053 17.9907C3.32053 17.6245 3.32053 17.2607 3.32053 16.8945C3.32053 16.0229 3.32053 15.1489 3.32053 14.2773C3.32053 13.2226 3.32053 12.1679 3.32053 11.1108C3.32053 10.1953 3.32053 9.27975 3.32053 8.36178C3.32053 7.91744 3.32785 7.4731 3.32053 7.02877C3.32053 7.02389 3.32053 7.01656 3.32053 7.01168C2.70774 7.36324 2.09494 7.7148 1.48459 8.06637C1.82883 8.24947 2.17307 8.43014 2.51731 8.61324C3.34494 9.05025 4.17014 9.48726 4.99778 9.92428C6.00119 10.4541 7.00705 10.9863 8.01047 11.5161C8.87473 11.9726 9.74143 12.4316 10.6057 12.8881C11.0256 13.1103 11.4431 13.3398 11.8679 13.5546C11.8728 13.5571 11.8801 13.562 11.885 13.5644C11.6823 13.2128 11.4822 12.8613 11.2795 12.5097C11.2795 12.8735 11.2795 13.2397 11.2795 13.6035C11.2795 14.4751 11.2795 15.3466 11.2795 16.2182C11.2795 17.2729 11.2795 18.3276 11.2795 19.3823C11.2795 20.2978 11.2795 21.2133 11.2795 22.1289C11.2795 22.5732 11.2746 23.0175 11.2795 23.4619C11.2795 23.4668 11.2795 23.4741 11.2795 23.479C11.2795 23.7915 11.4162 24.1211 11.636 24.3432C11.8484 24.5556 12.195 24.7143 12.5002 24.6997C12.8152 24.685 13.1423 24.5825 13.3645 24.3432C13.5842 24.104 13.7209 23.811 13.7209 23.479C13.7209 23.1152 13.7209 22.749 13.7209 22.3852C13.7209 21.5136 13.7209 20.642 13.7209 19.7705C13.7209 18.7158 13.7209 17.6611 13.7209 16.6064C13.7209 15.6909 13.7209 14.7754 13.7209 13.8598C13.7209 13.4155 13.7258 12.9712 13.7209 12.5268C13.7209 12.5219 13.7209 12.5146 13.7209 12.5097C13.7209 12.0947 13.4914 11.6552 13.1155 11.455C12.7712 11.2719 12.427 11.0913 12.0827 10.9082C11.2551 10.4712 10.4299 10.0341 9.60227 9.59713C8.59885 9.06734 7.59299 8.53512 6.58957 8.00533C5.72531 7.54879 4.85862 7.0898 3.99436 6.63326C3.57444 6.41109 3.15451 6.18404 2.73215 5.96676C2.72727 5.96432 2.71994 5.95943 2.71506 5.95699C2.32444 5.74947 1.87278 5.72994 1.48215 5.95699C1.11106 6.17428 0.876682 6.57955 0.876682 7.01168C0.876682 7.37789 0.876682 7.74166 0.876682 8.10787C0.876682 8.97945 0.876682 9.85348 0.876682 10.7251C0.876682 11.7797 0.876682 12.8344 0.876682 13.8916C0.876682 14.8071 0.876682 15.7226 0.876682 16.6406C0.876682 17.0849 0.871799 17.5293 0.876682 17.9736C0.876682 17.9785 0.876682 17.9858 0.876682 17.9907C0.876682 18.4057 1.10617 18.8476 1.48215 19.0454C1.82639 19.226 2.17063 19.4091 2.51487 19.5898C3.3425 20.0268 4.1677 20.4638 4.99533 20.9008C5.99875 21.4306 7.00461 21.9604 8.00803 22.4926C8.87229 22.9492 9.73899 23.4057 10.6032 23.8623C11.0232 24.0844 11.4431 24.3115 11.8655 24.5288C11.8703 24.5312 11.8777 24.5361 11.8825 24.5385C12.1706 24.6899 12.5051 24.7485 12.8225 24.6606C13.1057 24.5825 13.4133 24.3628 13.5525 24.0991C13.7014 23.8159 13.7771 23.4716 13.6745 23.1591C13.5818 22.8637 13.3987 22.5781 13.1155 22.4292Z" fill="#FF9800"/>
<path d="M22.2878 16.936C21.9436 17.1167 21.5993 17.2998 21.2551 17.4804C20.4275 17.9174 19.6023 18.3545 18.7746 18.7915C17.7712 19.3212 16.7654 19.851 15.7619 20.3833C14.8977 20.8398 14.031 21.2963 13.1667 21.7529C12.7468 21.9751 12.322 22.1899 11.9045 22.4194C11.8996 22.4218 11.8923 22.4267 11.8874 22.4292C12.5002 22.7807 13.113 23.1323 13.7234 23.4838C13.7234 23.1201 13.7234 22.7539 13.7234 22.3901C13.7234 21.5185 13.7234 20.6469 13.7234 19.7754C13.7234 18.7207 13.7234 17.666 13.7234 16.6113C13.7234 15.6958 13.7234 14.7802 13.7234 13.8647C13.7234 13.4204 13.7307 12.976 13.7234 12.5317C13.7234 12.5268 13.7234 12.5195 13.7234 12.5146C13.5207 12.8662 13.3205 13.2177 13.1179 13.5693C13.4621 13.3862 13.8064 13.2055 14.1506 13.0224C14.9782 12.5854 15.8034 12.1484 16.6311 11.7114C17.6345 11.1816 18.6404 10.6494 19.6438 10.1196C20.508 9.66305 21.3747 9.20406 22.239 8.74752C22.6589 8.52535 23.0837 8.30807 23.5012 8.08101C23.5061 8.07857 23.5134 8.07369 23.5183 8.07125C22.9055 7.71969 22.2927 7.36812 21.6823 7.01656C21.6823 7.38277 21.6823 7.74654 21.6823 8.11275C21.6823 8.98433 21.6823 9.85836 21.6823 10.7299C21.6823 11.7846 21.6823 12.8393 21.6823 13.8964C21.6823 14.812 21.6823 15.7275 21.6823 16.6455C21.6823 17.0898 21.6775 17.5341 21.6823 17.9785C21.6823 17.9834 21.6823 17.9907 21.6823 17.9956C21.6823 18.3081 21.8191 18.6377 22.0388 18.8598C22.2512 19.0722 22.5979 19.2309 22.903 19.2163C23.218 19.2016 23.5451 19.0991 23.7673 18.8598C23.987 18.6206 24.1238 18.3276 24.1238 17.9956C24.1238 17.6294 24.1238 17.2656 24.1238 16.8994C24.1238 16.0278 24.1238 15.1538 24.1238 14.2822C24.1238 13.2275 24.1238 12.1728 24.1238 11.1157C24.1238 10.2002 24.1238 9.28463 24.1238 8.36666C24.1238 7.92232 24.1286 7.47799 24.1238 7.03365C24.1238 7.02877 24.1238 7.02144 24.1238 7.01656C24.1238 6.58687 23.8894 6.17916 23.5183 5.96187C23.1301 5.73482 22.676 5.75435 22.2854 5.96187C21.9411 6.14498 21.5969 6.32564 21.2527 6.50875C20.425 6.94576 19.5998 7.38277 18.7722 7.81978C17.7688 8.34957 16.7629 8.8818 15.7595 9.41158C14.8952 9.86812 14.0285 10.3271 13.1643 10.7837C12.7444 11.0058 12.3171 11.2207 11.9021 11.4502C11.8972 11.4526 11.8899 11.4575 11.885 11.4599C11.509 11.6577 11.2795 12.0971 11.2795 12.5146C11.2795 12.8784 11.2795 13.2446 11.2795 13.6084C11.2795 14.4799 11.2795 15.3515 11.2795 16.2231C11.2795 17.2778 11.2795 18.3325 11.2795 19.3872C11.2795 20.3027 11.2795 21.2182 11.2795 22.1337C11.2795 22.5781 11.2746 23.0224 11.2795 23.4668C11.2795 23.4716 11.2795 23.479 11.2795 23.4838C11.2795 23.9135 11.5139 24.3212 11.885 24.5385C12.2732 24.7656 12.7273 24.7436 13.1179 24.5385C13.4621 24.3579 13.8064 24.1748 14.1506 23.9941C14.9782 23.5571 15.8034 23.1201 16.6311 22.6831C17.6345 22.1533 18.6404 21.6235 19.6438 21.0913C20.508 20.6347 21.3747 20.1782 22.239 19.7216C22.6589 19.4995 23.0862 19.2846 23.5012 19.0551C23.5061 19.0527 23.5134 19.0478 23.5183 19.0454C23.782 18.9062 24.0017 18.5986 24.0798 18.3154C24.1604 18.0224 24.1238 17.6342 23.9577 17.3754C23.5866 16.7993 22.8933 16.6162 22.2878 16.936Z" fill="#FF9800"/>
<path d="M22.2878 5.95943C21.9436 6.14254 21.5994 6.3232 21.2551 6.50631C20.4275 6.94332 19.6023 7.38033 18.7747 7.81734C17.7712 8.34713 16.7654 8.87936 15.762 9.40914C14.8977 9.86568 14.031 10.3247 13.1667 10.7812C12.7468 11.0034 12.322 11.2207 11.9045 11.4477C11.8997 11.4502 11.8923 11.455 11.8875 11.4575C12.2976 11.4575 12.7078 11.4575 13.1204 11.4575C12.7761 11.2744 12.4319 11.0937 12.0876 10.9106C11.26 10.4736 10.4348 10.0366 9.60718 9.59957C8.60376 9.06979 7.5979 8.53756 6.59448 8.00777C5.73023 7.55123 4.86353 7.09225 3.99927 6.6357C3.57935 6.41354 3.16187 6.18404 2.73706 5.9692C2.73218 5.96676 2.72485 5.96188 2.71997 5.95943C2.71997 6.66256 2.71997 7.36568 2.71997 8.06637C3.06421 7.8857 3.40845 7.7026 3.75269 7.52193C4.58032 7.08492 5.40552 6.64791 6.23315 6.2109C7.23657 5.68111 8.24243 5.14889 9.24585 4.6191C10.1101 4.16256 10.9768 3.70602 11.8411 3.24703C12.261 3.02486 12.6858 2.80758 13.1033 2.58053C13.1082 2.57809 13.1155 2.5732 13.1204 2.57076C12.7102 2.57076 12.3 2.57076 11.8875 2.57076C12.2317 2.75143 12.5759 2.93453 12.9202 3.1152C13.7478 3.55221 14.573 3.98922 15.4006 4.42623C16.4041 4.95602 17.4099 5.48824 18.4133 6.01803C19.2776 6.47457 20.1443 6.93111 21.0085 7.3901C21.4285 7.61227 21.8484 7.83932 22.2708 8.0566C22.2756 8.05904 22.283 8.06393 22.2878 8.06637C22.5759 8.21773 22.9104 8.27633 23.2278 8.18844C23.511 8.11031 23.8186 7.89059 23.9578 7.62691C24.1067 7.34371 24.1824 6.99947 24.0798 6.68697C23.9846 6.39156 23.8015 6.10592 23.5183 5.95699C23.1692 5.77389 22.8201 5.58834 22.4709 5.40523C21.6409 4.96822 20.8132 4.52877 19.9832 4.09176C18.9749 3.55953 17.9666 3.02731 16.9583 2.49508C16.0964 2.03854 15.2346 1.58443 14.3728 1.12789C13.9578 0.908165 13.5452 0.681114 13.1277 0.471153C12.8738 0.341758 12.6223 0.280723 12.3367 0.319786C12.1682 0.341759 12.0217 0.393028 11.8679 0.473594C11.8215 0.498008 11.7776 0.522423 11.7312 0.544395C11.5164 0.6567 11.3015 0.771446 11.0867 0.883751C10.303 1.29879 9.51685 1.71383 8.73315 2.12643C7.73462 2.65377 6.73364 3.18356 5.73511 3.7109C4.83179 4.18697 3.93091 4.66549 3.02759 5.14156C2.53442 5.40279 2.04126 5.66402 1.5481 5.92281C1.52612 5.93502 1.50171 5.94723 1.47974 5.95943C0.683838 6.37936 0.683838 7.64645 1.47974 8.06637C1.82886 8.25191 2.17798 8.43502 2.5271 8.62057C3.35718 9.06002 4.18481 9.49703 5.01489 9.93649C6.02319 10.4687 7.03149 11.0034 8.03979 11.5356C8.90161 11.9921 9.76343 12.4462 10.6252 12.9028C11.0403 13.1225 11.4529 13.3496 11.8704 13.562C12.1243 13.6914 12.3757 13.7524 12.6614 13.7133C12.8298 13.6914 12.9763 13.6401 13.1301 13.5595C13.1765 13.5351 13.2205 13.5107 13.2668 13.4887C13.4817 13.3764 13.6965 13.2617 13.9114 13.1494C14.6951 12.7343 15.4812 12.3193 16.2649 11.9043C17.2634 11.3769 18.2644 10.8471 19.2629 10.3198C20.1663 9.84371 21.0671 9.3652 21.9705 8.88912C22.4636 8.62789 22.9568 8.36666 23.45 8.10543C23.4719 8.09322 23.4963 8.08102 23.5183 8.06881C23.782 7.92965 24.0017 7.62203 24.0798 7.33883C24.1604 7.04586 24.1238 6.65768 23.9578 6.39889C23.5867 5.82272 22.8933 5.63961 22.2878 5.95943Z" fill="#FF9800"/>
<path d="M7.91508 10.8203C8.25932 10.6372 8.60356 10.4566 8.9478 10.2735C9.77543 9.83646 10.6006 9.39944 11.4283 8.96243C12.4317 8.43265 13.4375 7.90042 14.441 7.37064C15.3052 6.91409 16.1719 6.45511 17.0362 5.99857C17.4561 5.7764 17.8833 5.56155 18.2984 5.33206C18.3033 5.32962 18.3106 5.32474 18.3155 5.3223C18.5791 5.18314 18.7989 4.87552 18.877 4.59232C18.9576 4.29935 18.9209 3.91116 18.7549 3.65237C18.3838 3.0762 17.6905 2.89554 17.085 3.21536C16.7408 3.39847 16.3965 3.57913 16.0523 3.76224C15.2247 4.19925 14.3995 4.63626 13.5718 5.07327C12.5684 5.60306 11.5625 6.13528 10.5591 6.66507C9.69487 7.12161 8.82817 7.5806 7.96391 8.03714C7.54399 8.25931 7.11674 8.47415 6.7017 8.70364C6.69682 8.70609 6.6895 8.71097 6.68461 8.71341C6.42094 8.85257 6.20122 9.16019 6.12309 9.44339C6.04252 9.73636 6.07915 10.1245 6.24516 10.3833C6.61381 10.9571 7.30961 11.1402 7.91508 10.8203Z" fill="#FF9800"/>
</g>
<defs>
<clipPath id="clip0_641_192">
<rect width="25" height="25" fill="white"/>
</clipPath>
</defs>
</svg>
