<svg width="370" height="280" viewBox="0 0 370 280" fill="none" xmlns="http://www.w3.org/2000/svg">
<path d="M339.647 134.552V124.604C339.647 123.665 339.454 122.734 339.08 121.867C338.706 120.999 338.158 120.21 337.466 119.546C336.775 118.882 335.954 118.355 335.051 117.995C334.147 117.636 333.179 117.451 332.202 117.451H311.615C309.64 117.451 307.747 116.697 306.35 115.356C304.954 114.015 304.17 112.195 304.17 110.298V100.35C304.17 96.3995 313.195 93.1971 317.307 93.1971H318.137C320.111 93.1971 322.005 92.4435 323.401 91.102C324.798 89.7606 325.582 87.9413 325.582 86.0442V76.0959C325.582 75.1566 325.39 74.2265 325.015 73.3587C324.641 72.4909 324.093 71.7023 323.401 71.0381C322.71 70.3739 321.889 69.8471 320.986 69.4876C320.083 69.1281 319.115 68.9431 318.137 68.9431H66.5897C65.612 68.9431 64.6438 69.1281 63.7405 69.4876C62.8373 69.8471 62.0165 70.3739 61.3251 71.0381C60.6338 71.7023 60.0854 72.4909 59.7112 73.3587C59.3371 74.2265 59.1445 75.1566 59.1445 76.0959V86.0442C59.1445 86.9836 59.3371 87.9137 59.7112 88.7815C60.0854 89.6493 60.6338 90.4378 61.3251 91.102C62.0165 91.7662 62.8373 92.2931 63.7405 92.6526C64.6438 93.0121 65.612 93.1971 66.5897 93.1971C68.5643 93.1971 70.458 93.9507 71.8543 95.2921C73.2505 96.6335 74.0349 98.4528 74.0349 100.35V110.298C74.0349 112.195 73.2505 114.015 71.8543 115.356C70.4581 116.697 68.5643 117.451 66.5898 117.451H37.7984C36.8207 117.451 35.8525 117.636 34.9492 117.995C34.0459 118.355 33.2252 118.882 32.5338 119.546C31.8425 120.21 31.294 120.999 30.9199 121.867C30.5457 122.734 30.3531 123.665 30.3531 124.604V134.552C30.3531 136.449 31.1376 138.269 32.5338 139.61C33.9301 140.951 35.8238 141.705 37.7984 141.705H49.0957C51.0703 141.705 52.964 142.459 54.3602 143.8C55.7565 145.141 56.5409 146.961 56.5409 148.858V158.806C56.5409 159.745 56.3483 160.676 55.9742 161.543C55.6 162.411 55.0516 163.2 54.3602 163.864C53.6689 164.528 52.8481 165.055 51.9448 165.414C51.0415 165.774 50.0734 165.959 49.0957 165.959H49.0683C47.0937 165.959 45.2 166.713 43.8038 168.054C42.4075 169.395 41.6231 171.215 41.6231 173.112V183.06C41.6231 183.999 41.8157 184.929 42.1898 185.797C42.564 186.665 43.1124 187.454 43.8038 188.118C44.4951 188.782 45.3159 189.309 46.2192 189.668C47.1225 190.028 48.0906 190.213 49.0683 190.213H50.7028C52.6774 190.213 54.5711 190.966 55.9674 192.308C57.3636 193.649 58.1481 195.469 58.1481 197.366V207.314C58.1481 209.211 57.3637 211.03 55.9674 212.372C54.5712 213.713 52.6774 214.467 50.7028 214.467H40.955C39.9773 214.467 39.0092 214.652 38.1059 215.011C37.2026 215.371 36.3818 215.898 35.6905 216.562C34.9991 217.226 34.4507 218.015 34.0766 218.882C33.7024 219.75 33.5098 220.68 33.5098 221.62V231.568C33.5098 233.465 34.2942 235.284 35.6905 236.626C37.0867 237.967 38.9804 238.721 40.955 238.721H316.442C318.416 238.721 320.31 237.967 321.706 236.626C323.103 235.284 323.887 233.465 323.887 231.568V221.62C323.887 220.68 323.694 219.75 323.32 218.882C322.946 218.015 322.398 217.226 321.706 216.562C321.015 215.898 320.194 215.371 319.291 215.011C318.388 214.652 317.419 214.467 316.442 214.467H309.986C308.012 214.467 306.118 213.713 304.722 212.372C303.325 211.03 302.541 209.211 302.541 207.314V197.366C302.541 195.469 303.325 193.649 304.722 192.308C306.118 190.966 308.012 190.213 309.986 190.213H325.207C327.182 190.213 329.076 189.459 330.472 188.118C331.868 186.776 332.653 184.957 332.653 183.06V173.112C332.653 171.215 331.868 169.395 330.472 168.054C329.076 166.713 327.182 165.959 325.207 165.959H320.59C318.616 165.959 316.722 165.205 315.326 163.864C313.929 162.523 313.145 160.703 313.145 158.806V148.858C313.145 146.961 313.929 145.141 315.326 143.8C316.722 142.459 318.616 141.705 320.59 141.705H332.202C334.176 141.705 336.07 140.951 337.466 139.61C338.862 138.269 339.647 136.449 339.647 134.552Z" fill="#FFDFB0"/>
<path d="M126.245 117.121C126.244 120.749 124.744 124.227 122.074 126.793C119.405 129.358 115.785 130.801 112.01 130.804H58.8152C56.1072 130.804 53.4946 129.843 51.4799 128.104C49.4652 126.366 48.1906 123.973 47.9011 121.386C47.6116 118.8 48.3276 116.201 49.9116 114.091C51.4956 111.981 53.8356 110.508 56.4818 109.955C56.6935 106.876 58.1145 103.99 60.4572 101.881C62.8 99.7709 65.8895 98.5949 69.1006 98.5908C70.4009 98.5908 71.6929 98.7891 72.9285 99.1783C74.8031 95.6949 77.7431 92.8467 81.353 91.0167C84.963 89.1866 89.0697 88.4627 93.1208 88.9421C97.1718 89.4216 100.973 91.0815 104.013 93.6985C107.052 96.3156 109.185 99.7642 110.123 103.581C112.133 103.32 114.178 103.475 116.121 104.036C118.063 104.597 119.858 105.551 121.385 106.833C122.912 108.116 124.136 109.697 124.975 111.472C125.813 113.246 126.246 115.173 126.245 117.121Z" fill="#FF9800"/>
<path d="M218.744 197.466L208.169 182.361C216.694 175.083 222.067 164.998 223.225 154.097C224.383 143.197 221.241 132.277 214.422 123.495C207.602 114.713 197.6 108.709 186.395 106.671C175.189 104.632 163.596 106.708 153.906 112.486C144.217 118.265 137.137 127.326 134.067 137.878C130.997 148.431 132.16 159.705 137.326 169.474C142.492 179.242 151.285 186.792 161.967 190.631C172.648 194.47 184.44 194.319 195.012 190.207L205.321 204.866C205.826 205.713 206.501 206.455 207.305 207.052C208.11 207.648 209.029 208.086 210.01 208.342C210.991 208.597 212.014 208.664 213.022 208.539C214.03 208.414 215.002 208.1 215.884 207.614C216.765 207.128 217.538 206.48 218.159 205.707C218.78 204.934 219.236 204.051 219.501 203.109C219.767 202.167 219.837 201.183 219.707 200.215C219.577 199.247 219.25 198.312 218.744 197.466Z" fill="#202020"/>
<path d="M178.017 180.776C195.952 180.776 210.491 166.808 210.491 149.578C210.491 132.347 195.952 118.379 178.017 118.379C160.083 118.379 145.544 132.347 145.544 149.578C145.544 166.808 160.083 180.776 178.017 180.776Z" fill="#FF9100"/>
<path d="M178.017 118.38C176.467 118.381 174.919 118.489 173.384 118.701C181.114 119.771 188.184 123.481 193.297 129.152C198.41 134.823 201.225 142.075 201.225 149.578C201.225 157.081 198.41 164.332 193.297 170.003C188.184 175.674 181.114 179.385 173.384 180.454C177.799 181.066 182.297 180.797 186.598 179.665C190.9 178.533 194.913 176.561 198.386 173.874C201.86 171.186 204.72 167.84 206.788 164.043C208.856 160.247 210.088 156.082 210.407 151.808C210.726 147.534 210.125 143.243 208.642 139.202C207.159 135.161 204.825 131.457 201.786 128.32C198.747 125.184 195.068 122.683 190.979 120.972C186.89 119.262 182.477 118.38 178.017 118.38Z" fill="#E08814"/>
<path d="M160.624 155.014C163.4 155.014 165.65 152.852 165.65 150.186C165.65 147.519 163.4 145.357 160.624 145.357C157.848 145.357 155.598 147.519 155.598 150.186C155.598 152.852 157.848 155.014 160.624 155.014Z" fill="#FF9800"/>
<path d="M194.266 146.977C196.188 146.977 197.746 145.481 197.746 143.635C197.746 141.789 196.188 140.292 194.266 140.292C192.345 140.292 190.787 141.789 190.787 143.635C190.787 145.481 192.345 146.977 194.266 146.977Z" fill="#E08814"/>
<path d="M174.839 139.297C176.12 139.297 177.158 138.299 177.158 137.068C177.158 135.837 176.12 134.84 174.839 134.84C173.558 134.84 172.519 135.837 172.519 137.068C172.519 138.299 173.558 139.297 174.839 139.297Z" fill="#E08814"/>
<path d="M175.698 168.974C176.979 168.974 178.017 167.976 178.017 166.745C178.017 165.515 176.979 164.517 175.698 164.517C174.417 164.517 173.378 165.515 173.378 166.745C173.378 167.976 174.417 168.974 175.698 168.974Z" fill="#E08814"/>
<path d="M189.102 161.599C190.836 161.599 192.241 160.249 192.241 158.584C192.241 156.919 190.836 155.569 189.102 155.569C187.369 155.569 185.964 156.919 185.964 158.584C185.964 160.249 187.369 161.599 189.102 161.599Z" fill="#FF9800"/>
<path d="M153.815 180.092C154.8 180.092 155.598 179.325 155.598 178.379C155.598 177.433 154.8 176.666 153.815 176.666C152.831 176.666 152.032 177.433 152.032 178.379C152.032 179.325 152.831 180.092 153.815 180.092Z" fill="#666464"/>
<path d="M212.274 132.923C213.258 132.923 214.056 132.157 214.056 131.211C214.056 130.265 213.258 129.498 212.274 129.498C211.289 129.498 210.491 130.265 210.491 131.211C210.491 132.157 211.289 132.923 212.274 132.923Z" fill="#666464"/>
<path d="M211.191 167.914C210.109 170.121 208.782 172.209 207.234 174.142C205.632 176.064 203.835 177.827 201.868 179.406C199.861 180.958 197.701 182.321 195.42 183.473C190.805 185.749 185.738 187.054 180.557 187.301C179.265 187.313 177.977 187.358 176.69 187.283C175.405 187.214 174.124 187.077 172.855 186.872C167.799 186.092 162.995 184.214 158.809 181.381C163.316 183.402 168.142 184.686 173.089 185.18C177.962 185.637 182.881 185.249 187.612 184.036C189.965 183.421 192.259 182.613 194.468 181.621C196.67 180.595 198.784 179.403 200.791 178.057C202.781 176.659 204.655 175.114 206.397 173.438C208.127 171.706 209.729 169.86 211.191 167.914ZM140.505 156.871C138.72 150.556 138.862 143.88 140.917 137.641C141.934 134.498 143.397 131.505 145.265 128.745C146.2 127.364 147.234 126.048 148.359 124.805C149.476 123.554 150.679 122.376 151.959 121.279C153.249 120.192 154.608 119.183 156.029 118.259C156.757 117.824 157.459 117.349 158.213 116.956L159.33 116.344L160.48 115.791C161.241 115.412 162.043 115.115 162.824 114.78C163.629 114.498 164.416 114.172 165.237 113.937C166.858 113.416 168.517 113.009 170.2 112.719C173.554 112.15 176.972 112.023 180.362 112.34C183.716 112.668 187.003 113.462 190.12 114.695C186.907 113.904 183.61 113.473 180.294 113.412C177.02 113.365 173.752 113.693 170.558 114.391C167.394 115.107 164.334 116.199 161.45 117.64C160.012 118.356 158.619 119.153 157.279 120.027C155.949 120.914 154.676 121.879 153.469 122.915C148.582 127.061 144.844 132.309 142.593 138.187C140.339 144.162 139.622 150.573 140.505 156.871Z" fill="#666464"/>
<path d="M115.707 181.843V194.511C115.707 205.513 116.401 206.347 128.72 207.513V212.181H88.1184V207.513C101.132 206.347 101.999 205.347 101.999 194.344V181.843H56.1924V176.842C72.6761 154.337 90.5477 130 107.899 106.828H115.707V173.84H132.711V181.843L115.707 181.843ZM101.999 124.332C91.0683 139.668 78.9223 156.671 66.9502 173.84H101.999V124.332ZM287.135 181.843V194.511C287.135 205.513 287.829 206.347 300.149 207.513V212.181H259.547V207.513C272.56 206.347 273.427 205.347 273.427 194.344V181.843H227.621V176.842C244.104 154.337 261.976 130 279.327 106.828H287.135V173.84H304.14V181.843L287.135 181.843ZM273.427 124.332C262.496 139.668 250.35 156.671 238.379 173.84H273.427V124.332Z" fill="#202020"/>
<path d="M314.465 78.5852C314.463 83.3629 312.487 87.9445 308.971 91.3235C305.456 94.7026 300.688 96.603 295.715 96.6073H225.649C222.082 96.6075 218.641 95.341 215.988 93.0512C213.334 90.7613 211.655 87.6099 211.274 84.2027C210.892 80.7955 211.836 77.3732 213.922 74.5937C216.008 71.8142 219.09 69.8738 222.576 69.1456C222.855 65.091 224.726 61.2897 227.812 58.5108C230.898 55.7318 234.967 54.1829 239.197 54.1775C240.909 54.1776 242.611 54.4388 244.239 54.9514C246.708 50.3632 250.58 46.6116 255.335 44.2012C260.09 41.7908 265.499 40.8373 270.835 41.4688C276.171 42.1003 281.177 44.2866 285.181 47.7337C289.185 51.1807 291.994 55.7231 293.23 60.7497C295.878 60.406 298.571 60.6105 301.13 61.3495C303.688 62.0884 306.052 63.3448 308.064 65.0341C310.075 66.7235 311.687 68.8068 312.791 71.144C313.895 73.4813 314.466 76.0185 314.465 78.5852ZM314.367 219.502C314.365 223.129 312.865 226.607 310.196 229.173C307.527 231.738 303.907 233.181 300.131 233.184H246.937C244.229 233.184 241.616 232.223 239.601 230.484C237.587 228.746 236.312 226.353 236.022 223.767C235.733 221.18 236.449 218.581 238.033 216.471C239.617 214.361 241.957 212.888 244.603 212.335C244.815 209.257 246.236 206.371 248.579 204.261C250.921 202.151 254.011 200.975 257.222 200.971C258.522 200.971 259.814 201.169 261.05 201.559C262.924 198.075 265.864 195.227 269.474 193.397C273.084 191.567 277.191 190.843 281.242 191.322C285.293 191.802 289.094 193.462 292.134 196.079C295.174 198.696 297.306 202.144 298.245 205.961C300.255 205.7 302.3 205.855 304.242 206.416C306.185 206.977 307.98 207.931 309.507 209.214C311.034 210.496 312.258 212.078 313.096 213.852C313.934 215.627 314.367 217.553 314.367 219.502Z" fill="#FF9800"/>
<path d="M67.8666 65.2568H86.2544" stroke="#DBCDB9" stroke-width="3" stroke-miterlimit="10" stroke-linecap="round"/>
<path d="M67.8666 70.3484H86.2544" stroke="#DBCDB9" stroke-width="3" stroke-miterlimit="10" stroke-linecap="round"/>
<path d="M67.8666 75.4404H86.2544" stroke="#DBCDB9" stroke-width="3" stroke-miterlimit="10" stroke-linecap="round"/>
<path d="M155.739 216.156H174.127" stroke="#DBCDB9" stroke-width="3" stroke-miterlimit="10" stroke-linecap="round"/>
<path d="M155.739 221.248H174.127" stroke="#DBCDB9" stroke-width="3" stroke-miterlimit="10" stroke-linecap="round"/>
<path d="M155.739 226.34H174.127" stroke="#DBCDB9" stroke-width="3" stroke-miterlimit="10" stroke-linecap="round"/>
<path d="M305.173 148.74H323.56" stroke="#DBCDB9" stroke-width="3" stroke-miterlimit="10" stroke-linecap="round"/>
<path d="M305.173 153.832H323.56" stroke="#DBCDB9" stroke-width="3" stroke-miterlimit="10" stroke-linecap="round"/>
<path d="M305.173 158.924H323.56" stroke="#DBCDB9" stroke-width="3" stroke-miterlimit="10" stroke-linecap="round"/>
<path d="M46.0587 227.531C51.2233 227.531 55.41 223.508 55.41 218.547C55.41 213.585 51.2233 209.562 46.0587 209.562C40.8941 209.562 36.7074 213.585 36.7074 218.547C36.7074 223.508 40.8941 227.531 46.0587 227.531Z" fill="#DBCDB9"/>
<path d="M57.8276 208.81C60.5177 208.81 62.6985 206.715 62.6985 204.13C62.6985 201.546 60.5177 199.451 57.8276 199.451C55.1374 199.451 52.9567 201.546 52.9567 204.13C52.9567 206.715 55.1374 208.81 57.8276 208.81Z" fill="#DBCDB9"/>
<path d="M82.0375 229.109C84.3658 229.109 86.2532 227.296 86.2532 225.059C86.2532 222.822 84.3658 221.009 82.0375 221.009C79.7092 221.009 77.8218 222.822 77.8218 225.059C77.8218 227.296 79.7092 229.109 82.0375 229.109Z" fill="#DBCDB9"/>
<path d="M72.2467 215.753C73.7985 215.753 75.0565 214.544 75.0565 213.053C75.0565 211.562 73.7985 210.354 72.2467 210.354C70.695 210.354 69.437 211.562 69.437 213.053C69.437 214.544 70.695 215.753 72.2467 215.753Z" fill="#DBCDB9"/>
<path d="M65.6329 233.183C69.353 233.183 72.3686 230.286 72.3686 226.712C72.3686 223.138 69.353 220.241 65.6329 220.241C61.9129 220.241 58.8972 223.138 58.8972 226.712C58.8972 230.286 61.9129 233.183 65.6329 233.183Z" fill="#DBCDB9"/>
<path d="M175.484 97.7359C180.648 97.7359 184.835 93.7136 184.835 88.7519C184.835 83.7901 180.648 79.7678 175.484 79.7678C170.319 79.7678 166.132 83.7901 166.132 88.7519C166.132 93.7136 170.319 97.7359 175.484 97.7359Z" fill="#DBCDB9"/>
<path d="M156.933 101.786C159.262 101.786 161.149 99.9728 161.149 97.7359C161.149 95.4991 159.262 93.6858 156.933 93.6858C154.605 93.6858 152.718 95.4991 152.718 97.7359C152.718 99.9728 154.605 101.786 156.933 101.786Z" fill="#DBCDB9"/>
<path d="M151.765 88.7519C155.486 88.7519 158.501 85.8547 158.501 82.2807C158.501 78.7068 155.486 75.8096 151.765 75.8096C148.045 75.8096 145.03 78.7068 145.03 82.2807C145.03 85.8547 148.045 88.7519 151.765 88.7519Z" fill="#DBCDB9"/>
</svg>
