<svg width="33" height="33" viewBox="0 0 33 33" fill="none" xmlns="http://www.w3.org/2000/svg">
<g clip-path="url(#clip0_642_220)">
<path d="M9.22754 23.9778H11.2275V31.0928H9.22754V23.9778ZM14.8665 23.9778H16.8665V31.0928H14.8665V23.9778Z" fill="#666464"/>
<path d="M16.8665 26.581L14.8665 25.292V23.9778H16.8665V26.581ZM11.2282 26.581L9.22754 25.292V23.9778H11.2282V26.581Z" fill="#202020"/>
<path d="M23.5421 12.5251C22.7584 14.2718 21.4866 15.7546 19.8797 16.7952C18.2729 17.8358 16.3995 18.3898 14.4851 18.3904H13.5254C13.269 18.3904 13.0231 18.2885 12.8418 18.1072C12.6605 17.9259 12.5586 17.68 12.5586 17.4236C12.5586 17.1672 12.6605 16.9213 12.8418 16.7399C13.0231 16.5586 13.269 16.4568 13.5254 16.4568H14.4851C16.0262 16.4558 17.5342 16.0099 18.828 15.1725C20.1217 14.335 21.1461 13.1418 21.778 11.7362C21.8291 11.6192 21.903 11.5134 21.9953 11.4251C22.0875 11.3367 22.1964 11.2675 22.3156 11.2215C22.4348 11.1755 22.5619 11.1536 22.6896 11.157C22.8173 11.1604 22.9431 11.189 23.0596 11.2413C23.1762 11.2936 23.2812 11.3685 23.3687 11.4616C23.4561 11.5548 23.5242 11.6643 23.5691 11.7839C23.6139 11.9035 23.6346 12.0309 23.63 12.1585C23.6254 12.2862 23.5955 12.4117 23.5421 12.5277V12.5251Z" fill="black"/>
<path d="M23.542 12.5251C23.2736 13.1233 22.9465 13.6933 22.5655 14.2267C22.2371 14.1725 21.9229 14.0529 21.6415 13.875C21.3602 13.6971 21.1175 13.4644 20.9277 13.1909C21.2619 12.7366 21.5468 12.2481 21.7779 11.7337C21.829 11.6166 21.9029 11.5108 21.9952 11.4225C22.0874 11.3342 22.1963 11.265 22.3155 11.219C22.4347 11.1729 22.5618 11.151 22.6895 11.1544C22.8172 11.1578 22.943 11.1865 23.0595 11.2388C23.1761 11.2911 23.2811 11.3659 23.3686 11.4591C23.456 11.5522 23.5241 11.6617 23.569 11.7814C23.6138 11.901 23.6345 12.0283 23.6299 12.156C23.6253 12.2836 23.5954 12.4091 23.542 12.5251Z" fill="#ECE4D9"/>
<path d="M22.9688 13.452C23.8943 13.452 24.6445 12.7018 24.6445 11.7762C24.6445 10.8507 23.8943 10.1005 22.9688 10.1005C22.0432 10.1005 21.293 10.8507 21.293 11.7762C21.293 12.7018 22.0432 13.452 22.9688 13.452Z" fill="#BAAF9F"/>
<path d="M12.5685 18.8016C12.5685 19.058 12.4666 19.3039 12.2853 19.4852C12.104 19.6665 11.8581 19.7684 11.6017 19.7684H10.6426C9.10126 19.7689 7.5929 20.215 6.2993 21.0531C5.0057 21.8913 3.98205 23.0856 3.3517 24.4922C3.30054 24.6092 3.22668 24.715 3.13441 24.8033C3.04213 24.8917 2.93326 24.9609 2.81408 25.0069C2.69491 25.0529 2.56779 25.0748 2.44009 25.0714C2.31238 25.068 2.18662 25.0394 2.07006 24.9871C1.9535 24.9348 1.84847 24.8599 1.76102 24.7668C1.67357 24.6736 1.60545 24.5641 1.56059 24.4445C1.51573 24.3249 1.49502 24.1975 1.49966 24.0699C1.5043 23.9422 1.5342 23.8167 1.58762 23.7007C2.37131 21.9542 3.64304 20.4715 5.24976 19.4309C6.85647 18.3903 8.72969 17.8363 10.6439 17.8354H11.6017C11.858 17.8354 12.1038 17.9372 12.2851 18.1184C12.4664 18.2996 12.5683 18.5453 12.5685 18.8016Z" fill="black"/>
<path d="M4.24115 22.9756C3.88967 23.4468 3.59137 23.9554 3.3517 24.4922C3.30054 24.6093 3.22668 24.715 3.13441 24.8034C3.04213 24.8917 2.93325 24.9609 2.81408 25.0069C2.69491 25.0529 2.56779 25.0749 2.44009 25.0715C2.31238 25.0681 2.18662 25.0394 2.07006 24.9871C1.9535 24.9348 1.84847 24.8599 1.76102 24.7668C1.67357 24.6737 1.60545 24.5641 1.56059 24.4445C1.51573 24.3249 1.49502 24.1976 1.49966 24.0699C1.5043 23.9422 1.5342 23.8168 1.58762 23.7007C1.8658 23.0799 2.20751 22.4896 2.60727 21.9392C3.26717 22.0559 3.85434 22.4284 4.24115 22.9756Z" fill="#ECE4D9"/>
<path d="M2.15918 26.1222C3.08469 26.1222 3.83496 25.3719 3.83496 24.4464C3.83496 23.5209 3.08469 22.7706 2.15918 22.7706C1.23367 22.7706 0.483398 23.5209 0.483398 24.4464C0.483398 25.3719 1.23367 26.1222 2.15918 26.1222Z" fill="#BAAF9F"/>
<path d="M18.1021 14.6733H7.99268C7.10276 14.6733 6.38135 15.3948 6.38135 16.2847V23.3333C6.38135 24.2232 7.10276 24.9446 7.99268 24.9446H18.1021C18.9921 24.9446 19.7135 24.2232 19.7135 23.3333V16.2847C19.7135 15.3948 18.9921 14.6733 18.1021 14.6733Z" fill="#FF9800"/>
<path d="M10.3359 12.6328H15.7597V14.6734H10.3359V12.6328Z" fill="#666464"/>
<path d="M15.7597 12.6328H10.3359V13.3843L15.7597 14.0289V12.6328Z" fill="#202020"/>
<path d="M13.0474 21.5622C12.9192 21.5622 12.7962 21.5113 12.7055 21.4206C12.6149 21.3299 12.564 21.207 12.564 21.0788V19.5216C12.564 19.3934 12.6149 19.2704 12.7055 19.1798C12.7962 19.0891 12.9192 19.0382 13.0474 19.0382C13.2386 19.0382 13.4255 18.9815 13.5845 18.8753C13.7435 18.769 13.8674 18.618 13.9406 18.4414C14.0137 18.2647 14.0329 18.0703 13.9956 17.8828C13.9583 17.6953 13.8662 17.523 13.731 17.3878C13.5958 17.2526 13.4235 17.1605 13.236 17.1232C13.0484 17.0859 12.854 17.105 12.6774 17.1782C12.5007 17.2514 12.3497 17.3753 12.2435 17.5343C12.1373 17.6933 12.0806 17.8802 12.0806 18.0714C12.0806 18.1996 12.0296 18.3226 11.939 18.4132C11.8483 18.5039 11.7254 18.5548 11.5972 18.5548C11.469 18.5548 11.346 18.5039 11.2554 18.4132C11.1647 18.3226 11.1138 18.1996 11.1138 18.0714C11.1138 17.7097 11.2152 17.3553 11.4066 17.0484C11.5979 16.7415 11.8715 16.4944 12.1963 16.3352C12.521 16.176 12.8839 16.1111 13.2437 16.1478C13.6035 16.1845 13.9458 16.3214 14.2317 16.543C14.5176 16.7645 14.7356 17.0618 14.861 17.401C14.9864 17.7403 15.0142 18.1079 14.9411 18.4621C14.868 18.8163 14.697 19.1429 14.4476 19.4048C14.1982 19.6668 13.8803 19.8535 13.5301 19.9438V21.0762C13.5305 21.1399 13.5182 21.2029 13.4941 21.2618C13.47 21.3207 13.4345 21.3743 13.3897 21.4195C13.3448 21.4646 13.2915 21.5005 13.2328 21.525C13.174 21.5495 13.111 21.5621 13.0474 21.5622Z" fill="white"/>
<path d="M13.0474 23.4802C13.3143 23.4802 13.5308 23.2638 13.5308 22.9968C13.5308 22.7299 13.3143 22.5134 13.0474 22.5134C12.7804 22.5134 12.564 22.7299 12.564 22.9968C12.564 23.2638 12.7804 23.4802 13.0474 23.4802Z" fill="white"/>
<path d="M15.8664 30.1132C16.383 30.1132 16.8784 30.3184 17.2437 30.6836C17.609 31.0489 17.8142 31.5444 17.8142 32.0609V32.5173H13.9219V32.0609C13.9219 31.5449 14.1266 31.05 14.4912 30.6848C14.8558 30.3196 15.3504 30.114 15.8664 30.1132ZM10.228 30.1132C10.7446 30.1132 11.2401 30.3184 11.6053 30.6836C11.9706 31.0489 12.1758 31.5444 12.1758 32.0609V32.5173H8.28027V32.0609C8.28027 31.5444 8.48548 31.0489 8.85076 30.6836C9.21604 30.3184 9.71147 30.1132 10.228 30.1132Z" fill="#BAAF9F"/>
<path d="M16.491 7.35608H9.60352C8.7136 7.35608 7.99219 8.0775 7.99219 8.96741V11.0215C7.99219 11.9114 8.7136 12.6329 9.60352 12.6329H16.491C17.3809 12.6329 18.1023 11.9114 18.1023 11.0215V8.96741C18.1023 8.0775 17.3809 7.35608 16.491 7.35608Z" fill="#666464"/>
<path d="M10.6309 11.0222C11.1983 11.0222 11.6583 10.5622 11.6583 9.99479C11.6583 9.42738 11.1983 8.96741 10.6309 8.96741C10.0635 8.96741 9.60352 9.42738 9.60352 9.99479C9.60352 10.5622 10.0635 11.0222 10.6309 11.0222Z" fill="white"/>
<path d="M15.4634 11.0222C16.0308 11.0222 16.4908 10.5622 16.4908 9.99479C16.4908 9.42738 16.0308 8.96741 15.4634 8.96741C14.896 8.96741 14.436 9.42738 14.436 9.99479C14.436 10.5622 14.896 11.0222 15.4634 11.0222Z" fill="white"/>
<path d="M13.0796 5.80078C12.9514 5.80078 12.8284 5.74985 12.7378 5.6592C12.6471 5.56854 12.5962 5.44559 12.5962 5.31738V2.73926C12.5962 2.61105 12.6471 2.4881 12.7378 2.39744C12.8284 2.30679 12.9514 2.25586 13.0796 2.25586C13.2078 2.25586 13.3308 2.30679 13.4214 2.39744C13.5121 2.4881 13.563 2.61105 13.563 2.73926V5.31738C13.563 5.44559 13.5121 5.56854 13.4214 5.6592C13.3308 5.74985 13.2078 5.80078 13.0796 5.80078Z" fill="#666464"/>
<path d="M13.0474 2.73926C13.6703 2.73926 14.1753 2.23427 14.1753 1.61133C14.1753 0.98839 13.6703 0.483398 13.0474 0.483398C12.4244 0.483398 11.9194 0.98839 11.9194 1.61133C11.9194 2.23427 12.4244 2.73926 13.0474 2.73926Z" fill="#FF9100"/>
<path d="M10.8728 5.31543H15.2228C15.3652 5.31543 15.5017 5.37199 15.6024 5.47268C15.7031 5.57337 15.7597 5.70993 15.7597 5.85232V7.35601H10.3359V5.85232C10.3359 5.78182 10.3498 5.712 10.3768 5.64686C10.4038 5.58172 10.4433 5.52254 10.4932 5.47268C10.543 5.42283 10.6022 5.38328 10.6674 5.3563C10.7325 5.32932 10.8023 5.31543 10.8728 5.31543Z" fill="#BAAF9F"/>
<path d="M27.2508 0.483398C24.3426 0.483398 21.9849 2.18818 21.9849 4.29064C21.9849 5.09437 22.3304 5.83752 22.9189 6.45434L21.6382 7.96447L24.9653 7.72148C25.7007 7.9738 26.4732 8.10103 27.2508 8.09789C30.1589 8.09789 32.5166 6.39311 32.5166 4.29064C32.5166 2.18818 30.1589 0.483398 27.2508 0.483398Z" fill="#FEAB30"/>
<path d="M28.4433 0.580078C29.7414 1.27359 30.5832 2.38477 30.5832 3.64353C30.5832 5.746 28.2255 7.45078 25.3173 7.45078C24.5398 7.45392 23.7673 7.32669 23.0318 7.07437L22.3486 7.124L21.6396 7.96189L24.9667 7.71891C25.7022 7.97122 26.4747 8.09845 27.2522 8.09531C30.1603 8.09531 32.518 6.39053 32.518 4.28807C32.5168 2.48467 30.7772 0.973242 28.4433 0.580078Z" fill="#FF9800"/>
<path d="M29.4958 5.63965H25.0317C24.9035 5.63965 24.7806 5.58872 24.6899 5.49806C24.5993 5.40741 24.5483 5.28446 24.5483 5.15625C24.5483 5.02804 24.5993 4.90509 24.6899 4.81444C24.7806 4.72378 24.9035 4.67285 25.0317 4.67285H29.4958C29.624 4.67285 29.7469 4.72378 29.8376 4.81444C29.9282 4.90509 29.9792 5.02804 29.9792 5.15625C29.9792 5.28446 29.9282 5.40741 29.8376 5.49806C29.7469 5.58872 29.624 5.63965 29.4958 5.63965ZM29.4958 3.70605H25.0317C24.9035 3.70605 24.7806 3.65513 24.6899 3.56447C24.5993 3.47382 24.5483 3.35086 24.5483 3.22266C24.5483 3.09445 24.5993 2.9715 24.6899 2.88084C24.7806 2.79019 24.9035 2.73926 25.0317 2.73926H29.4958C29.624 2.73926 29.7469 2.79019 29.8376 2.88084C29.9282 2.9715 29.9792 3.09445 29.9792 3.22266C29.9792 3.35086 29.9282 3.47382 29.8376 3.56447C29.7469 3.65513 29.624 3.70605 29.4958 3.70605Z" fill="#FFDFB0"/>
</g>
<defs>
<clipPath id="clip0_642_220">
<rect width="33" height="33" fill="white"/>
</clipPath>
</defs>
</svg>
