<svg width="250" height="250" viewBox="0 0 250 250" fill="none" xmlns="http://www.w3.org/2000/svg">
<circle cx="125" cy="125" r="125" fill="url(#paint0_linear_500_1065)"/>
<path d="M175.595 89.5833V172.917C175.592 174.021 175.152 175.079 174.371 175.859C173.59 176.64 172.532 177.08 171.428 177.083H79.7618C78.6577 177.08 77.5998 176.64 76.8191 175.859C76.0384 175.079 75.5984 174.021 75.5951 172.917V89.5833H175.595Z" fill="#202020"/>
<path d="M113.095 139.583L108.928 137.5V132.208C110.197 131.481 111.25 130.431 111.982 129.165C112.714 127.899 113.098 126.462 113.095 125V120.833L115.178 116.667V114.583C116.282 114.587 117.34 115.027 118.121 115.807C118.902 116.588 119.342 117.646 119.345 118.75V120.833L117.262 125V129.167C117.264 130.629 116.881 132.066 116.149 133.332C115.417 134.598 114.364 135.647 113.095 136.375V139.583ZM125.595 153.062C125.591 151.515 125.159 149.999 124.347 148.683C123.534 147.366 122.372 146.301 120.991 145.604L120.658 145.437C121.163 146.52 121.426 147.701 121.428 148.896V156.25H125.595V153.062ZM175.595 89.5833V100.958C174.327 100.231 173.273 99.1809 172.541 97.915C171.81 96.649 171.426 95.2121 171.428 93.7499C171.428 95.9601 170.55 98.0797 168.988 99.6425C167.425 101.205 165.305 102.083 163.095 102.083C160.885 102.083 158.765 101.205 157.203 99.6425C155.64 98.0797 154.762 95.9601 154.762 93.7499C154.762 95.9601 153.884 98.0797 152.321 99.6425C150.758 101.205 148.639 102.083 146.428 102.083C144.218 102.083 142.099 101.205 140.536 99.6425C138.973 98.0797 138.095 95.9601 138.095 93.7499C138.095 95.9601 137.217 98.0797 135.654 99.6425C134.092 101.205 131.972 102.083 129.762 102.083C127.552 102.083 125.432 101.205 123.869 99.6425C122.306 98.0797 121.428 95.9601 121.428 93.7499C121.428 95.9601 120.55 98.0797 118.988 99.6425C117.425 101.205 115.305 102.083 113.095 102.083C110.885 102.083 108.765 101.205 107.203 99.6425C105.64 98.0797 104.762 95.9601 104.762 93.7499C104.762 95.9601 103.884 98.0797 102.321 99.6425C100.758 101.205 98.6386 102.083 96.4284 102.083C94.2183 102.083 92.0987 101.205 90.5359 99.6425C88.9731 98.0797 88.0951 95.9601 88.0951 93.7499C88.0974 95.2135 87.7136 96.6518 86.9825 97.9196C86.2514 99.1875 85.1988 100.24 83.931 100.971C82.6631 101.702 81.2249 102.086 79.7613 102.084C78.2977 102.082 76.8607 101.693 75.5951 100.958V89.5833H175.595Z" fill="#B30000"/>
<path d="M169.345 56.25L183.929 77.0833H67.2618L81.8452 56.25H169.345Z" fill="#ED931C"/>
<path d="M175.595 156.25V164.583H75.5951V156.25H175.595ZM86.0118 164.583H165.178V177.083H86.0118V164.583Z" fill="#A95050"/>
<path d="M165.179 133.333L161.741 148.812C161.535 149.737 161.02 150.565 160.282 151.159C159.544 151.753 158.626 152.079 157.679 152.083H143.512C142.564 152.079 141.646 151.753 140.908 151.159C140.17 150.565 139.656 149.737 139.449 148.812L136.012 133.333H165.179Z" fill="#B30000"/>
<path d="M121.428 148.896V156.25H88.0951V148.896C88.0987 147.349 88.5309 145.833 89.3436 144.516C90.1563 143.2 91.3178 142.134 92.6993 141.438L95.8243 139.875L100.595 145.833L104.762 141.667L108.928 145.833L113.699 139.875L116.824 141.438C118.206 142.134 119.367 143.2 120.18 144.516C120.993 145.833 121.425 147.349 121.428 148.896Z" fill="#E23D3D"/>
<path d="M115.179 114.583V116.667L113.095 120.833L106.845 116.667L102.679 120.833H96.4285L94.3452 118.75L96.4285 114.583L92.2618 110.417H111.012C112.116 110.42 113.174 110.86 113.954 111.641C114.735 112.421 115.175 113.479 115.179 114.583Z" fill="#666464"/>
<path d="M113.699 139.875L108.929 145.833L104.762 141.667L108.929 137.5L113.699 139.875ZM104.762 141.667L100.595 145.833L95.8243 139.875L100.595 137.5L104.762 141.667Z" fill="#CE1E1E"/>
<path d="M86.0118 164.583H165.179V168.75H86.0118V164.583Z" fill="#8B3C3C"/>
<path d="M108.928 131.25V137.5L104.762 141.667L100.595 137.5V131.25H108.928Z" fill="#FFDFB0"/>
<path d="M108.928 131.25V134.292C107.663 135.028 106.226 135.417 104.762 135.417C103.298 135.417 101.86 135.028 100.595 134.292V131.25H108.928Z" fill="#FFBA55"/>
<path d="M113.095 120.833V125C113.095 127.21 112.217 129.33 110.654 130.893C109.092 132.455 106.972 133.333 104.762 133.333C102.552 133.333 100.432 132.455 98.8692 130.893C97.3064 129.33 96.4285 127.21 96.4285 125V120.833H102.678L106.845 116.667L113.095 120.833Z" fill="#FFDFB0"/>
<path d="M75.5952 97.9166C73.385 97.9166 71.2654 97.0386 69.7026 95.4758C68.1398 93.913 67.2618 91.7934 67.2618 89.5833V77.0833H183.929V89.5833C183.929 91.7934 183.051 93.913 181.488 95.4758C179.925 97.0386 177.805 97.9166 175.595 97.9166C173.385 97.9166 171.265 97.0386 169.703 95.4758C168.14 93.913 167.262 91.7934 167.262 89.5833C167.262 91.7934 166.384 93.913 164.821 95.4758C163.258 97.0386 161.139 97.9166 158.929 97.9166C156.718 97.9166 154.599 97.0386 153.036 95.4758C151.473 93.913 150.595 91.7934 150.595 89.5833C150.595 91.7934 149.717 93.913 148.154 95.4758C146.592 97.0386 144.472 97.9166 142.262 97.9166C140.052 97.9166 137.932 97.0386 136.369 95.4758C134.806 93.913 133.929 91.7934 133.929 89.5833C133.929 91.7934 133.051 93.913 131.488 95.4758C129.925 97.0386 127.805 97.9166 125.595 97.9166C123.385 97.9166 121.265 97.0386 119.703 95.4758C118.14 93.913 117.262 91.7934 117.262 89.5833C117.262 91.7934 116.384 93.913 114.821 95.4758C113.258 97.0386 111.139 97.9166 108.929 97.9166C106.718 97.9166 104.599 97.0386 103.036 95.4758C101.473 93.913 100.595 91.7934 100.595 89.5833C100.595 91.7934 99.7172 93.913 98.1544 95.4758C96.5916 97.0386 94.472 97.9166 92.2618 97.9166C90.0517 97.9166 87.9321 97.0386 86.3693 95.4758C84.8065 93.913 83.9285 91.7934 83.9285 89.5833C83.9285 91.7934 83.0505 93.913 81.4877 95.4758C79.9249 97.0386 77.8053 97.9166 75.5952 97.9166Z" fill="#FFA023"/>
<path d="M161.012 129.167L157.574 144.646C157.368 145.571 156.854 146.398 156.116 146.992C155.377 147.587 154.459 147.913 153.512 147.917H139.345C138.398 147.913 137.479 147.587 136.741 146.992C136.003 146.398 135.489 145.571 135.283 144.646L131.845 129.167H161.012Z" fill="#FF9800"/>
<path d="M148.512 135.417H152.678V141.667H148.512V135.417ZM140.178 135.417H144.345V141.667H140.178V135.417ZM136.051 121.24L140.137 120.423L142.22 130.84L138.135 131.656L136.051 121.24ZM150.635 130.842L152.718 120.425L156.806 121.244L154.72 131.66L150.635 130.842Z" fill="#FF9100"/>
<defs>
<linearGradient id="paint0_linear_500_1065" x1="125" y1="0" x2="125" y2="250" gradientUnits="userSpaceOnUse">
<stop offset="0.472222" stop-color="#FF9800"/>
<stop offset="1" stop-color="#D9D9D9" stop-opacity="0"/>
</linearGradient>
</defs>
</svg>
