<svg width="567" height="800" viewBox="0 0 567 800" fill="none" xmlns="http://www.w3.org/2000/svg">
<g clip-path="url(#clip0_579_163)">
<rect width="567" height="800" fill="#FF9800"/>
<path d="M57.7705 692.513C58.9388 692.821 60.1461 692.954 61.3535 692.91C61.3535 692.91 60.8104 691.248 60.7618 691.151C60.2024 689.984 58.4433 688.054 57.0085 688.249C56.7705 688.287 56.5433 688.375 56.3416 688.507C56.14 688.639 55.9685 688.812 55.8384 689.014C55.7083 689.217 55.6225 689.445 55.5867 689.684C55.5508 689.922 55.5657 690.165 55.6304 690.397C55.8099 690.885 56.0947 691.328 56.4646 691.694C56.8345 692.059 57.2803 692.339 57.7705 692.513Z" fill="#263238"/>
<path d="M82.7545 719.426C82.8615 719.21 82.9217 718.974 82.9312 718.732C82.9408 718.491 82.8995 718.251 82.81 718.027C82.7206 717.803 82.5849 717.6 82.412 717.432C82.239 717.264 82.0325 717.134 81.8061 717.051C80.4361 716.597 78.3365 718.153 77.5745 719.191C77.5745 719.24 77.2827 719.677 77.0476 720.083H82.2762C82.4726 719.893 82.6344 719.671 82.7545 719.426Z" fill="#263238"/>
<path d="M74.9886 712.674C75.9274 713.302 76.9585 713.781 78.0447 714.092C77.9393 714.595 77.8339 715.089 77.7042 715.576C77.6151 715.9 77.5502 716.216 77.4367 716.54C77.3232 716.865 77.2341 717.173 77.1287 717.489C76.9098 718.089 76.6909 718.705 76.4639 719.28C76.3586 719.564 76.2532 719.823 76.1478 720.091H76.999C77.0638 719.921 77.1287 719.75 77.1935 719.564C77.4124 718.964 77.615 718.364 77.8339 717.716L78.1258 716.759C78.223 716.443 78.296 716.094 78.3771 715.754C78.5635 714.943 78.7175 714.173 78.8553 713.322C79.9253 713.764 81.0575 714.038 82.2114 714.133C82.7323 714.13 83.2463 714.013 83.718 713.792C84.1897 713.571 84.6077 713.25 84.9432 712.852C85.0813 712.655 85.1764 712.43 85.2222 712.194C85.2681 711.957 85.2638 711.714 85.2095 711.479C85.1552 711.245 85.0523 711.024 84.9072 710.832C84.7622 710.64 84.5784 710.48 84.3677 710.363C83.0788 709.707 80.7684 710.923 79.8524 711.839C79.7957 711.895 79.212 712.649 78.904 713.03C78.9769 712.544 79.058 712.049 79.1147 711.555C79.2931 710.12 79.4309 708.661 79.5768 707.21C79.5768 706.764 79.666 706.318 79.7146 705.872C80.8236 706.316 81.9934 706.589 83.1842 706.683C83.7051 706.68 84.2191 706.564 84.6908 706.343C85.1624 706.121 85.5805 705.801 85.916 705.402C86.0541 705.205 86.1491 704.981 86.195 704.744C86.2409 704.508 86.2365 704.264 86.1823 704.03C86.128 703.795 86.025 703.574 85.88 703.382C85.735 703.19 85.5512 703.03 85.3405 702.913C84.0515 702.257 81.7412 703.473 80.8252 704.389C80.7603 704.454 79.9173 705.507 79.7227 705.783C79.82 704.802 79.9335 703.829 80.0875 702.873C80.2747 701.584 80.5455 700.309 80.8982 699.055C82.0155 699.499 83.1933 699.772 84.392 699.865C84.9119 699.863 85.4251 699.748 85.8956 699.526C86.3661 699.305 86.7825 698.984 87.1158 698.585C87.255 698.388 87.351 698.165 87.3975 697.929C87.444 697.693 87.4399 697.449 87.3855 697.215C87.3311 696.981 87.2277 696.76 87.082 696.569C86.9363 696.377 86.7516 696.219 86.5402 696.104C85.2513 695.439 82.9491 696.663 82.033 697.579C81.9601 697.644 81.0603 698.779 80.9063 698.99C80.929 698.918 80.9479 698.845 80.963 698.771C81.3587 697.523 81.866 696.313 82.4789 695.156C82.8113 694.507 83.1598 693.907 83.5165 693.34C84.5544 693.89 85.6694 694.281 86.8239 694.499C87.3418 694.556 87.8657 694.498 88.3587 694.33C88.8518 694.162 89.3019 693.887 89.6774 693.526C89.8361 693.346 89.9551 693.134 90.0266 692.905C90.098 692.675 90.1203 692.433 90.092 692.195C90.0637 691.956 89.9855 691.726 89.8623 691.52C89.7392 691.313 89.574 691.135 89.3774 690.997C88.1696 690.186 85.7458 691.159 84.7325 691.962C84.6757 692.01 84.165 692.513 83.8002 692.886L84.2947 692.124C84.8946 691.208 85.5107 690.413 86.0538 689.692C86.37 689.295 86.6618 688.946 86.9374 688.614C88.1067 688.63 89.2716 688.466 90.3907 688.127C90.8759 687.938 91.3138 687.644 91.6736 687.267C92.0335 686.891 92.3067 686.44 92.4741 685.947C92.5321 685.714 92.5404 685.471 92.4984 685.235C92.4565 684.998 92.3653 684.774 92.2307 684.575C92.0961 684.376 91.9212 684.208 91.7174 684.081C91.5135 683.954 91.2852 683.872 91.0474 683.839C89.6044 683.685 87.894 685.655 87.3671 686.838C87.3184 686.944 86.7915 688.622 86.8239 688.622C86.5564 688.93 86.2646 689.262 85.9565 689.635C85.3972 690.324 84.7649 691.11 84.1407 692.018C83.4525 692.983 82.8218 693.987 82.2519 695.026C81.599 696.183 81.0561 697.399 80.6306 698.658C80.6306 698.658 80.6306 698.658 80.6306 698.698C80.6306 698.277 80.6306 697.077 80.6306 696.996C80.4685 695.715 79.3904 693.34 77.9636 693.072C77.7256 693.036 77.4825 693.049 77.2503 693.113C77.018 693.177 76.8018 693.289 76.6159 693.442C76.4299 693.595 76.2784 693.786 76.1712 694.001C76.064 694.217 76.0035 694.453 75.9938 694.694C76.0136 695.213 76.1465 695.723 76.383 696.186C76.6196 696.649 76.9543 697.056 77.3638 697.377C78.3662 698.027 79.4587 698.527 80.6063 698.86C80.2001 700.148 79.8805 701.461 79.6498 702.792C79.512 703.602 79.3985 704.348 79.2931 705.143C79.2931 704.77 79.2931 704.445 79.2931 704.397C79.1228 703.116 78.0528 700.741 76.6261 700.473C76.3876 700.437 76.1441 700.451 75.9114 700.514C75.6788 700.578 75.4621 700.69 75.2755 700.843C75.0889 700.996 74.9366 701.186 74.8285 701.402C74.7204 701.618 74.659 701.854 74.6481 702.095C74.67 702.615 74.8046 703.124 75.0425 703.588C75.2804 704.051 75.616 704.457 76.0262 704.778C76.9955 705.417 78.0559 705.907 79.1715 706.229C79.1715 706.529 79.0985 706.829 79.058 707.137C78.8878 708.588 78.7175 710.039 78.5149 711.458C78.4419 711.96 78.3527 712.447 78.2636 712.933C78.2636 712.609 78.2636 712.333 78.2636 712.293C78.1014 711.012 77.0233 708.637 75.6047 708.369C75.3662 708.332 75.1227 708.346 74.89 708.41C74.6573 708.474 74.4407 708.586 74.2541 708.738C74.0675 708.891 73.9152 709.082 73.8071 709.298C73.699 709.513 73.6376 709.749 73.6267 709.99C73.6467 710.509 73.7787 711.018 74.0138 711.481C74.2489 711.944 74.5814 712.351 74.9886 712.674Z" fill="#263238"/>
<path d="M58.6541 699.882C59.851 699.874 61.0398 699.685 62.1804 699.322C62.5527 700.621 63.0104 701.894 63.5504 703.132C63.8665 703.854 64.1989 704.567 64.5475 705.289C64.3448 704.981 64.1583 704.713 64.1259 704.681C63.3153 703.7 61.0698 702.305 59.7322 702.873C59.5149 702.974 59.3211 703.12 59.1634 703.3C59.0057 703.481 58.8875 703.693 58.8165 703.922C58.7455 704.151 58.7232 704.392 58.7511 704.63C58.779 704.869 58.8564 705.098 58.9784 705.305C59.2832 705.726 59.6759 706.076 60.1294 706.331C60.5829 706.586 61.0863 706.739 61.6048 706.78C62.7679 706.779 63.924 706.601 65.0338 706.253C65.1635 706.529 65.3013 706.804 65.4392 707.064C66.0958 708.369 66.7524 709.674 67.3604 710.971C67.5792 711.433 67.7738 711.887 67.9684 712.341C67.79 712.074 67.6279 711.855 67.6036 711.822C66.7929 710.841 64.5475 709.447 63.2099 710.015C62.9916 710.115 62.797 710.26 62.6385 710.441C62.4801 710.621 62.3615 710.833 62.2903 711.062C62.2192 711.292 62.1972 711.534 62.2258 711.772C62.2543 712.011 62.3327 712.24 62.456 712.447C62.7592 712.87 63.1514 713.223 63.6051 713.479C64.0588 713.735 64.563 713.889 65.0825 713.93C66.2122 713.934 67.3359 713.765 68.4142 713.427C68.6007 713.906 68.7952 714.376 68.9492 714.846C69.0546 715.17 69.1762 715.47 69.2573 715.803L69.5248 716.767C69.6788 717.383 69.8328 718.024 69.9625 718.624C70.0598 719.045 70.1409 719.434 70.2219 719.856C70.0112 719.402 69.5815 718.51 69.541 718.445C68.8519 717.351 66.8821 715.64 65.4878 716.013C65.2559 716.079 65.0403 716.193 64.8552 716.347C64.6701 716.501 64.5195 716.693 64.4132 716.909C64.3069 717.126 64.2474 717.362 64.2384 717.603C64.2294 717.844 64.2712 718.084 64.361 718.307C64.5761 718.736 64.8782 719.116 65.2481 719.421C65.6179 719.727 66.0474 719.952 66.5092 720.083H71.1055C71.1055 719.985 71.0569 719.888 71.0407 719.783C71.7186 719.513 72.3792 719.202 73.0186 718.851C73.529 719.335 74.1015 719.749 74.721 720.083H76.0666C76.1396 719.58 76.2207 718.964 76.2207 718.899C76.2092 717.759 75.9019 716.642 75.329 715.657C75.3453 715.53 75.3453 715.402 75.329 715.276C75.3001 715.037 75.221 714.807 75.0971 714.6C74.9731 714.394 74.807 714.216 74.6096 714.078C74.4122 713.941 74.1879 713.846 73.9515 713.801C73.7151 713.756 73.4718 713.761 73.2375 713.816C71.8351 714.189 70.9515 716.646 70.8786 717.943C70.8786 718.016 70.9272 718.851 70.9677 719.369C70.8948 719.069 70.8299 718.769 70.757 718.461C70.611 717.837 70.4408 717.229 70.2706 716.565L69.9787 715.608C69.8896 715.284 69.7518 714.959 69.6464 714.627C69.3627 713.873 69.0465 713.119 68.7141 712.365C69.8511 712.133 70.945 711.726 71.9567 711.158C72.3897 710.869 72.7547 710.49 73.0262 710.046C73.2978 709.602 73.4695 709.105 73.5293 708.588C73.5345 708.347 73.4893 708.108 73.3966 707.886C73.3038 707.663 73.1656 707.463 72.9907 707.297C72.8159 707.132 72.6084 707.004 72.3814 706.924C72.1545 706.843 71.9132 706.811 71.673 706.829C70.2381 706.991 68.9898 709.261 68.7304 710.55C68.7304 710.631 68.625 711.555 68.5844 712.066C68.3818 711.62 68.1791 711.166 67.9602 710.72C67.3117 709.423 66.6227 708.134 65.9336 706.837L65.3176 705.653C66.489 705.409 67.6174 704.991 68.6655 704.413C69.0974 704.123 69.4615 703.744 69.7329 703.3C70.0044 702.857 70.1767 702.36 70.2381 701.843C70.2435 701.603 70.1982 701.364 70.1054 701.142C70.0126 700.92 69.8742 700.72 69.6992 700.555C69.5242 700.39 69.3166 700.264 69.0896 700.184C68.8627 700.104 68.6215 700.073 68.3818 700.092C66.9469 700.246 65.6986 702.524 65.431 703.805C65.431 703.902 65.2932 705.24 65.277 705.58C64.8231 704.705 64.3853 703.829 63.98 702.954C63.4292 701.771 62.958 700.552 62.5695 699.306C63.7451 699.058 64.8784 698.64 65.9336 698.066C66.3661 697.775 66.7305 697.394 67.002 696.949C67.2734 696.504 67.4455 696.006 67.5063 695.488C67.5116 695.247 67.4664 695.009 67.3735 694.787C67.2807 694.565 67.1423 694.365 66.9674 694.2C66.7924 694.035 66.5847 693.908 66.3578 693.829C66.1308 693.749 65.8897 693.718 65.6499 693.737C64.2151 693.891 62.9667 696.169 62.7073 697.45C62.7073 697.547 62.5533 698.99 62.5452 699.249C62.5452 699.184 62.4965 699.111 62.4722 699.039C62.0965 697.78 61.8307 696.492 61.6778 695.188C61.5967 694.475 61.5562 693.777 61.54 693.105C62.7087 692.994 63.8539 692.707 64.9366 692.253C65.3987 692.014 65.8033 691.676 66.1224 691.265C66.4415 690.853 66.6675 690.377 66.7848 689.87C66.8165 689.634 66.7989 689.393 66.733 689.164C66.6671 688.935 66.5545 688.722 66.4022 688.538C66.2498 688.355 66.0611 688.205 65.848 688.098C65.6348 687.991 65.4017 687.929 65.1635 687.917C63.7125 687.917 62.2209 690.057 61.8237 691.289C61.8237 691.354 61.6535 692.059 61.5562 692.578C61.5562 692.27 61.5562 691.954 61.5562 691.662C61.5562 690.567 61.6291 689.57 61.694 688.679C61.7426 688.176 61.7913 687.722 61.8399 687.292C62.8234 686.661 63.7038 685.882 64.4502 684.982C64.7486 684.556 64.9509 684.069 65.0433 683.557C65.1357 683.045 65.1158 682.519 64.9852 682.015C64.9043 681.789 64.7768 681.582 64.6108 681.407C64.4449 681.233 64.2443 681.096 64.0219 681.004C63.7996 680.913 63.5605 680.869 63.3201 680.875C63.0796 680.882 62.8433 680.939 62.6262 681.042C61.3373 681.707 61.005 684.285 61.2157 685.574C61.2157 685.687 61.7183 687.373 61.7426 687.357C61.6859 687.771 61.6291 688.208 61.5805 688.687C61.4913 689.578 61.4022 690.575 61.3697 691.678C61.3325 692.862 61.3623 694.048 61.4589 695.228C61.561 696.551 61.7808 697.861 62.1155 699.144V699.193C61.8886 698.836 61.2157 697.855 61.159 697.782C60.3483 696.809 58.1029 695.415 56.7653 695.982C56.5471 696.083 56.3524 696.228 56.1939 696.408C56.0355 696.589 55.9169 696.801 55.8457 697.03C55.7746 697.26 55.7526 697.501 55.7812 697.74C55.8097 697.978 55.8882 698.208 56.0114 698.414C56.3184 698.837 56.714 699.187 57.1705 699.44C57.6269 699.694 58.1333 699.844 58.6541 699.882Z" fill="#263238"/>
<path d="M83.4841 693.072C83.4841 693.072 83.9462 691.386 83.9624 691.273C84.1408 689.992 83.7273 687.414 82.4222 686.782C82.2028 686.684 81.9652 686.633 81.7248 686.633C81.4844 686.633 81.2468 686.683 81.0272 686.781C80.8077 686.879 80.6113 687.022 80.4508 687.201C80.2903 687.38 80.1693 687.591 80.0957 687.819C79.9778 688.326 79.9719 688.853 80.0783 689.363C80.1847 689.872 80.4009 690.352 80.7118 690.77C81.5178 691.669 82.452 692.445 83.4841 693.072Z" fill="#263238"/>
<path d="M32.4947 703.132C33.2141 703.32 33.9568 703.401 34.6997 703.375C34.6997 703.375 34.3673 702.354 34.3349 702.289C33.9944 701.576 32.9082 700.384 32.0246 700.506C31.881 700.533 31.7448 700.59 31.6245 700.672C31.5042 700.755 31.4026 700.862 31.3263 700.987C31.2499 701.111 31.2004 701.25 31.1811 701.395C31.1617 701.54 31.1729 701.687 31.2139 701.827C31.3226 702.123 31.493 702.393 31.7138 702.618C31.9346 702.843 32.2009 703.018 32.4947 703.132Z" fill="#263238"/>
<path d="M47.824 719.677C47.8902 719.545 47.9277 719.4 47.9342 719.252C47.9407 719.105 47.916 718.957 47.8617 718.819C47.8075 718.682 47.7248 718.557 47.6191 718.454C47.5134 718.35 47.3871 718.27 47.2484 718.218C46.4378 717.935 45.1083 718.899 44.6382 719.54C44.6382 719.54 44.4598 719.831 44.322 720.083H47.5646C47.6774 719.966 47.7656 719.829 47.824 719.677Z" fill="#263238"/>
<path d="M43.033 715.527C43.6115 715.913 44.2458 716.208 44.9137 716.403C44.8489 716.711 44.784 717.019 44.7029 717.31C44.6219 717.602 44.6057 717.708 44.5408 717.902C44.476 718.097 44.4111 718.299 44.3544 718.486C44.2166 718.859 44.0788 719.24 43.941 719.588L43.7464 720.083H44.2733L44.3949 719.759C44.5246 719.394 44.6462 719.021 44.784 718.624C44.8408 718.429 44.8975 718.235 44.9624 718.032C45.0272 717.829 45.0677 717.627 45.1164 717.416C45.238 716.938 45.3271 716.443 45.4082 715.94C46.0683 716.206 46.7657 716.367 47.4753 716.419C47.7974 716.415 48.1146 716.34 48.4046 716.2C48.6945 716.06 48.9502 715.858 49.1534 715.608C49.2389 715.487 49.2979 715.349 49.3263 715.203C49.3547 715.057 49.352 714.907 49.3183 714.762C49.2846 714.617 49.2207 714.482 49.1308 714.363C49.041 714.245 48.9271 714.147 48.7967 714.076C47.986 713.671 46.5917 714.425 46.0243 714.984L45.4406 715.713C45.4893 715.414 45.5379 715.114 45.5703 714.814C45.6838 713.93 45.7649 713.03 45.8541 712.139C45.8541 711.863 45.9108 711.587 45.9351 711.328C46.62 711.598 47.3413 711.765 48.0752 711.822C48.3972 711.819 48.7145 711.744 49.0044 711.604C49.2944 711.464 49.5501 711.262 49.7532 711.012C49.8387 710.891 49.8975 710.753 49.9259 710.608C49.9542 710.463 49.9515 710.314 49.9178 710.17C49.884 710.025 49.8202 709.89 49.7303 709.773C49.6405 709.655 49.5267 709.558 49.3966 709.488C48.5859 709.082 47.1916 709.828 46.6242 710.396C46.6242 710.436 46.0648 711.077 45.9432 711.247C46.0081 710.647 46.0729 710.047 46.1702 709.463C46.2871 708.669 46.4577 707.884 46.6809 707.113C47.3688 707.383 48.0925 707.553 48.8291 707.615C49.1511 707.611 49.4684 707.537 49.7583 707.397C50.0483 707.256 50.304 707.054 50.5071 706.805C50.5926 706.684 50.6514 706.546 50.6798 706.401C50.7081 706.256 50.7054 706.106 50.6716 705.962C50.6379 705.818 50.5741 705.683 50.4842 705.565C50.3944 705.448 50.2806 705.351 50.1505 705.281C49.3398 704.867 47.9455 705.621 47.3781 706.18C47.3375 706.229 46.7782 706.918 46.689 707.056C46.6919 707.01 46.6919 706.964 46.689 706.918C46.9361 706.15 47.248 705.404 47.6213 704.689C47.8239 704.3 48.0428 703.927 48.2617 703.578C48.9 703.917 49.586 704.158 50.2964 704.292C50.6143 704.325 50.9357 704.289 51.2381 704.185C51.5405 704.081 51.8167 703.913 52.0474 703.692C52.1448 703.58 52.2177 703.45 52.2614 703.309C52.3051 703.168 52.3186 703.019 52.301 702.872C52.2834 702.725 52.2352 702.584 52.1593 702.457C52.0835 702.33 51.9818 702.22 51.8609 702.135C51.1232 701.641 49.6316 702.233 49.0075 702.735C49.0075 702.735 48.6589 703.067 48.44 703.303C48.5373 703.14 48.6346 702.978 48.7399 702.832C49.1128 702.265 49.4857 701.779 49.8181 701.349L50.3612 700.684C51.0803 700.693 51.7965 700.592 52.4851 700.384C52.784 700.268 53.0541 700.088 53.2767 699.857C53.4992 699.626 53.6689 699.35 53.774 699.047C53.8095 698.903 53.8143 698.753 53.788 698.608C53.7618 698.462 53.7052 698.323 53.6218 698.201C53.5384 698.079 53.4302 697.975 53.3042 697.897C53.1782 697.82 53.0372 697.769 52.8904 697.75C52.0068 697.652 50.953 698.86 50.6287 699.59C50.6287 699.655 50.272 700.684 50.2964 700.684C50.1261 700.871 49.9478 701.081 49.7613 701.308C49.4128 701.738 49.0237 702.216 48.6427 702.776C48.2187 703.367 47.8315 703.985 47.4834 704.624C47.0851 705.336 46.7515 706.082 46.4864 706.853C46.4864 706.594 46.4864 705.864 46.4864 705.807C46.3891 704.997 45.7244 703.554 44.8651 703.376C44.7192 703.354 44.5705 703.363 44.4283 703.402C44.2861 703.441 44.1536 703.509 44.0392 703.602C43.9248 703.695 43.8311 703.811 43.7639 703.942C43.6967 704.073 43.6577 704.217 43.6491 704.365C43.6621 704.677 43.7411 704.983 43.8808 705.262C44.0205 705.541 44.2179 705.788 44.4598 705.986C45.0738 706.389 45.7465 706.695 46.4539 706.894C46.2068 707.691 46.0118 708.503 45.8703 709.326C45.7811 709.796 45.7163 710.282 45.6514 710.769C45.6514 710.542 45.6514 710.339 45.6514 710.315C45.546 709.504 44.8894 708.061 44.0301 707.883C43.8839 707.858 43.7342 707.866 43.591 707.904C43.4477 707.942 43.3142 708.01 43.1992 708.103C43.0842 708.197 42.9904 708.313 42.924 708.446C42.8577 708.578 42.8202 708.724 42.8142 708.872C42.8272 709.184 42.9062 709.49 43.0459 709.769C43.1856 710.049 43.3829 710.295 43.6248 710.493C44.2223 710.887 44.8753 711.191 45.5622 711.393C45.5622 711.579 45.5136 711.766 45.4974 711.952C45.3839 712.844 45.2866 713.736 45.1569 714.603C45.1083 714.911 45.0596 715.211 45.0029 715.519C45.0029 715.316 45.0029 715.146 45.0029 715.122C44.8975 714.311 44.2328 712.868 43.3816 712.69C43.2358 712.668 43.087 712.677 42.9448 712.716C42.8026 712.755 42.6701 712.823 42.5557 712.916C42.4414 713.009 42.3476 713.125 42.2804 713.256C42.2133 713.388 42.1742 713.532 42.1656 713.679C42.1512 714.034 42.2225 714.387 42.3735 714.709C42.5244 715.031 42.7507 715.311 43.033 715.527Z" fill="#263238"/>
<path d="M32.9973 707.656C33.7318 707.652 34.4615 707.537 35.1617 707.315C35.3769 708.114 35.6477 708.897 35.9723 709.658C36.1588 710.104 36.3695 710.541 36.5803 710.987L36.3209 710.614C35.8021 710.006 34.4402 709.155 33.6215 709.504C33.4875 709.565 33.3678 709.654 33.2703 709.764C33.1727 709.875 33.0994 710.005 33.0551 710.145C33.0108 710.286 32.9965 710.434 33.013 710.58C33.0296 710.727 33.0767 710.868 33.1513 710.995C33.3388 711.256 33.5811 711.472 33.8612 711.629C34.1413 711.786 34.4524 711.88 34.7726 711.903C35.4872 711.907 36.1981 711.8 36.8803 711.587L37.1234 712.09C37.5288 712.9 37.9341 713.711 38.3151 714.522C38.4448 714.805 38.5664 715.089 38.688 715.332L38.461 715.008C37.9422 714.408 36.5803 713.557 35.7616 713.906C35.6276 713.967 35.5079 714.056 35.4104 714.166C35.3128 714.277 35.2395 714.406 35.1952 714.547C35.1509 714.688 35.1365 714.836 35.1531 714.982C35.1697 715.129 35.2168 715.27 35.2914 715.397C35.4789 715.658 35.7212 715.874 36.0013 716.031C36.2814 716.188 36.5925 716.281 36.9127 716.305C37.6084 716.313 38.3009 716.209 38.9636 715.997C39.0852 716.289 39.1987 716.581 39.296 716.873C39.3932 717.164 39.4338 717.254 39.4824 717.456L39.6526 718.056C39.7418 718.429 39.8391 718.867 39.9202 719.199C40.0012 719.531 40.0255 719.702 40.0742 719.953C39.9526 719.677 39.6851 719.142 39.6607 719.086C39.2392 718.413 38.0395 717.359 37.1559 717.578C37.0141 717.619 36.8825 717.69 36.7698 717.785C36.6571 717.88 36.5656 717.998 36.5014 718.131C36.4372 718.264 36.4017 718.409 36.3971 718.557C36.3925 718.705 36.4191 718.852 36.4749 718.988C36.6036 719.253 36.7872 719.488 37.0136 719.677C37.2401 719.866 37.5041 720.004 37.7882 720.083H40.6173C40.6135 720.023 40.6135 719.964 40.6173 719.904C40.7227 719.856 41.3063 719.621 41.8333 719.329C42.1455 719.627 42.4974 719.881 42.879 720.083H43.6896C43.7383 719.775 43.7869 719.394 43.7869 719.353C43.7774 718.655 43.5875 717.97 43.2357 717.367C43.2439 717.289 43.2439 717.21 43.2357 717.132C43.2169 716.985 43.1676 716.844 43.0908 716.718C43.014 716.592 42.9115 716.483 42.7899 716.399C42.6684 716.315 42.5305 716.257 42.3852 716.23C42.2399 716.203 42.0906 716.206 41.9468 716.24C41.0794 716.467 40.5362 717.975 40.4957 718.769C40.4957 718.818 40.4957 719.329 40.5525 719.653C40.5038 719.467 40.4633 719.28 40.4227 719.086L40.1228 717.926C40.058 717.732 40.0012 717.537 39.9445 717.335C39.8877 717.132 39.8067 716.937 39.7337 716.735C39.5635 716.273 39.3689 715.802 39.1582 715.34C39.8558 715.204 40.5266 714.955 41.1442 714.603C41.41 714.424 41.6344 714.191 41.8023 713.918C41.9701 713.645 42.0774 713.34 42.117 713.022C42.1209 712.874 42.0936 712.726 42.0366 712.589C41.9797 712.452 41.8945 712.329 41.7866 712.227C41.6788 712.125 41.5506 712.048 41.4106 711.999C41.2705 711.95 41.1218 711.931 40.974 711.944C40.0904 712.033 39.3527 713.444 39.1582 714.222C39.1582 714.27 39.1014 714.846 39.0771 715.162C38.9474 714.886 38.8258 714.603 38.688 714.351C38.2908 713.541 37.8773 712.73 37.4477 711.968C37.318 711.725 37.1883 711.482 37.0667 711.239C37.7871 711.088 38.481 710.831 39.1257 710.477C39.3919 710.299 39.6161 710.066 39.7828 709.793C39.9494 709.52 40.0544 709.214 40.0904 708.896C40.0974 708.748 40.0734 708.601 40.02 708.464C39.9666 708.326 39.8849 708.202 39.7802 708.098C39.6755 707.994 39.5502 707.913 39.4123 707.861C39.2744 707.808 39.1271 707.785 38.9798 707.793C38.0962 707.891 37.3585 709.301 37.1721 710.079C37.1721 710.136 37.0829 710.963 37.0748 711.166C36.7911 710.631 36.5236 710.096 36.2642 709.544C35.9217 708.831 35.6239 708.098 35.3725 707.348C36.0998 707.187 36.7973 706.914 37.4396 706.537C37.708 706.361 37.9344 706.128 38.1026 705.855C38.2707 705.582 38.3765 705.275 38.4124 704.956C38.4163 704.808 38.3889 704.66 38.332 704.524C38.2751 704.387 38.1899 704.263 38.082 704.161C37.9741 704.06 37.846 703.982 37.7059 703.933C37.5659 703.884 37.4171 703.865 37.2694 703.878C36.3858 703.975 35.6481 705.386 35.4535 706.164C35.4535 706.221 35.3644 707.112 35.3644 707.275L35.3157 707.137C35.098 706.362 34.9462 705.57 34.8618 704.77C34.8131 704.324 34.7969 703.902 34.7807 703.489C35.4996 703.415 36.2041 703.238 36.8721 702.962C37.1565 702.814 37.4054 702.607 37.6014 702.353C37.7974 702.1 37.9358 701.807 38.007 701.495C38.0276 701.348 38.017 701.198 37.9759 701.056C37.9348 700.914 37.8641 700.782 37.7685 700.668C37.6729 700.555 37.5545 700.463 37.421 700.399C37.2875 700.335 37.1419 700.299 36.9937 700.295C36.102 700.295 35.186 701.608 34.9347 702.37L34.7726 703.181C34.7726 702.994 34.7726 702.8 34.7726 702.621C34.7726 701.949 34.8212 701.333 34.8618 700.789C34.8618 700.481 34.9185 700.198 34.9509 699.938C35.5579 699.544 36.1041 699.063 36.5722 698.512C36.7563 698.25 36.8808 697.951 36.9368 697.636C36.9928 697.32 36.9791 696.997 36.8965 696.688C36.8475 696.548 36.7694 696.42 36.6673 696.312C36.5653 696.205 36.4415 696.121 36.3043 696.065C36.1671 696.009 36.0196 695.983 35.8715 695.988C35.7234 695.993 35.5782 696.03 35.4454 696.096C34.6348 696.501 34.4483 698.098 34.578 698.876C34.578 698.949 34.8942 699.987 34.9023 699.979C34.9023 700.23 34.8374 700.506 34.805 700.789C34.7483 701.333 34.6915 701.957 34.6753 702.63C34.6509 703.357 34.6698 704.085 34.7321 704.81C34.7909 705.632 34.9266 706.446 35.1374 707.242L34.5456 706.375C34.0268 705.775 32.6649 704.924 31.8462 705.264C31.7119 705.326 31.5921 705.416 31.4945 705.527C31.3969 705.638 31.3236 705.769 31.2793 705.91C31.2351 706.051 31.2208 706.2 31.2375 706.347C31.2541 706.494 31.3013 706.636 31.376 706.764C31.5651 707.021 31.8082 707.235 32.0882 707.389C32.3682 707.543 32.6785 707.634 32.9973 707.656Z" fill="#263238"/>
<path d="M48.2618 703.473C48.2618 703.473 48.5455 702.435 48.5617 702.37C48.6671 701.56 48.4158 699.995 47.6133 699.606C47.4783 699.546 47.3324 699.516 47.1849 699.516C47.0374 699.516 46.8915 699.546 46.7565 699.606C46.6215 699.665 46.5004 699.752 46.4009 699.861C46.3013 699.97 46.2256 700.099 46.1785 700.238C46.1068 700.551 46.1037 700.875 46.1695 701.188C46.2353 701.502 46.3683 701.797 46.5595 702.054C47.055 702.607 47.6285 703.085 48.2618 703.473Z" fill="#263238"/>
<path d="M456.362 703.132C457.082 703.32 457.824 703.402 458.567 703.375C458.567 703.375 458.227 702.354 458.203 702.289C457.854 701.576 456.768 700.384 455.892 700.506C455.75 700.535 455.615 700.593 455.496 700.677C455.377 700.76 455.276 700.867 455.2 700.991C455.124 701.115 455.075 701.253 455.054 701.397C455.034 701.541 455.043 701.687 455.082 701.827C455.191 702.123 455.362 702.392 455.583 702.617C455.803 702.841 456.069 703.017 456.362 703.132Z" fill="#263238"/>
<path d="M471.732 719.677C471.797 719.544 471.833 719.399 471.838 719.251C471.844 719.104 471.818 718.956 471.763 718.819C471.708 718.681 471.625 718.557 471.519 718.454C471.413 718.35 471.287 718.27 471.148 718.218C470.338 717.935 469.016 718.899 468.546 719.54C468.546 719.54 468.368 719.831 468.222 720.083H471.464C471.578 719.965 471.668 719.828 471.732 719.677Z" fill="#263238"/>
<path d="M466.949 715.527C467.527 715.915 468.162 716.21 468.83 716.403C468.757 716.711 468.7 717.019 468.619 717.31C468.538 717.602 468.522 717.708 468.457 717.902C468.392 718.097 468.327 718.299 468.263 718.486C468.133 718.859 467.995 719.24 467.857 719.588L467.663 720.083H468.182L468.303 719.759C468.441 719.394 468.563 719.021 468.7 718.624C468.757 718.429 468.814 718.235 468.879 718.032C468.944 717.829 468.976 717.627 469.033 717.416C469.146 716.938 469.243 716.443 469.325 715.94C469.984 716.207 470.682 716.368 471.392 716.419C471.714 716.414 472.031 716.339 472.321 716.199C472.61 716.059 472.866 715.858 473.07 715.608C473.154 715.486 473.212 715.348 473.24 715.203C473.267 715.057 473.264 714.907 473.231 714.763C473.197 714.619 473.134 714.483 473.045 714.365C472.955 714.246 472.842 714.148 472.713 714.076C471.902 713.671 470.5 714.425 469.941 714.984C469.941 714.984 469.543 715.47 469.357 715.713C469.397 715.414 469.446 715.114 469.487 714.814C469.6 713.93 469.681 713.03 469.77 712.139C469.77 711.863 469.827 711.587 469.851 711.328C470.536 711.599 471.257 711.766 471.992 711.822C472.313 711.818 472.631 711.743 472.92 711.603C473.21 711.463 473.466 711.261 473.67 711.012C473.754 710.891 473.812 710.753 473.839 710.608C473.867 710.463 473.864 710.314 473.83 710.17C473.797 710.027 473.733 709.892 473.644 709.774C473.555 709.657 473.442 709.559 473.313 709.488C472.502 709.082 471.1 709.828 470.54 710.396C470.54 710.436 469.981 711.077 469.86 711.247C469.924 710.647 469.989 710.047 470.078 709.463C470.202 708.67 470.375 707.885 470.597 707.113C471.285 707.385 472.008 707.555 472.745 707.615C473.067 707.611 473.384 707.536 473.674 707.396C473.964 707.256 474.22 707.054 474.423 706.805C474.508 706.683 474.565 706.546 474.593 706.401C474.621 706.256 474.618 706.107 474.584 705.963C474.55 705.82 474.487 705.685 474.398 705.567C474.309 705.449 474.196 705.352 474.067 705.281C473.256 704.867 471.854 705.621 471.294 706.18C471.246 706.229 470.695 706.918 470.605 707.056C470.601 707.01 470.601 706.964 470.605 706.918C470.849 706.149 471.161 705.403 471.538 704.689C471.74 704.3 471.959 703.927 472.178 703.578C472.814 703.916 473.497 704.157 474.205 704.292C474.524 704.326 474.847 704.29 475.151 704.187C475.455 704.083 475.732 703.914 475.964 703.692C476.061 703.58 476.134 703.45 476.178 703.309C476.221 703.168 476.235 703.019 476.217 702.872C476.2 702.725 476.152 702.584 476.076 702.457C476 702.33 475.898 702.22 475.777 702.135C475.04 701.641 473.548 702.233 472.924 702.735C472.924 702.735 472.575 703.067 472.348 703.303L472.648 702.832C473.021 702.265 473.402 701.779 473.734 701.349L474.278 700.684C474.997 700.693 475.713 700.592 476.401 700.384C476.699 700.267 476.967 700.086 477.188 699.855C477.409 699.624 477.578 699.349 477.682 699.047C477.719 698.903 477.725 698.754 477.7 698.608C477.675 698.463 477.619 698.324 477.536 698.201C477.453 698.079 477.346 697.975 477.22 697.897C477.094 697.819 476.953 697.769 476.807 697.75C475.915 697.652 474.869 698.86 474.545 699.59C474.545 699.655 474.188 700.684 474.205 700.684C474.034 700.871 473.856 701.081 473.67 701.308C473.321 701.738 472.932 702.216 472.543 702.776C472.125 703.371 471.738 703.988 471.384 704.624C470.991 705.338 470.66 706.083 470.395 706.853C470.395 706.594 470.395 705.864 470.395 705.807C470.297 704.997 469.633 703.554 468.773 703.376C468.627 703.353 468.478 703.361 468.335 703.399C468.193 703.438 468.06 703.506 467.945 703.599C467.83 703.692 467.736 703.809 467.67 703.941C467.603 704.072 467.565 704.217 467.557 704.365C467.571 704.676 467.651 704.982 467.79 705.261C467.93 705.541 468.127 705.787 468.368 705.986C468.986 706.388 469.661 706.694 470.37 706.894C470.12 707.691 469.923 708.503 469.778 709.326C469.697 709.796 469.624 710.282 469.56 710.769C469.56 710.542 469.56 710.339 469.56 710.315C469.454 709.504 468.798 708.061 467.938 707.883C467.792 707.858 467.642 707.866 467.499 707.904C467.356 707.942 467.222 708.01 467.107 708.103C466.992 708.197 466.899 708.313 466.832 708.446C466.766 708.578 466.728 708.724 466.722 708.872C466.732 709.185 466.809 709.492 466.949 709.772C467.089 710.052 467.288 710.298 467.533 710.493C468.129 710.89 468.782 711.194 469.47 711.393L469.398 711.952C469.292 712.844 469.187 713.736 469.065 714.603C469.016 714.911 468.96 715.211 468.911 715.519C468.911 715.316 468.911 715.146 468.911 715.122C468.814 714.311 468.149 712.868 467.29 712.69C467.144 712.667 466.995 712.675 466.852 712.713C466.709 712.752 466.576 712.82 466.461 712.913C466.347 713.007 466.253 713.123 466.186 713.255C466.119 713.387 466.081 713.531 466.074 713.679C466.06 714.035 466.133 714.388 466.285 714.71C466.438 715.032 466.666 715.312 466.949 715.527Z" fill="#263238"/>
<path d="M456.897 707.656C457.634 707.652 458.367 707.537 459.07 707.315C459.288 708.113 459.559 708.896 459.88 709.658C460.075 710.104 460.278 710.541 460.497 710.987L460.237 710.614C459.71 710.006 458.356 709.155 457.538 709.504C457.404 709.565 457.284 709.654 457.186 709.764C457.089 709.875 457.016 710.005 456.971 710.145C456.927 710.286 456.913 710.434 456.929 710.581C456.946 710.727 456.993 710.868 457.068 710.995C457.254 711.257 457.496 711.474 457.777 711.631C458.057 711.788 458.368 711.881 458.689 711.903C459.403 711.908 460.114 711.801 460.796 711.587C460.886 711.749 460.967 711.92 461.048 712.09C461.453 712.9 461.858 713.711 462.231 714.522C462.369 714.805 462.483 715.089 462.604 715.332L462.377 715.008C461.858 714.408 460.505 713.557 459.678 713.906C459.544 713.968 459.426 714.057 459.329 714.168C459.232 714.279 459.16 714.409 459.116 714.549C459.073 714.69 459.059 714.838 459.076 714.984C459.093 715.13 459.141 715.271 459.216 715.397C459.402 715.659 459.645 715.876 459.925 716.033C460.205 716.189 460.517 716.283 460.837 716.305C461.533 716.313 462.225 716.209 462.888 715.997C463.001 716.289 463.123 716.581 463.22 716.873C463.318 717.164 463.358 717.254 463.407 717.456L463.577 718.056C463.666 718.429 463.763 718.867 463.844 719.199C463.926 719.531 463.95 719.702 463.999 719.953C463.869 719.677 463.609 719.142 463.577 719.086C463.155 718.413 461.956 717.359 461.08 717.578C460.938 717.618 460.805 717.688 460.692 717.783C460.578 717.878 460.486 717.996 460.421 718.129C460.356 718.262 460.319 718.408 460.314 718.556C460.309 718.704 460.335 718.851 460.391 718.988C460.522 719.253 460.708 719.488 460.935 719.676C461.163 719.865 461.428 720.003 461.712 720.083H464.566C464.556 720.022 464.543 719.963 464.525 719.904C464.631 719.856 465.223 719.621 465.75 719.329C466.062 719.627 466.414 719.881 466.795 720.083H467.606C467.606 719.775 467.703 719.394 467.703 719.353C467.69 718.655 467.501 717.972 467.152 717.367C467.16 717.289 467.16 717.21 467.152 717.132C467.134 716.985 467.086 716.843 467.009 716.716C466.933 716.589 466.83 716.48 466.708 716.396C466.587 716.311 466.448 716.254 466.302 716.227C466.157 716.2 466.007 716.205 465.863 716.24C465.004 716.467 464.461 717.975 464.42 718.769C464.42 718.818 464.42 719.329 464.469 719.653C464.428 719.467 464.388 719.28 464.339 719.086C464.25 718.713 464.153 718.332 464.039 717.926C463.982 717.732 463.926 717.537 463.861 717.335C463.796 717.132 463.723 716.937 463.658 716.735C463.488 716.273 463.293 715.803 463.082 715.34C463.78 715.203 464.45 714.954 465.069 714.603C465.334 714.425 465.558 714.192 465.725 713.919C465.891 713.646 465.997 713.34 466.033 713.022C466.038 712.874 466.012 712.727 465.956 712.59C465.9 712.453 465.816 712.33 465.708 712.228C465.601 712.126 465.473 712.048 465.334 711.999C465.194 711.95 465.046 711.931 464.898 711.944C464.015 712.033 463.277 713.444 463.082 714.222C463.082 714.27 463.018 714.846 463.001 715.162C462.872 714.887 462.75 714.603 462.612 714.352C462.215 713.541 461.802 712.73 461.364 711.968C461.242 711.725 461.113 711.482 460.983 711.239C461.704 711.091 462.398 710.834 463.042 710.477C463.309 710.3 463.534 710.067 463.701 709.794C463.868 709.521 463.972 709.214 464.007 708.896C464.012 708.748 463.985 708.601 463.929 708.464C463.873 708.327 463.789 708.203 463.682 708.101C463.574 708 463.447 707.922 463.307 707.873C463.168 707.824 463.019 707.805 462.872 707.818C461.988 707.915 461.25 709.326 461.056 710.104C461.056 710.16 460.975 710.987 460.967 711.19C460.683 710.655 460.407 710.12 460.156 709.569C459.817 708.841 459.527 708.09 459.289 707.323C460.003 707.168 460.69 706.902 461.323 706.537C461.591 706.361 461.816 706.128 461.983 705.854C462.149 705.581 462.254 705.274 462.288 704.956C462.293 704.808 462.267 704.661 462.211 704.524C462.155 704.387 462.07 704.264 461.963 704.162C461.856 704.06 461.728 703.982 461.589 703.933C461.449 703.884 461.301 703.865 461.153 703.878C460.27 703.975 459.532 705.386 459.337 706.164C459.337 706.221 459.248 707.112 459.24 707.275C459.24 707.226 459.24 707.185 459.2 707.137C458.978 706.363 458.826 705.571 458.746 704.77C458.697 704.324 458.673 703.902 458.664 703.489C459.383 703.414 460.088 703.237 460.756 702.962C461.039 702.813 461.287 702.605 461.483 702.352C461.679 702.099 461.818 701.806 461.891 701.495C461.91 701.348 461.899 701.199 461.857 701.057C461.815 700.916 461.745 700.784 461.649 700.671C461.554 700.558 461.436 700.466 461.303 700.402C461.17 700.337 461.025 700.301 460.878 700.295C459.986 700.295 459.062 701.608 458.818 702.37L458.656 703.181C458.656 702.994 458.656 702.8 458.656 702.622C458.656 701.949 458.656 701.333 458.746 700.789C458.746 700.481 458.802 700.198 458.827 699.938C459.437 699.549 459.984 699.067 460.448 698.512C460.633 698.25 460.759 697.952 460.817 697.637C460.874 697.321 460.862 696.997 460.78 696.688C460.73 696.549 460.652 696.422 460.549 696.315C460.447 696.208 460.323 696.124 460.187 696.068C460.05 696.013 459.903 695.986 459.755 695.991C459.607 695.996 459.462 696.031 459.329 696.096C458.519 696.501 458.332 698.098 458.462 698.876C458.462 698.949 458.77 699.987 458.786 699.979C458.786 700.23 458.713 700.506 458.681 700.789C458.632 701.333 458.575 701.957 458.559 702.63C458.536 703.357 458.552 704.085 458.608 704.81C458.675 705.631 458.81 706.444 459.013 707.242C458.875 707.023 458.462 706.432 458.429 706.375C457.902 705.775 456.549 704.924 455.73 705.264C455.596 705.326 455.476 705.416 455.378 705.527C455.281 705.638 455.207 705.769 455.163 705.91C455.119 706.051 455.105 706.2 455.121 706.347C455.138 706.494 455.185 706.636 455.26 706.764C455.45 707.024 455.695 707.239 455.978 707.394C456.262 707.548 456.575 707.637 456.897 707.656Z" fill="#263238"/>
<path d="M472.17 703.473C472.17 703.473 472.453 702.435 472.462 702.37C472.575 701.56 472.324 699.995 471.521 699.606C471.386 699.546 471.24 699.516 471.093 699.516C470.945 699.516 470.799 699.546 470.664 699.606C470.529 699.665 470.408 699.752 470.309 699.861C470.209 699.97 470.134 700.099 470.086 700.238C470.015 700.551 470.012 700.875 470.077 701.188C470.143 701.502 470.276 701.797 470.467 702.054C470.963 702.607 471.536 703.085 472.17 703.473Z" fill="#263238"/>
<path d="M24.6962 504.898C24.6962 504.898 60.9561 508.481 79.3252 530.96C79.3252 530.96 98.7401 504.923 133.638 505.458C142.16 495.178 147.587 482.69 149.286 469.446C150.985 456.202 148.887 442.748 143.236 430.65C137.585 418.552 128.613 408.309 117.366 401.112C106.119 393.916 93.0591 390.062 79.7068 390.001C66.3545 389.939 53.2594 393.672 41.9464 400.764C30.6333 407.857 21.5678 418.017 15.8054 430.062C10.043 442.107 7.82089 455.541 9.39778 468.8C10.9747 482.059 16.2857 494.597 24.7124 504.955L24.6962 504.898Z" fill="#FF9800"/>
<path opacity="0.4" d="M24.6962 504.898C24.6962 504.898 60.9561 508.481 79.3252 530.96C79.3252 530.96 98.7401 504.923 133.638 505.458C142.16 495.178 147.587 482.69 149.286 469.446C150.985 456.202 148.887 442.748 143.236 430.65C137.585 418.552 128.613 408.309 117.366 401.112C106.119 393.916 93.0591 390.062 79.7068 390.001C66.3545 389.939 53.2594 393.672 41.9464 400.764C30.6333 407.857 21.5678 418.017 15.8054 430.062C10.043 442.107 7.82089 455.541 9.39778 468.8C10.9747 482.059 16.2857 494.597 24.7124 504.955L24.6962 504.898Z" fill="white"/>
<path d="M114.24 464.156C114.24 464.156 92.5632 469.295 80.5981 486.724L79.9172 461.375L79.9658 461.707C79.9658 461.707 92.2065 439.682 114.24 432.946C114.24 432.946 91.5418 438.329 79.7956 456.746L78.1257 422.618L77.615 471.532C66.0877 454.015 45.084 448.835 45.084 448.835C63.6395 454.712 74.9885 472.238 77.5825 476.599L77.4123 501.81C65.8445 484.535 45.084 479.436 45.084 479.436C63.1937 485.167 74.4454 502.004 77.3799 506.86L76.9016 720.496H83.0219L81.5385 521.573C85.4863 515.599 96.7866 500.675 114.24 495.341C114.24 495.341 93.5116 500.262 81.4088 516.774L80.7359 491.644C83.711 486.854 95.3842 469.895 114.24 464.156Z" fill="#263238"/>
<path d="M114.24 464.156C114.24 464.156 92.5632 469.295 80.5981 486.724L79.9172 461.375L79.9658 461.707C79.9658 461.707 92.2065 439.682 114.24 432.946C114.24 432.946 91.5418 438.329 79.7956 456.746L78.1257 422.618L77.615 471.532C66.0877 454.015 45.084 448.835 45.084 448.835C63.6395 454.712 74.9885 472.238 77.5825 476.599L77.4123 501.81C65.8445 484.535 45.084 479.436 45.084 479.436C63.1937 485.167 74.4454 502.004 77.3799 506.86L76.9016 720.496H83.0219L81.5385 521.573C85.4863 515.599 96.7866 500.675 114.24 495.341C114.24 495.341 93.5116 500.262 81.4088 516.774L80.7359 491.644C83.711 486.854 95.3842 469.895 114.24 464.156Z" fill="#263238"/>
<path d="M-3.06811 621.136C-3.06811 621.136 26.4878 624.062 41.5171 642.391C41.5171 642.391 57.3489 621.16 85.7781 621.598C92.7234 613.217 97.1452 603.036 98.5289 592.239C99.9125 581.443 98.201 570.475 93.5936 560.614C88.9863 550.752 81.6725 542.402 72.5039 536.536C63.3352 530.67 52.6889 527.528 41.8043 527.478C30.9196 527.427 20.2445 530.469 11.0217 536.25C1.79881 542.031 -5.59234 550.312 -10.2913 560.13C-14.9903 569.949 -16.8038 580.9 -15.5208 591.708C-14.2377 602.517 -9.91077 612.739 -3.04379 621.185L-3.06811 621.136Z" fill="#FF9800"/>
<path opacity="0.4" d="M-3.06811 621.136C-3.06811 621.136 26.4878 624.062 41.5171 642.391C41.5171 642.391 57.3489 621.16 85.7781 621.598C92.7234 613.217 97.1452 603.036 98.5289 592.239C99.9125 581.443 98.201 570.475 93.5936 560.614C88.9863 550.752 81.6725 542.402 72.5039 536.536C63.3352 530.67 52.6889 527.528 41.8043 527.478C30.9196 527.427 20.2445 530.469 11.0217 536.25C1.79881 542.031 -5.59234 550.312 -10.2913 560.13C-14.9903 569.949 -16.8038 580.9 -15.5208 591.708C-14.2377 602.517 -9.91077 612.739 -3.04379 621.185L-3.06811 621.136Z" fill="white"/>
<path d="M13.55 600.343C28.3199 605.02 37.4883 618.745 39.8796 622.709L39.6689 720.383H43.9166L43.2762 634.739C46.5188 629.875 55.7114 617.715 69.9382 613.354C69.9382 613.354 53.0363 617.358 43.1871 630.823L42.6358 610.314C45.0677 606.415 54.5847 592.601 69.9544 587.9C69.9544 587.9 52.2824 592.091 42.5304 606.301L41.9711 585.63V585.906C41.9711 585.906 51.9501 567.917 69.9382 562.454C69.9382 562.454 51.4394 566.847 41.8495 581.86L40.4957 554.039L40.0742 593.915C30.6789 579.631 13.55 575.424 13.55 575.424C28.6766 580.215 37.9341 594.506 40.0499 598.065L39.9121 618.623C30.4762 604.542 13.55 600.343 13.55 600.343Z" fill="#263238"/>
<path d="M13.55 600.343C28.3199 605.02 37.4883 618.745 39.8796 622.709L39.6689 720.383H43.9166L43.2762 634.739C46.5188 629.875 55.7114 617.715 69.9382 613.354C69.9382 613.354 53.0363 617.358 43.1871 630.823L42.6358 610.314C45.0677 606.415 54.5847 592.601 69.9544 587.9C69.9544 587.9 52.2824 592.091 42.5304 606.301L41.9711 585.63V585.906C41.9711 585.906 51.9501 567.917 69.9382 562.454C69.9382 562.454 51.4394 566.847 41.8495 581.86L40.4957 554.039L40.0742 593.915C30.6789 579.631 13.55 575.424 13.55 575.424C28.6766 580.215 37.9341 594.506 40.0499 598.065L39.9121 618.623C30.4762 604.542 13.55 600.343 13.55 600.343Z" fill="#263238"/>
<path d="M422.704 621.136C422.704 621.136 452.268 624.062 467.249 642.391C467.249 642.391 483.081 621.16 511.51 621.598C518.46 613.217 522.885 603.034 524.272 592.235C525.658 581.436 523.948 570.465 519.341 560.6C514.733 550.735 507.419 542.382 498.248 536.514C489.077 530.645 478.428 527.503 467.54 527.452C456.653 527.401 445.975 530.445 436.75 536.227C427.525 542.01 420.133 550.295 415.434 560.116C410.735 569.938 408.923 580.892 410.209 591.704C411.494 602.515 415.825 612.739 422.696 621.185L422.704 621.136Z" fill="#FF9800"/>
<path opacity="0.4" d="M422.704 621.136C422.704 621.136 452.268 624.062 467.249 642.391C467.249 642.391 483.081 621.16 511.51 621.598C518.46 613.217 522.885 603.034 524.272 592.235C525.658 581.436 523.948 570.465 519.341 560.6C514.733 550.735 507.419 542.382 498.248 536.514C489.077 530.645 478.428 527.503 467.54 527.452C456.653 527.401 445.975 530.445 436.75 536.227C427.525 542.01 420.133 550.295 415.434 560.116C410.735 569.938 408.923 580.892 410.209 591.704C411.494 602.515 415.825 612.739 422.696 621.185L422.704 621.136Z" fill="white"/>
<path d="M439.331 600.343C454.092 605.02 463.269 618.745 465.66 622.709L465.441 720.383H469.689L469.057 634.706C472.299 629.842 481.484 617.683 495.711 613.321C495.711 613.321 478.817 617.326 468.959 630.791L468.4 610.281C470.832 606.382 480.349 592.569 495.719 587.867C495.719 587.867 478.047 592.058 468.295 606.269L467.735 585.597L467.776 585.873C467.776 585.873 477.755 567.909 495.719 562.421C495.719 562.421 477.228 566.815 467.638 581.828L466.284 554.007L465.863 593.882C456.459 579.599 439.339 575.392 439.339 575.392C454.465 580.182 463.723 594.474 465.83 598.033L465.693 618.591C456.257 604.542 439.331 600.343 439.331 600.343Z" fill="#263238"/>
<path d="M439.331 600.343C454.092 605.02 463.269 618.745 465.66 622.709L465.441 720.383H469.689L469.057 634.706C472.299 629.842 481.484 617.683 495.711 613.321C495.711 613.321 478.817 617.326 468.959 630.791L468.4 610.281C470.832 606.382 480.349 592.569 495.719 587.867C495.719 587.867 478.047 592.058 468.295 606.269L467.735 585.597L467.776 585.873C467.776 585.873 477.755 567.909 495.719 562.421C495.719 562.421 477.228 566.815 467.638 581.828L466.284 554.007L465.863 593.882C456.459 579.599 439.339 575.392 439.339 575.392C454.465 580.182 463.723 594.474 465.83 598.033L465.693 618.591C456.257 604.542 439.331 600.343 439.331 600.343Z" fill="#263238"/>
<path d="M539.947 720.496H546.246" stroke="#263238" stroke-linecap="round" stroke-linejoin="round"/>
<path d="M1.72266 720.496H531.273" stroke="#263238" stroke-linecap="round" stroke-linejoin="round"/>
<rect x="70" y="93" width="427" height="506" rx="30" fill="#FDCB81"/>
<line x1="90" y1="346.5" x2="477" y2="346.5" stroke="#1E1E1E" stroke-opacity="0.1"/>
</g>
<path fill-rule="evenodd" clip-rule="evenodd" d="M237.205 459.723C180.843 463.587 120.597 417.709 120.597 361.874C120.597 306.037 209.932 329.833 238.911 285.518C308.345 179.41 448.521 350.156 399.242 369.213C300.501 407.37 372.405 450.445 237.205 459.723Z" fill="#202020"/>
<path d="M391.208 359.629C391.238 359.778 391.314 359.917 391.346 360.066C391.595 361.462 391.754 362.41 391.589 363.63C391.195 366.236 389.386 368.761 390.432 372.062C391.558 376.74 397.248 379.584 398.778 374.947C399.656 371.884 398.162 368.156 396.491 364.773C395.56 362.959 394.489 361.222 393.287 359.578C394.603 359.491 395.898 359.2 397.125 358.714C397.384 358.611 397.595 358.518 397.854 358.414C397.928 358.451 398.048 358.478 398.122 358.516C400.378 357.552 402.228 356.618 404.523 356.008C408.47 354.865 413.469 353.719 413.842 349.466C413.882 348.116 412.654 346.761 411.369 345.776C409.634 344.604 407.515 344.155 405.458 344.524C401.913 344.969 399.466 347.105 398.141 349.741C397.324 351.399 396.948 353.279 396.692 355.187C396.636 356.127 396.415 357.151 396.647 358.137C395.142 358.745 393.477 358.972 391.709 359.013C391.623 358.99 391.532 358.99 391.446 359.013C390.814 359.028 390.181 358.999 389.553 358.924C389.408 356.012 390.588 353.302 391.62 350.517C391.957 349.419 392.415 348.348 392.532 347.138C393.44 347.416 394.379 347.576 395.327 347.616C397.077 347.733 398.566 346.715 397.899 345.042C396.706 342.802 392.571 341.713 390.329 341.28C388.419 340.987 386.48 340.938 384.559 341.134C384.294 341.143 384.031 341.178 383.774 341.238C384.9 340.138 385.979 339.047 387.033 337.909C387.974 336.949 388.863 335.896 389.778 334.889C392.77 335.534 395.494 337.212 398.266 338.881C401.631 341.051 405.149 343.398 408.596 342.302C411.495 341.263 411.342 337.578 408.045 335.343C404.701 333.117 400.69 332.158 397.142 331.932C395.7 331.838 394.253 331.867 392.816 332.016C392.674 332.044 392.506 332.026 392.316 332.064L394.789 329.406C396.187 327.943 397.611 326.525 399.009 325.061C399.178 325.08 399.393 325.089 399.609 325.097C400.523 325.226 400.907 325.253 401.847 325.428C404.188 325.944 406.563 326.711 408.9 327.124C411.14 327.499 413.418 327.585 415.679 327.38C417.322 327.208 419.06 327.019 420.419 326.337C422.878 325.075 423.118 322.19 419.613 320.151C416.551 318.557 413.082 317.932 409.661 318.358C408.76 318.536 407.686 318.594 406.888 318.958L406.216 318.318L406.311 318.299C408.252 317.243 410.396 316.457 412.587 315.661C415.464 314.677 418.535 313.759 421.649 312.729C422.947 313.452 424.072 314.054 425.408 315.131C428.994 317.98 431.552 322.581 435.038 325.914C437.43 328.225 443.697 332.297 446.712 331.751C452.932 330.621 441.105 321.667 438.29 319.542C435.058 317.14 431.579 315.146 428.061 313.367C426.897 312.767 425.692 312.247 424.457 311.812C428.585 310.426 432.661 308.947 436.44 307.217C437.122 306.927 437.778 306.591 438.386 306.264L438.459 306.301C438.92 306.468 439.455 306.671 439.942 306.884C440.718 307.143 442.309 308.014 442.628 308.209C448.831 311.88 452.707 318.283 459.449 321.693C462.286 323.194 465.864 324.135 468.129 322.809C471.87 319.592 463.586 313.598 459.776 311.103C456.168 308.878 452.257 307.435 448.365 306.401C446.415 305.854 444.423 305.472 442.41 305.26C441.782 305.179 441.149 305.149 440.517 305.171C445.193 302.703 449.563 299.689 453.538 296.192C453.732 296.256 453.948 296.265 454.142 296.33C455.257 296.647 456.351 297.033 457.418 297.486C460.169 298.643 462.255 299.931 464.745 301.76C467.827 303.986 470.926 306.622 474.599 307.545C475.875 307.756 477.342 307.93 478.2 307.295C478.938 306.633 479.103 305.414 478.34 304.327C477.289 302.626 475.419 301.345 473.647 300.15C472.033 299.061 470.346 298.085 468.599 297.229C466.48 296.152 464.257 295.297 461.964 294.676C460.133 294.154 458.271 293.748 456.389 293.459C457.076 292.704 457.762 291.949 458.422 291.147L458.47 291.138C461.321 289.541 464.668 288.361 466.572 285.817C467.34 284.736 468.01 283.571 467.924 282.092C467.956 279.97 464.913 278.097 462.727 277.86C460.442 277.538 458.893 278.827 458.339 280.484C457.756 282.561 458.284 284.932 458.136 287.128C458.103 288.163 457.97 289.191 457.737 290.2C457.716 290.248 457.706 290.301 457.708 290.355C457.71 290.408 457.725 290.46 457.75 290.507C456.952 291.439 456.153 292.371 455.26 293.322C454.605 294.012 453.914 294.666 453.189 295.281C453.586 293.912 453.449 292.34 452.644 290.798C452.145 289.71 450.916 288.922 449.705 288.543C446.971 287.795 446.215 289.751 447.331 291.851C448.166 293.543 449.997 295.605 449.927 296.806C449.941 297.135 449.93 297.465 449.897 297.793C449.865 297.848 449.848 297.91 449.846 297.973C449.845 298.036 449.859 298.099 449.888 298.155C447.95 299.687 445.915 301.09 443.796 302.356C444.564 300.707 445.135 298.891 444.619 296.827C444.159 294.958 442.259 292.961 440.016 293.096C437.916 293.203 436.505 294.36 435.361 295.618C433.044 297.987 432.656 301.933 431.771 304.791C431.373 306.16 430.708 307.427 430.018 308.647C429.954 308.815 429.698 309.02 429.732 309.271C424.315 311.274 418.763 312.942 413.1 314.787C410.672 315.63 408.269 316.519 406.069 317.678C407.027 316.559 407.938 315.45 408.823 314.294C409.952 314.431 410.974 314.28 411.622 313.739C412.338 313.133 412.024 311.905 411.106 311.107C411.577 310.343 412.095 309.57 412.54 308.759C415.014 310.178 417.398 311.149 419.279 310.364C420.871 309.532 419.652 307.246 417.979 306.133C417.274 305.648 416.529 305.226 415.751 304.872C416.573 304.248 417.446 303.695 418.361 303.221C422.433 301.072 427.286 299.853 430.781 297.043C432.541 295.662 434.513 294.188 434.993 291.925C435.149 291.069 435.201 290.027 434.447 289.145C431.582 286.359 427.686 288.164 425.482 289.22C423.586 290.167 421.965 291.59 420.775 293.352C419.6 295.029 418.845 296.985 417.942 298.866C417.558 299.643 417.135 300.398 416.672 301.13C416.785 300.953 416.871 300.73 416.983 300.552C417.817 298.736 418.504 296.846 419.191 294.956C419.286 294.937 419.307 294.881 419.402 294.862C419.441 294.836 419.473 294.802 419.496 294.761C419.519 294.721 419.533 294.676 419.536 294.629C419.523 294.526 419.486 294.427 419.429 294.341C419.45 294.285 419.471 294.229 419.519 294.22C419.585 294.234 419.653 294.225 419.713 294.194C419.772 294.163 419.82 294.113 419.847 294.052C421.083 290.969 424.946 285.508 421.935 281.514C421.528 281.142 421 280.935 420.451 280.931C419.016 280.906 418.269 281.931 417.807 282.899C416.761 285.377 416.69 288.28 417.413 291.284C417.6 292.127 417.834 292.959 418.114 293.776C418.217 293.962 418.226 294.167 418.376 294.343C417.906 294.54 417.462 294.783 416.992 294.979C416.534 293.511 416.207 292.004 416.016 290.478C415.742 288.468 415.442 285.277 413.08 283.682C412.717 283.475 412.29 283.416 411.885 283.516C411.481 283.615 411.129 283.867 410.902 284.218C409.909 285.653 410.378 287.727 411.101 289.596C411.74 291.22 412.592 292.752 413.633 294.15C414.066 294.751 414.554 295.311 415.089 295.821L415.115 295.868C414.391 296.27 413.667 296.671 413.014 297.11C410.546 298.734 408.454 300.749 406.382 302.707C406.175 302.903 405.99 303.043 405.783 303.239C405.502 302.83 405.27 302.412 405.037 301.993C404.282 300.626 403.632 299.203 403.091 297.736C402.154 295.291 400.836 291.218 397.689 289.159C396.681 288.482 395.568 288.754 395.141 289.407C394.445 290.525 395.16 292.189 395.72 293.574C396.727 295.954 398.33 298.267 400.118 300.441C401.173 301.676 402.203 302.865 403.375 304.025C403.647 304.23 403.875 304.546 404.168 304.694C402.788 305.999 401.359 307.314 399.931 308.629C398.653 306.046 397.838 303.73 396.818 301.043C395.833 298.608 394.816 296.024 392.649 293.925C390.887 292.366 388.915 292.705 388.406 294.25C387.459 296.811 388.651 300.186 390.254 303.066C391.302 304.822 392.558 306.444 393.993 307.897C394.851 308.781 395.756 309.618 396.704 310.403C396.95 310.561 397.174 310.774 397.419 310.932C396.75 311.529 396.06 312.182 395.391 312.779L393.385 314.57C393.337 314.579 393.29 314.588 393.316 314.634C393.268 314.643 393.294 314.69 393.294 314.69C392.785 315.1 392.254 315.567 391.745 315.977L391.698 315.986C389.988 312.249 387.943 308.476 384.836 305.068C383.405 303.443 381.807 301.799 379.845 300.64C377.664 299.37 374.319 298.28 374.015 300.765C373.901 303.212 375.74 305.478 377.973 307.409C376.482 306.621 374.882 306.113 373.373 306.051C372.476 306.005 371.597 306.306 370.914 306.892C370.231 307.478 369.797 308.306 369.701 309.204C369.56 312.74 373.15 316.259 375.696 319.417C377.079 321.052 378.35 322.864 378.34 324.362C378.319 324.832 378.242 325.297 378.111 325.749C378.047 325.916 377.908 326.047 378.011 326.233C378.04 326.294 378.082 326.348 378.133 326.391C378.185 326.434 378.245 326.466 378.31 326.483C378.192 326.598 378.085 326.722 377.99 326.856C377.05 327.249 376.26 327.818 376.134 328.823C376.146 328.93 376.134 329.038 376.1 329.14C376.046 329.249 375.978 329.349 375.897 329.438C375.458 330.046 375.054 330.677 374.684 331.33C374.867 328.817 375.144 326.286 374.098 323.552C372.45 318.978 367.787 314.382 366.415 310.114C365.722 307.827 365.935 306.03 365.751 303.9C365.992 303.955 366.204 303.862 366.243 303.647C366.364 303.107 366.463 302.624 366.61 302.13C367.06 300.287 367.432 298.872 368.002 297.056C368.318 296.013 368.681 294.961 369.044 293.909L369.091 293.899C369.759 293.767 370.435 293.684 371.115 293.653C372.4 293.501 375.488 293.56 376.958 293.836C380.011 294.211 383.835 295.878 386.04 294.254C387.683 292.947 386.301 290.178 384.137 288.75C381.599 286.931 378.429 286.063 375.786 286.33C373.832 286.511 372.366 287.472 370.994 288.415C370.75 288.574 370.501 288.727 370.248 288.872C370.529 287.578 370.763 286.294 371.079 285.251C371.931 282.141 373.295 279.291 374.513 276.367C374.755 276.422 374.966 276.329 375.182 276.337C375.755 276.327 376.329 276.316 376.881 276.362C378.547 276.493 380.199 276.77 381.818 277.189C383.776 277.677 385.767 278.418 387.738 278.647C390.528 279.023 393.284 278.579 394.867 276.976C396.33 275.344 394.435 272.882 392.111 271.641C389.736 270.306 387.106 269.744 384.687 269.656C381.142 269.533 379.071 270.924 377.763 273.402C377.405 273.989 376.528 274.782 375.817 274.923C375.564 275.016 375.302 275.086 375.036 275.129C375.256 274.673 375.403 274.179 375.598 273.677C376.691 270.622 376.922 267.532 378.795 264.839C379.792 263.507 381.92 261.743 382.973 260.038C383.491 259.265 384.009 258.491 384.454 257.681C387.732 257.134 391.875 257.86 395.515 257.397C396.87 257.18 398.215 256.758 398.941 255.788C400.412 253.793 399.03 251.591 395.947 250.5C392.667 249.242 389.97 250.55 387.847 251.848C387.166 252.309 386.553 252.865 386.027 253.499C386.201 252.86 386.414 252.232 386.666 251.618C387.188 250.38 387.827 249.634 388.914 248.748C390.126 247.919 391.263 246.986 392.315 245.959C393.119 245.507 393.897 245.008 394.644 244.466C395.619 243.756 396.594 243.047 397.126 242.013C397.881 240.625 398.245 238.438 396.267 236.869C395.176 235.951 393.538 235.656 392.503 236.068C390.022 237.385 389.73 241.313 390.423 244.168C390.59 244.754 390.758 245.34 390.926 245.925L390.952 245.972C390.49 246.373 390.028 246.774 389.541 247.128C388.676 247.693 387.877 248.353 387.159 249.097C387.116 247.506 387.718 245.839 387.598 244.109C387.509 241.392 385.493 238.335 382.571 236.489C378.92 234.376 376.021 235.983 376.804 239.284C377.13 240.819 378.078 242.333 379 243.801C380.094 245.39 381.261 247.016 382.709 248.483C383.433 249.217 384.226 249.885 385.045 250.599C385.291 250.811 385.554 251.001 385.833 251.165C385.328 252.246 385.068 253.484 384.709 254.638C384.137 256.357 383.291 257.971 382.205 259.417C381.242 261.001 379.136 262.708 377.867 264.404C377.624 264.733 377.414 265.086 377.241 265.457C377.192 265.355 377.123 265.264 377.039 265.188C376.493 262.975 376.499 260.807 376.242 258.639C375.839 254.695 374.233 250.576 369.444 248.121C367.293 246.999 364.495 246.419 363.066 247.735C361.457 249.292 361.718 252.129 363.178 254.47C365.233 257.88 368.84 260.673 372.426 262.954C373.875 263.854 375.185 264.316 376.132 265.263L376.184 265.356C376.253 265.655 376.345 265.947 376.46 266.23C376.494 266.286 376.541 266.332 376.597 266.366C376.652 266.4 376.715 266.42 376.779 266.425C375.842 268.623 375.443 271.127 374.67 273.241C373.508 276.36 372.053 279.333 370.891 282.451C370.757 282.117 370.589 281.531 370.456 281.196C369.919 279.522 369.481 277.817 369.144 276.091C368.194 271.636 366.865 266.121 361.365 263.239C354.17 259.868 348.385 263.956 353.058 270.561C355.622 274.129 359.673 276.679 363.708 278.819C365.743 280.015 367.959 280.969 369.355 282.343C369.587 282.642 369.785 282.966 369.945 283.31C370.049 283.495 370.03 283.653 370.204 283.774L370.423 283.885C370.341 284.211 370.212 284.546 370.129 284.872C369.455 287.069 369.1 289.462 368.572 291.733C368.445 292.294 368.276 292.845 368.067 293.381C368.019 293.39 368.045 293.437 368.024 293.493C367.894 293.828 367.812 294.154 367.683 294.489C365.374 291.851 364.112 288.542 361.864 285.634C359.653 283.08 356.219 280.408 352.868 280.35C347.943 280.397 351.293 286.801 354.008 289.41C356.227 291.601 359.068 293.205 361.982 294.278C362.318 295.45 362.749 296.602 363.205 297.802C362.877 297.402 362.502 297.012 362.175 296.613C361.248 295.61 359.029 292.851 357.666 293.431C356.385 294.253 358.475 296.779 359.755 297.66C360.968 298.574 362.333 299.264 363.786 299.698L363.833 299.689C364.177 300.732 364.422 301.807 364.564 302.897C364.671 303.758 364.731 304.625 364.743 305.493C364.644 305.409 364.519 305.278 364.42 305.196C363.946 304.722 363.519 304.239 363.093 303.756C362.114 302.66 361.231 301.547 359.999 300.655C357.701 298.892 355.687 299.911 357.242 302.234C358.439 304.008 360.699 304.851 362.634 305.395C363.022 305.524 363.992 305.848 364.44 306.274L364.466 306.321C364.566 306.404 364.617 306.497 364.716 306.581C364.823 308.572 365.123 310.628 366.381 312.7C368.758 316.975 372.615 321.163 373.457 325.33C373.989 328.371 373.254 331.406 373.411 334.625C373.469 338.329 374.325 342.235 374.503 345.965C374.576 346.57 374.649 347.175 374.743 347.724C373.464 346.275 372.115 344.892 370.696 343.574C367.766 340.957 364.788 338.348 362.021 335.646C362.035 335.388 362.09 335.134 362.181 334.892C362.439 333.956 362.829 333.062 363.339 332.238C364.617 330.178 367.589 328.041 368.139 325.147C369.013 321.414 364.332 318.678 360.872 320.035C357.848 321.512 357.867 325.429 358.167 328.62C358.325 329.929 358.586 331.222 358.949 332.489L358.574 332.099C356.622 330.01 354.762 327.799 352.83 325.654C352.822 325.449 352.62 325.18 352.538 324.938C352.265 324.455 352.036 323.947 351.853 323.423C351.186 321.75 350.618 319.024 350.646 317.368C350.588 313.665 352.841 310.896 351.908 306.851C351.449 304.414 348.605 301.005 345.939 302.463C345.098 302.939 344.703 303.842 344.355 304.634C343.789 305.985 343.589 307.52 343.63 309.111C343.717 311.422 344.2 313.7 345.057 315.845C345.583 317.207 346.197 318.533 346.896 319.813C343.427 316.89 339.638 314.339 336.199 311.564C336.222 311.507 336.23 311.444 336.223 311.383C336.217 311.321 336.195 311.262 336.16 311.211C336.092 310.914 336.047 310.612 336.027 310.308C335.967 309.443 336.089 307.768 336.508 306.911C338.054 303.819 339.816 300.735 339.633 296.902C339.52 292.436 338.253 284.948 332.067 282.254C327.833 280.514 325.911 283.784 325.893 286.78C325.583 292 328.446 297.623 330.797 302.987C331.749 305.172 332.467 306.938 333.221 308.956C332.331 308.121 331.488 307.238 330.696 306.309C328.507 303.699 326.965 301.116 325.121 298.18C323.527 295.503 321.744 292.864 320.15 290.188C319.84 289.63 319.552 289.017 319.242 288.459C319.273 288.428 319.296 288.391 319.311 288.35C319.326 288.309 319.332 288.265 319.327 288.221C319.323 288.178 319.31 288.135 319.288 288.098C319.265 288.06 319.235 288.028 319.199 288.003C316.946 285.561 315.558 283.257 313.538 280.665C310.457 276.736 306.872 272.751 302.334 269.988C300.321 268.737 298.135 268.499 297.393 270.194C296.948 271.573 297.735 273.274 298.493 274.826C299.294 276.266 300.169 277.743 301.323 279.063C303.206 281.217 305.508 283.083 307.9 284.827C310.662 286.791 313.59 288.506 316.65 289.953L319.651 291.371C319.726 291.408 319.809 291.427 319.892 291.426C320.922 293.182 322.119 294.957 323.196 296.704C322.886 296.646 322.579 296.569 322.278 296.473C320.795 296.101 319.354 295.574 317.979 294.901C313.026 292.529 308.406 288.957 302.982 287.35C301.943 287.093 300.861 286.946 300.063 287.31C299.613 287.542 299.264 287.931 299.08 288.405C298.897 288.879 298.893 289.404 299.069 289.88C299.779 292.01 302.029 293.782 304.141 295.117C309.05 298.168 314.733 300.24 319.869 300.099C321.589 300.067 323.28 299.887 324.716 299.344L324.764 299.335C326.328 301.862 327.938 304.38 329.925 306.721C331.635 308.755 333.695 310.565 335.82 312.207C336.147 312.481 336.485 312.741 336.833 312.987C334.371 312.443 332.083 311.452 329.5 310.313C326.844 309.138 324.193 308.064 321.451 307.111C318.178 306.058 314.583 304.707 311.542 305.206C309.692 305.573 309.311 307.351 310.625 309.051C311.818 310.724 313.806 311.929 315.599 313.07C318.63 314.869 321.919 316.183 325.351 316.966C328.804 317.777 332.241 318.179 335.51 317.996C337.752 317.861 340.064 317.66 342.044 316.958C342.091 316.949 342.065 316.902 342.065 316.902C344.733 318.953 347.353 321.013 349.598 323.251C350.973 324.681 352.3 326.121 353.58 327.57C350.195 327.372 346.839 326.827 343.564 325.944C338.928 324.903 333.177 322.896 330.058 325.526C328.133 326.991 328.899 329.884 331.442 331.804C333.886 333.641 336.857 334.342 339.569 334.578C343.773 335.034 347.258 333.724 350.3 332.09C351.611 331.417 353.272 330.52 354.406 330.192C354.727 330.077 355.063 330.011 355.403 329.995L355.687 329.938C356.541 330.903 357.467 331.907 358.368 332.864C358.717 333.207 359.018 333.56 359.341 333.857L359.393 333.95C359.445 334.043 359.518 334.08 359.665 334.154L361.087 335.575C361.081 335.628 361.088 335.681 361.107 335.731C361.125 335.781 361.155 335.826 361.193 335.863C361.301 335.951 361.426 336.014 361.56 336.048C363.852 338.277 366.261 340.43 368.718 342.574C370.82 344.402 372.795 346.372 374.63 348.47C374.729 348.553 374.807 348.693 374.932 348.823C374.952 348.943 374.949 349.067 374.923 349.186C374.623 352.341 375.143 355.642 375.688 358.991C373.69 360.419 370.18 359.98 367.463 360.777C365.574 361.358 364.055 362.793 364.161 364.785C364.229 366.99 365.956 369.434 368.405 370.805C371.763 372.771 374.994 371.098 375.583 368.557C376.128 366.695 376.263 364.759 376.419 362.767C376.918 364.99 377.395 367.269 377.605 369.446C377.939 371.753 377.605 374.089 377.66 376.554C377.724 376.954 377.621 377.336 377.78 377.717C378.034 378.08 378.677 378.004 378.612 377.604C378.458 376.19 378.641 374.245 378.668 372.589C378.636 370.956 378.52 369.325 378.322 367.704C378 365.137 377.269 362.496 376.753 359.864L376.806 359.389C376.813 359.364 376.813 359.337 376.808 359.311C376.803 359.285 376.792 359.261 376.776 359.24C377.202 359.155 377.198 359.053 377.483 358.997C379.066 358.528 380.713 358.461 382.464 358.577C382.4 358.744 382.455 358.94 382.364 359.061C382.308 359.433 382.222 359.657 382.183 359.871C381.785 361.239 381.142 362.45 380.524 363.708C379.375 365.999 378.08 368.784 380.001 371.859C383.21 377.156 389.368 376.296 388.052 371.088C387.429 368.167 385.003 365.037 384.082 362.434C383.773 361.308 383.695 360.601 383.964 359.568C384.008 359.299 384.095 359.038 384.219 358.796C385.759 359.007 387.276 359.273 388.863 359.474C389.64 359.577 390.424 359.628 391.208 359.629ZM363.413 296.007C363.224 295.477 363.082 294.938 362.918 294.454C363.306 294.583 363.742 294.704 364.104 294.787C365 295.073 365.604 295.212 366.319 295.74L366.345 295.787L366.418 295.824C366.616 295.991 366.746 296.223 366.965 296.334C366.944 296.39 366.97 296.437 366.923 296.446C366.307 298.293 365.787 300.17 365.362 302.07C365.341 302.126 365.366 302.172 365.32 302.182C365.044 300.172 364.192 298.071 363.413 296.007ZM380.947 344.587C381.469 344.483 383.456 344.554 383.939 344.664C384.404 344.733 384.863 344.832 385.315 344.959C384.618 346.126 384.213 347.445 384.135 348.804C383.632 348.302 383.058 347.877 382.432 347.543C381.281 346.843 380.013 346.36 378.69 346.118L378.664 346.071C379.053 345.633 379.441 345.195 379.855 344.803L379.903 344.794C380.239 344.676 380.591 344.606 380.947 344.587ZM395.09 327.491C394.749 325.428 394.16 323.413 393.335 321.493C392.797 320.224 392.195 318.983 391.53 317.775C391.412 317.551 391.275 317.336 391.121 317.134L391.885 316.518C393.691 317.398 395.29 318.474 397.092 319.82C398.079 320.553 399.144 321.425 400.277 322.232C398.582 324.014 396.812 325.757 395.091 327.492L395.09 327.491ZM412.62 298.013C413.963 297.062 415.385 296.228 416.869 295.52C417.175 295.408 417.408 295.258 417.715 295.146C417.175 296.543 416.66 297.986 416.047 299.346C415.434 300.706 414.748 302.028 414.061 303.351C414.022 303.377 413.99 303.412 413.967 303.452C413.944 303.493 413.93 303.538 413.927 303.584C413.884 303.696 413.815 303.761 413.771 303.873C412.235 303.412 410.65 303.138 409.05 303.055C408.283 303.001 407.562 302.937 406.82 302.929C408.758 301.204 410.648 299.488 412.62 298.014V298.013ZM405.301 304.367C407.052 305.052 409.246 306.629 411.526 307.983C411.055 308.746 410.631 309.501 410.136 310.219C409.295 309.754 408.385 309.429 407.441 309.257C405.153 308.809 402.81 308.716 400.494 308.983C402.082 307.481 403.739 305.914 405.301 304.367ZM397.474 311.697C397.643 311.555 397.805 311.402 397.957 311.24C398.272 311.333 398.63 311.313 398.944 311.406C400.152 311.682 401.41 312.052 402.622 312.431C403.954 312.837 405.8 313.503 407.511 313.835C406.626 314.99 405.668 316.108 404.71 317.228C403.503 316.383 402.141 315.828 400.783 315.375C399.545 314.943 398.267 314.643 396.967 314.481C396.126 314.389 395.311 314.345 394.496 314.3C395.536 313.422 396.529 312.554 397.474 311.696V311.697ZM380.881 322.778C381.688 321.483 382.491 320.085 382.932 318.605C383.372 319.395 383.811 320.185 384.323 321.012C382.801 322.095 381.34 323.263 379.948 324.511C380.259 323.932 380.569 323.354 380.88 322.777L380.881 322.778ZM379.489 326.148C381.163 324.551 382.948 323.076 384.831 321.735C386.378 324.046 388.141 326.201 390.096 328.172C390.769 328.813 391.514 329.491 392.208 330.075C392.292 330.152 392.383 330.22 392.48 330.279C391.358 331.482 390.261 332.731 389.165 333.98C389.117 333.965 389.065 333.961 389.015 333.971C388.966 333.981 388.919 334.004 388.88 334.037C388.846 334.053 388.816 334.076 388.792 334.104C388.767 334.133 388.749 334.167 388.74 334.203C388.73 334.24 388.728 334.278 388.734 334.315C388.741 334.352 388.755 334.388 388.777 334.419C388.159 335.109 387.59 335.789 386.947 336.432C386.482 334.461 386.113 332.47 385.17 330.491C383.99 327.99 382.038 325.901 379.489 326.148ZM375.426 345.836C375.178 341.603 374.22 337.511 374.318 333.519C374.331 333.259 374.318 332.952 374.332 332.691C374.836 332.746 374.901 332.011 375.152 331.703C375.441 331.181 375.756 330.706 376.071 330.231C376.506 331.486 377.397 332.805 378.376 333.901C379.729 335.387 381.647 336.089 383.359 336.989C383.686 337.178 383.999 337.392 384.294 337.629C384.32 337.675 384.419 337.759 384.445 337.805C384.518 337.843 384.647 338.075 384.72 338.112C384.818 338.239 384.896 338.38 384.953 338.53C383.209 340.32 381.319 342.037 379.529 343.836C379.687 342.517 379.688 341.183 379.531 339.863C379.398 338.961 379.188 337.919 378.434 337.037C377.882 336.424 376.847 336.268 376.412 336.715C375.95 337.116 375.954 337.786 375.932 338.41C376.004 339.582 376.365 340.8 376.796 341.953C377.159 342.921 377.448 343.916 377.661 344.929C377.719 345.176 377.753 345.428 377.763 345.682C377.056 346.493 376.374 347.351 375.719 348.255C375.636 347.446 375.507 346.645 375.426 345.836H375.426ZM377.396 358.189C377.074 358.261 376.758 358.358 376.452 358.479L376.404 358.489C376.052 356.34 375.761 353.921 375.641 352.191C375.606 351.847 375.608 351.501 375.646 351.158C375.672 351.202 375.708 351.239 375.75 351.266C375.793 351.294 375.841 351.311 375.892 351.316C376.28 351.444 376.556 351.184 376.349 350.812C376.268 350.571 376.233 350.319 376.151 350.078C376.341 350.04 376.479 349.909 376.423 349.714C376.471 349.705 376.471 349.705 376.544 349.742C377.017 349.768 377.486 349.848 377.941 349.981C378.838 350.267 380.45 351.083 381.709 351.452C382.558 351.748 383.52 351.867 384.206 351.68C384.27 352.268 384.382 352.849 384.541 353.419C385.016 355.166 385.805 356.811 386.87 358.271C386.922 358.364 387.021 358.447 387.073 358.54C383.99 358.016 380.187 357.429 377.397 358.189H377.396Z" fill="#B30000"/>
<path fill-rule="evenodd" clip-rule="evenodd" d="M189.277 301.871C169.845 306.493 140.658 323.289 133.934 292.183C129.328 270.871 184.032 272.69 195.393 260.881C220.386 234.904 258.855 258.406 242.405 266.757C209.445 283.482 235.89 290.782 189.277 301.871Z" fill="#202020"/>
<path fill-rule="evenodd" clip-rule="evenodd" d="M337.681 336.606C330.354 347.662 256.561 353.725 246.97 340.139C232.145 319.161 274.839 259.209 274.839 259.209C274.289 256.343 274.186 249.416 276.428 246.713C279.823 242.604 274.772 238.702 277.914 237.816C281.953 236.681 285.189 240.523 292.224 242.444C296.392 243.57 295.811 254.589 291.87 260.756C290.467 262.944 287.788 263.144 287.788 263.144C287.788 263.144 271.319 303.955 274.816 311.771C279.155 321.439 299.81 310.307 331.546 305.796C346.723 303.636 341.718 330.512 337.681 336.606Z" fill="#FFC197"/>
<mask id="mask0_579_163" style="mask-type:luminance" maskUnits="userSpaceOnUse" x="243" y="237" width="99" height="111">
<path d="M337.681 336.606C330.354 347.662 256.561 353.725 246.97 340.139C232.145 319.161 274.839 259.209 274.839 259.209C274.289 256.343 274.186 249.416 276.428 246.713C279.823 242.604 274.772 238.702 277.914 237.816C281.953 236.681 285.189 240.523 292.224 242.444C296.392 243.57 295.811 254.589 291.87 260.756C290.467 262.944 287.788 263.144 287.788 263.144C287.788 263.144 271.319 303.955 274.816 311.771C279.155 321.439 299.81 310.307 331.546 305.796C346.723 303.636 341.718 330.512 337.681 336.606Z" fill="white"/>
</mask>
<g mask="url(#mask0_579_163)">
<path fill-rule="evenodd" clip-rule="evenodd" d="M296.855 306.738C299.633 308.883 300.289 313.963 300.761 317.141C301.261 320.499 301.108 323.947 299.994 327.185C298.318 332.059 294.842 336.044 293.413 341.006C292.352 344.697 292.606 348.858 293.849 352.481C294.428 354.176 295.305 355.751 296.438 357.133C303.151 365.282 316.975 362.24 325.452 359.375C334.992 356.151 344.415 350.007 349.338 340.896C356.975 326.771 350.048 309.346 336.891 301.513C331.672 298.442 325.795 296.685 319.758 296.389C312.588 296.01 305.227 297.38 299.032 301.116L296.855 306.738Z" fill="#FE9400"/>
<path fill-rule="evenodd" clip-rule="evenodd" d="M268.945 261.845C264.178 270.903 258.029 290.709 254.822 300.376C250.728 312.788 249.098 322.195 255.389 333.309C262.831 346.495 287.675 341.342 299.831 337.954C302.514 337.205 305.163 336.338 307.77 335.356C311.448 334.002 315.02 332.371 318.455 330.477C325.544 326.488 331.462 321.005 336.76 314.857C338.284 313.094 339.649 311.168 341.262 309.491C341.74 308.99 342.466 308.251 343.246 308.342C344.557 308.494 344.859 310.93 345.035 311.877C345.709 315.803 345.656 319.904 345.39 323.864C344.344 339.514 339.294 355.148 325.401 363.697C316.825 368.977 306.139 370.619 296.358 372.064C286.594 373.506 276.316 374.81 266.428 373.902C248.778 372.282 230.154 364.559 220.497 348.796C209.333 330.536 214.472 306.133 223.634 288.172C225.92 283.695 228.56 279.389 231.697 275.465C237.81 267.818 245.997 260.857 255.654 258.522L268.945 261.845Z" fill="black" fill-opacity="0.1"/>
</g>
<path fill-rule="evenodd" clip-rule="evenodd" d="M179.427 240.025C178.557 238.647 176.905 237.658 175.009 237.379C173.142 237.076 171.23 237.51 169.671 238.589L89.2228 296.905C87.1374 298.417 86.5631 300.872 87.8292 302.879L189.072 463.368C189.955 464.767 191.594 465.735 193.503 466.035C195.37 466.337 197.282 465.904 198.84 464.825L279.288 406.509C281.374 404.997 281.948 402.542 280.682 400.535L179.427 240.025ZM178.218 240.519L279.474 401.029C280.459 402.59 280.014 404.508 278.374 405.697L197.926 464.013C196.704 464.854 195.211 465.197 193.749 464.973C192.251 464.759 190.972 463.972 190.281 462.878L89.0384 302.386C88.0407 300.805 88.4846 298.887 90.1247 297.698L170.572 239.382C171.794 238.541 173.287 238.198 174.75 238.422C176.262 238.657 177.528 239.423 178.218 240.518V240.519Z" fill="#77536F"/>
<path fill-rule="evenodd" clip-rule="evenodd" d="M194.996 238.561C194.849 238.324 194.654 238.121 194.424 237.964C194.195 237.808 193.935 237.701 193.662 237.652C193.394 237.6 193.118 237.603 192.851 237.66C192.585 237.717 192.332 237.827 192.107 237.983L106.367 300.135C105.948 300.442 105.66 300.899 105.564 301.412C105.469 301.926 105.572 302.457 105.852 302.896L206.105 461.816C206.25 462.05 206.443 462.25 206.67 462.404C206.898 462.557 207.155 462.66 207.425 462.706C207.693 462.763 207.97 462.763 208.238 462.706C208.506 462.649 208.759 462.536 208.981 462.374L294.72 400.223C295.14 399.921 295.43 399.469 295.528 398.958C295.626 398.448 295.526 397.919 295.247 397.481L194.996 238.561Z" fill="#979797"/>
<path fill-rule="evenodd" clip-rule="evenodd" d="M260.017 363.53C258.59 361.269 255.937 359.664 252.826 359.204C249.715 358.743 246.522 359.466 244.172 361.17L199.375 393.642C193.667 397.779 192.128 404.458 195.598 409.958C197.025 412.22 199.677 413.823 202.788 414.283C205.898 414.743 209.092 414.021 211.432 412.325L256.239 379.844C261.936 375.715 263.487 369.031 260.017 363.53ZM259.051 363.918L259.052 363.92C262.302 369.071 260.848 375.33 255.513 379.198L210.705 411.679C208.618 413.193 205.76 413.841 202.982 413.43C200.216 413.01 197.837 411.588 196.563 409.569C193.314 404.419 194.767 398.159 200.103 394.291L244.91 361.81C246.998 360.296 249.856 359.647 252.621 360.065C255.398 360.477 257.777 361.899 259.051 363.918H259.051Z" fill="#343434"/>
<path fill-rule="evenodd" clip-rule="evenodd" d="M296.053 349.116C295.152 347.689 293.971 346.462 292.583 345.511C291.194 344.56 289.627 343.904 287.978 343.584C286.329 343.265 284.633 343.288 282.993 343.652C281.353 344.015 279.805 344.713 278.442 345.701L221.116 387.255C218.221 389.353 216.232 392.486 215.557 396.013C214.883 399.54 215.573 403.193 217.487 406.224C218.388 407.651 219.568 408.879 220.957 409.831C222.345 410.782 223.912 411.438 225.561 411.758C227.21 412.078 228.907 412.055 230.547 411.691C232.187 411.326 233.736 410.628 235.098 409.639L292.424 368.084C295.317 365.985 297.303 362.853 297.978 359.327C298.653 355.802 297.965 352.15 296.054 349.119L296.053 349.116Z" fill="#77536F"/>
<path fill-rule="evenodd" clip-rule="evenodd" d="M229.798 317.174C229.434 316.598 228.957 316.102 228.396 315.718C227.835 315.333 227.202 315.069 226.536 314.94C225.87 314.811 225.184 314.821 224.522 314.968C223.859 315.116 223.234 315.398 222.684 315.798L166.64 356.424C165.477 357.266 164.679 358.523 164.407 359.939C164.136 361.355 164.412 362.821 165.18 364.038C165.543 364.613 166.02 365.108 166.579 365.492C167.139 365.876 167.771 366.141 168.436 366.27C169.101 366.4 169.785 366.391 170.446 366.245C171.108 366.099 171.733 365.818 172.283 365.421L228.338 324.787C229.501 323.946 230.3 322.689 230.571 321.274C230.843 319.858 230.566 318.392 229.799 317.175L229.798 317.174ZM241.723 336.073C241.359 335.496 240.882 335 240.321 334.616C239.76 334.232 239.127 333.967 238.461 333.838C237.795 333.709 237.109 333.719 236.447 333.867C235.785 334.014 235.159 334.297 234.609 334.696L178.565 375.324C177.402 376.165 176.603 377.423 176.332 378.838C176.061 380.254 176.337 381.72 177.105 382.937C177.468 383.513 177.944 384.007 178.504 384.391C179.064 384.775 179.696 385.04 180.36 385.169C181.025 385.299 181.709 385.29 182.371 385.144C183.032 384.998 183.657 384.718 184.208 384.32L240.263 343.686C241.425 342.845 242.224 341.588 242.496 340.172C242.767 338.757 242.491 337.29 241.723 336.074V336.073Z" fill="#343434"/>
<path d="M236.088 394.365L237.653 393.064C237.8 393.213 237.978 393.328 238.174 393.4C238.37 393.472 238.579 393.5 238.787 393.481C239.296 393.401 239.776 393.188 240.177 392.862C240.617 392.578 240.984 392.194 241.249 391.741C241.417 391.387 241.436 391.096 241.302 390.883C241.259 390.815 241.201 390.758 241.131 390.718C241.062 390.677 240.984 390.655 240.904 390.652C240.638 390.659 240.378 390.723 240.139 390.841C239.92 390.933 239.417 391.176 238.634 391.556C237.637 392.057 236.885 392.325 236.373 392.354C235.66 392.405 235.165 392.2 234.873 391.737C234.681 391.407 234.619 391.017 234.701 390.643C234.811 390.147 235.039 389.685 235.367 389.297C235.807 388.77 236.316 388.304 236.879 387.913C237.927 387.154 238.816 386.742 239.546 386.678C240.275 386.613 240.817 386.852 241.178 387.364L239.54 388.63C239.427 388.514 239.29 388.427 239.138 388.373C238.986 388.32 238.824 388.303 238.665 388.323C238.229 388.418 237.821 388.615 237.475 388.898C237.067 389.166 236.722 389.522 236.466 389.939C236.405 390.017 236.369 390.111 236.361 390.209C236.354 390.307 236.375 390.405 236.423 390.491C236.478 390.563 236.552 390.617 236.636 390.648C236.72 390.679 236.812 390.685 236.9 390.666C237.193 390.63 237.79 390.397 238.686 389.936C239.355 389.58 240.054 389.281 240.773 389.043C241.191 388.909 241.635 388.884 242.065 388.969C242.448 389.068 242.776 389.315 242.979 389.657C243.197 390.028 243.267 390.468 243.174 390.888C243.066 391.43 242.818 391.934 242.455 392.349C241.97 392.929 241.409 393.44 240.787 393.868C239.731 394.634 238.82 395.051 238.041 395.118C237.68 395.16 237.313 395.113 236.973 394.982C236.633 394.851 236.329 394.639 236.088 394.365ZM242.427 385.543L241.775 384.51L243.369 383.355L244.021 384.387L242.427 385.543ZM245.454 390.342L242.786 386.113L244.379 384.958L247.047 389.187L245.454 390.342ZM248.71 388.38L250.63 387.221C250.676 387.281 250.738 387.327 250.809 387.354C250.879 387.381 250.955 387.388 251.03 387.374C251.322 387.304 251.594 387.167 251.825 386.974C252.153 386.756 252.442 386.483 252.679 386.167C252.778 386.018 252.825 385.84 252.814 385.66C252.775 385.453 252.691 385.257 252.566 385.087L252.178 384.473C251.983 385.284 251.494 385.993 250.807 386.462C249.993 387.052 249.199 387.274 248.429 387.134C248.128 387.082 247.841 386.965 247.589 386.79C247.337 386.616 247.126 386.388 246.97 386.123C246.755 385.814 246.617 385.457 246.568 385.082C246.518 384.708 246.559 384.327 246.686 383.972C246.96 383.206 247.471 382.549 248.142 382.097C248.786 381.586 249.604 381.351 250.419 381.443L250.045 380.851L251.536 379.771L253.931 383.568C254.191 383.941 254.372 384.363 254.462 384.809C254.499 385.13 254.457 385.454 254.337 385.753C254.175 386.101 253.958 386.419 253.694 386.695C253.311 387.104 252.887 387.47 252.428 387.789C251.406 388.53 250.602 388.936 250.019 388.993C249.441 389.058 249.028 388.904 248.789 388.524C248.759 388.478 248.733 388.43 248.71 388.38ZM248.569 384.874C248.852 385.322 249.179 385.561 249.564 385.592C249.966 385.61 250.361 385.485 250.679 385.237C251.045 384.986 251.321 384.624 251.466 384.202C251.53 383.995 251.545 383.774 251.51 383.56C251.476 383.345 251.392 383.141 251.265 382.964C250.988 382.524 250.651 382.292 250.266 382.261C249.839 382.248 249.422 382.386 249.086 382.652C248.734 382.892 248.471 383.242 248.338 383.648C248.284 383.857 248.276 384.075 248.316 384.287C248.356 384.5 248.443 384.7 248.569 384.874ZM261.263 378.882L259.669 380.037L258.309 377.881C258.021 377.425 257.8 377.154 257.644 377.068C257.481 376.987 257.297 376.962 257.119 376.995C256.891 377.043 256.677 377.141 256.492 377.283C256.23 377.467 256.011 377.706 255.848 377.983C255.706 378.206 255.642 378.47 255.666 378.734C255.762 379.116 255.929 379.475 256.158 379.794L257.365 381.708L255.771 382.863L253.103 378.634L254.584 377.56L254.977 378.182C255.217 377.303 255.761 376.54 256.511 376.03C256.834 375.792 257.188 375.599 257.562 375.456C257.841 375.35 258.138 375.304 258.436 375.32C258.657 375.346 258.867 375.431 259.044 375.565C259.268 375.762 259.458 375.995 259.606 376.254L261.263 378.882ZM262.426 369.54L264.107 368.322L266.099 371.481C266.293 371.812 266.519 372.123 266.773 372.409C266.899 372.502 267.042 372.568 267.194 372.602C267.346 372.636 267.504 372.639 267.657 372.609C268.552 372.37 269.33 371.81 269.845 371.034C269.992 370.788 270.037 370.493 269.971 370.213C269.826 369.847 269.64 369.499 269.417 369.176L267.381 365.949L269.061 364.73L270.992 367.79C271.433 368.489 271.705 369.021 271.792 369.379C271.887 369.737 271.876 370.115 271.758 370.466C271.602 370.902 271.37 371.306 271.072 371.66C270.635 372.164 270.137 372.611 269.589 372.99C268.792 373.568 268.156 373.94 267.654 374.106C267.247 374.268 266.809 374.339 266.372 374.315C266.053 374.3 265.745 374.193 265.484 374.008C265.052 373.612 264.681 373.153 264.385 372.646L262.426 369.54ZM271.788 365.089L273.279 364.009L273.671 364.631C273.742 364.242 273.897 363.873 274.125 363.55C274.384 363.163 274.712 362.827 275.092 362.561C275.705 362.08 276.464 361.826 277.241 361.845C277.974 361.866 278.557 362.231 278.987 362.913C279.202 363.229 279.34 363.59 279.393 363.968C279.446 364.346 279.41 364.732 279.29 365.095C279.031 365.862 278.531 366.523 277.866 366.979C277.566 367.203 277.233 367.377 276.879 367.495C276.503 367.605 276.111 367.654 275.72 367.639L277.066 369.772L275.472 370.928L271.788 365.089ZM274.653 365.989C274.954 366.467 275.313 366.716 275.726 366.749C276.155 366.777 276.579 366.646 276.92 366.381C277.267 366.144 277.523 365.795 277.646 365.391C277.759 365.01 277.665 364.58 277.369 364.109C277.086 363.661 276.759 363.423 276.368 363.385C275.955 363.365 275.549 363.495 275.222 363.749C274.86 363.994 274.589 364.354 274.453 364.772C274.392 364.976 274.378 365.193 274.413 365.404C274.447 365.615 274.529 365.815 274.653 365.989Z" fill="#343434"/>
<path d="M190.124 322.948C200.835 312.819 202.757 297.358 194.417 288.415C186.078 279.472 170.635 280.433 159.924 290.561C149.214 300.69 147.292 316.151 155.631 325.094C163.971 334.037 179.414 333.076 190.124 322.948Z" fill="#343434"/>
<path fill-rule="evenodd" clip-rule="evenodd" d="M172.798 317.885C169.69 317.838 166.888 316.464 165.241 313.854C162.256 309.121 164.205 302.101 169.604 298.187C175.003 294.273 181.83 294.935 184.815 299.668C186.746 302.729 186.589 306.753 184.806 310.264C192.125 307.784 198.675 309.013 200.326 313.592C202.259 318.969 196.694 326.946 187.917 331.389C179.14 335.833 170.417 335.084 168.485 329.707C167.279 326.289 169.066 321.827 172.798 317.885Z" fill="white"/>
<path fill-rule="evenodd" clip-rule="evenodd" d="M331.044 426.683C332.922 390.992 320.465 359.93 321.599 339.527C322.325 326.584 316.761 307.373 337.884 304.261C355.994 301.593 378.375 306.414 382.787 311.321C391.718 321.221 388.475 374.903 379.987 382.225C362.976 393.163 344.334 415.755 331.044 426.683Z" fill="#FE9400"/>
<mask id="mask1_579_163" style="mask-type:luminance" maskUnits="userSpaceOnUse" x="321" y="303" width="68" height="124">
<path d="M331.044 426.683C332.922 390.992 320.465 359.93 321.599 339.527C322.325 326.584 316.761 307.373 337.884 304.261C355.994 301.593 378.375 306.414 382.787 311.321C391.718 321.221 388.475 374.903 379.987 382.225C362.976 393.163 344.334 415.755 331.044 426.683Z" fill="white"/>
</mask>
<g mask="url(#mask1_579_163)">
<path fill-rule="evenodd" clip-rule="evenodd" d="M367.67 330.933C366.199 332.91 365.366 335.356 364.675 337.698C362.85 343.735 362.779 349.759 363.612 355.971C364.427 362.106 366.04 368.461 364.941 374.666C364.108 379.256 361.662 383.051 359.27 386.949C353.264 396.751 349.719 399.97 341.585 407.239C336.96 411.357 327.941 428.287 329.305 434.875C330.244 439.47 337.456 435.009 340.168 433.605C347.522 429.788 354.096 424.422 361.273 420.23C371.515 414.232 383.033 409.052 390.706 399.611C400.896 387.063 402.118 368.09 398.202 352.877C396.341 345.635 393.063 338.056 386.595 333.902L367.67 330.933Z" fill="black" fill-opacity="0.1"/>
</g>
<path fill-rule="evenodd" clip-rule="evenodd" d="M380.694 311.967C392.869 317.143 417.662 387.588 403.41 400.712C389.159 413.836 295.202 390.716 295.202 390.716C292.51 391.799 285.791 393.201 282.716 391.489C278.089 388.904 280.937 383.13 279.482 380.19C277.618 376.408 264.299 384.917 264.836 377.592C265.171 373.261 286.762 370.837 293.517 373.581C295.932 374.559 296.629 377.174 296.629 377.174C296.629 377.174 363.549 383.416 370.517 378.488C379.133 372.382 357.536 350.372 360.897 325.491C362.965 310.197 374.009 309.12 380.694 311.967Z" fill="#FFC197"/>
<mask id="mask2_579_163" style="mask-type:luminance" maskUnits="userSpaceOnUse" x="264" y="310" width="144" height="95">
<path d="M380.694 311.967C392.869 317.143 417.662 387.588 403.41 400.712C389.159 413.836 295.202 390.716 295.202 390.716C292.51 391.799 285.791 393.201 282.716 391.489C278.089 388.904 280.937 383.13 279.482 380.19C277.618 376.408 264.299 384.917 264.836 377.592C265.171 373.261 286.762 370.837 293.517 373.581C295.932 374.559 296.629 377.174 296.629 377.174C296.629 377.174 363.549 383.416 370.517 378.488C379.133 372.382 357.536 350.372 360.897 325.491C362.965 310.197 374.009 309.12 380.694 311.967Z" fill="white"/>
</mask>
<g mask="url(#mask2_579_163)">
<path fill-rule="evenodd" clip-rule="evenodd" d="M361.472 357.633C363.043 354.482 367.875 352.88 370.886 351.818C374.068 350.694 377.46 350.197 380.827 350.691C385.895 351.435 390.434 354.126 395.541 354.608C399.341 354.965 403.352 353.934 406.653 352.024C408.197 351.133 409.569 349.97 410.705 348.591C417.393 340.422 411.834 327.319 407.449 319.47C402.514 310.638 394.754 302.47 384.944 299.309C369.734 294.405 354.038 304.526 348.865 319.01C346.849 324.748 346.237 330.891 347.082 336.918C348.057 344.081 350.774 351.106 355.581 356.533L361.472 357.633Z" fill="#FE9400"/>
</g>
<path fill-rule="evenodd" clip-rule="evenodd" d="M340.76 303.779C340.76 303.779 347.902 298.459 346.236 292.859C345.81 291.389 342.585 295.533 339.679 293.739C335.71 291.272 334.753 277.056 339.236 269.659C342.018 265.074 351.8 262.324 354.99 265.447C358.18 268.57 359.437 281.881 358.339 288.399C356.602 298.796 366.012 305.05 366.012 305.05C366.012 305.05 350.382 317.647 346.448 328.103C345.297 331.173 340.76 303.779 340.76 303.779Z" fill="#FFC197"/>
<mask id="mask3_579_163" style="mask-type:luminance" maskUnits="userSpaceOnUse" x="336" y="264" width="31" height="65">
<path d="M340.76 303.779C340.76 303.779 347.902 298.459 346.236 292.859C345.81 291.389 342.585 295.533 339.679 293.739C335.71 291.272 334.753 277.056 339.236 269.659C342.018 265.074 351.8 262.324 354.99 265.447C358.18 268.57 359.437 281.881 358.339 288.399C356.602 298.796 366.012 305.05 366.012 305.05C366.012 305.05 350.382 317.647 346.448 328.103C345.297 331.173 340.76 303.779 340.76 303.779Z" fill="white"/>
</mask>
<g mask="url(#mask3_579_163)">
<path fill-rule="evenodd" clip-rule="evenodd" d="M344.373 293.625C344.94 293.316 345.401 292.686 345.826 292.215C346.803 291.161 347.703 290.036 348.52 288.851C348.821 288.379 349.122 287.898 349.459 287.432C349.53 287.315 349.725 286.972 349.902 286.972C350.079 286.972 349.973 287.561 349.955 287.637C349.837 288.461 349.647 289.273 349.388 290.064C348.413 293.301 346.411 295.724 344.267 298.242L344.373 293.625Z" fill="black" fill-opacity="0.1"/>
</g>
<path fill-rule="evenodd" clip-rule="evenodd" d="M341.416 275.666C340.087 275.586 338.846 274.804 337.819 274.004C333.867 270.939 334.134 265.605 337.57 262.243C339.644 260.224 343.896 258.877 345.881 261.718C346.519 260.808 347.848 260.422 348.858 260.185C349.678 259.966 350.53 259.891 351.375 259.964C357.151 260.747 355.805 268.058 360.199 270.396C361.635 269.466 363.212 272.505 363.495 273.431C364.47 276.653 364.045 282.158 360.359 283.443C360.039 284.308 359.225 284.917 358.498 285.416C356.496 286.803 353.271 287.795 351.038 286.362C350.769 286.187 350.525 285.977 350.311 285.737C348.717 283.951 350.4 281.915 350.932 280.059C351.215 279.081 351.446 277.857 350.595 277.088C349.904 276.485 349.213 276.827 348.663 277.41C347.831 278.297 347.37 279.694 346.041 279.944C344.127 280.301 342.266 278.448 341.664 277.149C341.54 276.874 341.416 275.666 341.416 275.666Z" fill="black"/>
<path fill-rule="evenodd" clip-rule="evenodd" d="M329.197 261.485C329.198 260.858 329.024 260.243 328.695 259.71C328.366 259.177 327.895 258.748 327.336 258.472L256.162 223.222C255.653 222.972 255.09 222.856 254.524 222.885C253.959 222.914 253.41 223.088 252.93 223.389C252.449 223.69 252.052 224.11 251.777 224.608C251.501 225.105 251.356 225.666 251.354 226.236V238.098C251.355 238.725 251.53 239.339 251.859 239.871C252.188 240.403 252.657 240.833 253.215 241.111L324.403 276.368C324.912 276.619 325.475 276.735 326.041 276.706C326.606 276.676 327.155 276.502 327.635 276.199C328.115 275.897 328.51 275.476 328.784 274.977C329.057 274.477 329.199 273.916 329.197 273.345L329.197 261.485Z" fill="#77536F"/>
<path fill-rule="evenodd" clip-rule="evenodd" d="M261.394 240.787L259.88 239.061L261.85 237.045L258.367 234.39L258.832 232.896L262.316 235.55L262.132 231.891L263.933 232.691L264.118 236.351L267.488 236.743L268.129 238.73L264.759 238.337L267.028 242.239L265.622 242.666L263.364 238.768L261.394 240.787ZM273.931 246.988L272.417 245.262L274.387 243.246L270.903 240.592L271.369 239.098L274.853 241.752L274.668 238.093L276.47 238.893L276.654 242.552L280.024 242.945L280.665 244.932L277.296 244.539L279.564 248.441L278.159 248.868L275.901 244.97L273.931 246.988ZM287.364 253.022L285.85 251.296L287.82 249.28L284.337 246.626L284.802 245.131L288.286 247.785L288.102 244.126L289.903 244.927L290.088 248.586L293.457 248.979L294.099 250.966L290.729 250.573L292.998 254.474L291.592 254.902L289.334 251.004L287.364 253.022ZM300.481 260.138L298.967 258.412L300.937 256.396L297.453 253.742L297.919 252.248L301.403 254.901L301.218 251.242L303.02 252.043L303.204 255.702L306.574 256.095L307.215 258.082L303.846 257.689L306.114 261.59L304.709 262.018L302.451 258.12L300.481 260.138ZM314.323 266.993L312.808 265.268L314.779 263.251L311.295 260.598L311.761 259.103L315.245 261.757L315.06 258.098L316.862 258.899L317.047 262.558L320.416 262.951L321.057 264.937L317.687 264.544L319.956 268.446L318.55 268.874L316.293 264.976L314.323 266.993Z" fill="#343434"/>
<path fill-rule="evenodd" clip-rule="evenodd" d="M284.451 261.303C285.558 260.038 292.209 256.989 293.955 256.744C296.739 256.332 299.36 258.169 298.395 260.835C298.011 261.861 289.587 264.217 287.27 264.301C286.321 264.331 284.009 261.805 284.451 261.303Z" fill="#FFC197"/>
<defs>
<clipPath id="clip0_579_163">
<rect width="567" height="720" fill="white"/>
</clipPath>
</defs>
</svg>
