<svg width="25" height="24" viewBox="0 0 25 24" fill="none" xmlns="http://www.w3.org/2000/svg">
<g id="ic:round-man">
<path id="Vector" d="M14.2939 7.07666H10.3553C9.27217 7.07666 8.38599 7.96284 8.38599 9.04595V13.9692C8.38599 14.5107 8.82908 14.9538 9.37063 14.9538H10.3553V20.8617C10.3553 21.4033 10.7984 21.8464 11.3399 21.8464H13.3092C13.8508 21.8464 14.2939 21.4033 14.2939 20.8617V14.9538H15.2785C15.8201 14.9538 16.2632 14.5107 16.2632 13.9692V9.04595C16.2632 7.96284 15.377 7.07666 14.2939 7.07666Z" fill="#FFDFB0"/>
<path id="Vector_2" d="M12.3245 6.09203C13.4121 6.09203 14.2938 5.21035 14.2938 4.12273C14.2938 3.03512 13.4121 2.15344 12.3245 2.15344C11.2369 2.15344 10.3552 3.03512 10.3552 4.12273C10.3552 5.21035 11.2369 6.09203 12.3245 6.09203Z" fill="#FFDFB0"/>
</g>
</svg>
