<svg width="30" height="31" viewBox="0 0 30 31" fill="none" xmlns="http://www.w3.org/2000/svg">
<path id="Vector" d="M15.3714 15.4485C19.9164 15.4485 23.6 12.1118 23.6 7.99487C23.6 3.87791 19.9164 0.54126 15.3714 0.54126C10.8264 0.54126 7.14286 3.87791 7.14286 7.99487C7.14286 12.1118 10.8264 15.4485 15.3714 15.4485ZM21.1314 17.3119H20.0579C18.6307 17.9058 17.0429 18.2436 15.3714 18.2436C13.7 18.2436 12.1186 17.9058 10.685 17.3119H9.61143C4.84144 17.3119 0.971436 20.8174 0.971436 25.1382V27.5606C0.971436 29.1037 2.35358 30.3557 4.05715 30.3557H26.6857C28.3893 30.3557 29.7714 29.1037 29.7714 27.5606V25.1382C29.7714 20.8174 25.9014 17.3119 21.1314 17.3119Z" fill="#FF9800"/>
</svg>
